<svg xmlns="http://www.w3.org/2000/svg" width="24" height="24" viewBox="0 0 24 24">
  <g id="Access_Management_Outline" data-name="Access Management Outline" transform="translate(-333 -306)">
    <g id="Base" transform="translate(333 306)" fill="#fe7b43" stroke="#707070" stroke-width="1" opacity="0">
      <rect width="24" height="24" stroke="none"/>
      <rect x="0.5" y="0.5" width="23" height="23" fill="none"/>
    </g>
    <g id="Access_Management_Outline-2" data-name="Access Management Outline" transform="translate(335.609 309)">
      <path id="Path_3118" data-name="Path 3118" d="M89.245,7.826a3.913,3.913,0,1,1,3.913-3.913A3.917,3.917,0,0,1,89.245,7.826Zm0-6.652a2.739,2.739,0,1,0,2.739,2.739,2.742,2.742,0,0,0-2.739-2.739Zm0,0" transform="translate(-82.202)" fill="#fe7b43"/>
      <path id="Path_3119" data-name="Path 3119" d="M325.674,346.81h-4.3a1.371,1.371,0,0,1-1.37-1.37V342.7a1.371,1.371,0,0,1,1.37-1.37h4.3a1.371,1.371,0,0,1,1.37,1.37v2.739A1.371,1.371,0,0,1,325.674,346.81Zm-4.3-4.3a.2.2,0,0,0-.2.2v2.739a.2.2,0,0,0,.2.2h4.3a.2.2,0,0,0,.2-.2V342.7a.2.2,0,0,0-.2-.2Zm0,0" transform="translate(-308.261 -328.81)" fill="#fe7b43"/>
      <path id="Path_3120" data-name="Path 3120" d="M365.994,260.3h-2.739a.587.587,0,0,1-.587-.587v-1.761a1.956,1.956,0,0,1,3.913,0v1.761A.587.587,0,0,1,365.994,260.3Zm-2.152-1.174h1.565v-1.174a.783.783,0,0,0-1.565,0Zm0,0" transform="translate(-349.364 -246.609)" fill="#fe7b43"/>
      <path id="Path_3121" data-name="Path 3121" d="M9.783,263.043H.587A.587.587,0,0,1,0,262.457v-2.739A3.722,3.722,0,0,1,3.717,256h6.848a3.707,3.707,0,0,1,1.862.5.587.587,0,1,1-.591,1.014,2.536,2.536,0,0,0-1.271-.341H3.717a2.546,2.546,0,0,0-2.543,2.543v2.152H9.783a.587.587,0,0,1,0,1.174Zm0,0" transform="translate(0 -246.609)" fill="#fe7b43"/>
    </g>
  </g>
</svg>
