<svg xmlns="http://www.w3.org/2000/svg" width="24" height="24" viewBox="0 0 24 24"><defs><style>.a,.b{fill:rgba(255,255,255,0.5);}.a{opacity:0;}</style></defs><g transform="translate(-79 -228)"><rect class="a" width="24" height="24" transform="translate(79 228)"/><g transform="translate(82 230.822)"><path class="b" d="M9.846,1.456,1.541.195A1.339,1.339,0,0,0,.468.489,1.351,1.351,0,0,0,0,1.5V17.422a.758.758,0,0,0,.756.756H3.211V14.211a1.319,1.319,0,0,1,1.322-1.322H6.423a1.319,1.319,0,0,1,1.322,1.322v3.967h3.211V2.764A1.323,1.323,0,0,0,9.846,1.456Zm-5.69,9.732H3.022a.567.567,0,0,1,0-1.133H4.156a.567.567,0,1,1,0,1.133Zm0-2.267H3.022a.567.567,0,1,1,0-1.133H4.156a.567.567,0,1,1,0,1.133Zm0-2.267H3.022a.567.567,0,1,1,0-1.133H4.156a.567.567,0,1,1,0,1.133Zm0-2.267H3.022a.567.567,0,1,1,0-1.133H4.156a.567.567,0,1,1,0,1.133Zm3.778,6.8H6.8a.567.567,0,0,1,0-1.133H7.934a.567.567,0,0,1,0,1.133Zm0-2.267H6.8a.567.567,0,0,1,0-1.133H7.934a.567.567,0,0,1,0,1.133Zm0-2.267H6.8a.567.567,0,0,1,0-1.133H7.934a.567.567,0,0,1,0,1.133Zm0-2.267H6.8a.567.567,0,1,1,0-1.133H7.934a.567.567,0,1,1,0,1.133Z"/><path class="b" d="M20.88,10.478,15.5,9.351V20.42h5.1A1.324,1.324,0,0,0,21.923,19.1V11.77A1.316,1.316,0,0,0,20.88,10.478Zm-1.791,7.675H17.956a.567.567,0,1,1,0-1.133h1.133a.567.567,0,1,1,0,1.133Zm0-2.267H17.956a.567.567,0,1,1,0-1.133h1.133a.567.567,0,1,1,0,1.133Zm0-2.267H17.956a.567.567,0,1,1,0-1.133h1.133a.567.567,0,1,1,0,1.133Z" transform="translate(-3.788 -2.242)"/></g></g></svg>