<svg xmlns="http://www.w3.org/2000/svg" xmlns:xlink="http://www.w3.org/1999/xlink" width="375" height="460" viewBox="0 0 375 460">
  <defs>
    <radialGradient id="radial-gradient" cx="0.469" cy="0.157" r="1.007" gradientUnits="objectBoundingBox">
      <stop offset="0" stop-color="#1a3855"/>
      <stop offset="0.174" stop-color="#17324c"/>
      <stop offset="1" stop-color="#0e1e2e"/>
      <stop offset="1" stop-color="#050b11"/>
    </radialGradient>
    <linearGradient id="linear-gradient" x1="0.596" y1="0.5" x2="0.412" y2="0.474" gradientUnits="objectBoundingBox">
      <stop offset="0" stop-color="#0090f0"/>
      <stop offset="0" stop-color="#006ab1"/>
      <stop offset="1" stop-color="#004878"/>
    </linearGradient>
    <linearGradient id="linear-gradient-2" x1="0.596" x2="0.412" y2="0.526" xlink:href="#linear-gradient"/>
  </defs>
  <g id="Help_Center_Mobile_Cover" data-name="Help Center Mobile Cover" transform="translate(-910 -5337)">
    <rect id="Base" width="375" height="460" transform="translate(910 5337)" fill="url(#radial-gradient)"/>
    <g id="Back_Icons" data-name="Back Icons" transform="translate(555.296 5255.145)">
      <g id="Icons" transform="translate(472.086 303.899)" opacity="0.169">
        <path id="Path_4890" data-name="Path 4890" d="M301.217,50.411l-.049-.047-.049-.047-.049-.047h-.1a.047.047,0,0,1-.049-.047c-.049,0-.049,0-.1-.047-.049,0-.049,0-.1-.047h-.782c-.049,0-.049,0-.1.047-.049,0-.049,0-.1.047a.047.047,0,0,0-.049.047h-.1l-.049.047-.049.047-.049.047-.049.047h0L279.9,39.565h0v-.758c0-.047,0-.047-.049-.095,0-.047,0-.047-.049-.095a.047.047,0,0,0-.049-.047v-.095l-.049-.047-.049-.047-.049-.047-.049-.047-.049-.047-.049-.047-.049-.047h-.1a.047.047,0,0,1-.049-.047c-.049,0-.049,0-.1-.047-.049,0-.049,0-.1-.047h-.049V16.308h.049c.049,0,.049,0,.1-.047.049,0,.049,0,.1-.047a.047.047,0,0,0,.049-.047h.1l.049-.047.049-.047.049-.047.049-.047.049-.047.049-.047.049-.047v-.095a.047.047,0,0,1,.049-.047c0-.047,0-.047.049-.095,0-.047,0-.047.049-.095v-.758h0L299.408,3.85a1.3,1.3,0,0,0,1.467.237,1.1,1.1,0,0,0,.44-1.563A1.17,1.17,0,0,0,299.7,2.1a1.157,1.157,0,0,0-.538,1.326L279.656,14.318h0l-.049-.047-.049-.047-.049-.047-.049-.047h-.1a.047.047,0,0,1-.049-.047c-.049,0-.049,0-.1-.047-.049,0-.049,0-.1-.047h-.782c-.049,0-.049,0-.1.047-.049,0-.049,0-.1.047a.047.047,0,0,0-.049.047h-.1l-.049.047-.049.047-.049.047-.049.047h0L258.291,3.424h0V2.666c0-.047,0-.047-.049-.095,0-.047,0-.047-.049-.095a.047.047,0,0,0-.049-.047V2.335l-.049-.047-.049-.047L258,2.193l-.049-.047L257.9,2.1l-.049-.047L257.8,2h-.1a.047.047,0,0,1-.049-.047c-.049,0-.049,0-.1-.047-.049,0-.049,0-.1-.047h-.049V-19.785h.049c.049,0,.049,0,.1-.047.049,0,.049,0,.1-.047a.047.047,0,0,0,.049-.047h.1l.049-.047.049-.047.049-.047.049-.047.049-.047.049-.047.049-.047v-.095a.047.047,0,0,1,.049-.047c0-.047,0-.047.049-.095,0-.047,0-.047.049-.095v-.758h0L277.8-32.243h0l.049.047.049.047.049.047.049.047h.1a.047.047,0,0,1,.049.047c.049,0,.049,0,.1.047.049,0,.049,0,.1.047h.782c.049,0,.049,0,.1-.047.049,0,.049,0,.1-.047a.047.047,0,0,0,.049-.047h.1l.049-.047.049-.047.049-.047.049-.047h0l19.507,10.894a1.134,1.134,0,0,0,.538,1.326,1.17,1.17,0,0,0,1.613-.426,1.1,1.1,0,0,0-.44-1.563,1.161,1.161,0,0,0-1.467.237L279.9-32.669h0v-.758c0-.047,0-.047-.049-.095,0-.047,0-.047-.049-.095a.047.047,0,0,0-.049-.047v-.095l-.049-.047-.049-.047-.049-.047-.049-.047L279.51-34l-.049-.047-.049-.047h-.1a.047.047,0,0,1-.049-.047.154.154,0,0,1-.1-.047c-.049,0-.049,0-.1-.047h-.782c-.049,0-.049,0-.1.047-.049,0-.049,0-.1.047a.047.047,0,0,0-.049.047h-.1l-.049.047-.049.047-.049.047-.049.047-.049.047-.049.047-.049.047v.095a.047.047,0,0,1-.049.047c0,.047,0,.047-.049.095,0,.047,0,.047-.049.095v.758h0L257.949-21.775h0l-.049-.047-.049-.047-.049-.047-.049-.047h-.1a.047.047,0,0,1-.049-.047c-.049,0-.049,0-.1-.047-.049,0-.049,0-.1-.047h-.782c-.049,0-.049,0-.1.047-.049,0-.049,0-.1.047a.047.047,0,0,0-.049.047h-.1l-.049.047-.049.047-.049.047-.049.047h0L236.583-32.669h0v-.758c0-.047,0-.047-.049-.095,0-.047,0-.047-.049-.095a.047.047,0,0,0-.049-.047v-.095l-.049-.047-.049-.047-.049-.047-.049-.047L236.192-34l-.049-.047-.049-.047H236a.047.047,0,0,1-.049-.047c-.049,0-.049,0-.1-.047-.049,0-.049,0-.1-.047H235.7V-42h-.538v7.768h-.049c-.049,0-.049,0-.1.047-.049,0-.049,0-.1.047a.047.047,0,0,0-.049.047h-.1l-.049.047-.049.047-.049.047-.049.047-.049.047-.049.047-.049.047v.095a.047.047,0,0,1-.049.047c0,.047,0,.047-.049.095,0,.047,0,.047-.049.095v.758h0L214.778-21.775h0l-.049-.047-.049-.047-.049-.047-.049-.047h-.1a.047.047,0,0,1-.049-.047c-.049,0-.049,0-.1-.047-.049,0-.049,0-.1-.047h-.782c-.049,0-.049,0-.1.047-.049,0-.049,0-.1.047a.047.047,0,0,0-.049.047h-.1l-.049.047-.049.047-.049.047-.049.047h0L193.413-32.669h0v-.758c0-.047,0-.047-.049-.095,0-.047,0-.047-.049-.095a.047.047,0,0,0-.049-.047v-.095l-.049-.047-.049-.047-.049-.047-.049-.047L193.022-34l-.049-.047-.049-.047h-.1a.047.047,0,0,1-.049-.047.154.154,0,0,1-.1-.047c-.049,0-.049,0-.1-.047h-.049V-42h-.538v7.768h-.049c-.049,0-.049,0-.1.047-.049,0-.049,0-.1.047a.047.047,0,0,0-.049.047h-.1l-.049.047-.049.047-.049.047-.049.047-.049.047-.049.047-.049.047v.095a.047.047,0,0,1-.049.047c0,.047,0,.047-.049.095,0,.047,0,.047-.049.095v.758h0L171.607-21.775h0l-.049-.047-.049-.047-.049-.047-.049-.047h-.1a.047.047,0,0,1-.049-.047c-.049,0-.049,0-.1-.047-.049,0-.049,0-.1-.047h-.782c-.049,0-.049,0-.1.047-.049,0-.049,0-.1.047a.047.047,0,0,0-.049.047h-.1l-.049.047-.049.047-.049.047-.049.047h0L150.242-32.669A1.134,1.134,0,0,0,149.7-34a1.17,1.17,0,0,0-1.613.426,1.1,1.1,0,0,0,.44,1.563A1.161,1.161,0,0,0,150-32.243L169.5-21.348h0v.758c0,.047,0,.047.049.095,0,.047,0,.047.049.095a.047.047,0,0,0,.049.047v.095l.049.047.049.047.049.047.049.047.049.047.049.047.049.047h.1a.047.047,0,0,1,.049.047.154.154,0,0,1,.1.047c.049,0,.049,0,.1.047h.049V2.051h0c-.049,0-.049,0-.1.047-.049,0-.049,0-.1.047-.049,0-.049.047-.1.047s-.049.047-.1.047-.049.047-.1.095l-.1.095c-.049.047-.049.047-.049.095l-.1.095v.047a.047.047,0,0,1-.049.047.164.164,0,0,1-.049.095c0,.047,0,.047-.049.095,0,.047,0,.095-.049.095v.474c0,.047,0,.047.049.095a.164.164,0,0,0,.049.095c0,.047.049.047.049.095s.049.047.049.095.049.047.1.095l.1.095c.049.047.049.047.1.047l.1.095h.049a.047.047,0,0,1,.049.047.172.172,0,0,1,.1.047c.049,0,.049,0,.1.047.049,0,.1,0,.1.047h.489c.049,0,.049,0,.1-.047a.172.172,0,0,0,.1-.047c.049,0,.049-.047.1-.047s.049-.047.1-.047.049-.047.1-.047l.1-.095h0l19.507,10.894h0v.758c0,.047,0,.047.049.095,0,.047,0,.047.049.095a.047.047,0,0,0,.049.047v.095l.049.047.049.047.049.047.049.047.049.047.049.047.049.047h.1a.047.047,0,0,1,.049.047c.049,0,.049,0,.1.047.049,0,.049,0,.1.047h.049V38.333h-.049c-.049,0-.049,0-.1.047-.049,0-.049,0-.1.047a.047.047,0,0,0-.049.047h-.1l-.049.047-.049.047-.049.047-.049.047-.049.047-.049.047-.049.047V38.9a.047.047,0,0,1-.049.047c0,.047,0,.047-.049.095,0,.047,0,.047-.049.095V39.9h0L171.509,50.79h0l-.049-.047-.049-.047-.049-.047-.049-.047h-.1a.047.047,0,0,1-.049-.047c-.049,0-.049,0-.1-.047-.049,0-.049,0-.1-.047h-.782c-.049,0-.049,0-.1.047-.049,0-.049,0-.1.047a.047.047,0,0,0-.049.047h-.1l-.049.047-.049.047-.049.047-.049.047h0L150.144,39.9a1.134,1.134,0,0,0-.538-1.326,1.17,1.17,0,0,0-1.613.426,1.1,1.1,0,0,0,.44,1.563,1.161,1.161,0,0,0,1.467-.237l19.507,10.894h0v.758c0,.047,0,.047.049.095,0,.047,0,.047.049.095a.047.047,0,0,0,.049.047v.095l.049.047.049.047.049.047.049.047.049.047.049.047.049.047h.1a.047.047,0,0,1,.049.047c.049,0,.049,0,.1.047.049,0,.049,0,.1.047h.049V74.616h-.049c-.049,0-.049,0-.1.047-.049,0-.049,0-.1.047a.047.047,0,0,0-.049.047h-.1l-.049.047-.049.047-.049.047-.049.047-.049.047-.049.047-.049.047v.095a.047.047,0,0,1-.049.047c0,.047,0,.047-.049.095,0,.047,0,.047-.049.095v.758h0L149.9,87.073h0l-.049-.047-.049-.047-.049-.047-.049-.047h-.1a.047.047,0,0,1-.049-.047c-.049,0-.049,0-.1-.047-.049,0-.049,0-.1-.047h-.782c-.049,0-.049,0-.1.047-.049,0-.049,0-.1.047a.047.047,0,0,0-.049.047h-.1l-.049.047-.049.047-.049.047-.049.047h0L128.534,76.179A1.134,1.134,0,0,0,128,74.852a1.17,1.17,0,0,0-1.613.426,1.1,1.1,0,0,0,.44,1.563,1.161,1.161,0,0,0,1.467-.237L147.8,87.5h0v.758c0,.047,0,.047.049.095,0,.047,0,.047.049.095a.047.047,0,0,0,.049.047v.095l.049.047.049.047.049.047.049.047.049.047.049.047.049.047h.1a.047.047,0,0,1,.049.047c.049,0,.049,0,.1.047.049,0,.049,0,.1.047h.049V110.9h-.049c-.049,0-.049,0-.1.047-.049,0-.049,0-.1.047a.047.047,0,0,0-.049.047h-.1l-.049.047-.049.047-.049.047-.049.047-.049.047-.049.047-.049.047v.095a.047.047,0,0,1-.049.047c0,.047,0,.047-.049.095,0,.047,0,.047-.049.095v.758h0L128.29,123.355h0l-.049-.047-.049-.047-.049-.047-.049-.047H128a.047.047,0,0,1-.049-.047c-.049,0-.049,0-.1-.047-.049,0-.049,0-.1-.047h-.733c-.049,0-.049,0-.1.047-.049,0-.049,0-.1.047a.047.047,0,0,0-.049.047h-.1l-.049.047-.049.047-.049.047-.049.047h0l-19.507-10.894a1.134,1.134,0,0,0-.538-1.326,1.17,1.17,0,0,0-1.613.426,1.1,1.1,0,0,0,.44,1.563,1.161,1.161,0,0,0,1.467-.237l19.507,10.894h0v.711c0,.047,0,.047.049.095,0,.047,0,.047.049.095a.047.047,0,0,0,.049.047v.095l.049.047.049.047.049.047.049.047.049.047.049.047.049.047h.1a.047.047,0,0,1,.049.047c.049,0,.049,0,.1.047.049,0,.049,0,.1.047h.049v11.746h.538v-12.5h.049c.049,0,.049,0,.1-.047.049,0,.049,0,.1-.047a.047.047,0,0,0,.049-.047h.1l.049-.047.049-.047.049-.047.049-.047.049-.047.049-.047.049-.047v-.095a.047.047,0,0,1,.049-.047c0-.047,0-.047.049-.095,0-.047,0-.047.049-.095v-.758h0l19.507-10.894h0l.049.047.049.047.049.047.049.047h.1a.047.047,0,0,1,.049.047c.049,0,.049,0,.1.047.049,0,.049,0,.1.047h.782c.049,0,.049,0,.1-.047.049,0,.049,0,.1-.047a.047.047,0,0,0,.049-.047h.1l.049-.047.049-.047.049-.047.049-.047h0l19.507,10.894h0v.758c0,.047,0,.047.049.095,0,.047,0,.047.049.095a.047.047,0,0,0,.049.047v.095l.049.047.049.047.049.047.049.047.049.047.049.047.049.047h.1a.047.047,0,0,1,.049.047c.049,0,.049,0,.1.047.049,0,.049,0,.1.047h.049v12.5h.538v-12.5h.049c.049,0,.049,0,.1-.047.049,0,.049,0,.1-.047a.047.047,0,0,0,.049-.047h.1l.049-.047.049-.047.049-.047.049-.047.049-.047.049-.047.049-.047v-.095a.047.047,0,0,1,.049-.047c0-.047,0-.047.049-.095,0-.047,0-.047.049-.095v-.758h0l19.507-10.894h0l.049.047.049.047.049.047.049.047h.1a.047.047,0,0,1,.049.047c.049,0,.049,0,.1.047.049,0,.049,0,.1.047h.782c.049,0,.049,0,.1-.047.049,0,.049,0,.1-.047a.047.047,0,0,0,.049-.047h.1l.049-.047.049-.047.049-.047.049-.047h0l19.507,10.894h0v.758c0,.047,0,.047.049.095,0,.047,0,.047.049.095a.047.047,0,0,0,.049.047v.095l.049.047.049.047.049.047.049.047.049.047.049.047.049.047h.1a.047.047,0,0,1,.049.047c.049,0,.049,0,.1.047.049,0,.049,0,.1.047h.049v12.5H214v-12.5h.049c.049,0,.049,0,.1-.047.049,0,.049,0,.1-.047a.047.047,0,0,0,.049-.047h.1l.049-.047.049-.047.049-.047.049-.047.049-.047.049-.047.049-.047v-.095a.047.047,0,0,1,.049-.047c0-.047,0-.047.049-.095,0-.047,0-.047.049-.095v-.758h0l19.507-10.894h0l.049.047.049.047.049.047.049.047h.1a.047.047,0,0,1,.049.047c.049,0,.049,0,.1.047.049,0,.049,0,.1.047h.782c.049,0,.049,0,.1-.047.049,0,.049,0,.1-.047a.047.047,0,0,0,.049-.047h.1l.049-.047.049-.047.049-.047.049-.047h0l19.507,10.894h0v.758c0,.047,0,.047.049.095,0,.047,0,.047.049.095a.047.047,0,0,0,.049.047v.095l.049.047.049.047.049.047.049.047.049.047.049.047.049.047h.1a.047.047,0,0,1,.049.047c.049,0,.049,0,.1.047.049,0,.049,0,.1.047h.049v12.5h.538v-12.5h.049c.049,0,.049,0,.1-.047.049,0,.049,0,.1-.047a.047.047,0,0,0,.049-.047h.1l.049-.047.049-.047.049-.047.049-.047.049-.047.049-.047.049-.047v-.095a.047.047,0,0,1,.049-.047c0-.047,0-.047.049-.095,0-.047,0-.047.049-.095v-.758h0l19.507-10.894h0l.049.047.049.047.049.047.049.047h.1a.047.047,0,0,1,.049.047c.049,0,.049,0,.1.047.049,0,.049,0,.1.047h.782c.049,0,.049,0,.1-.047.049,0,.049,0,.1-.047a.047.047,0,0,0,.049-.047h.1l.049-.047.049-.047.049-.047.049-.047h0l19.507,10.894a1.134,1.134,0,0,0,.538,1.326,1.17,1.17,0,0,0,1.613-.426,1.1,1.1,0,0,0-.44-1.563,1.161,1.161,0,0,0-1.467.237l-19.507-10.894h0V110.9c0-.047,0-.047-.049-.095,0-.047,0-.047-.049-.095a.047.047,0,0,0-.049-.047v-.095l-.049-.047-.049-.047-.049-.047-.049-.047-.049-.047-.049-.047-.049-.047h-.1a.047.047,0,0,1-.049-.047c-.049,0-.049,0-.1-.047-.049,0-.049,0-.1-.047h-.049V88.257h.049c.049,0,.049,0,.1-.047.049,0,.049,0,.1-.047a.047.047,0,0,0,.049-.047h.1l.049-.047.049-.047.049-.047.049-.047.049-.047.049-.047.049-.047v-.095a.047.047,0,0,1,.049-.047c0-.047,0-.047.049-.095,0-.047,0-.047.049-.095v-.758h0L299.164,75.8h0l.1.095c.049.047.049.047.1.047s.049.047.1.047.049.047.1.047.049.047.1.047.049.047.1.047h.489c.049,0,.1,0,.1-.047.049,0,.049,0,.1-.047a.172.172,0,0,0,.1-.047.047.047,0,0,0,.049-.047h.049c.049,0,.049-.047.1-.095.049,0,.049-.047.1-.047l.1-.095c.049-.047.049-.047.049-.095s.049-.047.049-.095.049-.047.049-.095.049-.047.049-.095.049-.047.049-.095v-.474c0-.047,0-.095-.049-.095,0-.047,0-.047-.049-.095a.164.164,0,0,0-.049-.095.047.047,0,0,0-.049-.047v-.047c0-.047-.049-.047-.1-.095,0-.047-.049-.047-.049-.095l-.1-.095-.1-.095c-.049,0-.049-.047-.1-.047s-.049-.047-.1-.047-.049-.047-.1-.047-.049-.047-.1-.047h0V51.974h.049c.049,0,.049,0,.1-.047.049,0,.049,0,.1-.047a.047.047,0,0,0,.049-.047h.1l.049-.047.049-.047.049-.047.049-.047.049-.047.049-.047.049-.047v-.095a.047.047,0,0,1,.049-.047c0-.047,0-.047.049-.095,0-.047,0-.047.049-.095v-.758h0l-1.565.616c.391.379-.049-.142.44-.379h.587ZM257.265,4.277h.538c.049,0,.049,0,.1-.047.049,0,.049,0,.1-.047a.047.047,0,0,0,.049-.047h.1l.049-.047.049-.047.049-.047.049-.047h0l19.507,10.894h0V15.6c0,.047,0,.047.049.095,0,.047,0,.047.049.095a.047.047,0,0,0,.049.047v.095l.049.047.049.047.049.047.049.047.049.047.049.047.049.047h.1a.047.047,0,0,1,.049.047c.049,0,.049,0,.1.047.049,0,.049,0,.1.047h.049V38.238h-.049c-.049,0-.049,0-.1.047-.049,0-.049,0-.1.047a.047.047,0,0,0-.049.047h-.1l-.049.047-.049.047-.049.047-.049.047-.049.047-.049.047-.049.047v.095a.047.047,0,0,1-.049.047c0,.047,0,.047-.049.095,0,.047,0,.047-.049.095V39.8h0L258.34,50.7h0l-.049-.047-.049-.047-.049-.047-.049-.047h-.1a.047.047,0,0,1-.049-.047c-.049,0-.049,0-.1-.047-.049,0-.049,0-.1-.047h-.782c-.049,0-.049,0-.1.047-.049,0-.049,0-.1.047a.047.047,0,0,0-.049.047h-.1l-.049.047-.049.047-.049.047-.049.047h0L236.975,39.8h0v-.758c0-.047,0-.047-.049-.095,0-.047,0-.047-.049-.095a.047.047,0,0,0-.049-.047v-.095l-.049-.047-.049-.047-.049-.047-.049-.047-.049-.047-.049-.047-.049-.047h-.1a.047.047,0,0,1-.049-.047c-.049,0-.049,0-.1-.047-.049,0-.049,0-.1-.047h-.049V16.308h.049c.049,0,.049,0,.1-.047.049,0,.049,0,.1-.047a.047.047,0,0,0,.049-.047h.1l.049-.047.049-.047.049-.047.049-.047.049-.047.049-.047.049-.047v-.095a.047.047,0,0,1,.049-.047c0-.047,0-.047.049-.095,0-.047,0-.047.049-.095v-.758h0L256.482,3.85h0l.049.047.049.047.049.047.049.047h.1a.047.047,0,0,1,.049.047c.049,0,.049,0,.1.047.049,0,.049,0,.1.047h.147C257.216,4.277,257.265,4.277,257.265,4.277ZM214.632-19.785h.1c.049,0,.049,0,.1-.047.049,0,.049,0,.1-.047a.047.047,0,0,0,.049-.047h.1l.049-.047.049-.047.049-.047.049-.047.049-.047.049-.047.049-.047v-.095a.047.047,0,0,1,.049-.047c0-.047,0-.047.049-.095,0-.047,0-.047.049-.095v-.758h0l19.507-10.894h0l.049.047.049.047.049.047.049.047h.1a.047.047,0,0,1,.049.047c.049,0,.049,0,.1.047.049,0,.049,0,.1.047h.782c.049,0,.049,0,.1-.047.049,0,.049,0,.1-.047a.047.047,0,0,0,.049-.047h.1l.049-.047.049-.047.049-.047.049-.047h0l19.507,10.894h0v.758c0,.047,0,.047.049.095,0,.047,0,.047.049.095a.047.047,0,0,0,.049.047v.095l.049.047.049.047.049.047.049.047.049.047.049.047.049.047h.1a.047.047,0,0,1,.049.047.154.154,0,0,1,.1.047c.049,0,.049,0,.1.047h.049V2.051h-.049c-.049,0-.049,0-.1.047-.049,0-.049,0-.1.047a.047.047,0,0,0-.049.047h-.1l-.049.047-.049.047-.049.047-.049.047-.049.047-.049.047-.049.047v.095a.047.047,0,0,1-.049.047c0,.047,0,.047-.049.095,0,.047,0,.047-.049.095v.758h0L236.926,14.508h0l-.049-.047-.049-.047-.049-.047-.049-.047h-.1a.047.047,0,0,1-.049-.047c-.049,0-.049,0-.1-.047-.049,0-.049,0-.1-.047h-.782c-.049,0-.049,0-.1.047-.049,0-.049,0-.1.047a.047.047,0,0,0-.049.047h-.1l-.049.047-.049.047-.049.047-.049.047h0L215.561,3.614h0V2.856c0-.047,0-.047-.049-.095,0-.047,0-.047-.049-.095a.047.047,0,0,0-.049-.047V2.524l-.049-.047-.049-.047-.049-.047-.049-.047-.049-.047-.049-.047-.049-.047h-.1a.047.047,0,0,1-.049-.047c-.049,0-.049,0-.1-.047-.049,0-.049,0-.1-.047h-.049V-19.785ZM214.29,4.277h.538c.049,0,.049,0,.1-.047.049,0,.049,0,.1-.047a.047.047,0,0,0,.049-.047h.1l.049-.047.049-.047.049-.047.049-.047h0l19.507,10.894h0V15.6c0,.047,0,.047.049.095,0,.047,0,.047.049.095a.047.047,0,0,0,.049.047v.095l.049.047.049.047.049.047.049.047.049.047.049.047.049.047h.1a.047.047,0,0,1,.049.047c.049,0,.049,0,.1.047.049,0,.049,0,.1.047h.049V38.238H235.7c-.049,0-.049,0-.1.047-.049,0-.049,0-.1.047a.047.047,0,0,0-.049.047h-.1l-.049.047-.049.047-.049.047-.049.047-.049.047-.049.047-.049.047v.095a.047.047,0,0,1-.049.047c0,.047,0,.047-.049.095,0,.047,0,.047-.049.095V39.8h0L215.365,50.7h0l-.049-.047-.049-.047-.049-.047-.049-.047h-.1a.047.047,0,0,1-.049-.047c-.049,0-.049,0-.1-.047-.049,0-.049,0-.1-.047h-.782c-.049,0-.049,0-.1.047-.049,0-.049,0-.1.047a.047.047,0,0,0-.049.047h-.1l-.049.047-.049.047-.049.047-.049.047h0L194,39.8h0v-.758c0-.047,0-.047-.049-.095,0-.047,0-.047-.049-.095a.047.047,0,0,0-.049-.047v-.095l-.049-.047-.049-.047-.049-.047-.049-.047-.049-.047-.049-.047-.049-.047h-.1a.047.047,0,0,1-.049-.047c-.049,0-.049,0-.1-.047-.049,0-.049,0-.1-.047h-.049V16.308h.049c.049,0,.049,0,.1-.047.049,0,.049,0,.1-.047a.047.047,0,0,0,.049-.047h.1l.049-.047.049-.047.049-.047.049-.047.049-.047.049-.047.049-.047v-.095a.047.047,0,0,1,.049-.047c0-.047,0-.047.049-.095,0-.047,0-.047.049-.095v-.758h0L213.507,3.85h0l.049.047.049.047.049.047.049.047h.1a.047.047,0,0,1,.049.047c.049,0,.049,0,.1.047.049,0,.049,0,.1.047h.147C214.241,4.277,214.241,4.277,214.29,4.277Zm-21.659,9.8h-.049c-.049,0-.049,0-.1.047-.049,0-.049,0-.1.047a.047.047,0,0,0-.049.047h-.1l-.049.047-.049.047-.049.047-.049.047h0L172.537,3.519V3.471c0-.047,0-.095.049-.095V2.9c0-.047,0-.047-.049-.095a.164.164,0,0,0-.049-.095c0-.047-.049-.047-.049-.095s-.049-.047-.049-.095-.049-.047-.049-.095l-.1-.095c-.049-.047-.049-.047-.1-.047l-.1-.095H172a.047.047,0,0,1-.049-.047.172.172,0,0,1-.1-.047c-.049,0-.049,0-.1-.047h-.049V-19.785h.049c.049,0,.049,0,.1-.047.049,0,.049,0,.1-.047a.047.047,0,0,0,.049-.047h.1l.049-.047.049-.047.049-.047.049-.047.049-.047.049-.047.049-.047v-.095a.047.047,0,0,1,.049-.047c0-.047,0-.047.049-.095,0-.047,0-.047.049-.095v-.758h0l19.507-10.894h0l.049.047.049.047.049.047.049.047h.1a.047.047,0,0,1,.049.047c.049,0,.049,0,.1.047.049,0,.049,0,.1.047h.782c.049,0,.049,0,.1-.047.049,0,.049,0,.1-.047a.047.047,0,0,0,.049-.047h.1l.049-.047.049-.047.049-.047.049-.047h0l19.507,10.894h0v.758c0,.047,0,.047.049.095,0,.047,0,.047.049.095a.047.047,0,0,0,.049.047v.095l.049.047.049.047.049.047.049.047.049.047.049.047.049.047h.1a.047.047,0,0,1,.049.047.154.154,0,0,1,.1.047c.049,0,.049,0,.1.047h.049V2.051h-.049c-.049,0-.049,0-.1.047-.049,0-.049,0-.1.047a.047.047,0,0,0-.049.047h-.1l-.049.047-.049.047-.049.047-.049.047-.049.047-.049.047-.049.047v.095a.047.047,0,0,1-.049.047c0,.047,0,.047-.049.095,0,.047,0,.047-.049.095v.758h0L193.951,14.508h0l-.049-.047-.049-.047-.049-.047-.049-.047h-.1a.047.047,0,0,1-.049-.047c-.049,0-.049,0-.1-.047-.049,0-.049,0-.1-.047h-.636C192.68,14.082,192.631,14.082,192.631,14.082Zm0,96.2h-.1c-.049,0-.049,0-.1.047-.049,0-.049,0-.1.047a.047.047,0,0,0-.049.047h-.1l-.049.047-.049.047-.049.047-.049.047-.049.047-.049.047-.049.047v.095a.047.047,0,0,1-.049.047c0,.047,0,.047-.049.095,0,.047,0,.047-.049.095v.758h0L172.195,122.74h0l-.049-.047-.049-.047-.049-.047L172,122.55h-.1a.047.047,0,0,1-.049-.047c-.049,0-.049,0-.1-.047-.049,0-.049,0-.1-.047h-.733c-.049,0-.049,0-.1.047-.049,0-.049,0-.1.047a.047.047,0,0,0-.049.047h-.1l-.049.047-.049.047-.049.047-.049.047h0l-19.507-10.894h0v-.758c0-.047,0-.047-.049-.095,0-.047,0-.047-.049-.095a.047.047,0,0,0-.049-.047v-.095l-.049-.047-.049-.047-.049-.047-.049-.047-.049-.047-.049-.047-.049-.047h-.1a.047.047,0,0,1-.049-.047c-.049,0-.049,0-.1-.047-.049,0-.049,0-.1-.047H150V88.446h.049c.049,0,.049,0,.1-.047.049,0,.049,0,.1-.047a.047.047,0,0,0,.049-.047h.1l.049-.047.049-.047.049-.047.049-.047.049-.047.049-.047.049-.047v-.095a.047.047,0,0,1,.049-.047c0-.047,0-.047.049-.095,0-.047,0-.047.049-.095v-.758h0l19.507-10.894h0l.049.047.049.047.049.047.049.047h.1a.047.047,0,0,1,.049.047c.049,0,.049,0,.1.047.049,0,.049,0,.1.047h.782c.049,0,.049,0,.1-.047.049,0,.049,0,.1-.047a.047.047,0,0,0,.049-.047h.1l.049-.047.049-.047.049-.047.049-.047h0l19.507,10.894h0v.758c0,.047,0,.047.049.095,0,.047,0,.047.049.095a.047.047,0,0,0,.049.047v.095l.049.047.049.047.049.047.049.047.049.047.049.047.049.047h.1a.047.047,0,0,1,.049.047c.049,0,.049,0,.1.047.049,0,.049,0,.1.047h.049v21.836Zm.44-24.062h-.636c-.049,0-.049,0-.1.047-.049,0-.049,0-.1.047a.047.047,0,0,0-.049.047h-.1l-.049.047-.049.047-.049.047-.049.047h0L172.39,75.658h0V74.9c0-.047,0-.047-.049-.095,0-.047,0-.047-.049-.095a.047.047,0,0,0-.049-.047v-.095l-.049-.047-.049-.047-.049-.047-.049-.047L172,74.331l-.049-.047-.049-.047h-.1a.047.047,0,0,1-.049-.047c-.049,0-.049,0-.1-.047-.049,0-.049,0-.1-.047h-.049V52.259h.049c.049,0,.049,0,.1-.047.049,0,.049,0,.1-.047a.047.047,0,0,0,.049-.047h.1l.049-.047.049-.047.049-.047.049-.047.049-.047.049-.047.049-.047V51.69a.047.047,0,0,1,.049-.047c0-.047,0-.047.049-.095,0-.047,0-.047.049-.095V50.7h0L191.9,39.8h0l.049.047L192,39.9l.049.047.049.047h.1a.047.047,0,0,1,.049.047c.049,0,.049,0,.1.047.049,0,.049,0,.1.047h.782c.049,0,.049,0,.1-.047.049,0,.049,0,.1-.047a.047.047,0,0,0,.049-.047h.1l.049-.047.049-.047.049-.047.049-.047h0L213.263,50.7h0v.758c0,.047,0,.047.049.095,0,.047,0,.047.049.095a.047.047,0,0,0,.049.047v.095l.049.047.049.047.049.047.049.047.049.047.049.047.049.047h.1a.047.047,0,0,1,.049.047c.049,0,.049,0,.1.047.049,0,.049,0,.1.047h.049V74.094h-.049c-.049,0-.049,0-.1.047-.049,0-.049,0-.1.047a.047.047,0,0,0-.049.047h-.1l-.049.047-.049.047-.049.047-.049.047-.049.047-.049.047-.049.047v.095a.047.047,0,0,1-.049.047c0,.047,0,.047-.049.095,0,.047,0,.047-.049.095v.758h0L193.756,86.552h0l-.049-.047-.049-.047-.049-.047-.049-.047h-.1a.047.047,0,0,1-.049-.047c-.049,0-.049,0-.1-.047-.049,0-.049,0-.1-.047h-.147Zm42.535,24.062h-.1c-.049,0-.049,0-.1.047-.049,0-.049,0-.1.047a.047.047,0,0,0-.049.047h-.1l-.049.047-.049.047-.049.047-.049.047-.049.047-.049.047-.049.047v.095a.047.047,0,0,1-.049.047c0,.047,0,.047-.049.095,0,.047,0,.047-.049.095v.758h0L215.17,122.74h0l-.049-.047-.049-.047-.049-.047-.049-.047h-.1a.047.047,0,0,1-.049-.047c-.049,0-.049,0-.1-.047-.049,0-.049,0-.1-.047H213.9c-.049,0-.049,0-.1.047-.049,0-.049,0-.1.047a.047.047,0,0,0-.049.047h-.1l-.049.047-.049.047-.049.047-.049.047h0l-19.507-10.894h0v-.758c0-.047,0-.047-.049-.095,0-.047,0-.047-.049-.095a.047.047,0,0,0-.049-.047v-.095l-.049-.047-.049-.047-.049-.047-.049-.047-.049-.047-.049-.047-.049-.047h-.1a.047.047,0,0,1-.049-.047c-.049,0-.049,0-.1-.047-.049,0-.049,0-.1-.047h-.049V88.446h.049c.049,0,.049,0,.1-.047.049,0,.049,0,.1-.047a.047.047,0,0,0,.049-.047h.1l.049-.047.049-.047.049-.047.049-.047.049-.047.049-.047.049-.047v-.095a.047.047,0,0,1,.049-.047c0-.047,0-.047.049-.095,0-.047,0-.047.049-.095v-.758h0l19.507-10.894h0l.049.047.049.047.049.047.049.047h.1a.047.047,0,0,1,.049.047c.049,0,.049,0,.1.047.049,0,.049,0,.1.047h.782c.049,0,.049,0,.1-.047.049,0,.049,0,.1-.047a.047.047,0,0,0,.049-.047h.1l.049-.047.049-.047.049-.047.049-.047h0l19.507,10.894h0v.758c0,.047,0,.047.049.095,0,.047,0,.047.049.095a.047.047,0,0,0,.049.047v.095l.049.047.049.047.049.047.049.047.049.047.049.047.049.047h.1a.047.047,0,0,1,.049.047c.049,0,.049,0,.1.047.049,0,.049,0,.1.047h.049Zm.489-24.062h-.636c-.049,0-.049,0-.1.047-.049,0-.049,0-.1.047a.047.047,0,0,0-.049.047h-.1l-.049.047-.049.047-.049.047-.049.047h0L215.414,75.658h0V74.9c0-.047,0-.047-.049-.095,0-.047,0-.047-.049-.095a.047.047,0,0,0-.049-.047v-.095l-.049-.047-.049-.047-.049-.047-.049-.047-.049-.047-.049-.047-.049-.047h-.1a.047.047,0,0,1-.049-.047c-.049,0-.049,0-.1-.047-.049,0-.049,0-.1-.047h-.049V52.259h.049c.049,0,.049,0,.1-.047.049,0,.049,0,.1-.047a.047.047,0,0,0,.049-.047h.1l.049-.047.049-.047.049-.047.049-.047.049-.047.049-.047.049-.047V51.69a.047.047,0,0,1,.049-.047c0-.047,0-.047.049-.095,0-.047,0-.047.049-.095V50.7h0L234.921,39.8h0l.049.047.049.047.049.047.049.047h.1a.047.047,0,0,1,.049.047c.049,0,.049,0,.1.047.049,0,.049,0,.1.047h.782c.049,0,.049,0,.1-.047.049,0,.049,0,.1-.047a.047.047,0,0,0,.049-.047h.1l.049-.047.049-.047.049-.047.049-.047h0L256.287,50.7h0v.758c0,.047,0,.047.049.095,0,.047,0,.047.049.095a.047.047,0,0,0,.049.047v.095l.049.047.049.047.049.047.049.047.049.047.049.047.049.047h.1a.047.047,0,0,1,.049.047c.049,0,.049,0,.1.047.049,0,.049,0,.1.047h.049V74.094h-.049c-.049,0-.049,0-.1.047-.049,0-.049,0-.1.047a.047.047,0,0,0-.049.047h-.1l-.049.047-.049.047-.049.047-.049.047-.049.047-.049.047-.049.047v.095a.047.047,0,0,1-.049.047c0,.047,0,.047-.049.095,0,.047,0,.047-.049.095v.758h0L236.779,86.552h0l-.049-.047-.049-.047-.049-.047-.049-.047h-.1a.047.047,0,0,1-.049-.047c-.049,0-.049,0-.1-.047-.049,0-.049,0-.1-.047h-.147Zm42.535,24.062h-.1c-.049,0-.049,0-.1.047-.049,0-.049,0-.1.047a.047.047,0,0,0-.049.047h-.1l-.049.047-.049.047-.049.047-.049.047-.049.047-.049.047-.049.047v.095a.047.047,0,0,1-.049.047c0,.047,0,.047-.049.095,0,.047,0,.047-.049.095v.758h0L258.193,122.74h0l-.049-.047-.049-.047-.049-.047L258,122.55h-.1a.047.047,0,0,1-.049-.047c-.049,0-.049,0-.1-.047-.049,0-.049,0-.1-.047h-.685c-.049,0-.049,0-.1.047-.049,0-.049,0-.1.047a.047.047,0,0,0-.049.047h-.1l-.049.047-.049.047-.049.047-.049.047h0l-19.507-10.894h0v-.758c0-.047,0-.047-.049-.095,0-.047,0-.047-.049-.095a.047.047,0,0,0-.049-.047v-.095l-.049-.047-.049-.047-.049-.047-.049-.047-.049-.047-.049-.047-.049-.047h-.1a.047.047,0,0,1-.049-.047c-.049,0-.049,0-.1-.047-.049,0-.049,0-.1-.047h-.049V88.446h.049c.049,0,.049,0,.1-.047.049,0,.049,0,.1-.047a.047.047,0,0,0,.049-.047h.1l.049-.047.049-.047.049-.047.049-.047.049-.047.049-.047.049-.047v-.095a.047.047,0,0,1,.049-.047c0-.047,0-.047.049-.095,0-.047,0-.047.049-.095v-.758h0l19.507-10.894h0l.049.047.049.047.049.047.049.047h.1a.047.047,0,0,1,.049.047c.049,0,.049,0,.1.047.049,0,.049,0,.1.047h.782c.049,0,.049,0,.1-.047.049,0,.049,0,.1-.047a.047.047,0,0,0,.049-.047h.1l.049-.047.049-.047.049-.047.049-.047h0L277.8,86.883h0v.758c0,.047,0,.047.049.095,0,.047,0,.047.049.095a.047.047,0,0,0,.049.047v.095l.049.047.049.047.049.047.049.047.049.047.049.047.049.047h.1a.047.047,0,0,1,.049.047c.049,0,.049,0,.1.047.049,0,.049,0,.1.047h.049v21.836Zm21.512-36.093h0c-.1,0-.1.047-.147.047a.172.172,0,0,0-.1.047.047.047,0,0,0-.049.047H299.8c-.049,0-.049.047-.1.095-.049,0-.049.047-.1.047l-.1.095-.1.095c0,.047-.049.047-.049.095s-.049.047-.049.095-.049.047-.049.095-.049.047-.049.095v.474c0,.047,0,.095.049.095v.047L279.754,86.552h0l-.049-.047-.049-.047-.049-.047-.049-.047h-.1a.047.047,0,0,1-.049-.047c-.049,0-.049,0-.1-.047-.049,0-.049,0-.1-.047h-.782c-.049,0-.049,0-.1.047-.049,0-.049,0-.1.047a.047.047,0,0,0-.049.047h-.1l-.049.047-.049.047-.049.047-.049.047h0L258.389,75.658h0V74.9c0-.047,0-.047-.049-.095,0-.047,0-.047-.049-.095a.047.047,0,0,0-.049-.047v-.095l-.049-.047-.049-.047-.049-.047-.049-.047L258,74.331l-.049-.047-.049-.047h-.1a.047.047,0,0,1-.049-.047c-.049,0-.049,0-.1-.047-.049,0-.049,0-.1-.047h-.049V52.259h.049c.049,0,.049,0,.1-.047.049,0,.049,0,.1-.047a.047.047,0,0,0,.049-.047h.1l.049-.047.049-.047.049-.047.049-.047.049-.047.049-.047.049-.047V51.69a.047.047,0,0,1,.049-.047c0-.047,0-.047.049-.095,0-.047,0-.047.049-.095V50.7h0L277.9,39.8h0l.049.047.049.047.049.047.049.047h.1a.047.047,0,0,1,.049.047c.049,0,.049,0,.1.047.049,0,.049,0,.1.047h.782c.049,0,.049,0,.1-.047.049,0,.049,0,.1-.047a.047.047,0,0,0,.049-.047h.1l.049-.047.049-.047.049-.047.049-.047h0L299.262,50.7h0v.758c0,.047,0,.047.049.095,0,.047,0,.047.049.095a.047.047,0,0,0,.049.047v.095l.049.047.049.047.049.047.049.047.049.047.049.047.049.047h.1a.047.047,0,0,1,.049.047c.049,0,.049,0,.1.047.049,0,.049,0,.1.047h.049Z" transform="translate(-44.036 75)" fill="url(#linear-gradient)"/>
      </g>
      <g id="Icons-2" data-name="Icons" transform="translate(532.704 157.855)" opacity="0.169">
        <path id="Path_4890-2" data-name="Path 4890" d="M301.217,44.633l-.049.047-.049.047-.049.047h-.1a.047.047,0,0,0-.049.047c-.049,0-.049,0-.1.047-.049,0-.049,0-.1.047h-.782c-.049,0-.049,0-.1-.047-.049,0-.049,0-.1-.047a.047.047,0,0,1-.049-.047h-.1l-.049-.047-.049-.047-.049-.047-.049-.047h0L279.9,55.48h0v.758c0,.047,0,.047-.049.095,0,.047,0,.047-.049.095a.047.047,0,0,1-.049.047v.095l-.049.047-.049.047-.049.047-.049.047-.049.047-.049.047-.049.047h-.1a.047.047,0,0,0-.049.047c-.049,0-.049,0-.1.047-.049,0-.049,0-.1.047h-.049V78.736h.049c.049,0,.049,0,.1.047.049,0,.049,0,.1.047a.047.047,0,0,1,.049.047h.1l.049.047.049.047.049.047.049.047.049.047.049.047.049.047V79.3a.047.047,0,0,0,.049.047c0,.047,0,.047.049.095,0,.047,0,.047.049.095V80.3h0l19.507,10.894a1.3,1.3,0,0,1,1.467-.237,1.1,1.1,0,0,1,.44,1.563,1.17,1.17,0,0,1-1.613.426,1.157,1.157,0,0,1-.538-1.326L279.656,80.726h0l-.049.047-.049.047-.049.047-.049.047h-.1a.047.047,0,0,0-.049.047c-.049,0-.049,0-.1.047-.049,0-.049,0-.1.047h-.782c-.049,0-.049,0-.1-.047-.049,0-.049,0-.1-.047a.047.047,0,0,1-.049-.047h-.1l-.049-.047-.049-.047-.049-.047-.049-.047h0L258.291,91.62h0v.758c0,.047,0,.047-.049.095,0,.047,0,.047-.049.095a.047.047,0,0,1-.049.047v.095l-.049.047-.049.047-.049.047-.049.047-.049.047-.049.047-.049.047h-.1a.047.047,0,0,0-.049.047c-.049,0-.049,0-.1.047-.049,0-.049,0-.1.047h-.049v21.646h.049c.049,0,.049,0,.1.047.049,0,.049,0,.1.047a.047.047,0,0,1,.049.047h.1l.049.047.049.047.049.047.049.047.049.047.049.047.049.047v.095a.047.047,0,0,0,.049.047c0,.047,0,.047.049.095,0,.047,0,.047.049.095v.758h0L277.8,127.287h0l.049-.047.049-.047.049-.047.049-.047h.1a.047.047,0,0,0,.049-.047c.049,0,.049,0,.1-.047.049,0,.049,0,.1-.047h.782c.049,0,.049,0,.1.047.049,0,.049,0,.1.047a.047.047,0,0,1,.049.047h.1l.049.047.049.047.049.047.049.047h0l19.507-10.894a1.134,1.134,0,0,1,.538-1.326,1.17,1.17,0,0,1,1.613.426,1.1,1.1,0,0,1-.44,1.563,1.161,1.161,0,0,1-1.467-.237L279.9,127.713h0v.758c0,.047,0,.047-.049.095,0,.047,0,.047-.049.095a.047.047,0,0,1-.049.047v.095l-.049.047-.049.047-.049.047-.049.047-.049.047-.049.047-.049.047h-.1a.047.047,0,0,0-.049.047.154.154,0,0,0-.1.047c-.049,0-.049,0-.1.047h-.782c-.049,0-.049,0-.1-.047-.049,0-.049,0-.1-.047a.047.047,0,0,1-.049-.047h-.1l-.049-.047-.049-.047-.049-.047-.049-.047-.049-.047-.049-.047-.049-.047v-.095a.047.047,0,0,0-.049-.047c0-.047,0-.047-.049-.095,0-.047,0-.047-.049-.095v-.758h0l-19.507-10.894h0l-.049.047-.049.047-.049.047-.049.047h-.1a.047.047,0,0,0-.049.047c-.049,0-.049,0-.1.047-.049,0-.049,0-.1.047h-.782c-.049,0-.049,0-.1-.047-.049,0-.049,0-.1-.047a.047.047,0,0,1-.049-.047h-.1l-.049-.047-.049-.047-.049-.047-.049-.047h0l-19.507,10.894h0v.758c0,.047,0,.047-.049.095,0,.047,0,.047-.049.095a.047.047,0,0,1-.049.047v.095l-.049.047-.049.047-.049.047-.049.047-.049.047-.049.047-.049.047H236a.047.047,0,0,0-.049.047c-.049,0-.049,0-.1.047-.049,0-.049,0-.1.047H235.7v7.768h-.538v-7.768h-.049c-.049,0-.049,0-.1-.047-.049,0-.049,0-.1-.047a.047.047,0,0,1-.049-.047h-.1l-.049-.047-.049-.047-.049-.047-.049-.047-.049-.047-.049-.047-.049-.047v-.095a.047.047,0,0,0-.049-.047c0-.047,0-.047-.049-.095,0-.047,0-.047-.049-.095v-.758h0l-19.507-10.894h0l-.049.047-.049.047-.049.047-.049.047h-.1a.047.047,0,0,0-.049.047c-.049,0-.049,0-.1.047-.049,0-.049,0-.1.047h-.782c-.049,0-.049,0-.1-.047-.049,0-.049,0-.1-.047a.047.047,0,0,1-.049-.047h-.1l-.049-.047-.049-.047-.049-.047-.049-.047h0l-19.507,10.894h0v.758c0,.047,0,.047-.049.095,0,.047,0,.047-.049.095a.047.047,0,0,1-.049.047v.095l-.049.047-.049.047-.049.047-.049.047-.049.047-.049.047-.049.047h-.1a.047.047,0,0,0-.049.047.154.154,0,0,0-.1.047c-.049,0-.049,0-.1.047h-.049v7.768h-.538v-7.768h-.049c-.049,0-.049,0-.1-.047-.049,0-.049,0-.1-.047a.047.047,0,0,1-.049-.047h-.1l-.049-.047-.049-.047-.049-.047-.049-.047-.049-.047-.049-.047-.049-.047v-.095a.047.047,0,0,0-.049-.047c0-.047,0-.047-.049-.095,0-.047,0-.047-.049-.095v-.758h0l-19.507-10.894h0l-.049.047-.049.047-.049.047-.049.047h-.1a.047.047,0,0,0-.049.047c-.049,0-.049,0-.1.047-.049,0-.049,0-.1.047h-.782c-.049,0-.049,0-.1-.047-.049,0-.049,0-.1-.047a.047.047,0,0,1-.049-.047h-.1l-.049-.047-.049-.047-.049-.047-.049-.047h0l-19.507,10.894a1.134,1.134,0,0,1-.538,1.326,1.17,1.17,0,0,1-1.613-.426,1.1,1.1,0,0,1,.44-1.563,1.161,1.161,0,0,1,1.467.237L169.5,116.392h0v-.758c0-.047,0-.047.049-.095,0-.047,0-.047.049-.095a.047.047,0,0,1,.049-.047V115.3l.049-.047.049-.047.049-.047.049-.047.049-.047.049-.047.049-.047h.1a.047.047,0,0,0,.049-.047.154.154,0,0,0,.1-.047c.049,0,.049,0,.1-.047h.049V92.994h0c-.049,0-.049,0-.1-.047-.049,0-.049,0-.1-.047-.049,0-.049-.047-.1-.047s-.049-.047-.1-.047-.049-.047-.1-.095l-.1-.095c-.049-.047-.049-.047-.049-.095l-.1-.095v-.047a.047.047,0,0,0-.049-.047.164.164,0,0,0-.049-.095c0-.047,0-.047-.049-.095,0-.047,0-.095-.049-.095v-.474c0-.047,0-.047.049-.095a.164.164,0,0,1,.049-.095c0-.047.049-.047.049-.095s.049-.047.049-.095.049-.047.1-.095l.1-.095c.049-.047.049-.047.1-.047l.1-.095h.049a.047.047,0,0,0,.049-.047.172.172,0,0,0,.1-.047c.049,0,.049,0,.1-.047.049,0,.1,0,.1-.047h.489c.049,0,.049,0,.1.047a.172.172,0,0,1,.1.047c.049,0,.049.047.1.047s.049.047.1.047.049.047.1.047l.1.095h0L191.017,80.11h0v-.758c0-.047,0-.047.049-.095,0-.047,0-.047.049-.095a.047.047,0,0,1,.049-.047v-.095l.049-.047.049-.047.049-.047.049-.047.049-.047.049-.047.049-.047h.1a.047.047,0,0,0,.049-.047c.049,0,.049,0,.1-.047.049,0,.049,0,.1-.047h.049V56.711h-.049c-.049,0-.049,0-.1-.047-.049,0-.049,0-.1-.047a.047.047,0,0,1-.049-.047h-.1l-.049-.047-.049-.047-.049-.047-.049-.047-.049-.047-.049-.047-.049-.047v-.095a.047.047,0,0,0-.049-.047c0-.047,0-.047-.049-.095,0-.047,0-.047-.049-.095v-.758h0L171.509,44.254h0l-.049.047-.049.047-.049.047-.049.047h-.1a.047.047,0,0,0-.049.047c-.049,0-.049,0-.1.047-.049,0-.049,0-.1.047h-.782c-.049,0-.049,0-.1-.047-.049,0-.049,0-.1-.047a.047.047,0,0,1-.049-.047h-.1L169.8,44.4l-.049-.047L169.7,44.3l-.049-.047h0L150.144,55.148a1.134,1.134,0,0,1-.538,1.326,1.17,1.17,0,0,1-1.613-.426,1.1,1.1,0,0,1,.44-1.563,1.161,1.161,0,0,1,1.467.237l19.507-10.894h0V43.07c0-.047,0-.047.049-.095,0-.047,0-.047.049-.095a.047.047,0,0,1,.049-.047v-.095l.049-.047.049-.047.049-.047.049-.047.049-.047.049-.047.049-.047h.1a.047.047,0,0,0,.049-.047c.049,0,.049,0,.1-.047.049,0,.049,0,.1-.047h.049V20.429h-.049c-.049,0-.049,0-.1-.047-.049,0-.049,0-.1-.047a.047.047,0,0,1-.049-.047h-.1l-.049-.047-.049-.047-.049-.047L169.7,20.1l-.049-.047L169.6,20l-.049-.047V19.86a.047.047,0,0,0-.049-.047c0-.047,0-.047-.049-.095,0-.047,0-.047-.049-.095v-.758h0L149.9,7.971h0l-.049.047-.049.047-.049.047-.049.047h-.1a.047.047,0,0,0-.049.047c-.049,0-.049,0-.1.047-.049,0-.049,0-.1.047h-.782c-.049,0-.049,0-.1-.047-.049,0-.049,0-.1-.047a.047.047,0,0,1-.049-.047h-.1l-.049-.047-.049-.047-.049-.047-.049-.047h0L128.534,18.865A1.134,1.134,0,0,1,128,20.192a1.17,1.17,0,0,1-1.613-.426,1.1,1.1,0,0,1,.44-1.563,1.161,1.161,0,0,1,1.467.237L147.8,7.545h0V6.787c0-.047,0-.047.049-.095,0-.047,0-.047.049-.095a.047.047,0,0,1,.049-.047V6.455l.049-.047.049-.047.049-.047.049-.047.049-.047.049-.047.049-.047h.1a.047.047,0,0,0,.049-.047c.049,0,.049,0,.1-.047.049,0,.049,0,.1-.047h.049V-15.854h-.049c-.049,0-.049,0-.1-.047-.049,0-.049,0-.1-.047a.047.047,0,0,1-.049-.047h-.1l-.049-.047-.049-.047-.049-.047-.049-.047-.049-.047-.049-.047-.049-.047v-.095a.047.047,0,0,0-.049-.047c0-.047,0-.047-.049-.095,0-.047,0-.047-.049-.095v-.758h0L128.29-28.311h0l-.049.047-.049.047-.049.047-.049.047H128a.047.047,0,0,0-.049.047c-.049,0-.049,0-.1.047-.049,0-.049,0-.1.047h-.733c-.049,0-.049,0-.1-.047-.049,0-.049,0-.1-.047a.047.047,0,0,1-.049-.047h-.1l-.049-.047-.049-.047-.049-.047-.049-.047h0L106.974-17.417a1.134,1.134,0,0,1-.538,1.326,1.17,1.17,0,0,1-1.613-.426,1.1,1.1,0,0,1,.44-1.563,1.161,1.161,0,0,1,1.467.237l19.507-10.894h0v-.711c0-.047,0-.047.049-.095,0-.047,0-.047.049-.095a.047.047,0,0,1,.049-.047v-.095l.049-.047.049-.047.049-.047.049-.047.049-.047.049-.047.049-.047h.1a.047.047,0,0,0,.049-.047c.049,0,.049,0,.1-.047.049,0,.049,0,.1-.047h.049V-42h.538v12.5h.049c.049,0,.049,0,.1.047.049,0,.049,0,.1.047a.047.047,0,0,1,.049.047h.1l.049.047.049.047.049.047.049.047.049.047.049.047.049.047v.095a.047.047,0,0,0,.049.047c0,.047,0,.047.049.095,0,.047,0,.047.049.095v.758h0l19.507,10.894h0l.049-.047.049-.047.049-.047.049-.047h.1a.047.047,0,0,0,.049-.047c.049,0,.049,0,.1-.047.049,0,.049,0,.1-.047h.782c.049,0,.049,0,.1.047.049,0,.049,0,.1.047a.047.047,0,0,1,.049.047h.1l.049.047.049.047.049.047.049.047h0l19.507-10.894h0v-.758c0-.047,0-.047.049-.095,0-.047,0-.047.049-.095a.047.047,0,0,1,.049-.047v-.095l.049-.047.049-.047.049-.047.049-.047.049-.047.049-.047.049-.047h.1a.047.047,0,0,0,.049-.047c.049,0,.049,0,.1-.047.049,0,.049,0,.1-.047h.049V-42h.538v12.5h.049c.049,0,.049,0,.1.047.049,0,.049,0,.1.047a.047.047,0,0,1,.049.047h.1l.049.047.049.047.049.047.049.047.049.047.049.047.049.047v.095a.047.047,0,0,0,.049.047c0,.047,0,.047.049.095,0,.047,0,.047.049.095v.758h0l19.507,10.894h0l.049-.047.049-.047.049-.047.049-.047h.1a.047.047,0,0,0,.049-.047c.049,0,.049,0,.1-.047.049,0,.049,0,.1-.047h.782c.049,0,.049,0,.1.047.049,0,.049,0,.1.047a.047.047,0,0,1,.049.047h.1l.049.047.049.047.049.047.049.047h0l19.507-10.894h0v-.758c0-.047,0-.047.049-.095,0-.047,0-.047.049-.095a.047.047,0,0,1,.049-.047v-.095l.049-.047.049-.047.049-.047.049-.047.049-.047.049-.047.049-.047h.1a.047.047,0,0,0,.049-.047c.049,0,.049,0,.1-.047.049,0,.049,0,.1-.047h.049V-42H214v12.5h.049c.049,0,.049,0,.1.047.049,0,.049,0,.1.047a.047.047,0,0,1,.049.047h.1l.049.047.049.047.049.047.049.047.049.047.049.047.049.047v.095a.047.047,0,0,0,.049.047c0,.047,0,.047.049.095,0,.047,0,.047.049.095v.758h0l19.507,10.894h0l.049-.047.049-.047.049-.047.049-.047h.1a.047.047,0,0,0,.049-.047c.049,0,.049,0,.1-.047.049,0,.049,0,.1-.047h.782c.049,0,.049,0,.1.047.049,0,.049,0,.1.047a.047.047,0,0,1,.049.047h.1l.049.047.049.047.049.047.049.047h0l19.507-10.894h0v-.758c0-.047,0-.047.049-.095,0-.047,0-.047.049-.095a.047.047,0,0,1,.049-.047v-.095l.049-.047.049-.047.049-.047.049-.047.049-.047.049-.047.049-.047h.1a.047.047,0,0,0,.049-.047c.049,0,.049,0,.1-.047.049,0,.049,0,.1-.047h.049V-42h.538v12.5h.049c.049,0,.049,0,.1.047.049,0,.049,0,.1.047a.047.047,0,0,1,.049.047h.1l.049.047.049.047.049.047.049.047.049.047.049.047.049.047v.095a.047.047,0,0,0,.049.047c0,.047,0,.047.049.095,0,.047,0,.047.049.095v.758h0l19.507,10.894h0l.049-.047.049-.047.049-.047.049-.047h.1a.047.047,0,0,0,.049-.047c.049,0,.049,0,.1-.047.049,0,.049,0,.1-.047h.782c.049,0,.049,0,.1.047.049,0,.049,0,.1.047a.047.047,0,0,1,.049.047h.1l.049.047.049.047.049.047.049.047h0L298.92-27.932a1.134,1.134,0,0,1,.538-1.326,1.17,1.17,0,0,1,1.613.426,1.1,1.1,0,0,1-.44,1.563,1.161,1.161,0,0,1-1.467-.237L279.657-16.612h0v.758c0,.047,0,.047-.049.095,0,.047,0,.047-.049.095a.047.047,0,0,1-.049.047v.095l-.049.047-.049.047-.049.047-.049.047-.049.047-.049.047-.049.047h-.1a.047.047,0,0,0-.049.047c-.049,0-.049,0-.1.047-.049,0-.049,0-.1.047h-.049V6.787h.049c.049,0,.049,0,.1.047.049,0,.049,0,.1.047a.047.047,0,0,1,.049.047h.1l.049.047.049.047.049.047.049.047.049.047.049.047.049.047v.095a.047.047,0,0,0,.049.047c0,.047,0,.047.049.095,0,.047,0,.047.049.095V8.35h0l19.507,10.894h0l.1-.095c.049-.047.049-.047.1-.047s.049-.047.1-.047.049-.047.1-.047.049-.047.1-.047.049-.047.1-.047h.489c.049,0,.1,0,.1.047.049,0,.049,0,.1.047a.172.172,0,0,1,.1.047.047.047,0,0,1,.049.047h.049c.049,0,.049.047.1.095.049,0,.049.047.1.047l.1.095c.049.047.049.047.049.095s.049.047.049.095.049.047.049.095.049.047.049.095.049.047.049.095v.474c0,.047,0,.095-.049.095,0,.047,0,.047-.049.095a.164.164,0,0,1-.049.095.047.047,0,0,1-.049.047v.047c0,.047-.049.047-.1.095,0,.047-.049.047-.049.095l-.1.095-.1.095c-.049,0-.049.047-.1.047s-.049.047-.1.047-.049.047-.1.047-.049.047-.1.047h0V43.07h.049c.049,0,.049,0,.1.047.049,0,.049,0,.1.047a.047.047,0,0,1,.049.047h.1l.049.047.049.047.049.047.049.047.049.047.049.047.049.047v.095a.047.047,0,0,0,.049.047c0,.047,0,.047.049.095,0,.047,0,.047.049.095v.758h0l-1.565-.616c.391-.379-.049.142.44.379h.587ZM257.265,90.767h.538c.049,0,.049,0,.1.047.049,0,.049,0,.1.047a.047.047,0,0,1,.049.047h.1l.049.047.049.047.049.047.049.047h0L277.848,80.2h0v-.758c0-.047,0-.047.049-.095,0-.047,0-.047.049-.095a.047.047,0,0,1,.049-.047v-.095l.049-.047.049-.047.049-.047.049-.047.049-.047.049-.047.049-.047h.1a.047.047,0,0,0,.049-.047c.049,0,.049,0,.1-.047.049,0,.049,0,.1-.047h.049V56.806h-.049c-.049,0-.049,0-.1-.047-.049,0-.049,0-.1-.047a.047.047,0,0,1-.049-.047h-.1l-.049-.047-.049-.047-.049-.047-.049-.047-.049-.047-.049-.047-.049-.047v-.095a.047.047,0,0,0-.049-.047c0-.047,0-.047-.049-.095,0-.047,0-.047-.049-.095v-.758h0L258.34,44.348h0l-.049.047-.049.047-.049.047-.049.047h-.1a.047.047,0,0,0-.049.047c-.049,0-.049,0-.1.047-.049,0-.049,0-.1.047h-.782c-.049,0-.049,0-.1-.047-.049,0-.049,0-.1-.047a.047.047,0,0,1-.049-.047h-.1l-.049-.047-.049-.047-.049-.047-.049-.047h0L236.975,55.243h0V56c0,.047,0,.047-.049.095,0,.047,0,.047-.049.095a.047.047,0,0,1-.049.047v.095l-.049.047-.049.047-.049.047-.049.047-.049.047-.049.047-.049.047h-.1a.047.047,0,0,0-.049.047c-.049,0-.049,0-.1.047-.049,0-.049,0-.1.047h-.049V78.736h.049c.049,0,.049,0,.1.047.049,0,.049,0,.1.047a.047.047,0,0,1,.049.047h.1l.049.047.049.047.049.047.049.047.049.047.049.047.049.047V79.3a.047.047,0,0,0,.049.047c0,.047,0,.047.049.095,0,.047,0,.047.049.095V80.3h0l19.507,10.894h0l.049-.047.049-.047.049-.047.049-.047h.1a.047.047,0,0,0,.049-.047c.049,0,.049,0,.1-.047.049,0,.049,0,.1-.047h.147C257.216,90.767,257.265,90.767,257.265,90.767Zm-42.633,24.062h.1c.049,0,.049,0,.1.047.049,0,.049,0,.1.047a.047.047,0,0,1,.049.047h.1l.049.047.049.047.049.047.049.047.049.047.049.047.049.047v.095a.047.047,0,0,0,.049.047c0,.047,0,.047.049.095,0,.047,0,.047.049.095v.758h0l19.507,10.894h0l.049-.047.049-.047.049-.047.049-.047h.1a.047.047,0,0,0,.049-.047c.049,0,.049,0,.1-.047.049,0,.049,0,.1-.047h.782c.049,0,.049,0,.1.047.049,0,.049,0,.1.047a.047.047,0,0,1,.049.047h.1l.049.047.049.047.049.047.049.047h0l19.507-10.894h0v-.758c0-.047,0-.047.049-.095,0-.047,0-.047.049-.095a.047.047,0,0,1,.049-.047V115.3l.049-.047.049-.047.049-.047.049-.047.049-.047.049-.047.049-.047h.1a.047.047,0,0,0,.049-.047.154.154,0,0,0,.1-.047c.049,0,.049,0,.1-.047h.049V92.994h-.049c-.049,0-.049,0-.1-.047-.049,0-.049,0-.1-.047a.047.047,0,0,1-.049-.047h-.1l-.049-.047-.049-.047-.049-.047-.049-.047-.049-.047-.049-.047-.049-.047v-.095a.047.047,0,0,0-.049-.047c0-.047,0-.047-.049-.095,0-.047,0-.047-.049-.095V91.43h0L236.926,80.536h0l-.049.047-.049.047-.049.047-.049.047h-.1a.047.047,0,0,0-.049.047c-.049,0-.049,0-.1.047-.049,0-.049,0-.1.047h-.782c-.049,0-.049,0-.1-.047-.049,0-.049,0-.1-.047a.047.047,0,0,1-.049-.047h-.1l-.049-.047-.049-.047-.049-.047-.049-.047h0L215.561,91.43h0v.758c0,.047,0,.047-.049.095,0,.047,0,.047-.049.095a.047.047,0,0,1-.049.047v.095l-.049.047-.049.047-.049.047-.049.047-.049.047-.049.047-.049.047h-.1a.047.047,0,0,0-.049.047c-.049,0-.049,0-.1.047-.049,0-.049,0-.1.047h-.049v21.836Zm-.342-24.062h.538c.049,0,.049,0,.1.047.049,0,.049,0,.1.047a.047.047,0,0,1,.049.047h.1l.049.047.049.047.049.047.049.047h0L234.873,80.2h0v-.758c0-.047,0-.047.049-.095,0-.047,0-.047.049-.095a.047.047,0,0,1,.049-.047v-.095l.049-.047.049-.047.049-.047.049-.047.049-.047.049-.047.049-.047h.1a.047.047,0,0,0,.049-.047c.049,0,.049,0,.1-.047.049,0,.049,0,.1-.047h.049V56.806H235.7c-.049,0-.049,0-.1-.047-.049,0-.049,0-.1-.047a.047.047,0,0,1-.049-.047h-.1l-.049-.047-.049-.047-.049-.047-.049-.047-.049-.047-.049-.047-.049-.047v-.095a.047.047,0,0,0-.049-.047c0-.047,0-.047-.049-.095,0-.047,0-.047-.049-.095v-.758h0L215.365,44.348h0l-.049.047-.049.047-.049.047-.049.047h-.1a.047.047,0,0,0-.049.047c-.049,0-.049,0-.1.047-.049,0-.049,0-.1.047h-.782c-.049,0-.049,0-.1-.047-.049,0-.049,0-.1-.047a.047.047,0,0,1-.049-.047h-.1l-.049-.047-.049-.047-.049-.047-.049-.047h0L194,55.243h0V56c0,.047,0,.047-.049.095,0,.047,0,.047-.049.095a.047.047,0,0,1-.049.047v.095l-.049.047-.049.047-.049.047-.049.047-.049.047-.049.047-.049.047h-.1a.047.047,0,0,0-.049.047c-.049,0-.049,0-.1.047-.049,0-.049,0-.1.047h-.049V78.736h.049c.049,0,.049,0,.1.047.049,0,.049,0,.1.047a.047.047,0,0,1,.049.047h.1l.049.047.049.047.049.047.049.047.049.047.049.047.049.047V79.3a.047.047,0,0,0,.049.047c0,.047,0,.047.049.095,0,.047,0,.047.049.095V80.3h0l19.507,10.894h0l.049-.047.049-.047.049-.047L213.7,91h.1a.047.047,0,0,0,.049-.047c.049,0,.049,0,.1-.047.049,0,.049,0,.1-.047h.147C214.241,90.767,214.241,90.767,214.29,90.767Zm-21.659-9.8h-.049c-.049,0-.049,0-.1-.047-.049,0-.049,0-.1-.047a.047.047,0,0,1-.049-.047h-.1l-.049-.047-.049-.047-.049-.047-.049-.047h0L172.537,91.525v.047c0,.047,0,.095.049.095v.474c0,.047,0,.047-.049.095a.164.164,0,0,1-.049.095c0,.047-.049.047-.049.095s-.049.047-.049.095-.049.047-.049.095l-.1.095c-.049.047-.049.047-.1.047l-.1.095H172a.047.047,0,0,0-.049.047.172.172,0,0,0-.1.047c-.049,0-.049,0-.1.047h-.049v21.836h.049c.049,0,.049,0,.1.047.049,0,.049,0,.1.047a.047.047,0,0,1,.049.047h.1l.049.047.049.047.049.047.049.047.049.047.049.047.049.047v.095a.047.047,0,0,0,.049.047c0,.047,0,.047.049.095,0,.047,0,.047.049.095v.758h0l19.507,10.894h0l.049-.047.049-.047.049-.047.049-.047h.1a.047.047,0,0,0,.049-.047c.049,0,.049,0,.1-.047.049,0,.049,0,.1-.047h.782c.049,0,.049,0,.1.047.049,0,.049,0,.1.047a.047.047,0,0,1,.049.047h.1l.049.047.049.047.049.047.049.047h0l19.507-10.894h0v-.758c0-.047,0-.047.049-.095,0-.047,0-.047.049-.095a.047.047,0,0,1,.049-.047V115.3l.049-.047.049-.047.049-.047.049-.047.049-.047.049-.047.049-.047h.1a.047.047,0,0,0,.049-.047.154.154,0,0,0,.1-.047c.049,0,.049,0,.1-.047h.049V92.994h-.049c-.049,0-.049,0-.1-.047-.049,0-.049,0-.1-.047a.047.047,0,0,1-.049-.047h-.1L213.9,92.8l-.049-.047-.049-.047-.049-.047-.049-.047-.049-.047-.049-.047v-.095a.047.047,0,0,0-.049-.047c0-.047,0-.047-.049-.095,0-.047,0-.047-.049-.095V91.43h0L193.951,80.536h0l-.049.047-.049.047-.049.047-.049.047h-.1a.047.047,0,0,0-.049.047c-.049,0-.049,0-.1.047-.049,0-.049,0-.1.047h-.636C192.68,80.963,192.631,80.963,192.631,80.963Zm0-96.2h-.1c-.049,0-.049,0-.1-.047-.049,0-.049,0-.1-.047a.047.047,0,0,1-.049-.047h-.1l-.049-.047-.049-.047-.049-.047L192-15.57l-.049-.047-.049-.047-.049-.047v-.095a.047.047,0,0,0-.049-.047c0-.047,0-.047-.049-.095,0-.047,0-.047-.049-.095V-16.8h0L172.195-27.7h0l-.049.047-.049.047-.049.047-.049.047h-.1a.047.047,0,0,0-.049.047c-.049,0-.049,0-.1.047-.049,0-.049,0-.1.047h-.733c-.049,0-.049,0-.1-.047-.049,0-.049,0-.1-.047a.047.047,0,0,1-.049-.047h-.1l-.049-.047-.049-.047-.049-.047-.049-.047h0L150.878-16.8h0v.758c0,.047,0,.047-.049.095,0,.047,0,.047-.049.095a.047.047,0,0,1-.049.047v.095l-.049.047-.049.047-.049.047-.049.047-.049.047-.049.047-.049.047h-.1a.047.047,0,0,0-.049.047c-.049,0-.049,0-.1.047-.049,0-.049,0-.1.047H150V6.6h.049c.049,0,.049,0,.1.047.049,0,.049,0,.1.047a.047.047,0,0,1,.049.047h.1l.049.047.049.047.049.047.049.047.049.047.049.047.049.047v.095a.047.047,0,0,0,.049.047c0,.047,0,.047.049.095,0,.047,0,.047.049.095v.758h0l19.507,10.894h0l.049-.047.049-.047.049-.047.049-.047h.1a.047.047,0,0,0,.049-.047c.049,0,.049,0,.1-.047.049,0,.049,0,.1-.047h.782c.049,0,.049,0,.1.047.049,0,.049,0,.1.047a.047.047,0,0,1,.049.047h.1l.049.047.049.047.049.047.049.047h0L191.751,8.161h0V7.4c0-.047,0-.047.049-.095,0-.047,0-.047.049-.095a.047.047,0,0,1,.049-.047V7.071l.049-.047L192,6.977l.049-.047.049-.047.049-.047.049-.047.049-.047h.1a.047.047,0,0,0,.049-.047c.049,0,.049,0,.1-.047.049,0,.049,0,.1-.047h.049V-15.238Zm.44,24.062h-.636c-.049,0-.049,0-.1-.047-.049,0-.049,0-.1-.047a.047.047,0,0,1-.049-.047h-.1l-.049-.047L192,8.587l-.049-.047-.049-.047h0L172.39,19.386h0v.758c0,.047,0,.047-.049.095,0,.047,0,.047-.049.095a.047.047,0,0,1-.049.047v.095l-.049.047-.049.047-.049.047-.049.047-.049.047-.049.047-.049.047h-.1a.047.047,0,0,0-.049.047c-.049,0-.049,0-.1.047-.049,0-.049,0-.1.047h-.049V42.785h.049c.049,0,.049,0,.1.047.049,0,.049,0,.1.047a.047.047,0,0,1,.049.047h.1l.049.047.049.047.049.047.049.047.049.047.049.047.049.047v.095a.047.047,0,0,0,.049.047c0,.047,0,.047.049.095,0,.047,0,.047.049.095v.758h0L191.9,55.243h0l.049-.047.049-.047.049-.047.049-.047h.1a.047.047,0,0,0,.049-.047c.049,0,.049,0,.1-.047.049,0,.049,0,.1-.047h.782c.049,0,.049,0,.1.047.049,0,.049,0,.1.047a.047.047,0,0,1,.049.047h.1l.049.047.049.047.049.047.049.047h0l19.507-10.894h0v-.758c0-.047,0-.047.049-.095,0-.047,0-.047.049-.095a.047.047,0,0,1,.049-.047v-.095l.049-.047.049-.047.049-.047.049-.047.049-.047.049-.047.049-.047h.1a.047.047,0,0,0,.049-.047c.049,0,.049,0,.1-.047.049,0,.049,0,.1-.047h.049V20.95h-.049c-.049,0-.049,0-.1-.047-.049,0-.049,0-.1-.047a.047.047,0,0,1-.049-.047h-.1l-.049-.047-.049-.047-.049-.047-.049-.047-.049-.047-.049-.047-.049-.047v-.095a.047.047,0,0,0-.049-.047c0-.047,0-.047-.049-.095,0-.047,0-.047-.049-.095v-.758h0L193.756,8.492h0l-.049.047-.049.047-.049.047-.049.047h-.1a.047.047,0,0,0-.049.047c-.049,0-.049,0-.1.047-.049,0-.049,0-.1.047h-.147Zm42.535-24.062h-.1c-.049,0-.049,0-.1-.047-.049,0-.049,0-.1-.047a.047.047,0,0,1-.049-.047h-.1l-.049-.047-.049-.047-.049-.047-.049-.047-.049-.047-.049-.047-.049-.047v-.095a.047.047,0,0,0-.049-.047c0-.047,0-.047-.049-.095,0-.047,0-.047-.049-.095V-16.8h0L215.17-27.7h0l-.049.047-.049.047-.049.047-.049.047h-.1a.047.047,0,0,0-.049.047c-.049,0-.049,0-.1.047-.049,0-.049,0-.1.047H213.9c-.049,0-.049,0-.1-.047-.049,0-.049,0-.1-.047a.047.047,0,0,1-.049-.047h-.1l-.049-.047-.049-.047-.049-.047-.049-.047h0L193.853-16.8h0v.758c0,.047,0,.047-.049.095,0,.047,0,.047-.049.095a.047.047,0,0,1-.049.047v.095l-.049.047-.049.047-.049.047-.049.047-.049.047-.049.047-.049.047h-.1a.047.047,0,0,0-.049.047c-.049,0-.049,0-.1.047-.049,0-.049,0-.1.047h-.049V6.6h.049c.049,0,.049,0,.1.047.049,0,.049,0,.1.047a.047.047,0,0,1,.049.047h.1l.049.047.049.047.049.047.049.047.049.047.049.047.049.047v.095a.047.047,0,0,0,.049.047c0,.047,0,.047.049.095,0,.047,0,.047.049.095v.758h0l19.507,10.894h0l.049-.047.049-.047.049-.047.049-.047h.1a.047.047,0,0,0,.049-.047c.049,0,.049,0,.1-.047.049,0,.049,0,.1-.047h.782c.049,0,.049,0,.1.047.049,0,.049,0,.1.047a.047.047,0,0,1,.049.047h.1l.049.047.049.047.049.047.049.047h0L234.726,8.161h0V7.4c0-.047,0-.047.049-.095,0-.047,0-.047.049-.095a.047.047,0,0,1,.049-.047V7.071l.049-.047.049-.047.049-.047.049-.047.049-.047.049-.047.049-.047h.1a.047.047,0,0,0,.049-.047c.049,0,.049,0,.1-.047.049,0,.049,0,.1-.047h.049Zm.489,24.062h-.636c-.049,0-.049,0-.1-.047-.049,0-.049,0-.1-.047a.047.047,0,0,1-.049-.047h-.1l-.049-.047-.049-.047-.049-.047-.049-.047h0L215.414,19.386h0v.758c0,.047,0,.047-.049.095,0,.047,0,.047-.049.095a.047.047,0,0,1-.049.047v.095l-.049.047-.049.047-.049.047-.049.047-.049.047-.049.047-.049.047h-.1a.047.047,0,0,0-.049.047c-.049,0-.049,0-.1.047-.049,0-.049,0-.1.047h-.049V42.785h.049c.049,0,.049,0,.1.047.049,0,.049,0,.1.047a.047.047,0,0,1,.049.047h.1l.049.047.049.047.049.047.049.047.049.047.049.047.049.047v.095a.047.047,0,0,0,.049.047c0,.047,0,.047.049.095,0,.047,0,.047.049.095v.758h0l19.507,10.894h0l.049-.047.049-.047.049-.047.049-.047h.1a.047.047,0,0,0,.049-.047c.049,0,.049,0,.1-.047.049,0,.049,0,.1-.047h.782c.049,0,.049,0,.1.047.049,0,.049,0,.1.047a.047.047,0,0,1,.049.047h.1l.049.047.049.047.049.047.049.047h0l19.507-10.894h0v-.758c0-.047,0-.047.049-.095,0-.047,0-.047.049-.095a.047.047,0,0,1,.049-.047v-.095l.049-.047.049-.047.049-.047.049-.047.049-.047.049-.047.049-.047h.1a.047.047,0,0,0,.049-.047c.049,0,.049,0,.1-.047.049,0,.049,0,.1-.047h.049V20.95h-.049c-.049,0-.049,0-.1-.047-.049,0-.049,0-.1-.047a.047.047,0,0,1-.049-.047h-.1l-.049-.047-.049-.047-.049-.047-.049-.047-.049-.047-.049-.047-.049-.047v-.095a.047.047,0,0,0-.049-.047c0-.047,0-.047-.049-.095,0-.047,0-.047-.049-.095v-.758h0L236.779,8.492h0l-.049.047-.049.047-.049.047-.049.047h-.1a.047.047,0,0,0-.049.047c-.049,0-.049,0-.1.047-.049,0-.049,0-.1.047h-.147ZM278.63-15.238h-.1c-.049,0-.049,0-.1-.047-.049,0-.049,0-.1-.047a.047.047,0,0,1-.049-.047h-.1l-.049-.047-.049-.047-.049-.047-.049-.047-.049-.047-.049-.047-.049-.047v-.095a.047.047,0,0,0-.049-.047c0-.047,0-.047-.049-.095,0-.047,0-.047-.049-.095V-16.8h0L258.193-27.7h0l-.049.047-.049.047-.049.047-.049.047h-.1a.047.047,0,0,0-.049.047c-.049,0-.049,0-.1.047-.049,0-.049,0-.1.047h-.685c-.049,0-.049,0-.1-.047-.049,0-.049,0-.1-.047a.047.047,0,0,1-.049-.047h-.1l-.049-.047-.049-.047-.049-.047-.049-.047h0L236.926-16.8h0v.758c0,.047,0,.047-.049.095,0,.047,0,.047-.049.095a.047.047,0,0,1-.049.047v.095l-.049.047-.049.047-.049.047-.049.047-.049.047-.049.047-.049.047h-.1a.047.047,0,0,0-.049.047c-.049,0-.049,0-.1.047-.049,0-.049,0-.1.047h-.049V6.6h.049c.049,0,.049,0,.1.047.049,0,.049,0,.1.047a.047.047,0,0,1,.049.047h.1l.049.047.049.047.049.047.049.047.049.047.049.047.049.047v.095a.047.047,0,0,0,.049.047c0,.047,0,.047.049.095,0,.047,0,.047.049.095v.758h0l19.507,10.894h0l.049-.047.049-.047.049-.047.049-.047h.1a.047.047,0,0,0,.049-.047c.049,0,.049,0,.1-.047.049,0,.049,0,.1-.047h.782c.049,0,.049,0,.1.047.049,0,.049,0,.1.047a.047.047,0,0,1,.049.047h.1l.049.047.049.047.049.047.049.047h0L277.8,8.161h0V7.4c0-.047,0-.047.049-.095,0-.047,0-.047.049-.095a.047.047,0,0,1,.049-.047V7.071l.049-.047.049-.047.049-.047.049-.047.049-.047.049-.047.049-.047h.1a.047.047,0,0,0,.049-.047c.049,0,.049,0,.1-.047.049,0,.049,0,.1-.047h.049V-15.238Zm21.512,36.093h0c-.1,0-.1-.047-.147-.047a.172.172,0,0,1-.1-.047.047.047,0,0,1-.049-.047H299.8c-.049,0-.049-.047-.1-.095-.049,0-.049-.047-.1-.047l-.1-.095-.1-.095c0-.047-.049-.047-.049-.095s-.049-.047-.049-.095-.049-.047-.049-.095-.049-.047-.049-.095v-.474c0-.047,0-.095.049-.095v-.047L279.754,8.492h0l-.049.047-.049.047-.049.047-.049.047h-.1a.047.047,0,0,0-.049.047c-.049,0-.049,0-.1.047-.049,0-.049,0-.1.047h-.782c-.049,0-.049,0-.1-.047-.049,0-.049,0-.1-.047a.047.047,0,0,1-.049-.047h-.1l-.049-.047-.049-.047-.049-.047-.049-.047h0L258.389,19.387h0v.758c0,.047,0,.047-.049.095,0,.047,0,.047-.049.095a.047.047,0,0,1-.049.047v.095l-.049.047-.049.047-.049.047-.049.047-.049.047-.049.047-.049.047h-.1a.047.047,0,0,0-.049.047c-.049,0-.049,0-.1.047-.049,0-.049,0-.1.047h-.049V42.785h.049c.049,0,.049,0,.1.047.049,0,.049,0,.1.047a.047.047,0,0,1,.049.047h.1l.049.047.049.047.049.047.049.047.049.047.049.047.049.047v.095a.047.047,0,0,0,.049.047c0,.047,0,.047.049.095,0,.047,0,.047.049.095v.758h0L277.9,55.243h0l.049-.047.049-.047.049-.047.049-.047h.1a.047.047,0,0,0,.049-.047c.049,0,.049,0,.1-.047.049,0,.049,0,.1-.047h.782c.049,0,.049,0,.1.047.049,0,.049,0,.1.047a.047.047,0,0,1,.049.047h.1l.049.047.049.047.049.047.049.047h0l19.507-10.894h0v-.758c0-.047,0-.047.049-.095,0-.047,0-.047.049-.095a.047.047,0,0,1,.049-.047v-.095l.049-.047.049-.047.049-.047.049-.047.049-.047.049-.047.049-.047h.1a.047.047,0,0,0,.049-.047c.049,0,.049,0,.1-.047.049,0,.049,0,.1-.047h.049Z" transform="translate(-104.654 42)" fill="url(#linear-gradient-2)"/>
      </g>
    </g>
  </g>
</svg>
