<svg xmlns="http://www.w3.org/2000/svg" xmlns:xlink="http://www.w3.org/1999/xlink" width="1440.077" height="522" viewBox="0 0 1440.077 522">
  <defs>
    <radialGradient id="radial-gradient" cx="0.294" cy="0.571" r="1.007" gradientUnits="objectBoundingBox">
      <stop offset="0" stop-color="#1a3855"/>
      <stop offset="0.204" stop-color="#17324c"/>
      <stop offset="1" stop-color="#0e1e2e"/>
      <stop offset="1" stop-color="#050b11"/>
    </radialGradient>
    <linearGradient id="linear-gradient" x1="0.596" y1="0.5" x2="0.412" y2="0.474" gradientUnits="objectBoundingBox">
      <stop offset="0" stop-color="#0090f0"/>
      <stop offset="0" stop-color="#006ab1"/>
      <stop offset="1" stop-color="#004878"/>
    </linearGradient>
  </defs>
  <g id="Help_Center_Web_Cover" data-name="Help Center Web Cover" transform="translate(355 -4845)">
    <rect id="Base" width="1440" height="522" transform="translate(-355 4845)" fill="url(#radial-gradient)"/>
    <g id="Icons" transform="translate(532 4845)" opacity="0.169">
      <path id="Path_4890" data-name="Path 4890" d="M657.412,193.176a2.763,2.763,0,0,0-4.086-1.243,3.611,3.611,0,0,0-1.362,3.867l-49.4,31.762h0l-.124-.138-.124-.138-.124-.138-.124-.138h-.248a.126.126,0,0,1-.124-.138c-.124,0-.124,0-.248-.138-.124,0-.124,0-.248-.138H599.22c-.124,0-.124,0-.248.138-.124,0-.124,0-.248.138a.126.126,0,0,0-.124.138h-.248l-.124.138-.124.138-.124.138-.124.138h0l-49.4-31.762h0v-2.21c0-.138,0-.138-.124-.276,0-.138,0-.138-.124-.276,0,0,0-.138-.124-.138v-.276l-.124-.138-.124-.138-.124-.138-.124-.138-.124-.138-.124-.138-.124-.138h-.248a.126.126,0,0,1-.124-.138c-.124,0-.124,0-.248-.138-.124,0-.124,0-.248-.138h-.124V128h.124c.124,0,.124,0,.248-.138.124,0,.124,0,.248-.138a.126.126,0,0,0,.124-.138h.248l.124-.138.124-.138.124-.138.124-.138.124-.138.124-.138.124-.138v-.276s0-.138.124-.138c0-.138,0-.138.124-.276,0-.138,0-.138.124-.276v-2.209h0l49.4-31.762a2.967,2.967,0,0,0,3.714.69,3.454,3.454,0,0,0,1.114-4.557,2.763,2.763,0,0,0-4.086-1.243,3.611,3.611,0,0,0-1.362,3.867l-49.4,31.762h0l-.124-.138-.124-.138-.124-.138-.124-.138h-.248a.126.126,0,0,1-.124-.138c-.124,0-.124,0-.248-.138-.124,0-.124,0-.248-.138h-1.981c-.124,0-.124,0-.248.138-.124,0-.124,0-.248.138a.126.126,0,0,0-.124.138h-.248l-.124.138-.124.138-.124.138-.124.138h0l-49.4-31.762h0v-2.21c0-.138,0-.138-.124-.276,0-.138,0-.138-.124-.276,0,0,0-.138-.124-.138v-.276l-.124-.138-.124-.138-.124-.138-.124-.138-.124-.138-.124-.138-.124-.138h-.248a.126.126,0,0,1-.124-.138c-.124,0-.124,0-.248-.138-.124,0-.124,0-.248-.138H491.5V22.767h.124c.124,0,.124,0,.248-.138.124,0,.124,0,.248-.138a.126.126,0,0,0,.124-.138h.248l.124-.138.124-.138.124-.138.124-.138.124-.138.124-.138.124-.138V21.11s0-.138.124-.138c0-.138,0-.138.124-.276,0-.138,0-.138.124-.276V18.21h0l49.4-31.762h0l.124.138.124.138.124.138.124.138h.248a.126.126,0,0,1,.124.138c.124,0,.124,0,.248.138.124,0,.124,0,.248.138h1.981c.124,0,.124,0,.248-.138.124,0,.124,0,.248-.138a.126.126,0,0,0,.124-.138h.248l.124-.138.124-.138.124-.138.124-.138h0l49.4,31.762a3.532,3.532,0,0,0,1.362,3.867,2.763,2.763,0,0,0,4.086-1.243,3.454,3.454,0,0,0-1.114-4.557,2.675,2.675,0,0,0-3.714.69L548.456-14.8h0V-17c0-.138,0-.138-.124-.276,0-.138,0-.138-.124-.276,0,0,0-.138-.124-.138v-.276l-.124-.138-.124-.138-.124-.138-.124-.138-.124-.138-.124-.138-.124-.138h-.248a.126.126,0,0,1-.124-.138.366.366,0,0,1-.248-.138c-.124,0-.124,0-.248-.138H544.37c-.124,0-.124,0-.248.138-.124,0-.124,0-.248.138a.126.126,0,0,0-.124.138H543.5l-.124.138-.124.138-.124.138-.124.138-.124.138-.124.138-.124.138v.276s0,.138-.124.138c0,.138,0,.138-.124.276,0,.138,0,.138-.124.276v2.21h0l-49.4,31.762h0l-.124-.138-.124-.138-.124-.138-.124-.138h-.248a.126.126,0,0,1-.124-.138c-.124,0-.124,0-.248-.138-.124,0-.124,0-.248-.138h-1.981c-.124,0-.124,0-.248.138-.124,0-.124,0-.248.138a.126.126,0,0,0-.124.138h-.248l-.124.138-.124.138-.124.138-.124.138h0L438.757-14.8h0V-17c0-.138,0-.138-.124-.276,0-.138,0-.138-.124-.276,0,0,0-.138-.124-.138v-.276l-.124-.138-.124-.138-.124-.138-.124-.138-.124-.138-.124-.138-.124-.138h-.248a.126.126,0,0,1-.124-.138c-.124,0-.124,0-.248-.138-.124,0-.124,0-.248-.138h-.124V-42h-1.362v22.648h-.124c-.124,0-.124,0-.248.138-.124,0-.124,0-.248.138a.126.126,0,0,0-.124.138h-.248l-.124.138-.124.138-.124.138-.124.138-.124.138-.124.138-.124.138v.276s0,.138-.124.138c0,.138,0,.138-.124.276,0,.138,0,.138-.124.276v2.21h0l-49.4,31.762h0l-.124-.138-.124-.138-.124-.138-.124-.138h-.248a.126.126,0,0,1-.124-.138c-.124,0-.124,0-.248-.138-.124,0-.124,0-.248-.138h-1.981c-.124,0-.124,0-.248.138-.124,0-.124,0-.248.138a.126.126,0,0,0-.124.138h-.248l-.124.138-.124.138-.124.138-.124.138h0L329.43-14.8h0V-17c0-.138,0-.138-.124-.276,0-.138,0-.138-.124-.276,0,0,0-.138-.124-.138v-.276l-.124-.138-.124-.138-.124-.138-.124-.138-.124-.138-.124-.138-.124-.138h-.248a.126.126,0,0,1-.124-.138.366.366,0,0,1-.248-.138c-.124,0-.124,0-.248-.138H327.2V-42h-1.362v22.648h-.124c-.124,0-.124,0-.248.138-.124,0-.124,0-.248.138a.126.126,0,0,0-.124.138h-.248l-.124.138-.124.138-.124.138-.124.138-.124.138-.124.138-.124.138v.276s0,.138-.124.138c0,.138,0,.138-.124.276,0,.138,0,.138-.124.276v2.21h0l-49.4,31.762h0l-.124-.138-.124-.138-.124-.138-.124-.138h-.248a.126.126,0,0,1-.124-.138c-.124,0-.124,0-.248-.138-.124,0-.124,0-.248-.138h-1.981c-.124,0-.124,0-.248.138-.124,0-.124,0-.248.138a.126.126,0,0,0-.124.138H270l-.124.138-.124.138-.124.138-.124.138h0L220.1-14.8a3.532,3.532,0,0,0-1.362-3.867,2.763,2.763,0,0,0-4.086,1.243,3.454,3.454,0,0,0,1.114,4.557,2.675,2.675,0,0,0,3.714-.69l49.4,31.762h0v2.21c0,.138,0,.138.124.276,0,.138,0,.138.124.276,0,0,0,.138.124.138v.276l.124.138.124.138.124.138.124.138.124.138.124.138.124.138h.248a.126.126,0,0,1,.124.138.366.366,0,0,1,.248.138c.124,0,.124,0,.248.138h.124V86.429h0c-.124,0-.124,0-.248.138-.124,0-.124,0-.248.138-.124,0-.124.138-.248.138s-.124.138-.248.138-.124.138-.248.276l-.248.276c-.124.138-.124.138-.124.276l-.248.276v.138s0,.138-.124.138a.5.5,0,0,1-.124.276c0,.138,0,.138-.124.276,0,.138,0,.276-.124.276v1.381c0,.138,0,.138.124.276a.5.5,0,0,0,.124.276c0,.138.124.138.124.276s.124.138.124.276.124.138.248.276l.248.276c.124.138.124.138.248.138l.248.276h.124a.126.126,0,0,1,.124.138.421.421,0,0,1,.248.138c.124,0,.124,0,.248.138.124,0,.248,0,.248.138h1.238c.124,0,.124,0,.248-.138a.421.421,0,0,0,.248-.138c.124,0,.124-.138.248-.138s.124-.138.248-.138.124-.138.248-.138l.248-.276h0l49.4,31.762h0v2.21c0,.138,0,.138.124.276,0,.138,0,.138.124.276,0,0,0,.138.124.138v.276l.124.138.124.138.124.138.124.138.124.138.124.138.124.138h.248a.126.126,0,0,1,.124.138c.124,0,.124,0,.248.138.124,0,.124,0,.248.138h.124v63.662h-.124c-.124,0-.124,0-.248.138-.124,0-.124,0-.248.138a.126.126,0,0,0-.124.138H324.6l-.124.138-.124.138-.124.138-.124.138-.124.138-.124.138-.124.138v.276s0,.138-.124.138c0,.138,0,.138-.124.276,0,.138,0,.138-.124.276v2.21h0l-49.4,31.762h0l-.124-.138-.124-.138-.124-.138-.124-.138h-.248a.126.126,0,0,1-.124-.138c-.124,0-.124,0-.248-.138-.124,0-.124,0-.248-.138h-1.981c-.124,0-.124,0-.248.138-.124,0-.124,0-.248.138a.126.126,0,0,0-.124.138h-.248l-.124.138-.124.138-.124.138-.124.138h0l-49.4-31.762a3.532,3.532,0,0,0-1.362-3.867,2.763,2.763,0,0,0-4.086,1.243,3.454,3.454,0,0,0,1.114,4.557,2.675,2.675,0,0,0,3.714-.69l49.4,31.762h0v2.21c0,.138,0,.138.124.276,0,.138,0,.138.124.276,0,0,0,.138.124.138v.276l.124.138.124.138.124.138.124.138.124.138.124.138.124.138h.248a.126.126,0,0,1,.124.138c.124,0,.124,0,.248.138.124,0,.124,0,.248.138h.124v63.662h-.124c-.124,0-.124,0-.248.138-.124,0-.124,0-.248.138a.126.126,0,0,0-.124.138h-.248l-.124.138-.124.138-.124.138-.124.138-.124.138-.124.138-.124.138v.276s0,.138-.124.138c0,.138,0,.138-.124.276,0,.138,0,.138-.124.276v2.21h0l-49.4,31.762h0l-.124-.138-.124-.138-.124-.138-.124-.138h-.248a.126.126,0,0,1-.124-.138c-.124,0-.124,0-.248-.138-.124,0-.124,0-.248-.138h-1.981c-.124,0-.124,0-.248.138-.124,0-.124,0-.248.138a.126.126,0,0,0-.124.138h-.248l-.124.138-.124.138-.124.138-.124.138h0l-49.4-31.762a3.532,3.532,0,0,0-1.362-3.867,2.763,2.763,0,0,0-4.086,1.243,3.454,3.454,0,0,0,1.114,4.557,2.674,2.674,0,0,0,3.714-.69l49.4,31.762h0v2.21c0,.138,0,.138.124.276,0,.138,0,.138.124.276,0,0,0,.138.124.138v.276l.124.138.124.138.124.138.124.138.124.138.124.138.124.138h.248a.126.126,0,0,1,.124.138c.124,0,.124,0,.248.138.124,0,.124,0,.248.138h.124v63.662h-.124c-.124,0-.124,0-.248.138-.124,0-.124,0-.248.138a.126.126,0,0,0-.124.138h-.248l-.124.138-.124.138-.124.138-.124.138-.124.138-.124.138-.124.138v.276s0,.138-.124.138c0,.138,0,.138-.124.276,0,.138,0,.138-.124.276v2.21h0l-49.4,31.762h0l-.124-.138-.124-.138-.124-.138-.124-.138h-.248a.126.126,0,0,1-.124-.138c-.124,0-.124,0-.248-.138-.124,0-.124,0-.248-.138h-1.857c-.124,0-.124,0-.248.138-.124,0-.124,0-.248.138a.126.126,0,0,0-.124.138h-.248l-.124.138-.124.138-.124.138-.124.138h0l-49.4-31.762a3.532,3.532,0,0,0-1.362-3.867,2.763,2.763,0,0,0-4.086,1.243,3.454,3.454,0,0,0,1.114,4.557,2.675,2.675,0,0,0,3.714-.69l49.4,31.762h0v2.072c0,.138,0,.138.124.276,0,.138,0,.138.124.276,0,0,0,.138.124.138v.276l.124.138.124.138.124.138.124.138.124.138.124.138.124.138h.248a.126.126,0,0,1,.124.138c.124,0,.124,0,.248.138.124,0,.124,0,.248.138h.124V480H162.9V443.543h.124c.124,0,.124,0,.248-.138.124,0,.124,0,.248-.138a.126.126,0,0,0,.124-.138h.248l.124-.138.124-.138.124-.138.124-.138.124-.138.124-.138.124-.138v-.276s0-.138.124-.138c0-.138,0-.138.124-.276,0-.138,0-.138.124-.276v-2.21h0l49.4-31.762h0l.124.138.124.138.124.138.124.138h.248a.126.126,0,0,1,.124.138c.124,0,.124,0,.248.138.124,0,.124,0,.248.138h1.981c.124,0,.124,0,.248-.138.124,0,.124,0,.248-.138a.126.126,0,0,0,.124-.138h.248l.124-.138.124-.138.124-.138.124-.138h0l49.4,31.762h0v2.21c0,.138,0,.138.124.276,0,.138,0,.138.124.276,0,0,0,.138.124.138v.276l.124.138.124.138.124.138.124.138.124.138.124.138.124.138h.248a.126.126,0,0,1,.124.138c.124,0,.124,0,.248.138.124,0,.124,0,.248.138h.124V480h1.362V443.543h.124c.124,0,.124,0,.248-.138.124,0,.124,0,.248-.138a.126.126,0,0,0,.124-.138h.248l.124-.138.124-.138.124-.138.124-.138.124-.138.124-.138.124-.138v-.276s0-.138.124-.138c0-.138,0-.138.124-.276,0-.138,0-.138.124-.276v-2.21h0l49.4-31.762h0l.124.138.124.138.124.138.124.138h.248a.126.126,0,0,1,.124.138c.124,0,.124,0,.248.138.124,0,.124,0,.248.138H327.2c.124,0,.124,0,.248-.138.124,0,.124,0,.248-.138a.126.126,0,0,0,.124-.138h.248l.124-.138.124-.138.124-.138.124-.138h0l49.4,31.762h0v2.21c0,.138,0,.138.124.276,0,.138,0,.138.124.276,0,0,0,.138.124.138v.276l.124.138.124.138.124.138.124.138.124.138.124.138.124.138h.248a.126.126,0,0,1,.124.138c.124,0,.124,0,.248.138.124,0,.124,0,.248.138h.124V480h1.362V443.543h.124c.124,0,.124,0,.248-.138.124,0,.124,0,.248-.138a.126.126,0,0,0,.124-.138h.248l.124-.138.124-.138.124-.138.124-.138.124-.138.124-.138.124-.138v-.276s0-.138.124-.138c0-.138,0-.138.124-.276,0-.138,0-.138.124-.276v-2.21h0l49.4-31.762h0l.124.138.124.138.124.138.124.138h.248a.126.126,0,0,1,.124.138c.124,0,.124,0,.248.138.124,0,.124,0,.248.138h1.981c.124,0,.124,0,.248-.138.124,0,.124,0,.248-.138a.126.126,0,0,0,.124-.138h.248l.124-.138.124-.138.124-.138.124-.138h0l49.4,31.762h0v2.21c0,.138,0,.138.124.276,0,.138,0,.138.124.276,0,0,0,.138.124.138v.276l.124.138.124.138.124.138.124.138.124.138.124.138.124.138h.248a.126.126,0,0,1,.124.138c.124,0,.124,0,.248.138.124,0,.124,0,.248.138h.124V480h1.362V443.543h.124c.124,0,.124,0,.248-.138.124,0,.124,0,.248-.138a.126.126,0,0,0,.124-.138h.248l.124-.138.124-.138.124-.138.124-.138.124-.138.124-.138.124-.138v-.276s0-.138.124-.138c0-.138,0-.138.124-.276,0-.138,0-.138.124-.276v-2.21h0l49.4-31.762h0l.124.138.124.138.124.138.124.138h.248a.126.126,0,0,1,.124.138c.124,0,.124,0,.248.138.124,0,.124,0,.248.138h1.981c.124,0,.124,0,.248-.138.124,0,.124,0,.248-.138a.126.126,0,0,0,.124-.138h.248l.124-.138.124-.138.124-.138.124-.138h0l49.4,31.762a3.532,3.532,0,0,0,1.362,3.867,2.763,2.763,0,0,0,4.086-1.243,3.454,3.454,0,0,0-1.114-4.557,2.674,2.674,0,0,0-3.714.69l-49.4-31.762h0v-2.21c0-.138,0-.138-.124-.276,0-.138,0-.138-.124-.276,0,0,0-.138-.124-.138V402.8l-.124-.138-.124-.138-.124-.138-.124-.138-.124-.138-.124-.138-.124-.138h-.248a.126.126,0,0,1-.124-.138c-.124,0-.124,0-.248-.138-.124,0-.124,0-.248-.138h-.124V337.761h.124c.124,0,.124,0,.248-.138.124,0,.124,0,.248-.138a.126.126,0,0,0,.124-.138h.248l.124-.138.124-.138.124-.138.124-.138.124-.138.124-.138.124-.138V336.1s0-.138.124-.138c0-.138,0-.138.124-.276,0-.138,0-.138.124-.276V333.2h0l49.4-31.762h0l.248.276c.124.138.124.138.248.138s.124.138.248.138.124.138.248.138.124.138.248.138.124.138.248.138h1.238c.124,0,.248,0,.248-.138.124,0,.124,0,.248-.138a.421.421,0,0,0,.248-.138.126.126,0,0,0,.124-.138h.124c.124,0,.124-.138.248-.276.124,0,.124-.138.248-.138l.248-.276c.124-.138.124-.138.124-.276s.124-.138.124-.276.124-.138.124-.276.124-.138.124-.276.124-.138.124-.276V298.4c0-.138,0-.276-.124-.276,0-.138,0-.138-.124-.276a.5.5,0,0,0-.124-.276s0-.138-.124-.138V297.3c0-.138-.124-.138-.248-.276,0-.138-.124-.138-.124-.276l-.248-.276-.248-.276c-.124,0-.124-.138-.248-.138s-.124-.138-.248-.138-.124-.138-.248-.138-.124-.138-.248-.138h0V231.98h.124c.124,0,.124,0,.248-.138.124,0,.124,0,.248-.138a.126.126,0,0,0,.124-.138h.248l.124-.138.124-.138.124-.138.124-.138.124-.138.124-.138.124-.138v-.276s0-.138.124-.138c0-.138,0-.138.124-.276,0-.138,0-.138.124-.276v-2.21h0l49.4-31.762a2.967,2.967,0,0,0,3.714.69C657.66,196.767,658.155,194.833,657.412,193.176ZM491.131,92.919h1.362c.124,0,.124,0,.248-.138.124,0,.124,0,.248-.138a.126.126,0,0,0,.124-.138h.248l.124-.138.124-.138.124-.138.124-.138h0l49.4,31.762h0v2.209c0,.138,0,.138.124.276,0,.138,0,.138.124.276,0,0,0,.138.124.138v.276l.124.138.124.138.124.138.124.138.124.138.124.138.124.138h.248a.126.126,0,0,1,.124.138c.124,0,.124,0,.248.138.124,0,.124,0,.248.138h.124v63.662h-.124c-.124,0-.124,0-.248.138-.124,0-.124,0-.248.138a.126.126,0,0,0-.124.138h-.248l-.124.138-.124.138-.124.138L544,192.9l-.124.138-.124.138-.124.138v.276s0,.138-.124.138c0,.138,0,.138-.124.276,0,.138,0,.138-.124.276v2.21h0l-49.4,31.762h0l-.124-.138-.124-.138-.124-.138-.124-.138h-.248a.126.126,0,0,1-.124-.138c-.124,0-.124,0-.248-.138-.124,0-.124,0-.248-.138h-1.981c-.124,0-.124,0-.248.138-.124,0-.124,0-.248.138a.126.126,0,0,0-.124.138h-.248l-.124.138-.124.138-.124.138-.124.138h0l-49.4-31.762h0v-2.21c0-.138,0-.138-.124-.276,0-.138,0-.138-.124-.276,0,0,0-.138-.124-.138v-.276l-.124-.138-.124-.138-.124-.138-.124-.138-.124-.138-.124-.138-.124-.138h-.248a.126.126,0,0,1-.124-.138c-.124,0-.124,0-.248-.138-.124,0-.124,0-.248-.138h-.124V128h.124c.124,0,.124,0,.248-.138.124,0,.124,0,.248-.138a.126.126,0,0,0,.124-.138h.248l.124-.138.124-.138.124-.138.124-.138.124-.138.124-.138.124-.138v-.276s0-.138.124-.138c0-.138,0-.138.124-.276,0-.138,0-.138.124-.276v-2.209h0l49.4-31.762h0l.124.138.124.138.124.138.124.138h.248a.126.126,0,0,1,.124.138c.124,0,.124,0,.248.138.124,0,.124,0,.248.138h.371C491.007,92.919,491.131,92.919,491.131,92.919ZM383.166,22.767h.248c.124,0,.124,0,.248-.138.124,0,.124,0,.248-.138a.126.126,0,0,0,.124-.138h.248l.124-.138.124-.138.124-.138.124-.138.124-.138.124-.138.124-.138V21.11s0-.138.124-.138c0-.138,0-.138.124-.276,0-.138,0-.138.124-.276V18.21h0l49.4-31.762h0l.124.138.124.138.124.138.124.138h.248a.126.126,0,0,1,.124.138c.124,0,.124,0,.248.138.124,0,.124,0,.248.138h1.981c.124,0,.124,0,.248-.138.124,0,.124,0,.248-.138a.126.126,0,0,0,.124-.138h.248l.124-.138.124-.138.124-.138.124-.138h0l49.4,31.762h0v2.21c0,.138,0,.138.124.276,0,.138,0,.138.124.276,0,0,0,.138.124.138v.276l.124.138.124.138.124.138.124.138.124.138.124.138.124.138h.248a.126.126,0,0,1,.124.138.366.366,0,0,1,.248.138c.124,0,.124,0,.248.138h.124V86.429h-.124c-.124,0-.124,0-.248.138-.124,0-.124,0-.248.138a.126.126,0,0,0-.124.138h-.248l-.124.138-.124.138-.124.138-.124.138-.124.138-.124.138-.124.138v.276s0,.138-.124.138c0,.138,0,.138-.124.276,0,.138,0,.138-.124.276v2.21h0l-49.4,31.762h0l-.124-.138-.124-.138-.124-.138-.124-.138h-.248a.126.126,0,0,1-.124-.138c-.124,0-.124,0-.248-.138-.124,0-.124,0-.248-.138h-1.981c-.124,0-.124,0-.248.138-.124,0-.124,0-.248.138a.126.126,0,0,0-.124.138h-.248l-.124.138-.124.138-.124.138-.124.138h0l-49.4-31.762h0v-2.21c0-.138,0-.138-.124-.276,0-.138,0-.138-.124-.276,0,0,0-.138-.124-.138V87.81l-.124-.138-.124-.138-.124-.138-.124-.138-.124-.138-.124-.138-.124-.138h-.248a.126.126,0,0,1-.124-.138c-.124,0-.124,0-.248-.138-.124,0-.124,0-.248-.138h-.124V22.767ZM382.3,92.919h1.362c.124,0,.124,0,.248-.138.124,0,.124,0,.248-.138a.126.126,0,0,0,.124-.138h.248l.124-.138.124-.138.124-.138.124-.138h0l49.4,31.762h0v2.209c0,.138,0,.138.124.276,0,.138,0,.138.124.276,0,0,0,.138.124.138v.276l.124.138.124.138.124.138.124.138.124.138.124.138.124.138h.248a.126.126,0,0,1,.124.138c.124,0,.124,0,.248.138.124,0,.124,0,.248.138h.124v63.662h-.124c-.124,0-.124,0-.248.138-.124,0-.124,0-.248.138a.126.126,0,0,0-.124.138h-.248l-.124.138-.124.138-.124.138-.124.138-.124.138-.124.138-.124.138v.276s0,.138-.124.138c0,.138,0,.138-.124.276,0,.138,0,.138-.124.276v2.21h0l-49.4,31.762h0l-.124-.138-.124-.138-.124-.138-.124-.138h-.248a.126.126,0,0,1-.124-.138c-.124,0-.124,0-.248-.138-.124,0-.124,0-.248-.138H381.68c-.124,0-.124,0-.248.138-.124,0-.124,0-.248.138a.126.126,0,0,0-.124.138h-.248l-.124.138-.124.138-.124.138-.124.138h0l-49.4-31.762h0v-2.21c0-.138,0-.138-.124-.276,0-.138,0-.138-.124-.276,0,0,0-.138-.124-.138v-.276l-.124-.138-.124-.138-.124-.138-.124-.138-.124-.138-.124-.138-.124-.138h-.248a.126.126,0,0,1-.124-.138c-.124,0-.124,0-.248-.138-.124,0-.124,0-.248-.138h-.124V128h.124c.124,0,.124,0,.248-.138.124,0,.124,0,.248-.138a.126.126,0,0,0,.124-.138h.248l.124-.138.124-.138.124-.138.124-.138.124-.138.124-.138.124-.138v-.276s0-.138.124-.138c0-.138,0-.138.124-.276,0-.138,0-.138.124-.276v-2.209h0l49.4-31.762h0l.124.138.124.138.124.138.124.138h.248a.126.126,0,0,1,.124.138c.124,0,.124,0,.248.138.124,0,.124,0,.248.138h.371C382.176,92.919,382.176,92.919,382.3,92.919ZM327.45,121.5h-.124c-.124,0-.124,0-.248.138-.124,0-.124,0-.248.138a.126.126,0,0,0-.124.138h-.248l-.124.138-.124.138-.124.138-.124.138h0l-49.4-31.762v-.138c0-.138,0-.276.124-.276V88.914c0-.138,0-.138-.124-.276a.5.5,0,0,0-.124-.276c0-.138-.124-.138-.124-.276s-.124-.138-.124-.276-.124-.138-.124-.276l-.248-.276c-.124-.138-.124-.138-.248-.138l-.248-.276H275.2a.126.126,0,0,1-.124-.138.421.421,0,0,1-.248-.138c-.124,0-.124,0-.248-.138h-.124V22.767h.124c.124,0,.124,0,.248-.138.124,0,.124,0,.248-.138a.126.126,0,0,0,.124-.138h.248l.124-.138.124-.138.124-.138.124-.138.124-.138.124-.138.124-.138V21.11s0-.138.124-.138c0-.138,0-.138.124-.276,0-.138,0-.138.124-.276V18.21h0l49.4-31.762h0l.124.138.124.138.124.138.124.138h.248a.126.126,0,0,1,.124.138c.124,0,.124,0,.248.138.124,0,.124,0,.248.138h1.981c.124,0,.124,0,.248-.138.124,0,.124,0,.248-.138a.126.126,0,0,0,.124-.138h.248l.124-.138.124-.138.124-.138.124-.138h0L380.2,18.21h0v2.21c0,.138,0,.138.124.276,0,.138,0,.138.124.276,0,0,0,.138.124.138v.276l.124.138.124.138.124.138.124.138.124.138.124.138.124.138h.248a.126.126,0,0,1,.124.138.366.366,0,0,1,.248.138c.124,0,.124,0,.248.138h.124V86.429H382.3c-.124,0-.124,0-.248.138-.124,0-.124,0-.248.138a.126.126,0,0,0-.124.138h-.248l-.124.138-.124.138-.124.138-.124.138-.124.138-.124.138-.124.138v.276s0,.138-.124.138c0,.138,0,.138-.124.276,0,.138,0,.138-.124.276v2.21h0l-49.4,31.762h0l-.124-.138-.124-.138-.124-.138-.124-.138h-.248a.126.126,0,0,1-.124-.138c-.124,0-.124,0-.248-.138-.124,0-.124,0-.248-.138h-1.61C327.574,121.5,327.45,121.5,327.45,121.5Zm0,280.471H327.2c-.124,0-.124,0-.248.138-.124,0-.124,0-.248.138a.126.126,0,0,0-.124.138h-.248l-.124.138-.124.138-.124.138-.124.138-.124.138-.124.138-.124.138v.276s0,.138-.124.138c0,.138,0,.138-.124.276,0,.138,0,.138-.124.276v2.21h0L275.7,438.3h0l-.124-.138-.124-.138-.124-.138-.124-.138h-.248a.126.126,0,0,1-.124-.138c-.124,0-.124,0-.248-.138-.124,0-.124,0-.248-.138h-1.857c-.124,0-.124,0-.248.138-.124,0-.124,0-.248.138a.126.126,0,0,0-.124.138h-.248l-.124.138-.124.138-.124.138-.124.138h0l-49.4-31.762h0v-2.21c0-.138,0-.138-.124-.276,0-.138,0-.138-.124-.276,0,0,0-.138-.124-.138v-.276l-.124-.138-.124-.138-.124-.138-.124-.138-.124-.138-.124-.138-.124-.138h-.248a.126.126,0,0,1-.124-.138c-.124,0-.124,0-.248-.138-.124,0-.124,0-.248-.138h-.124V338.314h.124c.124,0,.124,0,.248-.138.124,0,.124,0,.248-.138a.126.126,0,0,0,.124-.138h.248l.124-.138.124-.138.124-.138.124-.138.124-.138.124-.138.124-.138v-.276s0-.138.124-.138c0-.138,0-.138.124-.276,0-.138,0-.138.124-.276v-2.21h0L271.115,302h0l.124.138.124.138.124.138.124.138h.248a.126.126,0,0,1,.124.138c.124,0,.124,0,.248.138.124,0,.124,0,.248.138h1.981c.124,0,.124,0,.248-.138.124,0,.124,0,.248-.138a.126.126,0,0,0,.124-.138h.248l.124-.138.124-.138.124-.138.124-.138h0l49.4,31.762h0v2.21c0,.138,0,.138.124.276,0,.138,0,.138.124.276,0,0,0,.138.124.138v.276l.124.138.124.138.124.138.124.138.124.138.124.138.124.138h.248a.126.126,0,0,1,.124.138c.124,0,.124,0,.248.138.124,0,.124,0,.248.138h.124v63.662Zm1.114-70.152h-1.61c-.124,0-.124,0-.248.138-.124,0-.124,0-.248.138a.126.126,0,0,0-.124.138h-.248l-.124.138-.124.138-.124.138-.124.138h0l-49.4-31.762h0v-2.21c0-.138,0-.138-.124-.276,0-.138,0-.138-.124-.276,0,0,0-.138-.124-.138v-.276l-.124-.138-.124-.138-.124-.138-.124-.138-.124-.138-.124-.138-.124-.138h-.248a.126.126,0,0,1-.124-.138c-.124,0-.124,0-.248-.138-.124,0-.124,0-.248-.138h-.124V232.809h.124c.124,0,.124,0,.248-.138.124,0,.124,0,.248-.138a.126.126,0,0,0,.124-.138h.248l.124-.138.124-.138.124-.138.124-.138.124-.138.124-.138.124-.138v-.276s0-.138.124-.138c0-.138,0-.138.124-.276,0-.138,0-.138.124-.276v-2.21h0l49.4-31.762h0l.124.138.124.138.124.138.124.138h.248a.126.126,0,0,1,.124.138c.124,0,.124,0,.248.138.124,0,.124,0,.248.138h1.981c.124,0,.124,0,.248-.138.124,0,.124,0,.248-.138a.126.126,0,0,0,.124-.138h.248l.124-.138.124-.138.124-.138.124-.138h0l49.4,31.762h0v2.21c0,.138,0,.138.124.276,0,.138,0,.138.124.276,0,0,0,.138.124.138v.276l.124.138.124.138.124.138.124.138.124.138.124.138.124.138h.248a.126.126,0,0,1,.124.138c.124,0,.124,0,.248.138.124,0,.124,0,.248.138h.124v63.662H381.8c-.124,0-.124,0-.248.138-.124,0-.124,0-.248.138a.126.126,0,0,0-.124.138h-.248l-.124.138-.124.138-.124.138-.124.138-.124.138-.124.138-.124.138v.276s0,.138-.124.138c0,.138,0,.138-.124.276,0,.138,0,.138-.124.276v2.21h0l-49.4,31.762h0l-.124-.138-.124-.138-.124-.138-.124-.138h-.248a.126.126,0,0,1-.124-.138c-.124,0-.124,0-.248-.138-.124,0-.124,0-.248-.138h-.371Zm107.717,70.152h-.248c-.124,0-.124,0-.248.138-.124,0-.124,0-.248.138a.126.126,0,0,0-.124.138h-.248l-.124.138-.124.138-.124.138-.124.138-.124.138-.124.138-.124.138v.276s0,.138-.124.138c0,.138,0,.138-.124.276,0,.138,0,.138-.124.276v2.21h0l-49.4,31.762h0l-.124-.138-.124-.138-.124-.138-.124-.138h-.248a.126.126,0,0,1-.124-.138c-.124,0-.124,0-.248-.138-.124,0-.124,0-.248-.138h-1.857c-.124,0-.124,0-.248.138-.124,0-.124,0-.248.138a.126.126,0,0,0-.124.138h-.248l-.124.138-.124.138-.124.138-.124.138h0l-49.4-31.762h0v-2.21c0-.138,0-.138-.124-.276,0-.138,0-.138-.124-.276,0,0,0-.138-.124-.138v-.276l-.124-.138-.124-.138-.124-.138-.124-.138-.124-.138-.124-.138-.124-.138h-.248a.126.126,0,0,1-.124-.138c-.124,0-.124,0-.248-.138-.124,0-.124,0-.248-.138h-.124V338.314h.124c.124,0,.124,0,.248-.138.124,0,.124,0,.248-.138a.126.126,0,0,0,.124-.138h.248l.124-.138.124-.138.124-.138.124-.138.124-.138.124-.138.124-.138v-.276s0-.138.124-.138c0-.138,0-.138.124-.276,0-.138,0-.138.124-.276v-2.21h0L379.947,302h0l.124.138.124.138.124.138.124.138h.248a.126.126,0,0,1,.124.138c.124,0,.124,0,.248.138.124,0,.124,0,.248.138h1.981c.124,0,.124,0,.248-.138.124,0,.124,0,.248-.138a.126.126,0,0,0,.124-.138h.248l.124-.138.124-.138.124-.138.124-.138h0l49.4,31.762h0v2.21c0,.138,0,.138.124.276,0,.138,0,.138.124.276,0,0,0,.138.124.138v.276l.124.138.124.138.124.138.124.138.124.138.124.138.124.138h.248a.126.126,0,0,1,.124.138c.124,0,.124,0,.248.138.124,0,.124,0,.248.138h.124Zm1.238-70.152h-1.61c-.124,0-.124,0-.248.138-.124,0-.124,0-.248.138a.126.126,0,0,0-.124.138h-.248l-.124.138-.124.138-.124.138-.124.138h0l-49.4-31.762h0v-2.21c0-.138,0-.138-.124-.276,0-.138,0-.138-.124-.276,0,0,0-.138-.124-.138v-.276l-.124-.138-.124-.138-.124-.138-.124-.138-.124-.138-.124-.138-.124-.138h-.248a.126.126,0,0,1-.124-.138c-.124,0-.124,0-.248-.138-.124,0-.124,0-.248-.138h-.124V232.809h.124c.124,0,.124,0,.248-.138.124,0,.124,0,.248-.138a.126.126,0,0,0,.124-.138h.248l.124-.138.124-.138.124-.138.124-.138.124-.138.124-.138.124-.138v-.276s0-.138.124-.138c0-.138,0-.138.124-.276,0-.138,0-.138.124-.276v-2.21h0l49.4-31.762h0l.124.138.124.138.124.138.124.138h.248a.126.126,0,0,1,.124.138c.124,0,.124,0,.248.138.124,0,.124,0,.248.138h1.981c.124,0,.124,0,.248-.138.124,0,.124,0,.248-.138a.126.126,0,0,0,.124-.138h.248l.124-.138.124-.138.124-.138.124-.138h0l49.4,31.762h0v2.21c0,.138,0,.138.124.276,0,.138,0,.138.124.276,0,0,0,.138.124.138v.276l.124.138.124.138.124.138.124.138.124.138.124.138.124.138h.248a.126.126,0,0,1,.124.138c.124,0,.124,0,.248.138.124,0,.124,0,.248.138h.124v63.662h-.124c-.124,0-.124,0-.248.138-.124,0-.124,0-.248.138a.126.126,0,0,0-.124.138h-.248l-.124.138-.124.138-.124.138-.124.138-.124.138-.124.138-.124.138v.276s0,.138-.124.138c0,.138,0,.138-.124.276,0,.138,0,.138-.124.276v2.21h0l-49.4,31.762h0l-.124-.138-.124-.138-.124-.138-.124-.138h-.248a.126.126,0,0,1-.124-.138c-.124,0-.124,0-.248-.138-.124,0-.124,0-.248-.138h-.371Zm107.717,70.152h-.248c-.124,0-.124,0-.248.138-.124,0-.124,0-.248.138a.126.126,0,0,0-.124.138h-.248l-.124.138-.124.138-.124.138-.124.138-.124.138-.124.138-.124.138v.276s0,.138-.124.138c0,.138,0,.138-.124.276,0,.138,0,.138-.124.276v2.21h0l-49.4,31.762h0l-.124-.138-.124-.138-.124-.138-.124-.138h-.248a.126.126,0,0,1-.124-.138c-.124,0-.124,0-.248-.138-.124,0-.124,0-.248-.138h-1.733c-.124,0-.124,0-.248.138-.124,0-.124,0-.248.138a.126.126,0,0,0-.124.138h-.248l-.124.138-.124.138-.124.138-.124.138h0l-49.4-31.762h0v-2.21c0-.138,0-.138-.124-.276,0-.138,0-.138-.124-.276,0,0,0-.138-.124-.138v-.276l-.124-.138-.124-.138-.124-.138-.124-.138-.124-.138-.124-.138-.124-.138h-.248a.126.126,0,0,1-.124-.138c-.124,0-.124,0-.248-.138-.124,0-.124,0-.248-.138H437.4V338.314h.124c.124,0,.124,0,.248-.138.124,0,.124,0,.248-.138a.126.126,0,0,0,.124-.138h.248l.124-.138.124-.138.124-.138.124-.138.124-.138.124-.138.124-.138v-.276s0-.138.124-.138c0-.138,0-.138.124-.276,0-.138,0-.138.124-.276v-2.21h0L489.026,302h0l.124.138.124.138.124.138.124.138h.248a.126.126,0,0,1,.124.138c.124,0,.124,0,.248.138.124,0,.124,0,.248.138h1.981c.124,0,.124,0,.248-.138.124,0,.124,0,.248-.138a.126.126,0,0,0,.124-.138h.248l.124-.138.124-.138.124-.138.124-.138h0l49.4,31.762h0v2.21c0,.138,0,.138.124.276,0,.138,0,.138.124.276,0,0,0,.138.124.138v.276l.124.138.124.138.124.138.124.138.124.138.124.138.124.138h.248a.126.126,0,0,1,.124.138c.124,0,.124,0,.248.138.124,0,.124,0,.248.138h.124v63.662Zm54.478-105.229h0c-.248,0-.248.138-.371.138a.421.421,0,0,0-.248.138.126.126,0,0,0-.124.138h-.124c-.124,0-.124.138-.248.276-.124,0-.124.138-.248.138l-.248.276-.248.276c0,.138-.124.138-.124.276s-.124.138-.124.276-.124.138-.124.276-.124.138-.124.276v1.381c0,.138,0,.276.124.276v.138l-49.4,31.762h0l-.124-.138-.124-.138-.124-.138-.124-.138h-.248a.126.126,0,0,1-.124-.138c-.124,0-.124,0-.248-.138-.124,0-.124,0-.248-.138h-1.981c-.124,0-.124,0-.248.138-.124,0-.124,0-.248.138a.126.126,0,0,0-.124.138h-.248l-.124.138-.124.138-.124.138-.124.138h0l-49.4-31.762h0v-2.21c0-.138,0-.138-.124-.276,0-.138,0-.138-.124-.276,0,0,0-.138-.124-.138v-.276l-.124-.138-.124-.138-.124-.138-.124-.138-.124-.138-.124-.138-.124-.138h-.248a.126.126,0,0,1-.124-.138c-.124,0-.124,0-.248-.138-.124,0-.124,0-.248-.138h-.124V232.809h.124c.124,0,.124,0,.248-.138.124,0,.124,0,.248-.138a.126.126,0,0,0,.124-.138h.248l.124-.138.124-.138.124-.138.124-.138.124-.138.124-.138.124-.138v-.276s0-.138.124-.138c0-.138,0-.138.124-.276,0-.138,0-.138.124-.276v-2.21h0l49.4-31.762h0l.124.138.124.138.124.138.124.138h.248a.126.126,0,0,1,.124.138c.124,0,.124,0,.248.138.124,0,.124,0,.248.138h1.981c.124,0,.124,0,.248-.138.124,0,.124,0,.248-.138a.126.126,0,0,0,.124-.138h.248l.124-.138.124-.138.124-.138.124-.138h0l49.4,31.762h0v2.21c0,.138,0,.138.124.276,0,.138,0,.138.124.276,0,0,0,.138.124.138v.276l.124.138.124.138.124.138.124.138.124.138.124.138.124.138h.248a.126.126,0,0,1,.124.138c.124,0,.124,0,.248.138.124,0,.124,0,.248.138h.124Z" transform="translate(-104.654 42)" fill="url(#linear-gradient)"/>
    </g>
  </g>
</svg>
