<svg xmlns="http://www.w3.org/2000/svg" width="24" height="24" viewBox="0 0 24 24">
  <g id="Icon" transform="translate(-141 -323)">
    <rect id="Base" width="24" height="24" transform="translate(141 323)" fill="#0090f0" opacity="0"/>
    <g id="telephone" transform="translate(142.088 324.962)">
      <path id="Path_4899" data-name="Path 4899" d="M4.965,13.345a21.3,21.3,0,0,0,7.084,5.549,11.026,11.026,0,0,0,3.964,1.173c.1,0,.187.008.283.008a3.283,3.283,0,0,0,2.546-1.094.091.091,0,0,0,.017-.021,10.718,10.718,0,0,1,.8-.832c.2-.187.4-.383.587-.582a2.009,2.009,0,0,0-.008-2.991l-2.5-2.5a2.024,2.024,0,0,0-1.464-.674,2.092,2.092,0,0,0-1.481.67l-1.489,1.489c-.137-.079-.279-.15-.412-.216a5.144,5.144,0,0,1-.458-.25A15.761,15.761,0,0,1,8.671,9.647,9.076,9.076,0,0,1,7.4,7.617c.391-.354.757-.724,1.111-1.086.125-.129.254-.258.383-.387a2.133,2.133,0,0,0,.691-1.5,2.116,2.116,0,0,0-.691-1.5l-1.24-1.24c-.146-.146-.283-.287-.424-.433C6.953,1.194,6.666.9,6.383.641A2.074,2.074,0,0,0,4.919,0,2.135,2.135,0,0,0,3.438.645L1.882,2.2A3.2,3.2,0,0,0,.929,4.247a7.7,7.7,0,0,0,.578,3.328A19.361,19.361,0,0,0,4.965,13.345Zm-3.02-9.01A2.2,2.2,0,0,1,2.606,2.92L4.153,1.373a1.12,1.12,0,0,1,.765-.354,1.063,1.063,0,0,1,.749.362c.279.258.541.528.824.815.141.146.287.291.433.441l1.24,1.24a1.13,1.13,0,0,1,.391.778,1.13,1.13,0,0,1-.391.778c-.129.129-.258.262-.387.391-.387.391-.749.761-1.148,1.115l-.021.021a.813.813,0,0,0-.208.924c0,.012.008.021.012.033a9.79,9.79,0,0,0,1.46,2.375,16.635,16.635,0,0,0,4.01,3.652,5.955,5.955,0,0,0,.549.3,5.144,5.144,0,0,1,.458.25l.046.025a.87.87,0,0,0,.4.1.882.882,0,0,0,.62-.283l1.556-1.556a1.1,1.1,0,0,1,.761-.37,1.045,1.045,0,0,1,.736.37l2.508,2.5a1,1,0,0,1-.012,1.568c-.175.187-.358.366-.553.553a11.979,11.979,0,0,0-.869.9,2.284,2.284,0,0,1-1.785.757c-.071,0-.146,0-.216-.008A10.017,10.017,0,0,1,12.5,17.988,20.233,20.233,0,0,1,5.755,12.7a18.532,18.532,0,0,1-3.286-5.47A6.709,6.709,0,0,1,1.944,4.335Z" transform="translate(0 0)" fill="#0090f0"/>
    </g>
  </g>
</svg>
