<svg xmlns="http://www.w3.org/2000/svg" width="40" height="40" viewBox="0 0 40 40">
  <g id="Icon" transform="translate(-141 -323)">
    <rect id="Baase" width="40" height="40" transform="translate(141 323)" fill="#0090f0" opacity="0"/>
    <g id="telephone" transform="translate(142.088 324)">
      <path id="Path_4899" data-name="Path 4899" d="M8.207,24.021A38.337,38.337,0,0,0,20.959,34.01a19.847,19.847,0,0,0,7.136,2.112c.172.007.337.015.509.015a5.909,5.909,0,0,0,4.583-1.969.164.164,0,0,0,.03-.037,19.292,19.292,0,0,1,1.445-1.5c.352-.337.711-.689,1.056-1.048A3.615,3.615,0,0,0,35.7,26.2l-4.5-4.5a3.642,3.642,0,0,0-2.636-1.213A3.765,3.765,0,0,0,25.9,21.692L23.22,24.373c-.247-.142-.5-.27-.741-.389a9.26,9.26,0,0,1-.824-.449,28.37,28.37,0,0,1-6.777-6.17,16.337,16.337,0,0,1-2.291-3.654c.7-.636,1.363-1.3,2-1.954.225-.232.457-.464.689-.7a3.839,3.839,0,0,0,1.243-2.7,3.808,3.808,0,0,0-1.243-2.7L13.044,3.437c-.262-.262-.509-.517-.764-.779-.494-.509-1.011-1.033-1.52-1.505A3.733,3.733,0,0,0,8.124,0,3.843,3.843,0,0,0,5.459,1.161l-2.8,2.8A5.754,5.754,0,0,0,.944,7.645a13.858,13.858,0,0,0,1.041,5.99A34.85,34.85,0,0,0,8.207,24.021ZM2.771,7.8A3.961,3.961,0,0,1,3.961,5.256L6.747,2.471a2.016,2.016,0,0,1,1.378-.636,1.913,1.913,0,0,1,1.348.651c.5.464.973.951,1.483,1.468.255.262.517.524.779.794l2.231,2.231a2.033,2.033,0,0,1,.7,1.4,2.033,2.033,0,0,1-.7,1.4c-.232.232-.464.472-.7.7-.7.7-1.348,1.37-2.067,2.007l-.037.037a1.464,1.464,0,0,0-.374,1.662c.007.022.015.037.022.06a17.623,17.623,0,0,0,2.628,4.276A29.943,29.943,0,0,0,20.659,25.1a10.719,10.719,0,0,0,.988.539,9.259,9.259,0,0,1,.824.449c.03.015.052.03.082.045a1.565,1.565,0,0,0,.726.187,1.588,1.588,0,0,0,1.116-.509l2.8-2.8a1.982,1.982,0,0,1,1.37-.666,1.881,1.881,0,0,1,1.325.666l4.515,4.508a1.806,1.806,0,0,1-.022,2.823c-.314.337-.644.659-1,1a21.563,21.563,0,0,0-1.565,1.625,4.111,4.111,0,0,1-3.212,1.363c-.127,0-.262-.007-.389-.015a18.031,18.031,0,0,1-6.455-1.932A36.42,36.42,0,0,1,9.63,22.868a33.357,33.357,0,0,1-5.915-9.847A12.077,12.077,0,0,1,2.771,7.8Z" transform="translate(0)" fill="#0090f0"/>
    </g>
  </g>
</svg>
