<svg xmlns="http://www.w3.org/2000/svg" width="24" height="24" viewBox="0 0 24 24">
  <g id="Icon" transform="translate(-141 -323)">
    <rect id="Base" width="24" height="24" transform="translate(141 323)" fill="#0090f0" opacity="0"/>
    <g id="Chat" transform="translate(140 321)">
      <path id="Path_4892" data-name="Path 4892" d="M24,12a3.5,3.5,0,0,0-3.5-3.5H18v-2A3.5,3.5,0,0,0,14.5,3h-9A3.5,3.5,0,0,0,2,6.5v7a3.493,3.493,0,0,0,.976,2.426l-.923,1.851a.5.5,0,0,0,.627.69L6.493,17H8v2a3.5,3.5,0,0,0,3.5,3.5h8.007l3.813,1.467a.5.5,0,0,0,.627-.69l-.923-1.851A3.493,3.493,0,0,0,24,19ZM6.4,16a.5.5,0,0,0-.18.033l-2.7,1.038.515-1.033a.5.5,0,0,0-.129-.608A2.5,2.5,0,0,1,3,13.5v-7A2.5,2.5,0,0,1,5.5,4h9A2.5,2.5,0,0,1,17,6.5v7A2.5,2.5,0,0,1,14.5,16ZM23,19a2.5,2.5,0,0,1-.908,1.93.5.5,0,0,0-.129.608l.515,1.033-2.7-1.038a.5.5,0,0,0-.18-.033H11.5A2.5,2.5,0,0,1,9,19V17h5.5A3.5,3.5,0,0,0,18,13.5v-4h2.5A2.5,2.5,0,0,1,23,12Z" transform="translate(0)" fill="#0090f0"/>
      <path id="Path_4893" data-name="Path 4893" d="M15.5,13h5a.5.5,0,0,0,0-1h-5a.5.5,0,1,0,0,1Z" transform="translate(-6.5 -4.5)" fill="#0090f0"/>
      <path id="Path_4894" data-name="Path 4894" d="M18,20.5a.5.5,0,0,0-.5-.5h-8a.5.5,0,1,0,0,1h8A.5.5,0,0,0,18,20.5Z" transform="translate(-3.5 -8.5)" fill="#0090f0"/>
    </g>
  </g>
</svg>
