<svg xmlns="http://www.w3.org/2000/svg" width="40" height="40" viewBox="0 0 40 40">
  <g id="Icon" transform="translate(-141 -323)">
    <rect id="Baase" width="40" height="40" transform="translate(141 323)" fill="#0090f0" opacity="0"/>
    <g id="Chat" transform="translate(141 323)">
      <path id="Path_4892" data-name="Path 4892" d="M38,17.727A5.734,5.734,0,0,0,32.273,12H28.182V8.727A5.734,5.734,0,0,0,22.455,3H7.727A5.734,5.734,0,0,0,2,8.727V20.182a5.716,5.716,0,0,0,1.6,3.97L2.086,27.18a.818.818,0,0,0,1.026,1.129l6.239-2.4h2.466v3.273a5.734,5.734,0,0,0,5.727,5.727h13.1l6.239,2.4a.818.818,0,0,0,1.026-1.129L36.4,33.152a5.716,5.716,0,0,0,1.6-3.97ZM9.2,24.273a.824.824,0,0,0-.294.054l-4.415,1.7.843-1.691a.816.816,0,0,0-.211-1,4.086,4.086,0,0,1-1.486-3.158V8.727A4.1,4.1,0,0,1,7.727,4.636H22.455a4.1,4.1,0,0,1,4.091,4.091V20.182a4.1,4.1,0,0,1-4.091,4.091Zm27.164,4.909a4.086,4.086,0,0,1-1.486,3.158.816.816,0,0,0-.211,1l.843,1.691-4.415-1.7a.824.824,0,0,0-.295-.054H17.545a4.1,4.1,0,0,1-4.091-4.091V25.909h9a5.734,5.734,0,0,0,5.727-5.727V13.636h4.091a4.1,4.1,0,0,1,4.091,4.091Z" transform="translate(0)" fill="#0090f0"/>
      <path id="Path_4893" data-name="Path 4893" d="M15.818,13.636H24A.818.818,0,0,0,24,12H15.818a.818.818,0,1,0,0,1.636Z" transform="translate(-2.364 -1.636)" fill="#0090f0"/>
      <path id="Path_4894" data-name="Path 4894" d="M23.727,20.818A.818.818,0,0,0,22.909,20H9.818a.818.818,0,1,0,0,1.636H22.909A.818.818,0,0,0,23.727,20.818Z" transform="translate(-1.273 -3.091)" fill="#0090f0"/>
    </g>
  </g>
</svg>
