<svg xmlns="http://www.w3.org/2000/svg" xmlns:xlink="http://www.w3.org/1999/xlink" width="1440.077" height="596" viewBox="0 0 1440.077 596">
  <defs>
    <radialGradient id="radial-gradient" cx="0.512" cy="0.354" r="2.189" gradientUnits="objectBoundingBox">
      <stop offset="0" stop-color="#0c3965"/>
      <stop offset="0.114" stop-color="#152f4b"/>
      <stop offset="0.244" stop-color="#13283e"/>
      <stop offset="0.704" stop-color="#112437"/>
      <stop offset="1" stop-color="#17324c"/>
      <stop offset="1" stop-color="#0e1e2e"/>
      <stop offset="1" stop-color="#050b11"/>
    </radialGradient>
    <linearGradient id="linear-gradient" x1="0.596" y1="0.5" x2="0.412" y2="0.474" gradientUnits="objectBoundingBox">
      <stop offset="0" stop-color="#0090f0"/>
      <stop offset="0" stop-color="#006ab1"/>
      <stop offset="1" stop-color="#004878"/>
    </linearGradient>
  </defs>
  <g id="Cover" transform="translate(5636 109)">
    <rect id="Base" width="1440" height="596" transform="translate(-5636 -109)" fill="url(#radial-gradient)"/>
    <g id="Icons" transform="translate(-4711.925 -109)" opacity="0.169">
      <path id="Path_4890" data-name="Path 4890" d="M620.358,124.7a2.99,2.99,0,0,0-3.812-.881,2.271,2.271,0,0,0-1.271,2.741l-46.09,22.513h0l-.116-.1-.116-.1-.115-.1-.116-.1h-.231s-.116,0-.116-.1c-.116,0-.116,0-.231-.1-.116,0-.116,0-.231-.1h-1.848c-.115,0-.115,0-.231.1-.116,0-.116,0-.231.1,0,0-.116,0-.116.1h-.231l-.116.1-.116.1-.115.1-.116.1h0l-46.09-22.513h0v-1.566c0-.1,0-.1-.115-.2,0-.1,0-.1-.116-.2a.1.1,0,0,0-.116-.1v-.2l-.115-.1-.116-.1-.116-.1-.115-.1-.116-.1-.116-.1-.115-.1h-.231s-.116,0-.116-.1c-.115,0-.115,0-.231-.1-.116,0-.116,0-.231-.1h-.116V78.495h.116c.115,0,.115,0,.231-.1.116,0,.116,0,.231-.1,0,0,.116,0,.116-.1h.231l.115-.1.116-.1.116-.1.115-.1.116-.1.116-.1.115-.1v-.2a.1.1,0,0,1,.116-.1c0-.1,0-.1.116-.2,0-.1,0-.1.115-.2V75.265h0L564.8,52.751a3.4,3.4,0,0,0,3.465.489,2.132,2.132,0,0,0,1.04-3.23,2.99,2.99,0,0,0-3.812-.881,2.272,2.272,0,0,0-1.271,2.741l-46.09,22.513h0l-.116-.1-.116-.1-.116-.1-.115-.1h-.231s-.115,0-.115-.1c-.116,0-.116,0-.231-.1-.115,0-.115,0-.231-.1H515.01c-.115,0-.115,0-.231.1-.116,0-.116,0-.231.1,0,0-.116,0-.116.1H514.2l-.116.1-.116.1-.115.1-.116.1h0L467.649,51.87h0V50.3c0-.1,0-.1-.116-.2,0-.1,0-.1-.115-.2a.1.1,0,0,0-.116-.1v-.2l-.116-.1-.115-.1-.116-.1-.116-.1-.115-.1-.116-.1-.116-.1h-.231s-.116,0-.116-.1c-.115,0-.115,0-.231-.1-.116,0-.116,0-.231-.1h-.116V3.907h.116c.115,0,.115,0,.231-.1.116,0,.116,0,.231-.1,0,0,.116,0,.116-.1h.231l.116-.1.116-.1.115-.1.116-.1.116-.1.115-.1.116-.1v-.2a.1.1,0,0,1,.116-.1c0-.1,0-.1.115-.2,0-.1,0-.1.116-.2V.677h0l46.09-22.513h0l.116.1.115.1.116.1.116.1h.231s.116,0,.116.1c.115,0,.115,0,.231.1.116,0,.116,0,.231.1h1.848c.116,0,.116,0,.231-.1.116,0,.116,0,.231-.1,0,0,.115,0,.115-.1h.231l.115-.1.116-.1.116-.1.116-.1h0L564.219.677a2.231,2.231,0,0,0,1.271,2.741,2.99,2.99,0,0,0,3.812-.881,2.132,2.132,0,0,0-1.04-3.23A3.026,3.026,0,0,0,564.8-.2l-46.09-22.513h0v-1.566c0-.1,0-.1-.115-.2,0-.1,0-.1-.116-.2a.1.1,0,0,0-.116-.1v-.2l-.115-.1-.116-.1-.116-.1-.115-.1-.116-.1-.116-.1-.115-.1h-.231s-.116,0-.116-.1a.391.391,0,0,1-.231-.1c-.116,0-.116,0-.231-.1h-1.848c-.116,0-.116,0-.231.1-.116,0-.116,0-.231.1,0,0-.115,0-.115.1h-.231l-.115.1-.116.1-.116.1-.115.1-.116.1-.116.1-.115.1v.2a.1.1,0,0,1-.116.1c0,.1,0,.1-.116.2,0,.1,0,.1-.115.2v1.566h0L466.841-.2h0l-.116-.1-.116-.1-.115-.1-.116-.1h-.231s-.116,0-.116-.1c-.116,0-.116,0-.231-.1-.116,0-.116,0-.231-.1h-1.848c-.116,0-.116,0-.231.1-.116,0-.116,0-.231.1,0,0-.116,0-.116.1h-.231l-.116.1-.116.1-.115.1-.116.1h0l-46.09-22.513h0v-1.566c0-.1,0-.1-.116-.2,0-.1,0-.1-.116-.2a.1.1,0,0,0-.116-.1v-.2l-.116-.1-.116-.1-.116-.1-.116-.1-.116-.1-.116-.1-.116-.1h-.231s-.116,0-.116-.1c-.116,0-.116,0-.231-.1-.116,0-.116,0-.231-.1h-.116V-42h-1.271v16.053H412.9c-.116,0-.116,0-.231.1-.116,0-.116,0-.231.1,0,0-.116,0-.116.1h-.231l-.116.1-.116.1-.116.1-.116.1-.116.1-.116.1-.116.1v.2a.1.1,0,0,1-.116.1c0,.1,0,.1-.116.2,0,.1,0,.1-.116.2v1.566h0L364.842-.2h0l-.116-.1-.116-.1L364.5-.5l-.116-.1h-.231s-.116,0-.116-.1c-.116,0-.116,0-.231-.1-.116,0-.116,0-.231-.1h-1.848c-.116,0-.116,0-.231.1-.116,0-.116,0-.231.1,0,0-.116,0-.116.1h-.231l-.116.1-.116.1-.116.1-.116.1h0l-46.09-22.513h0v-1.566c0-.1,0-.1-.116-.2,0-.1,0-.1-.116-.2a.1.1,0,0,0-.116-.1v-.2l-.116-.1-.116-.1-.116-.1-.116-.1-.116-.1-.116-.1-.116-.1h-.231s-.116,0-.116-.1a.391.391,0,0,1-.231-.1c-.116,0-.116,0-.231-.1h-.116V-42h-1.271v16.053H310.9c-.116,0-.116,0-.231.1-.116,0-.116,0-.231.1,0,0-.116,0-.116.1h-.231l-.116.1-.116.1-.116.1-.116.1-.116.1-.116.1-.116.1v.2a.1.1,0,0,1-.116.1c0,.1,0,.1-.116.2,0,.1,0,.1-.116.2v1.566h0L262.843-.2h0l-.116-.1-.116-.1L262.5-.5l-.116-.1h-.231s-.116,0-.116-.1c-.116,0-.116,0-.231-.1-.116,0-.116,0-.231-.1h-1.848c-.116,0-.116,0-.231.1-.116,0-.116,0-.231.1,0,0-.116,0-.116.1h-.231l-.116.1-.116.1-.116.1-.116.1h0l-46.09-22.513a2.231,2.231,0,0,0-1.271-2.741,2.99,2.99,0,0,0-3.812.881,2.132,2.132,0,0,0,1.04,3.23,3.026,3.026,0,0,0,3.465-.489L257.876.677h0V2.243c0,.1,0,.1.116.2,0,.1,0,.1.116.2a.1.1,0,0,0,.116.1v.2l.116.1.116.1.116.1.116.1.116.1.116.1.116.1h.231s.116,0,.116.1a.391.391,0,0,1,.231.1c.116,0,.116,0,.231.1h.116V49.032h0c-.116,0-.116,0-.231.1-.116,0-.116,0-.231.1-.116,0-.116.1-.231.1s-.116.1-.231.1-.116.1-.231.2l-.231.2c-.116.1-.116.1-.116.2l-.231.2v.1a.1.1,0,0,1-.116.1c0,.1-.116.2-.116.2,0,.1,0,.1-.116.2,0,.1,0,.2-.116.2v.979c0,.1,0,.1.116.2,0,.1.116.2.116.2,0,.1.116.1.116.2s.116.1.116.2.116.1.231.2l.231.2c.116.1.116.1.231.1l.231.2h.116s.116,0,.116.1a.429.429,0,0,1,.231.1c.116,0,.116,0,.231.1.116,0,.231,0,.231.1h1.155c.116,0,.116,0,.231-.1a.429.429,0,0,0,.231-.1c.116,0,.116-.1.231-.1s.116-.1.231-.1.116-.1.231-.1l.231-.2h0L308.7,75.656h0v1.566c0,.1,0,.1.116.2,0,.1,0,.1.116.2a.1.1,0,0,0,.116.1v.2l.116.1.116.1.116.1.116.1.116.1.116.1.116.1h.231s.116,0,.116.1c.116,0,.116,0,.231.1.116,0,.116,0,.231.1h.116v45.124h-.116c-.116,0-.116,0-.231.1-.116,0-.116,0-.231.1,0,0-.116,0-.116.1h-.231l-.116.1-.116.1-.116.1-.116.1-.116.1-.116.1-.116.1v.2a.1.1,0,0,1-.116.1c0,.1,0,.1-.116.2,0,.1,0,.1-.116.2v1.566h0l-46.09,22.513h0l-.116-.1-.116-.1-.116-.1-.116-.1h-.231s-.116,0-.116-.1c-.116,0-.116,0-.231-.1-.116,0-.116,0-.231-.1h-1.848c-.116,0-.116,0-.231.1-.116,0-.116,0-.231.1,0,0-.116,0-.116.1h-.231l-.116.1-.116.1-.116.1-.116.1h0l-46.09-22.513a2.231,2.231,0,0,0-1.271-2.741,2.99,2.99,0,0,0-3.812.881,2.132,2.132,0,0,0,1.04,3.23,3.026,3.026,0,0,0,3.465-.489l46.09,22.513h0V152.2c0,.1,0,.1.116.2,0,.1,0,.1.116.2a.1.1,0,0,0,.116.1v.2l.116.1.116.1.116.1.116.1.116.1.116.1.116.1h.231s.116,0,.116.1c.116,0,.116,0,.231.1.116,0,.116,0,.231.1h.116V198.99h-.116c-.116,0-.116,0-.231.1-.116,0-.116,0-.231.1,0,0-.116,0-.116.1H258.8l-.116.1-.116.1-.116.1-.116.1-.116.1-.116.1-.116.1v.2a.1.1,0,0,1-.116.1c0,.1,0,.1-.116.2,0,.1,0,.1-.116.2v1.566h0l-46.09,22.513h0l-.116-.1-.116-.1-.115-.1-.116-.1h-.231s-.116,0-.116-.1c-.116,0-.116,0-.231-.1-.115,0-.115,0-.231-.1h-1.848c-.115,0-.115,0-.231.1-.116,0-.116,0-.231.1,0,0-.115,0-.115.1h-.231l-.115.1-.116.1-.116.1-.115.1h0l-46.09-22.513a2.231,2.231,0,0,0-1.271-2.741,2.99,2.99,0,0,0-3.812.881,2.132,2.132,0,0,0,1.04,3.23,3.026,3.026,0,0,0,3.465-.489l46.09,22.513h0v1.566c0,.1,0,.1.115.2,0,.1,0,.1.116.2a.1.1,0,0,0,.116.1v.2l.115.1.116.1.116.1.115.1.116.1.116.1.116.1h.231s.116,0,.116.1c.115,0,.115,0,.231.1.116,0,.116,0,.231.1h.115v45.124h-.115c-.116,0-.116,0-.231.1-.115,0-.115,0-.231.1,0,0-.116,0-.116.1h-.231l-.116.1-.116.1-.116.1-.115.1-.116.1-.116.1-.115.1v.2a.1.1,0,0,1-.116.1c0,.1,0,.1-.116.2,0,.1,0,.1-.115.2V277.2h0L160.5,299.712h0l-.116-.1-.115-.1-.116-.1-.116-.1h-.231s-.116,0-.116-.1c-.115,0-.115,0-.231-.1-.116,0-.116,0-.231-.1h-1.733c-.116,0-.116,0-.231.1-.115,0-.115,0-.231.1,0,0-.116,0-.116.1h-.231l-.115.1-.116.1-.116.1-.115.1h0L110.134,277.2a2.231,2.231,0,0,0-1.271-2.741,2.99,2.99,0,0,0-3.812.881,2.132,2.132,0,0,0,1.04,3.23,3.026,3.026,0,0,0,3.465-.489l46.09,22.513h0v1.468c0,.1,0,.1.115.2,0,.1,0,.1.116.2a.1.1,0,0,0,.116.1v.2l.115.1.116.1.116.1.115.1.116.1.116.1.116.1h.231s.116,0,.116.1c.115,0,.115,0,.231.1.115,0,.115,0,.231.1h.116V328H159V302.159h.115c.116,0,.116,0,.231-.1.116,0,.116,0,.231-.1,0,0,.116,0,.116-.1h.231l.116-.1.116-.1.115-.1.116-.1.116-.1.115-.1.116-.1v-.2a.1.1,0,0,1,.116-.1c0-.1,0-.1.115-.2,0-.1,0-.1.116-.2v-1.566h0l46.09-22.513h0l.116.1.115.1.116.1.116.1h.231s.116,0,.116.1c.116,0,.116,0,.231.1.116,0,.116,0,.231.1h1.848c.116,0,.116,0,.231-.1.116,0,.116,0,.231-.1,0,0,.116,0,.116-.1h.231l.116-.1.115-.1.116-.1.116-.1h0l46.09,22.513h0v1.566c0,.1,0,.1.116.2,0,.1,0,.1.116.2a.1.1,0,0,0,.116.1v.2l.116.1.116.1.116.1.116.1.116.1.116.1.116.1h.231s.116,0,.116.1c.116,0,.116,0,.231.1.116,0,.116,0,.231.1h.116V328H261V302.159h.116c.116,0,.116,0,.231-.1.116,0,.116,0,.231-.1,0,0,.116,0,.116-.1h.231l.116-.1.116-.1.116-.1.116-.1.116-.1.116-.1.116-.1v-.2a.1.1,0,0,1,.116-.1c0-.1,0-.1.116-.2,0-.1,0-.1.116-.2v-1.566h0l46.09-22.513h0l.116.1.116.1.116.1.116.1h.231s.116,0,.116.1c.116,0,.116,0,.231.1.116,0,.116,0,.231.1h1.848c.116,0,.116,0,.231-.1.116,0,.116,0,.231-.1,0,0,.116,0,.116-.1h.231l.116-.1.116-.1.116-.1.116-.1h0l46.09,22.513h0v1.566c0,.1,0,.1.116.2,0,.1,0,.1.116.2a.1.1,0,0,0,.116.1v.2l.116.1.116.1.116.1.116.1.116.1.116.1.116.1h.231s.116,0,.116.1c.116,0,.116,0,.231.1.116,0,.116,0,.231.1h.116V328h1.271V302.159h.116c.116,0,.116,0,.231-.1.116,0,.116,0,.231-.1,0,0,.116,0,.116-.1h.231l.116-.1.116-.1.116-.1.116-.1.116-.1.116-.1.116-.1v-.2a.1.1,0,0,1,.116-.1c0-.1,0-.1.116-.2,0-.1,0-.1.116-.2v-1.566h0l46.09-22.513h0l.116.1.116.1.116.1.116.1h.231s.116,0,.116.1c.116,0,.116,0,.231.1.116,0,.116,0,.231.1h1.848c.116,0,.116,0,.231-.1.116,0,.116,0,.231-.1,0,0,.116,0,.116-.1h.231l.116-.1.116-.1.116-.1.116-.1h0l46.09,22.513h0v1.566c0,.1,0,.1.116.2,0,.1,0,.1.116.2a.1.1,0,0,0,.115.1v.2l.116.1.116.1.115.1.116.1.116.1.115.1.116.1h.231s.116,0,.116.1c.116,0,.116,0,.231.1.116,0,.116,0,.231.1h.115V328h1.271V302.159h.115c.116,0,.116,0,.231-.1.115,0,.115,0,.231-.1,0,0,.116,0,.116-.1h.231l.116-.1.115-.1.116-.1.116-.1.116-.1.116-.1.116-.1v-.2a.1.1,0,0,1,.116-.1c0-.1,0-.1.116-.2,0-.1,0-.1.116-.2v-1.566h0l46.09-22.513h0l.115.1.116.1.116.1.115.1h.231s.116,0,.116.1c.115,0,.115,0,.231.1.116,0,.116,0,.231.1h1.848c.115,0,.115,0,.231-.1.116,0,.116,0,.231-.1,0,0,.115,0,.115-.1h.231l.115-.1.116-.1.116-.1.115-.1h0l46.09,22.513a2.231,2.231,0,0,0,1.271,2.741,2.99,2.99,0,0,0,3.812-.881,2.132,2.132,0,0,0-1.04-3.23,3.026,3.026,0,0,0-3.465.489l-46.09-22.513h0v-1.566c0-.1,0-.1-.116-.2,0-.1,0-.1-.115-.2a.1.1,0,0,0-.116-.1v-.2l-.116-.1-.115-.1-.116-.1-.116-.1-.115-.1-.116-.1-.116-.1h-.231s-.116,0-.116-.1c-.115,0-.115,0-.231-.1-.116,0-.116,0-.231-.1h-.116V227.18h.116c.115,0,.115,0,.231-.1.116,0,.116,0,.231-.1,0,0,.116,0,.116-.1h.231l.116-.1.116-.1.115-.1.116-.1.116-.1.115-.1.116-.1V226a.1.1,0,0,1,.116-.1c0-.1,0-.1.115-.2,0-.1,0-.1.116-.2v-1.566h0l46.09-22.513h0l.231.2c.116.1.116.1.231.1s.116.1.231.1.116.1.231.1.116.1.231.1.115.1.231.1h1.155c.116,0,.231,0,.231-.1.115,0,.115,0,.231-.1a.429.429,0,0,0,.231-.1s.116,0,.116-.1h.116c.115,0,.115-.1.231-.2.116,0,.116-.1.231-.1l.231-.2c.116-.1.116-.1.116-.2s.115-.1.115-.2.116-.1.116-.2.116-.1.116-.2.116-.1.116-.2v-.979c0-.1,0-.2-.116-.2,0-.1,0-.1-.116-.2,0-.1-.116-.2-.116-.2a.1.1,0,0,0-.115-.1v-.1c0-.1-.116-.1-.231-.2,0-.1-.116-.1-.116-.2l-.231-.2-.231-.2c-.116,0-.116-.1-.231-.1s-.115-.1-.231-.1-.116-.1-.231-.1-.116-.1-.231-.1h0V152.2h.116c.116,0,.116,0,.231-.1.116,0,.116,0,.231-.1,0,0,.115,0,.115-.1h.231l.115-.1.116-.1.116-.1.115-.1.116-.1.116-.1.116-.1v-.2a.1.1,0,0,1,.115-.1c0-.1,0-.1.116-.2,0-.1,0-.1.116-.2V148.97h0l46.09-22.513a3.4,3.4,0,0,0,3.465.489C620.589,127.241,621.051,125.87,620.358,124.7ZM465.224,53.632h1.271c.116,0,.116,0,.231-.1.115,0,.115,0,.231-.1,0,0,.116,0,.116-.1h.231l.116-.1.116-.1.116-.1.116-.1h0l46.09,22.513h0v1.566c0,.1,0,.1.115.2,0,.1,0,.1.116.2a.1.1,0,0,0,.116.1v.2l.115.1.116.1.116.1.115.1.116.1.116.1.115.1h.231s.115,0,.115.1c.116,0,.116,0,.231.1.115,0,.115,0,.231.1h.116v45.124h-.116c-.116,0-.116,0-.231.1-.116,0-.116,0-.231.1,0,0-.115,0-.115.1h-.231l-.115.1-.116.1-.116.1-.115.1-.116.1-.116.1-.115.1v.2a.1.1,0,0,1-.116.1c0,.1,0,.1-.116.2,0,.1,0,.1-.115.2v1.566h0l-46.09,22.513h0l-.116-.1-.116-.1-.116-.1-.116-.1h-.231s-.116,0-.116-.1c-.116,0-.116,0-.231-.1-.116,0-.116,0-.231-.1h-1.848c-.116,0-.116,0-.231.1-.115,0-.115,0-.231.1,0,0-.116,0-.116.1h-.231l-.116.1-.115.1-.116.1-.116.1h0l-46.09-22.513h0v-1.566c0-.1,0-.1-.116-.2,0-.1,0-.1-.116-.2a.1.1,0,0,0-.116-.1v-.2l-.116-.1-.116-.1-.116-.1-.116-.1-.116-.1-.116-.1-.116-.1H415.9s-.116,0-.116-.1c-.116,0-.116,0-.231-.1-.116,0-.116,0-.231-.1h-.116V78.495h.116c.116,0,.116,0,.231-.1.116,0,.116,0,.231-.1,0,0,.116,0,.116-.1h.231l.116-.1.116-.1.116-.1.116-.1.116-.1.116-.1.116-.1v-.2a.1.1,0,0,1,.116-.1c0-.1,0-.1.116-.2,0-.1,0-.1.116-.2V75.265h0l46.09-22.513h0l.116.1.116.1.115.1.116.1h.231s.116,0,.116.1c.116,0,.116,0,.231.1.116,0,.116,0,.231.1h.347C465.108,53.632,465.224,53.632,465.224,53.632ZM364.5,3.907h.231c.116,0,.116,0,.231-.1.116,0,.116,0,.231-.1,0,0,.116,0,.116-.1h.231l.116-.1.116-.1.116-.1.116-.1.116-.1.116-.1.116-.1v-.2a.1.1,0,0,1,.116-.1c0-.1,0-.1.116-.2,0-.1,0-.1.116-.2V.677h0l46.09-22.513h0l.116.1.116.1.116.1.116.1h.231s.116,0,.116.1c.116,0,.116,0,.231.1.116,0,.116,0,.231.1H415.9c.116,0,.116,0,.231-.1.116,0,.116,0,.231-.1,0,0,.116,0,.116-.1h.231l.116-.1.116-.1.116-.1.116-.1h0L463.261.677h0V2.243c0,.1,0,.1.116.2,0,.1,0,.1.115.2a.1.1,0,0,0,.116.1v.2l.116.1.115.1.116.1.116.1.115.1.116.1.116.1h.231s.116,0,.116.1a.391.391,0,0,1,.231.1c.116,0,.116,0,.231.1h.116V49.032h-.116c-.115,0-.115,0-.231.1-.116,0-.116,0-.231.1,0,0-.116,0-.116.1h-.231l-.116.1-.116.1-.115.1-.116.1-.116.1-.115.1-.116.1v.2a.1.1,0,0,1-.116.1c0,.1,0,.1-.115.2,0,.1,0,.1-.116.2v1.566h0l-46.09,22.513h0l-.116-.1-.116-.1-.116-.1-.116-.1h-.231s-.116,0-.116-.1c-.116,0-.116,0-.231-.1-.116,0-.116,0-.231-.1h-1.848c-.116,0-.116,0-.231.1-.116,0-.116,0-.231.1,0,0-.116,0-.116.1h-.231l-.116.1-.116.1-.116.1-.116.1h0l-46.09-22.513h0V50.7c0-.1,0-.1-.116-.2,0-.1,0-.1-.116-.2a.1.1,0,0,0-.116-.1v-.2l-.116-.1-.116-.1-.116-.1-.116-.1-.116-.1-.116-.1-.116-.1h-.231s-.116,0-.116-.1c-.116,0-.116,0-.231-.1-.116,0-.116,0-.231-.1h-.116V3.907Zm-.809,49.725h1.271c.116,0,.116,0,.231-.1.116,0,.116,0,.231-.1,0,0,.116,0,.116-.1h.231l.116-.1.116-.1.116-.1.116-.1h0l46.09,22.513h0v1.566c0,.1,0,.1.116.2,0,.1,0,.1.116.2a.1.1,0,0,0,.116.1v.2l.116.1.116.1.116.1.116.1.116.1.116.1.116.1h.231s.116,0,.116.1c.116,0,.116,0,.231.1.116,0,.116,0,.231.1h.116v45.124h-.116c-.116,0-.116,0-.231.1-.116,0-.116,0-.231.1,0,0-.116,0-.116.1h-.231l-.116.1-.116.1-.116.1-.116.1-.116.1-.116.1-.116.1v.2a.1.1,0,0,1-.116.1c0,.1,0,.1-.116.2,0,.1,0,.1-.116.2v1.566h0l-46.09,22.513h0l-.116-.1-.116-.1-.116-.1-.116-.1h-.231s-.116,0-.116-.1c-.116,0-.116,0-.231-.1-.116,0-.116,0-.231-.1H363.11c-.116,0-.116,0-.231.1-.116,0-.116,0-.231.1,0,0-.116,0-.116.1H362.3l-.116.1-.116.1-.116.1-.116.1h0l-46.09-22.513h0v-1.566c0-.1,0-.1-.116-.2,0-.1,0-.1-.116-.2a.1.1,0,0,0-.116-.1v-.2l-.116-.1-.116-.1-.116-.1-.116-.1-.116-.1-.116-.1-.116-.1h-.231s-.116,0-.116-.1c-.116,0-.116,0-.231-.1-.116,0-.116,0-.231-.1h-.116V78.495h.116c.116,0,.116,0,.231-.1.116,0,.116,0,.231-.1,0,0,.116,0,.116-.1h.231l.116-.1.116-.1.116-.1.116-.1.116-.1.116-.1.116-.1v-.2a.1.1,0,0,1,.116-.1c0-.1,0-.1.116-.2,0-.1,0-.1.116-.2V75.265h0l46.09-22.513h0l.116.1.116.1.116.1.116.1h.231s.116,0,.116.1c.116,0,.116,0,.231.1.116,0,.116,0,.231.1h.347C363.572,53.632,363.572,53.632,363.688,53.632ZM312.515,73.894H312.4c-.116,0-.116,0-.231.1-.116,0-.116,0-.231.1,0,0-.116,0-.116.1h-.231l-.116.1-.116.1-.116.1-.116.1h0l-46.09-22.513v-.1c0-.1,0-.2.116-.2v-.979c0-.1,0-.1-.116-.2,0-.1-.116-.2-.116-.2,0-.1-.116-.1-.116-.2s-.116-.1-.116-.2-.116-.1-.116-.2l-.231-.2c-.116-.1-.116-.1-.231-.1l-.231-.2h-.116s-.116,0-.116-.1a.429.429,0,0,1-.231-.1c-.116,0-.116,0-.231-.1h-.116V3.907h.116c.116,0,.116,0,.231-.1.116,0,.116,0,.231-.1,0,0,.116,0,.116-.1H264l.116-.1.116-.1.116-.1.116-.1.116-.1.116-.1.116-.1v-.2a.1.1,0,0,1,.116-.1c0-.1,0-.1.116-.2,0-.1,0-.1.116-.2V.677h0l46.09-22.513h0l.116.1.116.1.116.1.116.1h.231s.116,0,.116.1c.116,0,.116,0,.231.1.116,0,.116,0,.231.1h1.848c.116,0,.116,0,.231-.1.116,0,.116,0,.231-.1,0,0,.116,0,.116-.1h.231l.116-.1.116-.1.116-.1.116-.1h0L361.724.677h0V2.243c0,.1,0,.1.116.2,0,.1,0,.1.116.2a.1.1,0,0,0,.116.1v.2l.116.1.116.1.116.1.116.1.116.1.116.1.116.1h.231s.116,0,.116.1a.391.391,0,0,1,.231.1c.116,0,.116,0,.231.1h.116V49.032h-.116c-.116,0-.116,0-.231.1-.116,0-.116,0-.231.1,0,0-.116,0-.116.1h-.231l-.116.1-.116.1-.116.1-.116.1-.116.1-.116.1-.116.1v.2a.1.1,0,0,1-.116.1c0,.1,0,.1-.116.2,0,.1,0,.1-.116.2v1.566h0l-46.09,22.513h0l-.116-.1-.116-.1-.116-.1-.116-.1h-.231s-.116,0-.116-.1c-.116,0-.116,0-.231-.1-.116,0-.116,0-.231-.1h-1.5C312.631,73.894,312.515,73.894,312.515,73.894Zm0,198.8h-.231c-.116,0-.116,0-.231.1-.116,0-.116,0-.231.1,0,0-.116,0-.116.1h-.231l-.116.1-.116.1-.116.1-.116.1-.116.1-.116.1-.116.1v.2a.1.1,0,0,1-.116.1c0,.1,0,.1-.116.2,0,.1,0,.1-.116.2v1.566h0l-46.09,22.513h0l-.116-.1-.116-.1-.116-.1-.116-.1h-.231s-.116,0-.116-.1c-.116,0-.116,0-.231-.1-.116,0-.116,0-.231-.1h-1.733c-.116,0-.116,0-.231.1-.116,0-.116,0-.231.1,0,0-.116,0-.116.1h-.231l-.116.1-.116.1-.116.1-.116.1h0l-46.09-22.513h0V274.36c0-.1,0-.1-.115-.2,0-.1,0-.1-.116-.2a.1.1,0,0,0-.116-.1v-.2l-.115-.1-.116-.1-.116-.1-.115-.1-.116-.1-.116-.1-.115-.1h-.231s-.115,0-.115-.1c-.116,0-.116,0-.231-.1-.115,0-.115,0-.231-.1h-.116V227.571h.116c.115,0,.115,0,.231-.1.116,0,.116,0,.231-.1,0,0,.115,0,.115-.1h.231l.115-.1.116-.1.116-.1.115-.1.116-.1.116-.1.115-.1v-.2a.1.1,0,0,1,.116-.1c0-.1,0-.1.116-.2,0-.1,0-.1.115-.2v-1.566h0l46.09-22.513h0l.116.1.116.1.116.1.116.1h.231s.116,0,.116.1c.116,0,.116,0,.231.1.116,0,.116,0,.231.1h1.848c.116,0,.116,0,.231-.1.116,0,.116,0,.231-.1,0,0,.116,0,.116-.1h.231l.116-.1.116-.1.116-.1.116-.1h0l46.09,22.513h0v1.566c0,.1,0,.1.116.2,0,.1,0,.1.116.2a.1.1,0,0,0,.116.1v.2l.116.1.116.1.116.1.116.1.116.1.116.1.116.1h.231s.116,0,.116.1c.116,0,.116,0,.231.1.116,0,.116,0,.231.1h.116V272.7Zm1.04-49.725h-1.5c-.116,0-.116,0-.231.1-.116,0-.116,0-.231.1,0,0-.116,0-.116.1h-.231l-.116.1-.116.1-.116.1-.116.1h0l-46.09-22.513h0v-1.566c0-.1,0-.1-.116-.2,0-.1,0-.1-.116-.2a.1.1,0,0,0-.116-.1v-.2l-.116-.1-.116-.1-.116-.1-.116-.1-.116-.1-.116-.1-.116-.1h-.231s-.116,0-.116-.1c-.116,0-.116,0-.231-.1-.116,0-.116,0-.231-.1h-.116V152.788h.116c.116,0,.116,0,.231-.1.116,0,.116,0,.231-.1,0,0,.116,0,.116-.1h.231l.116-.1.116-.1.116-.1.116-.1.116-.1.116-.1.116-.1v-.2a.1.1,0,0,1,.116-.1c0-.1,0-.1.116-.2,0-.1,0-.1.116-.2v-1.566h0l46.09-22.513h0l.116.1.116.1.116.1.116.1h.231s.116,0,.116.1c.116,0,.116,0,.231.1.116,0,.116,0,.231.1H313.9c.116,0,.116,0,.231-.1.116,0,.116,0,.231-.1,0,0,.116,0,.116-.1h.231l.116-.1.116-.1.116-.1.116-.1h0l46.09,22.513h0v1.566c0,.1,0,.1.116.2,0,.1,0,.1.116.2a.1.1,0,0,0,.116.1v.2l.116.1.116.1.116.1.116.1.116.1.116.1.116.1h.231s.116,0,.116.1c.116,0,.116,0,.231.1.116,0,.116,0,.231.1h.116v45.124h-.116c-.116,0-.116,0-.231.1-.116,0-.116,0-.231.1,0,0-.116,0-.116.1h-.231l-.116.1-.116.1-.116.1-.116.1-.116.1-.116.1-.116.1v.2a.1.1,0,0,1-.116.1c0,.1,0,.1-.116.2,0,.1,0,.1-.116.2v1.566h0l-46.09,22.513h0l-.116-.1-.116-.1-.116-.1-.116-.1h-.231s-.116,0-.116-.1c-.116,0-.116,0-.231-.1-.116,0-.116,0-.231-.1h-.347Zm100.5,49.725h-.231c-.116,0-.116,0-.231.1-.116,0-.116,0-.231.1,0,0-.116,0-.116.1h-.231l-.116.1-.116.1-.116.1-.116.1-.116.1-.116.1-.116.1v.2a.1.1,0,0,1-.116.1c0,.1,0,.1-.116.2,0,.1,0,.1-.116.2v1.566h0l-46.09,22.513h0l-.116-.1-.116-.1-.116-.1-.116-.1h-.231s-.116,0-.116-.1c-.116,0-.116,0-.231-.1-.116,0-.116,0-.231-.1h-1.733c-.116,0-.116,0-.231.1-.116,0-.116,0-.231.1,0,0-.116,0-.116.1h-.231l-.116.1-.116.1-.116.1-.116.1h0L315.4,275.926h0V274.36c0-.1,0-.1-.116-.2,0-.1,0-.1-.116-.2a.1.1,0,0,0-.116-.1v-.2l-.116-.1-.116-.1-.116-.1-.116-.1-.116-.1-.116-.1-.116-.1h-.231s-.116,0-.116-.1c-.116,0-.116,0-.231-.1-.116,0-.116,0-.231-.1h-.116V227.571h.116c.116,0,.116,0,.231-.1.116,0,.116,0,.231-.1,0,0,.116,0,.116-.1h.231l.116-.1.116-.1.116-.1.116-.1.116-.1.116-.1.116-.1v-.2a.1.1,0,0,1,.116-.1c0-.1,0-.1.116-.2,0-.1,0-.1.116-.2v-1.566h0l46.09-22.513h0l.116.1.116.1.116.1.116.1h.231s.116,0,.116.1c.116,0,.116,0,.231.1.116,0,.116,0,.231.1h1.848c.116,0,.116,0,.231-.1.116,0,.116,0,.231-.1,0,0,.116,0,.116-.1h.231l.116-.1.116-.1.116-.1.116-.1h0l46.09,22.513h0v1.566c0,.1,0,.1.116.2,0,.1,0,.1.116.2a.1.1,0,0,0,.116.1v.2l.116.1.116.1.116.1.116.1.116.1.116.1.116.1h.231s.116,0,.116.1c.116,0,.116,0,.231.1.116,0,.116,0,.231.1h.116Zm1.155-49.725h-1.5c-.116,0-.116,0-.231.1-.116,0-.116,0-.231.1,0,0-.116,0-.116.1H412.9l-.116.1-.116.1-.116.1-.116.1h0l-46.09-22.513h0v-1.566c0-.1,0-.1-.116-.2,0-.1,0-.1-.116-.2a.1.1,0,0,0-.116-.1v-.2l-.116-.1-.116-.1-.116-.1-.116-.1-.116-.1-.116-.1-.116-.1h-.231s-.116,0-.116-.1c-.116,0-.116,0-.231-.1-.116,0-.116,0-.231-.1h-.116V152.788h.116c.116,0,.116,0,.231-.1.116,0,.116,0,.231-.1,0,0,.116,0,.116-.1h.231l.116-.1.116-.1.116-.1.116-.1.116-.1.116-.1.116-.1v-.2a.1.1,0,0,1,.116-.1c0-.1,0-.1.116-.2,0-.1,0-.1.116-.2v-1.566h0l46.09-22.513h0l.116.1.116.1.116.1.116.1h.231s.116,0,.116.1c.116,0,.116,0,.231.1.116,0,.116,0,.231.1h1.848c.116,0,.116,0,.231-.1.116,0,.116,0,.231-.1,0,0,.116,0,.116-.1h.231l.116-.1.116-.1.116-.1.116-.1h0l46.09,22.513h0v1.566c0,.1,0,.1.116.2,0,.1,0,.1.115.2a.1.1,0,0,0,.116.1v.2l.116.1.115.1.116.1.116.1.115.1.116.1.116.1h.231s.116,0,.116.1c.116,0,.116,0,.231.1.116,0,.116,0,.231.1h.116v45.124h-.116c-.116,0-.116,0-.231.1-.116,0-.116,0-.231.1,0,0-.116,0-.116.1h-.231l-.116.1-.116.1-.115.1-.116.1-.116.1-.115.1-.116.1v.2a.1.1,0,0,1-.116.1c0,.1,0,.1-.115.2,0,.1,0,.1-.116.2v1.566h0l-46.09,22.513h0l-.116-.1-.116-.1-.116-.1-.116-.1h-.231s-.116,0-.116-.1c-.116,0-.116,0-.231-.1-.116,0-.116,0-.231-.1h-.347ZM515.7,272.7h-.231c-.116,0-.116,0-.231.1-.115,0-.115,0-.231.1,0,0-.116,0-.116.1h-.231l-.116.1-.115.1-.116.1-.116.1-.115.1-.116.1-.116.1v.2a.1.1,0,0,1-.115.1c0,.1,0,.1-.116.2,0,.1,0,.1-.116.2v1.566h0l-46.09,22.513h0l-.116-.1-.116-.1-.115-.1-.116-.1h-.231s-.115,0-.115-.1c-.116,0-.116,0-.231-.1-.115,0-.115,0-.231-.1h-1.617c-.116,0-.116,0-.231.1-.115,0-.115,0-.231.1,0,0-.116,0-.116.1h-.231l-.116.1-.116.1-.116.1-.116.1h0l-46.09-22.513h0V274.36c0-.1,0-.1-.116-.2,0-.1,0-.1-.116-.2a.1.1,0,0,0-.116-.1v-.2l-.116-.1-.116-.1-.116-.1-.116-.1-.116-.1-.116-.1-.116-.1h-.231s-.116,0-.116-.1c-.116,0-.116,0-.231-.1-.116,0-.116,0-.231-.1h-.116V227.571h.116c.116,0,.116,0,.231-.1.116,0,.116,0,.231-.1,0,0,.116,0,.116-.1h.231l.116-.1.116-.1.116-.1.116-.1.116-.1.116-.1.116-.1v-.2a.1.1,0,0,1,.116-.1c0-.1,0-.1.116-.2,0-.1,0-.1.116-.2v-1.566h0l46.09-22.513h0l.116.1.116.1.116.1.116.1h.231s.116,0,.116.1c.116,0,.116,0,.231.1.116,0,.116,0,.231.1h1.848c.116,0,.116,0,.231-.1.115,0,.115,0,.231-.1,0,0,.116,0,.116-.1h.231l.116-.1.116-.1.115-.1.116-.1h0l46.09,22.513h0v1.566c0,.1,0,.1.115.2,0,.1,0,.1.116.2a.1.1,0,0,0,.116.1v.2l.115.1.116.1.116.1.115.1.116.1.116.1.115.1h.231s.115,0,.115.1c.116,0,.116,0,.231.1.115,0,.115,0,.231.1h.116V272.7Zm50.826-74.587h0c-.231,0-.231.1-.347.1a.429.429,0,0,0-.231.1s-.116,0-.116.1h-.115c-.116,0-.116.1-.231.2-.115,0-.115.1-.231.1l-.231.2-.231.2c0,.1-.116.1-.116.2s-.115.1-.115.2-.116.1-.116.2-.116.1-.116.2v.979c0,.1,0,.2.116.2v.1l-46.09,22.513h0l-.115-.1-.116-.1-.116-.1-.115-.1h-.231s-.115,0-.115-.1c-.116,0-.116,0-.231-.1-.115,0-.115,0-.231-.1h-1.848c-.116,0-.116,0-.231.1-.116,0-.116,0-.231.1,0,0-.115,0-.115.1h-.231l-.115.1-.116.1-.116.1-.115.1h0l-46.09-22.513h0v-1.566c0-.1,0-.1-.116-.2,0-.1,0-.1-.115-.2a.1.1,0,0,0-.116-.1v-.2l-.116-.1-.115-.1-.116-.1-.116-.1-.116-.1-.115-.1-.116-.1h-.231s-.116,0-.116-.1c-.116,0-.116,0-.231-.1-.116,0-.116,0-.231-.1H465.8V152.788h.115c.116,0,.116,0,.231-.1.116,0,.116,0,.231-.1,0,0,.116,0,.116-.1h.231l.116-.1.115-.1.116-.1.116-.1.116-.1.115-.1.116-.1v-.2a.1.1,0,0,1,.116-.1c0-.1,0-.1.115-.2,0-.1,0-.1.116-.2v-1.566h0l46.09-22.513h0l.115.1.116.1.116.1.115.1h.231s.115,0,.115.1c.116,0,.116,0,.231.1.115,0,.115,0,.231.1h1.848c.116,0,.116,0,.231-.1.116,0,.116,0,.231-.1,0,0,.115,0,.115-.1h.231l.115-.1.116-.1.116-.1.115-.1h0l46.09,22.513h0v1.566c0,.1,0,.1.116.2,0,.1,0,.1.115.2a.1.1,0,0,0,.116.1v.2l.116.1.116.1.115.1.116.1.116.1.115.1.116.1h.231s.116,0,.116.1c.116,0,.116,0,.231.1.116,0,.116,0,.231.1h.115Z" transform="translate(-104.654 42)" fill="url(#linear-gradient)"/>
    </g>
  </g>
</svg>
