<svg xmlns="http://www.w3.org/2000/svg" xmlns:xlink="http://www.w3.org/1999/xlink" width="768.459" height="552" viewBox="0 0 768.459 552">
  <defs>
    <radialGradient id="radial-gradient" cx="0.463" cy="0.523" r="1.007" gradientUnits="objectBoundingBox">
      <stop offset="0" stop-color="#1a3855"/>
      <stop offset="0.086" stop-color="#17324c"/>
      <stop offset="1" stop-color="#0e1e2e"/>
      <stop offset="1" stop-color="#050b11"/>
    </radialGradient>
    <linearGradient id="linear-gradient" x1="0.596" y1="0.5" x2="0.412" y2="0.474" gradientUnits="objectBoundingBox">
      <stop offset="0" stop-color="#0090f0"/>
      <stop offset="0" stop-color="#006ab1"/>
      <stop offset="1" stop-color="#004878"/>
    </linearGradient>
  </defs>
  <g id="Cover" transform="translate(4068 -508)">
    <rect id="Base" width="768" height="552" transform="translate(-4068 508)" fill="url(#radial-gradient)"/>
    <g id="Icons" transform="translate(-3766.914 541)" opacity="0.169">
      <path id="Path_4890" data-name="Path 4890" d="M510.858,148.971l-.1-.1-.1-.1-.1-.1h-.2a.1.1,0,0,1-.1-.1c-.1,0-.1,0-.2-.1-.1,0-.1,0-.2-.1h-1.617c-.1,0-.1,0-.2.1-.1,0-.1,0-.2.1a.1.1,0,0,0-.1.1h-.2l-.1.1-.1.1-.1.1-.1.1h0l-40.313-22.513h0v-1.566c0-.1,0-.1-.1-.2,0-.1,0-.1-.1-.2a.1.1,0,0,0-.1-.1v-.2l-.1-.1-.1-.1-.1-.1-.1-.1-.1-.1-.1-.1-.1-.1h-.2a.1.1,0,0,1-.1-.1c-.1,0-.1,0-.2-.1-.1,0-.1,0-.2-.1h-.1V78.495h.1c.1,0,.1,0,.2-.1.1,0,.1,0,.2-.1a.1.1,0,0,0,.1-.1h.2l.1-.1.1-.1.1-.1.1-.1.1-.1.1-.1.1-.1v-.2a.1.1,0,0,1,.1-.1c0-.1,0-.1.1-.2,0-.1,0-.1.1-.2V75.265h0L507.12,52.751a2.68,2.68,0,0,0,3.031.489,2.266,2.266,0,0,0,.909-3.23,2.418,2.418,0,0,0-3.334-.881,2.391,2.391,0,0,0-1.111,2.741L466.3,74.384h0l-.1-.1-.1-.1-.1-.1-.1-.1h-.2a.1.1,0,0,1-.1-.1c-.1,0-.1,0-.2-.1-.1,0-.1,0-.2-.1h-1.617c-.1,0-.1,0-.2.1-.1,0-.1,0-.2.1a.1.1,0,0,0-.1.1h-.2l-.1.1-.1.1-.1.1-.1.1h0L422.15,51.87h0V50.3c0-.1,0-.1-.1-.2,0-.1,0-.1-.1-.2a.1.1,0,0,0-.1-.1v-.2l-.1-.1-.1-.1-.1-.1-.1-.1-.1-.1-.1-.1-.1-.1h-.2a.1.1,0,0,1-.1-.1c-.1,0-.1,0-.2-.1-.1,0-.1,0-.2-.1h-.1V3.907h.1c.1,0,.1,0,.2-.1.1,0,.1,0,.2-.1a.1.1,0,0,0,.1-.1h.2l.1-.1.1-.1.1-.1.1-.1.1-.1.1-.1.1-.1v-.2a.1.1,0,0,1,.1-.1c0-.1,0-.1.1-.2,0-.1,0-.1.1-.2V.677h0l40.313-22.513h0l.1.1.1.1.1.1.1.1h.2a.1.1,0,0,1,.1.1c.1,0,.1,0,.2.1.1,0,.1,0,.2.1h1.617c.1,0,.1,0,.2-.1.1,0,.1,0,.2-.1a.1.1,0,0,0,.1-.1h.2l.1-.1.1-.1.1-.1.1-.1h0L506.615.677a2.344,2.344,0,0,0,1.111,2.741,2.418,2.418,0,0,0,3.334-.881,2.266,2.266,0,0,0-.909-3.23A2.4,2.4,0,0,0,507.12-.2L466.807-22.717h0v-1.566c0-.1,0-.1-.1-.2,0-.1,0-.1-.1-.2a.1.1,0,0,0-.1-.1v-.2l-.1-.1-.1-.1-.1-.1-.1-.1-.1-.1-.1-.1-.1-.1h-.2a.1.1,0,0,1-.1-.1.318.318,0,0,1-.2-.1c-.1,0-.1,0-.2-.1h-1.617c-.1,0-.1,0-.2.1-.1,0-.1,0-.2.1a.1.1,0,0,0-.1.1h-.2l-.1.1-.1.1-.1.1-.1.1-.1.1-.1.1-.1.1v.2a.1.1,0,0,1-.1.1c0,.1,0,.1-.1.2,0,.1,0,.1-.1.2v1.566h0L421.443-.2h0l-.1-.1-.1-.1-.1-.1-.1-.1h-.2a.1.1,0,0,1-.1-.1c-.1,0-.1,0-.2-.1-.1,0-.1,0-.2-.1h-1.617c-.1,0-.1,0-.2.1-.1,0-.1,0-.2.1a.1.1,0,0,0-.1.1h-.2l-.1.1-.1.1-.1.1-.1.1h0L377.29-22.717h0v-1.566c0-.1,0-.1-.1-.2,0-.1,0-.1-.1-.2a.1.1,0,0,0-.1-.1v-.2l-.1-.1-.1-.1-.1-.1-.1-.1-.1-.1-.1-.1-.1-.1h-.2a.1.1,0,0,1-.1-.1c-.1,0-.1,0-.2-.1-.1,0-.1,0-.2-.1h-.1V-42H374.36v16.053h-.1c-.1,0-.1,0-.2.1-.1,0-.1,0-.2.1a.1.1,0,0,0-.1.1h-.2l-.1.1-.1.1-.1.1-.1.1-.1.1-.1.1-.1.1v.2a.1.1,0,0,1-.1.1c0,.1,0,.1-.1.2,0,.1,0,.1-.1.2v1.566h0L332.229-.2h0l-.1-.1-.1-.1-.1-.1-.1-.1h-.2a.1.1,0,0,1-.1-.1c-.1,0-.1,0-.2-.1-.1,0-.1,0-.2-.1H329.5c-.1,0-.1,0-.2.1-.1,0-.1,0-.2.1a.1.1,0,0,0-.1.1h-.2l-.1.1-.1.1-.1.1-.1.1h0L288.077-22.717h0v-1.566c0-.1,0-.1-.1-.2,0-.1,0-.1-.1-.2a.1.1,0,0,0-.1-.1v-.2l-.1-.1-.1-.1-.1-.1-.1-.1-.1-.1-.1-.1-.1-.1h-.2a.1.1,0,0,1-.1-.1.318.318,0,0,1-.2-.1c-.1,0-.1,0-.2-.1h-.1V-42h-1.111v16.053h-.1c-.1,0-.1,0-.2.1-.1,0-.1,0-.2.1a.1.1,0,0,0-.1.1h-.2l-.1.1-.1.1-.1.1-.1.1-.1.1-.1.1-.1.1v.2a.1.1,0,0,1-.1.1c0,.1,0,.1-.1.2,0,.1,0,.1-.1.2v1.566h0L243.015-.2h0l-.1-.1-.1-.1-.1-.1-.1-.1h-.2a.1.1,0,0,1-.1-.1c-.1,0-.1,0-.2-.1-.1,0-.1,0-.2-.1h-1.617c-.1,0-.1,0-.2.1-.1,0-.1,0-.2.1a.1.1,0,0,0-.1.1h-.2l-.1.1-.1.1-.1.1-.1.1h0L198.863-22.717a2.344,2.344,0,0,0-1.111-2.741,2.418,2.418,0,0,0-3.334.881,2.266,2.266,0,0,0,.909,3.23,2.4,2.4,0,0,0,3.031-.489L238.67.677h0V2.243c0,.1,0,.1.1.2,0,.1,0,.1.1.2a.1.1,0,0,0,.1.1v.2l.1.1.1.1.1.1.1.1.1.1.1.1.1.1h.2a.1.1,0,0,1,.1.1.318.318,0,0,1,.2.1c.1,0,.1,0,.2.1h.1V49.032h0c-.1,0-.1,0-.2.1-.1,0-.1,0-.2.1-.1,0-.1.1-.2.1s-.1.1-.2.1-.1.1-.2.2l-.2.2c-.1.1-.1.1-.1.2l-.2.2v.1a.1.1,0,0,1-.1.1.339.339,0,0,1-.1.2c0,.1,0,.1-.1.2,0,.1,0,.2-.1.2v.979c0,.1,0,.1.1.2a.339.339,0,0,0,.1.2c0,.1.1.1.1.2s.1.1.1.2.1.1.2.2l.2.2c.1.1.1.1.2.1l.2.2h.1a.1.1,0,0,1,.1.1.356.356,0,0,1,.2.1c.1,0,.1,0,.2.1.1,0,.2,0,.2.1h1.01c.1,0,.1,0,.2-.1a.356.356,0,0,0,.2-.1c.1,0,.1-.1.2-.1s.1-.1.2-.1.1-.1.2-.1l.2-.2h0l40.313,22.513h0v1.566c0,.1,0,.1.1.2,0,.1,0,.1.1.2a.1.1,0,0,0,.1.1v.2l.1.1.1.1.1.1.1.1.1.1.1.1.1.1h.2a.1.1,0,0,1,.1.1c.1,0,.1,0,.2.1.1,0,.1,0,.2.1h.1v45.124h-.1c-.1,0-.1,0-.2.1-.1,0-.1,0-.2.1a.1.1,0,0,0-.1.1h-.2l-.1.1-.1.1-.1.1-.1.1-.1.1-.1.1-.1.1v.2a.1.1,0,0,1-.1.1c0,.1,0,.1-.1.2,0,.1,0,.1-.1.2v1.566h0l-40.313,22.513h0l-.1-.1-.1-.1-.1-.1-.1-.1h-.2a.1.1,0,0,1-.1-.1c-.1,0-.1,0-.2-.1-.1,0-.1,0-.2-.1h-1.617c-.1,0-.1,0-.2.1-.1,0-.1,0-.2.1a.1.1,0,0,0-.1.1h-.2l-.1.1-.1.1-.1.1-.1.1h0l-40.313-22.513a2.344,2.344,0,0,0-1.111-2.741,2.418,2.418,0,0,0-3.334.881,2.266,2.266,0,0,0,.909,3.23,2.4,2.4,0,0,0,3.031-.489l40.313,22.513h0V152.2c0,.1,0,.1.1.2,0,.1,0,.1.1.2a.1.1,0,0,0,.1.1v.2l.1.1.1.1.1.1.1.1.1.1.1.1.1.1h.2a.1.1,0,0,1,.1.1c.1,0,.1,0,.2.1.1,0,.1,0,.2.1h.1V198.99h-.1c-.1,0-.1,0-.2.1-.1,0-.1,0-.2.1a.1.1,0,0,0-.1.1h-.2l-.1.1-.1.1-.1.1-.1.1-.1.1-.1.1-.1.1v.2a.1.1,0,0,1-.1.1c0,.1,0,.1-.1.2,0,.1,0,.1-.1.2v1.566h0l-40.313,22.513h0l-.1-.1-.1-.1-.1-.1-.1-.1h-.2a.1.1,0,0,1-.1-.1c-.1,0-.1,0-.2-.1-.1,0-.1,0-.2-.1h-1.617c-.1,0-.1,0-.2.1-.1,0-.1,0-.2.1a.1.1,0,0,0-.1.1h-.2l-.1.1-.1.1-.1.1-.1.1h0L154,202.22a2.344,2.344,0,0,0-1.111-2.741,2.418,2.418,0,0,0-3.334.881,2.267,2.267,0,0,0,.909,3.23,2.4,2.4,0,0,0,3.031-.489l40.313,22.513h0v1.566c0,.1,0,.1.1.2,0,.1,0,.1.1.2a.1.1,0,0,0,.1.1v.2l.1.1.1.1.1.1.1.1.1.1.1.1.1.1h.2a.1.1,0,0,1,.1.1c.1,0,.1,0,.2.1.1,0,.1,0,.2.1h.1v45.124h-.1c-.1,0-.1,0-.2.1-.1,0-.1,0-.2.1a.1.1,0,0,0-.1.1h-.2l-.1.1-.1.1-.1.1-.1.1-.1.1-.1.1-.1.1v.2a.1.1,0,0,1-.1.1c0,.1,0,.1-.1.2,0,.1,0,.1-.1.2V277.2h0L153.5,299.712h0l-.1-.1-.1-.1-.1-.1-.1-.1h-.2a.1.1,0,0,1-.1-.1c-.1,0-.1,0-.2-.1-.1,0-.1,0-.2-.1h-1.516c-.1,0-.1,0-.2.1-.1,0-.1,0-.2.1a.1.1,0,0,0-.1.1h-.2l-.1.1-.1.1-.1.1-.1.1h0L109.447,277.2a2.344,2.344,0,0,0-1.111-2.741,2.418,2.418,0,0,0-3.334.881,2.266,2.266,0,0,0,.909,3.23,2.4,2.4,0,0,0,3.031-.489l40.313,22.513h0v1.468c0,.1,0,.1.1.2,0,.1,0,.1.1.2a.1.1,0,0,0,.1.1v.2l.1.1.1.1.1.1.1.1.1.1.1.1.1.1h.2a.1.1,0,0,1,.1.1c.1,0,.1,0,.2.1.1,0,.1,0,.2.1h.1V328h1.111V302.159h.1c.1,0,.1,0,.2-.1.1,0,.1,0,.2-.1a.1.1,0,0,0,.1-.1h.2l.1-.1.1-.1.1-.1.1-.1.1-.1.1-.1.1-.1v-.2a.1.1,0,0,1,.1-.1c0-.1,0-.1.1-.2,0-.1,0-.1.1-.2v-1.566h0l40.313-22.513h0l.1.1.1.1.1.1.1.1h.2a.1.1,0,0,1,.1.1c.1,0,.1,0,.2.1.1,0,.1,0,.2.1h1.617c.1,0,.1,0,.2-.1.1,0,.1,0,.2-.1a.1.1,0,0,0,.1-.1h.2l.1-.1.1-.1.1-.1.1-.1h0l40.313,22.513h0v1.566c0,.1,0,.1.1.2,0,.1,0,.1.1.2a.1.1,0,0,0,.1.1v.2l.1.1.1.1.1.1.1.1.1.1.1.1.1.1h.2a.1.1,0,0,1,.1.1c.1,0,.1,0,.2.1.1,0,.1,0,.2.1h.1V328H241.4V302.159h.1c.1,0,.1,0,.2-.1.1,0,.1,0,.2-.1a.1.1,0,0,0,.1-.1h.2l.1-.1.1-.1.1-.1.1-.1.1-.1.1-.1.1-.1v-.2a.1.1,0,0,1,.1-.1c0-.1,0-.1.1-.2,0-.1,0-.1.1-.2v-1.566h0l40.313-22.513h0l.1.1.1.1.1.1.1.1h.2a.1.1,0,0,1,.1.1c.1,0,.1,0,.2.1.1,0,.1,0,.2.1h1.617c.1,0,.1,0,.2-.1.1,0,.1,0,.2-.1a.1.1,0,0,0,.1-.1h.2l.1-.1.1-.1.1-.1.1-.1h0l40.313,22.513h0v1.566c0,.1,0,.1.1.2,0,.1,0,.1.1.2a.1.1,0,0,0,.1.1v.2l.1.1.1.1.1.1.1.1.1.1.1.1.1.1h.2a.1.1,0,0,1,.1.1c.1,0,.1,0,.2.1.1,0,.1,0,.2.1h.1V328h1.111V302.159h.1c.1,0,.1,0,.2-.1.1,0,.1,0,.2-.1a.1.1,0,0,0,.1-.1h.2l.1-.1.1-.1.1-.1.1-.1.1-.1.1-.1.1-.1v-.2a.1.1,0,0,1,.1-.1c0-.1,0-.1.1-.2,0-.1,0-.1.1-.2v-1.566h0l40.313-22.513h0l.1.1.1.1.1.1.1.1h.2a.1.1,0,0,1,.1.1c.1,0,.1,0,.2.1.1,0,.1,0,.2.1h1.617c.1,0,.1,0,.2-.1.1,0,.1,0,.2-.1a.1.1,0,0,0,.1-.1h.2l.1-.1.1-.1.1-.1.1-.1h0L416.9,298.928h0v1.566c0,.1,0,.1.1.2,0,.1,0,.1.1.2a.1.1,0,0,0,.1.1v.2l.1.1.1.1.1.1.1.1.1.1.1.1.1.1h.2a.1.1,0,0,1,.1.1c.1,0,.1,0,.2.1.1,0,.1,0,.2.1h.1V328h1.111V302.159h.1c.1,0,.1,0,.2-.1.1,0,.1,0,.2-.1a.1.1,0,0,0,.1-.1h.2l.1-.1.1-.1.1-.1.1-.1.1-.1.1-.1.1-.1v-.2a.1.1,0,0,1,.1-.1c0-.1,0-.1.1-.2,0-.1,0-.1.1-.2v-1.566h0l40.313-22.513h0l.1.1.1.1.1.1.1.1h.2a.1.1,0,0,1,.1.1c.1,0,.1,0,.2.1.1,0,.1,0,.2.1h1.617c.1,0,.1,0,.2-.1.1,0,.1,0,.2-.1a.1.1,0,0,0,.1-.1h.2l.1-.1.1-.1.1-.1.1-.1h0l40.313,22.513a2.344,2.344,0,0,0,1.111,2.741,2.418,2.418,0,0,0,3.334-.881,2.266,2.266,0,0,0-.909-3.23,2.4,2.4,0,0,0-3.031.489L466.3,275.534h0v-1.566c0-.1,0-.1-.1-.2,0-.1,0-.1-.1-.2a.1.1,0,0,0-.1-.1v-.2l-.1-.1-.1-.1-.1-.1-.1-.1-.1-.1-.1-.1-.1-.1h-.2a.1.1,0,0,1-.1-.1c-.1,0-.1,0-.2-.1-.1,0-.1,0-.2-.1h-.1V227.18h.1c.1,0,.1,0,.2-.1.1,0,.1,0,.2-.1a.1.1,0,0,0,.1-.1h.2l.1-.1.1-.1.1-.1.1-.1.1-.1.1-.1.1-.1V226a.1.1,0,0,1,.1-.1c0-.1,0-.1.1-.2,0-.1,0-.1.1-.2v-1.566h0l40.313-22.513h0l.2.2c.1.1.1.1.2.1s.1.1.2.1.1.1.2.1.1.1.2.1.1.1.2.1h1.01c.1,0,.2,0,.2-.1.1,0,.1,0,.2-.1a.356.356,0,0,0,.2-.1.1.1,0,0,0,.1-.1h.1c.1,0,.1-.1.2-.2.1,0,.1-.1.2-.1l.2-.2c.1-.1.1-.1.1-.2s.1-.1.1-.2.1-.1.1-.2.1-.1.1-.2.1-.1.1-.2v-.979c0-.1,0-.2-.1-.2,0-.1,0-.1-.1-.2a.339.339,0,0,0-.1-.2.1.1,0,0,0-.1-.1v-.1c0-.1-.1-.1-.2-.2,0-.1-.1-.1-.1-.2l-.2-.2-.2-.2c-.1,0-.1-.1-.2-.1s-.1-.1-.2-.1-.1-.1-.2-.1-.1-.1-.2-.1h0V152.2h.1c.1,0,.1,0,.2-.1.1,0,.1,0,.2-.1a.1.1,0,0,0,.1-.1h.2l.1-.1.1-.1.1-.1.1-.1.1-.1.1-.1.1-.1v-.2a.1.1,0,0,1,.1-.1c0-.1,0-.1.1-.2,0-.1,0-.1.1-.2V148.97h0l-3.233,1.273c.808.783-.1-.294.909-.783h1.212Zm-90.83-95.339h1.111c.1,0,.1,0,.2-.1.1,0,.1,0,.2-.1a.1.1,0,0,0,.1-.1h.2l.1-.1.1-.1.1-.1.1-.1h0L462.564,75.46h0v1.566c0,.1,0,.1.1.2,0,.1,0,.1.1.2a.1.1,0,0,0,.1.1v.2l.1.1.1.1.1.1.1.1.1.1.1.1.1.1h.2a.1.1,0,0,1,.1.1c.1,0,.1,0,.2.1.1,0,.1,0,.2.1h.1v45.124h-.1c-.1,0-.1,0-.2.1-.1,0-.1,0-.2.1a.1.1,0,0,0-.1.1h-.2l-.1.1-.1.1-.1.1-.1.1-.1.1-.1.1-.1.1v.2a.1.1,0,0,1-.1.1c0,.1,0,.1-.1.2,0,.1,0,.1-.1.2v1.566h0l-40.313,22.513h0l-.1-.1-.1-.1-.1-.1-.1-.1h-.2a.1.1,0,0,1-.1-.1c-.1,0-.1,0-.2-.1-.1,0-.1,0-.2-.1h-1.617c-.1,0-.1,0-.2.1-.1,0-.1,0-.2.1a.1.1,0,0,0-.1.1h-.2l-.1.1-.1.1-.1.1-.1.1h0L378.1,127.045h0v-1.566c0-.1,0-.1-.1-.2,0-.1,0-.1-.1-.2a.1.1,0,0,0-.1-.1v-.2l-.1-.1-.1-.1-.1-.1-.1-.1-.1-.1-.1-.1-.1-.1h-.2a.1.1,0,0,1-.1-.1c-.1,0-.1,0-.2-.1-.1,0-.1,0-.2-.1h-.1V78.495h.1c.1,0,.1,0,.2-.1.1,0,.1,0,.2-.1a.1.1,0,0,0,.1-.1h.2l.1-.1.1-.1.1-.1.1-.1.1-.1.1-.1.1-.1v-.2a.1.1,0,0,1,.1-.1c0-.1,0-.1.1-.2,0-.1,0-.1.1-.2V75.265h0l40.313-22.513h0l.1.1.1.1.1.1.1.1h.2a.1.1,0,0,1,.1.1c.1,0,.1,0,.2.1.1,0,.1,0,.2.1h.3C419.928,53.632,420.029,53.632,420.029,53.632Zm-88.1-49.725h.2c.1,0,.1,0,.2-.1.1,0,.1,0,.2-.1a.1.1,0,0,0,.1-.1h.2l.1-.1.1-.1.1-.1.1-.1.1-.1.1-.1.1-.1v-.2a.1.1,0,0,1,.1-.1c0-.1,0-.1.1-.2,0-.1,0-.1.1-.2V.677h0l40.313-22.513h0l.1.1.1.1.1.1.1.1h.2a.1.1,0,0,1,.1.1c.1,0,.1,0,.2.1.1,0,.1,0,.2.1h1.617c.1,0,.1,0,.2-.1.1,0,.1,0,.2-.1a.1.1,0,0,0,.1-.1h.2l.1-.1.1-.1.1-.1.1-.1h0L418.311.677h0V2.243c0,.1,0,.1.1.2,0,.1,0,.1.1.2a.1.1,0,0,0,.1.1v.2l.1.1.1.1.1.1.1.1.1.1.1.1.1.1h.2a.1.1,0,0,1,.1.1.318.318,0,0,1,.2.1c.1,0,.1,0,.2.1h.1V49.032h-.1c-.1,0-.1,0-.2.1-.1,0-.1,0-.2.1a.1.1,0,0,0-.1.1h-.2l-.1.1-.1.1-.1.1-.1.1-.1.1-.1.1-.1.1v.2a.1.1,0,0,1-.1.1c0,.1,0,.1-.1.2,0,.1,0,.1-.1.2v1.566h0L378,74.775h0l-.1-.1-.1-.1-.1-.1-.1-.1h-.2a.1.1,0,0,1-.1-.1c-.1,0-.1,0-.2-.1-.1,0-.1,0-.2-.1h-1.617c-.1,0-.1,0-.2.1-.1,0-.1,0-.2.1a.1.1,0,0,0-.1.1h-.2l-.1.1-.1.1-.1.1-.1.1h0L333.846,52.262h0V50.7c0-.1,0-.1-.1-.2,0-.1,0-.1-.1-.2a.1.1,0,0,0-.1-.1v-.2l-.1-.1-.1-.1-.1-.1-.1-.1-.1-.1-.1-.1-.1-.1h-.2a.1.1,0,0,1-.1-.1c-.1,0-.1,0-.2-.1-.1,0-.1,0-.2-.1h-.1V3.907Zm-.707,49.725h1.111c.1,0,.1,0,.2-.1.1,0,.1,0,.2-.1a.1.1,0,0,0,.1-.1h.2l.1-.1.1-.1.1-.1.1-.1h0L373.755,75.46h0v1.566c0,.1,0,.1.1.2,0,.1,0,.1.1.2a.1.1,0,0,0,.1.1v.2l.1.1.1.1.1.1.1.1.1.1.1.1.1.1h.2a.1.1,0,0,1,.1.1c.1,0,.1,0,.2.1.1,0,.1,0,.2.1h.1v45.124h-.1c-.1,0-.1,0-.2.1-.1,0-.1,0-.2.1a.1.1,0,0,0-.1.1h-.2l-.1.1-.1.1-.1.1-.1.1-.1.1-.1.1-.1.1v.2a.1.1,0,0,1-.1.1c0,.1,0,.1-.1.2,0,.1,0,.1-.1.2v1.566h0l-40.313,22.513h0l-.1-.1-.1-.1-.1-.1-.1-.1h-.2a.1.1,0,0,1-.1-.1c-.1,0-.1,0-.2-.1-.1,0-.1,0-.2-.1h-1.617c-.1,0-.1,0-.2.1-.1,0-.1,0-.2.1a.1.1,0,0,0-.1.1h-.2l-.1.1-.1.1-.1.1-.1.1h0L289.29,127.045h0v-1.566c0-.1,0-.1-.1-.2,0-.1,0-.1-.1-.2a.1.1,0,0,0-.1-.1v-.2l-.1-.1-.1-.1-.1-.1-.1-.1-.1-.1-.1-.1-.1-.1h-.2a.1.1,0,0,1-.1-.1c-.1,0-.1,0-.2-.1-.1,0-.1,0-.2-.1h-.1V78.495h.1c.1,0,.1,0,.2-.1.1,0,.1,0,.2-.1a.1.1,0,0,0,.1-.1h.2l.1-.1.1-.1.1-.1.1-.1.1-.1.1-.1.1-.1v-.2a.1.1,0,0,1,.1-.1c0-.1,0-.1.1-.2,0-.1,0-.1.1-.2V75.265h0L329.6,52.751h0l.1.1.1.1.1.1.1.1h.2a.1.1,0,0,1,.1.1c.1,0,.1,0,.2.1.1,0,.1,0,.2.1h.3C331.118,53.632,331.118,53.632,331.219,53.632ZM286.461,73.894h-.1c-.1,0-.1,0-.2.1-.1,0-.1,0-.2.1a.1.1,0,0,0-.1.1h-.2l-.1.1-.1.1-.1.1-.1.1h0L244.936,52.066v-.1c0-.1,0-.2.1-.2v-.979c0-.1,0-.1-.1-.2a.339.339,0,0,0-.1-.2c0-.1-.1-.1-.1-.2s-.1-.1-.1-.2-.1-.1-.1-.2l-.2-.2c-.1-.1-.1-.1-.2-.1l-.2-.2h-.1a.1.1,0,0,1-.1-.1.356.356,0,0,1-.2-.1c-.1,0-.1,0-.2-.1h-.1V3.907h.1c.1,0,.1,0,.2-.1.1,0,.1,0,.2-.1a.1.1,0,0,0,.1-.1h.2l.1-.1.1-.1.1-.1.1-.1.1-.1.1-.1.1-.1v-.2a.1.1,0,0,1,.1-.1c0-.1,0-.1.1-.2,0-.1,0-.1.1-.2V.677h0L285.35-21.836h0l.1.1.1.1.1.1.1.1h.2a.1.1,0,0,1,.1.1c.1,0,.1,0,.2.1.1,0,.1,0,.2.1h1.617c.1,0,.1,0,.2-.1.1,0,.1,0,.2-.1a.1.1,0,0,0,.1-.1h.2l.1-.1.1-.1.1-.1.1-.1h0L329.5.677h0V2.243c0,.1,0,.1.1.2,0,.1,0,.1.1.2a.1.1,0,0,0,.1.1v.2l.1.1.1.1.1.1.1.1.1.1.1.1.1.1h.2a.1.1,0,0,1,.1.1.318.318,0,0,1,.2.1c.1,0,.1,0,.2.1h.1V49.032h-.1c-.1,0-.1,0-.2.1-.1,0-.1,0-.2.1a.1.1,0,0,0-.1.1h-.2l-.1.1-.1.1-.1.1-.1.1-.1.1-.1.1-.1.1v.2a.1.1,0,0,1-.1.1c0,.1,0,.1-.1.2,0,.1,0,.1-.1.2v1.566h0L289.189,74.775h0l-.1-.1-.1-.1-.1-.1-.1-.1h-.2a.1.1,0,0,1-.1-.1c-.1,0-.1,0-.2-.1-.1,0-.1,0-.2-.1h-1.314C286.562,73.894,286.461,73.894,286.461,73.894Zm0,198.8h-.2c-.1,0-.1,0-.2.1-.1,0-.1,0-.2.1a.1.1,0,0,0-.1.1h-.2l-.1.1-.1.1-.1.1-.1.1-.1.1-.1.1-.1.1v.2a.1.1,0,0,1-.1.1c0,.1,0,.1-.1.2,0,.1,0,.1-.1.2v1.566h0l-40.313,22.513h0l-.1-.1-.1-.1-.1-.1-.1-.1h-.2a.1.1,0,0,1-.1-.1c-.1,0-.1,0-.2-.1-.1,0-.1,0-.2-.1H241.6c-.1,0-.1,0-.2.1-.1,0-.1,0-.2.1a.1.1,0,0,0-.1.1h-.2l-.1.1-.1.1-.1.1-.1.1h0l-40.313-22.513h0V274.36c0-.1,0-.1-.1-.2,0-.1,0-.1-.1-.2a.1.1,0,0,0-.1-.1v-.2l-.1-.1-.1-.1-.1-.1-.1-.1-.1-.1-.1-.1-.1-.1h-.2a.1.1,0,0,1-.1-.1c-.1,0-.1,0-.2-.1-.1,0-.1,0-.2-.1h-.1V227.571h.1c.1,0,.1,0,.2-.1.1,0,.1,0,.2-.1a.1.1,0,0,0,.1-.1h.2l.1-.1.1-.1.1-.1.1-.1.1-.1.1-.1.1-.1v-.2a.1.1,0,0,1,.1-.1c0-.1,0-.1.1-.2,0-.1,0-.1.1-.2v-1.566h0l40.313-22.513h0l.1.1.1.1.1.1.1.1h.2a.1.1,0,0,1,.1.1c.1,0,.1,0,.2.1.1,0,.1,0,.2.1h1.617c.1,0,.1,0,.2-.1.1,0,.1,0,.2-.1a.1.1,0,0,0,.1-.1h.2l.1-.1.1-.1.1-.1.1-.1h0l40.313,22.513h0v1.566c0,.1,0,.1.1.2,0,.1,0,.1.1.2a.1.1,0,0,0,.1.1v.2l.1.1.1.1.1.1.1.1.1.1.1.1.1.1h.2a.1.1,0,0,1,.1.1c.1,0,.1,0,.2.1.1,0,.1,0,.2.1h.1V272.7Zm.909-49.725h-1.314c-.1,0-.1,0-.2.1-.1,0-.1,0-.2.1a.1.1,0,0,0-.1.1h-.2l-.1.1-.1.1-.1.1-.1.1h0l-40.313-22.513h0v-1.566c0-.1,0-.1-.1-.2,0-.1,0-.1-.1-.2a.1.1,0,0,0-.1-.1v-.2l-.1-.1-.1-.1-.1-.1-.1-.1-.1-.1-.1-.1-.1-.1h-.2a.1.1,0,0,1-.1-.1c-.1,0-.1,0-.2-.1-.1,0-.1,0-.2-.1h-.1V152.788h.1c.1,0,.1,0,.2-.1.1,0,.1,0,.2-.1a.1.1,0,0,0,.1-.1h.2l.1-.1.1-.1.1-.1.1-.1.1-.1.1-.1.1-.1v-.2a.1.1,0,0,1,.1-.1c0-.1,0-.1.1-.2,0-.1,0-.1.1-.2v-1.566h0l40.313-22.513h0l.1.1.1.1.1.1.1.1h.2a.1.1,0,0,1,.1.1c.1,0,.1,0,.2.1.1,0,.1,0,.2.1h1.617c.1,0,.1,0,.2-.1.1,0,.1,0,.2-.1a.1.1,0,0,0,.1-.1h.2l.1-.1.1-.1.1-.1.1-.1h0L329.1,149.558h0v1.566c0,.1,0,.1.1.2,0,.1,0,.1.1.2a.1.1,0,0,0,.1.1v.2l.1.1.1.1.1.1.1.1.1.1.1.1.1.1h.2a.1.1,0,0,1,.1.1c.1,0,.1,0,.2.1.1,0,.1,0,.2.1h.1v45.124h-.1c-.1,0-.1,0-.2.1-.1,0-.1,0-.2.1a.1.1,0,0,0-.1.1h-.2l-.1.1-.1.1-.1.1-.1.1-.1.1-.1.1-.1.1v.2a.1.1,0,0,1-.1.1c0,.1,0,.1-.1.2,0,.1,0,.1-.1.2v1.566h0l-40.313,22.513h0l-.1-.1-.1-.1-.1-.1-.1-.1h-.2a.1.1,0,0,1-.1-.1c-.1,0-.1,0-.2-.1-.1,0-.1,0-.2-.1h-.3Zm87.9,49.725h-.2c-.1,0-.1,0-.2.1-.1,0-.1,0-.2.1a.1.1,0,0,0-.1.1h-.2l-.1.1-.1.1-.1.1-.1.1-.1.1-.1.1-.1.1v.2a.1.1,0,0,1-.1.1c0,.1,0,.1-.1.2,0,.1,0,.1-.1.2v1.566h0l-40.313,22.513h0l-.1-.1-.1-.1-.1-.1-.1-.1h-.2a.1.1,0,0,1-.1-.1c-.1,0-.1,0-.2-.1-.1,0-.1,0-.2-.1h-1.516c-.1,0-.1,0-.2.1-.1,0-.1,0-.2.1a.1.1,0,0,0-.1.1h-.2l-.1.1-.1.1-.1.1-.1.1h0l-40.313-22.513h0V274.36c0-.1,0-.1-.1-.2,0-.1,0-.1-.1-.2a.1.1,0,0,0-.1-.1v-.2l-.1-.1-.1-.1-.1-.1-.1-.1-.1-.1-.1-.1-.1-.1h-.2a.1.1,0,0,1-.1-.1c-.1,0-.1,0-.2-.1-.1,0-.1,0-.2-.1h-.1V227.571h.1c.1,0,.1,0,.2-.1.1,0,.1,0,.2-.1a.1.1,0,0,0,.1-.1h.2l.1-.1.1-.1.1-.1.1-.1.1-.1.1-.1.1-.1v-.2a.1.1,0,0,1,.1-.1c0-.1,0-.1.1-.2,0-.1,0-.1.1-.2v-1.566h0L329.3,201.828h0l.1.1.1.1.1.1.1.1h.2a.1.1,0,0,1,.1.1c.1,0,.1,0,.2.1.1,0,.1,0,.2.1h1.617c.1,0,.1,0,.2-.1.1,0,.1,0,.2-.1a.1.1,0,0,0,.1-.1h.2l.1-.1.1-.1.1-.1.1-.1h0l40.313,22.513h0v1.566c0,.1,0,.1.1.2,0,.1,0,.1.1.2a.1.1,0,0,0,.1.1v.2l.1.1.1.1.1.1.1.1.1.1.1.1.1.1h.2a.1.1,0,0,1,.1.1c.1,0,.1,0,.2.1.1,0,.1,0,.2.1h.1Zm1.01-49.725h-1.314c-.1,0-.1,0-.2.1-.1,0-.1,0-.2.1a.1.1,0,0,0-.1.1h-.2l-.1.1-.1.1-.1.1-.1.1h0l-40.313-22.513h0v-1.566c0-.1,0-.1-.1-.2,0-.1,0-.1-.1-.2a.1.1,0,0,0-.1-.1v-.2l-.1-.1-.1-.1-.1-.1-.1-.1-.1-.1-.1-.1-.1-.1h-.2a.1.1,0,0,1-.1-.1c-.1,0-.1,0-.2-.1-.1,0-.1,0-.2-.1h-.1V152.788h.1c.1,0,.1,0,.2-.1.1,0,.1,0,.2-.1a.1.1,0,0,0,.1-.1h.2l.1-.1.1-.1.1-.1.1-.1.1-.1.1-.1.1-.1v-.2a.1.1,0,0,1,.1-.1c0-.1,0-.1.1-.2,0-.1,0-.1.1-.2v-1.566h0l40.313-22.513h0l.1.1.1.1.1.1.1.1h.2a.1.1,0,0,1,.1.1c.1,0,.1,0,.2.1.1,0,.1,0,.2.1h1.617c.1,0,.1,0,.2-.1.1,0,.1,0,.2-.1a.1.1,0,0,0,.1-.1h.2l.1-.1.1-.1.1-.1.1-.1h0l40.313,22.513h0v1.566c0,.1,0,.1.1.2,0,.1,0,.1.1.2a.1.1,0,0,0,.1.1v.2l.1.1.1.1.1.1.1.1.1.1.1.1.1.1h.2a.1.1,0,0,1,.1.1c.1,0,.1,0,.2.1.1,0,.1,0,.2.1h.1v45.124h-.1c-.1,0-.1,0-.2.1-.1,0-.1,0-.2.1a.1.1,0,0,0-.1.1h-.2l-.1.1-.1.1-.1.1-.1.1-.1.1-.1.1-.1.1v.2a.1.1,0,0,1-.1.1c0,.1,0,.1-.1.2,0,.1,0,.1-.1.2v1.566h0L377.7,223.656h0l-.1-.1-.1-.1-.1-.1-.1-.1h-.2a.1.1,0,0,1-.1-.1c-.1,0-.1,0-.2-.1-.1,0-.1,0-.2-.1h-.3Zm87.9,49.725h-.2c-.1,0-.1,0-.2.1-.1,0-.1,0-.2.1a.1.1,0,0,0-.1.1h-.2l-.1.1-.1.1-.1.1-.1.1-.1.1-.1.1-.1.1v.2a.1.1,0,0,1-.1.1c0,.1,0,.1-.1.2,0,.1,0,.1-.1.2v1.566h0l-40.313,22.513h0l-.1-.1-.1-.1-.1-.1-.1-.1h-.2a.1.1,0,0,1-.1-.1c-.1,0-.1,0-.2-.1-.1,0-.1,0-.2-.1h-1.415c-.1,0-.1,0-.2.1-.1,0-.1,0-.2.1a.1.1,0,0,0-.1.1h-.2l-.1.1-.1.1-.1.1-.1.1h0L378,275.926h0V274.36c0-.1,0-.1-.1-.2,0-.1,0-.1-.1-.2a.1.1,0,0,0-.1-.1v-.2l-.1-.1-.1-.1-.1-.1-.1-.1-.1-.1-.1-.1-.1-.1h-.2a.1.1,0,0,1-.1-.1c-.1,0-.1,0-.2-.1-.1,0-.1,0-.2-.1h-.1V227.571h.1c.1,0,.1,0,.2-.1.1,0,.1,0,.2-.1a.1.1,0,0,0,.1-.1h.2l.1-.1.1-.1.1-.1.1-.1.1-.1.1-.1.1-.1v-.2a.1.1,0,0,1,.1-.1c0-.1,0-.1.1-.2,0-.1,0-.1.1-.2v-1.566h0l40.313-22.513h0l.1.1.1.1.1.1.1.1h.2a.1.1,0,0,1,.1.1c.1,0,.1,0,.2.1.1,0,.1,0,.2.1h1.617c.1,0,.1,0,.2-.1.1,0,.1,0,.2-.1a.1.1,0,0,0,.1-.1h.2l.1-.1.1-.1.1-.1.1-.1h0l40.313,22.513h0v1.566c0,.1,0,.1.1.2,0,.1,0,.1.1.2a.1.1,0,0,0,.1.1v.2l.1.1.1.1.1.1.1.1.1.1.1.1.1.1h.2a.1.1,0,0,1,.1.1c.1,0,.1,0,.2.1.1,0,.1,0,.2.1h.1V272.7Zm44.455-74.587h0c-.2,0-.2.1-.3.1a.356.356,0,0,0-.2.1.1.1,0,0,0-.1.1h-.1c-.1,0-.1.1-.2.2-.1,0-.1.1-.2.1l-.2.2-.2.2c0,.1-.1.1-.1.2s-.1.1-.1.2-.1.1-.1.2-.1.1-.1.2v.979c0,.1,0,.2.1.2v.1L466.5,223.656h0l-.1-.1-.1-.1-.1-.1-.1-.1h-.2a.1.1,0,0,1-.1-.1c-.1,0-.1,0-.2-.1-.1,0-.1,0-.2-.1h-1.617c-.1,0-.1,0-.2.1-.1,0-.1,0-.2.1a.1.1,0,0,0-.1.1h-.2l-.1.1-.1.1-.1.1-.1.1h0l-40.313-22.513h0v-1.566c0-.1,0-.1-.1-.2,0-.1,0-.1-.1-.2a.1.1,0,0,0-.1-.1v-.2l-.1-.1-.1-.1-.1-.1-.1-.1-.1-.1-.1-.1-.1-.1h-.2a.1.1,0,0,1-.1-.1c-.1,0-.1,0-.2-.1-.1,0-.1,0-.2-.1h-.1V152.788h.1c.1,0,.1,0,.2-.1.1,0,.1,0,.2-.1a.1.1,0,0,0,.1-.1h.2l.1-.1.1-.1.1-.1.1-.1.1-.1.1-.1.1-.1v-.2a.1.1,0,0,1,.1-.1c0-.1,0-.1.1-.2,0-.1,0-.1.1-.2v-1.566h0l40.313-22.513h0l.1.1.1.1.1.1.1.1h.2a.1.1,0,0,1,.1.1c.1,0,.1,0,.2.1.1,0,.1,0,.2.1h1.617c.1,0,.1,0,.2-.1.1,0,.1,0,.2-.1a.1.1,0,0,0,.1-.1h.2l.1-.1.1-.1.1-.1.1-.1h0l40.313,22.513h0v1.566c0,.1,0,.1.1.2,0,.1,0,.1.1.2a.1.1,0,0,0,.1.1v.2l.1.1.1.1.1.1.1.1.1.1.1.1.1.1h.2a.1.1,0,0,1,.1.1c.1,0,.1,0,.2.1.1,0,.1,0,.2.1h.1Z" transform="translate(-44.036 75)" fill="url(#linear-gradient)"/>
    </g>
  </g>
</svg>
