<svg xmlns="http://www.w3.org/2000/svg" width="24" height="24" viewBox="0 0 24 24">
  <g id="Icon" transform="translate(-141 -321)">
    <rect id="Base" width="24" height="24" transform="translate(141 321)" fill="#0090f0" opacity="0"/>
    <g id="placeholder" transform="translate(80 321)">
      <g id="Group_1469" data-name="Group 1469" transform="translate(64)">
        <g id="Group_1468" data-name="Group 1468" transform="translate(0)">
          <path id="Path_4915" data-name="Path 4915" d="M73,0a9.009,9.009,0,0,0-9,9c0,6.239,8.124,14.435,8.469,14.781a.753.753,0,0,0,1.062,0C73.876,23.435,82,15.239,82,9A9.009,9.009,0,0,0,73,0Zm0,22.166c-1.791-1.917-7.5-8.4-7.5-13.166a7.5,7.5,0,0,1,15,0C80.5,13.761,74.791,20.249,73,22.166Z" transform="translate(-64)" fill="#0090f0"/>
        </g>
      </g>
      <g id="Group_1471" data-name="Group 1471" transform="translate(68.5 4.5)">
        <g id="Group_1470" data-name="Group 1470" transform="translate(0)">
          <path id="Path_4916" data-name="Path 4916" d="M164.5,96a4.5,4.5,0,1,0,4.5,4.5A4.505,4.505,0,0,0,164.5,96Zm0,7.5a3,3,0,1,1,3-3A3,3,0,0,1,164.5,103.5Z" transform="translate(-160 -96)" fill="#0090f0"/>
        </g>
      </g>
    </g>
  </g>
</svg>
