<svg id="Button" xmlns="http://www.w3.org/2000/svg" width="40" height="40" viewBox="0 0 40 40">
  <rect id="Base" width="40" height="40" fill="#0090f0" opacity="0"/>
  <g id="send" transform="translate(1 11)">
    <g id="Group_1473" data-name="Group 1473" transform="translate(11.986)">
      <g id="Group_1472" data-name="Group 1472" transform="translate(0 0)">
        <path id="Path_4919" data-name="Path 4919" d="M161.923,137.938l12.206,8.833,12.206-8.833Z" transform="translate(-161.923 -137.938)" fill="#0090f0"/>
      </g>
    </g>
    <g id="Group_1475" data-name="Group 1475" transform="translate(4.108 1.714)">
      <g id="Group_1474" data-name="Group 1474" transform="translate(0 0)">
        <path id="Path_4920" data-name="Path 4920" d="M76.242,170.529a1.134,1.134,0,0,1-1.33,0L61.869,161.09v1.17H56.626a1.134,1.134,0,1,0,0,2.269h5.242V171.7H56.626a1.134,1.134,0,1,0,0,2.269h5.242v1.75A1.135,1.135,0,0,0,63,176.855H88.15a1.135,1.135,0,0,0,1.134-1.135V161.09Z" transform="translate(-55.492 -161.09)" fill="#0090f0"/>
      </g>
    </g>
    <g id="Group_1477" data-name="Group 1477" transform="translate(0 7.605)">
      <g id="Group_1476" data-name="Group 1476" transform="translate(0 0)">
        <path id="Path_4921" data-name="Path 4921" d="M7.511,240.675H1.135a1.134,1.134,0,1,0,0,2.269H7.511a1.134,1.134,0,1,0,0-2.269Z" transform="translate(0 -240.675)" fill="#0090f0"/>
      </g>
    </g>
  </g>
</svg>
