<svg xmlns="http://www.w3.org/2000/svg" xmlns:xlink="http://www.w3.org/1999/xlink" width="375" height="579" viewBox="0 0 375 579">
  <defs>
    <linearGradient id="linear-gradient" x1="0.596" y1="0.5" x2="0.412" y2="0.474" gradientUnits="objectBoundingBox">
      <stop offset="0" stop-color="#0090f0"/>
      <stop offset="0" stop-color="#006ab1"/>
      <stop offset="1" stop-color="#004878"/>
    </linearGradient>
  </defs>
  <g id="Footer" transform="translate(10250 -6725)">
    <rect id="Base" width="375" height="579" transform="translate(-10250 6725)" fill="#1a3855"/>
    <g id="Back_Icon" data-name="Back Icon" transform="translate(-10250 6725)">
      <path id="Path_4917" data-name="Path 4917" d="M305.087,58.273c-.5.305.3-.61.452-.1l1-.661h0l-.05-.051-.05-.051-.05-.051-.05-.051h-.1a.049.049,0,0,1-.05-.051c-.05,0-.05,0-.1-.051-.05,0-.05,0-.1-.051h-.8c-.05,0-.05,0-.1.051-.05,0-.05,0-.1.051a.049.049,0,0,0-.05.051h-.1l-.05.051-.05.051-.05.051-.05.051h0L284.6,45.813h0V45c0-.051,0-.051-.05-.1,0-.051,0-.051-.05-.1a.05.05,0,0,0-.05-.051v-.1l-.05-.051-.05-.051-.05-.051-.05-.051-.05-.051-.05-.051-.05-.051H284a.049.049,0,0,1-.05-.051c-.05,0-.05,0-.1-.051-.05,0-.05,0-.1-.051h-.05V20.843h.05c.05,0,.05,0,.1-.051.05,0,.05,0,.1-.051a.049.049,0,0,0,.05-.051h.1l.05-.051.05-.051.05-.051.05-.051.05-.051.05-.051.05-.051v-.1a.05.05,0,0,1,.05-.051c0-.051,0-.051.05-.1,0-.051,0-.051.05-.1v-.814h0l20.031-11.7a1.288,1.288,0,0,0,1.506.254,1.205,1.205,0,0,0,.452-1.678,1.174,1.174,0,0,0-1.657-.458,1.268,1.268,0,0,0-.552,1.424l-20.031,11.7h0l-.05-.051-.05-.051-.05-.051-.05-.051h-.1a.049.049,0,0,1-.05-.051c-.05,0-.05,0-.1-.051-.05,0-.05,0-.1-.051H283c-.05,0-.05,0-.1.051-.05,0-.05,0-.1.051a.049.049,0,0,0-.05.051h-.1l-.05.051-.05.051-.05.051-.05.051h0L262.414,7.01h0V6.2c0-.051,0-.051-.05-.1,0-.051,0-.051-.05-.1a.05.05,0,0,0-.05-.051v-.1l-.05-.051-.05-.051-.05-.051-.05-.051-.05-.051-.05-.051-.05-.051h-.1a.049.049,0,0,1-.05-.051c-.05,0-.05,0-.1-.051-.05,0-.05,0-.1-.051h-.05V-17.91h.05c.05,0,.05,0,.1-.051.05,0,.05,0,.1-.051a.049.049,0,0,0,.05-.051h.1l.05-.051.05-.051.05-.051.05-.051.05-.051.05-.051.05-.051v-.1a.05.05,0,0,1,.05-.051c0-.051,0-.051.05-.1,0-.051,0-.051.05-.1v-.814h0l20.031-11.7h0l.05.051.05.051.05.051.05.051h.1a.049.049,0,0,1,.05.051c.05,0,.05,0,.1.051.05,0,.05,0,.1.051h.8c.05,0,.05,0,.1-.051.05,0,.05,0,.1-.051a.049.049,0,0,0,.05-.051h.1l.05-.051.05-.051.05-.051.05-.051h0l20.031,11.7a1.242,1.242,0,0,0,.552,1.424,1.174,1.174,0,0,0,1.657-.458,1.205,1.205,0,0,0-.452-1.678,1.155,1.155,0,0,0-1.506.254L284.6-31.743h0v-.814c0-.051,0-.051-.05-.1,0-.051,0-.051-.05-.1a.05.05,0,0,0-.05-.051v-.1l-.05-.051-.05-.051-.05-.051-.05-.051-.05-.051-.05-.051-.05-.051H284a.049.049,0,0,1-.05-.051.155.155,0,0,1-.1-.051c-.05,0-.05,0-.1-.051h-.8c-.05,0-.05,0-.1.051-.05,0-.05,0-.1.051a.049.049,0,0,0-.05.051h-.1l-.05.051-.05.051-.05.051-.05.051-.05.051-.05.051-.05.051v.1a.05.05,0,0,1-.05.051c0,.051,0,.051-.05.1,0,.051,0,.051-.05.1v.814h0l-20.031,11.7h0l-.05-.051-.05-.051-.05-.051-.05-.051h-.1a.049.049,0,0,1-.05-.051c-.05,0-.05,0-.1-.051-.05,0-.05,0-.1-.051h-.8c-.05,0-.05,0-.1.051-.05,0-.05,0-.1.051a.049.049,0,0,0-.05.051h-.1l-.05.051-.05.051-.05.051-.05.051h0l-20.031-11.7h0v-.814c0-.051,0-.051-.05-.1,0-.051,0-.051-.05-.1a.05.05,0,0,0-.05-.051v-.1l-.05-.051-.05-.051-.05-.051-.05-.051-.05-.051-.05-.051-.05-.051h-.1a.049.049,0,0,1-.05-.051c-.05,0-.05,0-.1-.051-.05,0-.05,0-.1-.051h-.05l-.1-7.526h-.2l-.251,7.526h-.05c-.05,0-.05,0-.1.051-.05,0-.05,0-.1.051a.049.049,0,0,0-.05.051h-.1l-.05.051-.05.051-.05.051-.05.051-.05.051-.05.051-.05.051v.1a.05.05,0,0,1-.05.051c0,.051,0,.051-.05.1,0,.051,0,.051-.05.1v.814h0l-20.031,11.7h0l-.05-.051-.05-.051-.05-.051-.05-.051h-.1a.049.049,0,0,1-.05-.051c-.05,0-.05,0-.1-.051-.05,0-.05,0-.1-.051h-.8c-.05,0-.05,0-.1.051-.05,0-.05,0-.1.051a.049.049,0,0,0-.05.051h-.1l-.05.051-.05.051-.05.051-.05.051h0l-20.031-11.7h0v-.814c0-.051,0-.051-.05-.1,0-.051,0-.051-.05-.1a.05.05,0,0,0-.05-.051v-.1l-.05-.051-.05-.051-.05-.051-.05-.051-.05-.051-.05-.051-.05-.051h-.1a.049.049,0,0,1-.05-.051.155.155,0,0,1-.1-.051c-.05,0-.05,0-.1-.051h-.05l-.1-7.908h-.351l-.1,7.908h-.05c-.05,0-.05,0-.1.051-.05,0-.05,0-.1.051a.049.049,0,0,0-.05.051h-.1l-.05.051-.05.051-.05.051-.05.051-.05.051-.05.051-.05.051v.1a.05.05,0,0,1-.05.051c0,.051,0,.051-.05.1,0,.051,0,.051-.05.1v.814h0L173.4-20.046h0l-.05-.051-.05-.051-.05-.051-.05-.051h-.1a.049.049,0,0,1-.05-.051c-.05,0-.05,0-.1-.051-.05,0-.05,0-.1-.051h-.8c-.05,0-.05,0-.1.051-.05,0-.05,0-.1.051a.049.049,0,0,0-.05.051h-.1l-.05.051-.05.051-.05.051-.05.051h0l-20.031-11.7a1.241,1.241,0,0,0-.552-1.424,1.174,1.174,0,0,0-1.657.458,1.205,1.205,0,0,0,.452,1.678,1.155,1.155,0,0,0,1.506-.254l20.031,11.7h0v.814c0,.051,0,.051.05.1,0,.051,0,.051.05.1a.05.05,0,0,0,.05.051v.1l.05.051.05.051.05.051.05.051.05.051.05.051.05.051h.1a.049.049,0,0,1,.05.051.155.155,0,0,1,.1.051c.05,0,.05,0,.1.051h.05V5.535h0c-.05,0-.05,0-.1.051-.05,0-.05,0-.1.051-.05,0-.05.051-.1.051s-.05.051-.1.051-.05.051-.1.1l-.1.1c-.05.051-.05.051-.05.1l-.1.1V6.2a.05.05,0,0,1-.05.051.178.178,0,0,1-.05.1c0,.051,0,.051-.05.1,0,.051,0,.1-.05.1V7.06c0,.051,0,.051.05.1a.178.178,0,0,0,.05.1c0,.051.05.051.05.1s.05.051.05.1.05.051.1.1l.1.1c.05.051.05.051.1.051l.1.1h.05a.049.049,0,0,1,.05.051.175.175,0,0,1,.1.051c.05,0,.05,0,.1.051.05,0,.1,0,.1.051h.5c.05,0,.05,0,.1-.051a.175.175,0,0,0,.1-.051c.05,0,.05-.051.1-.051s.05-.051.1-.051.05-.051.1-.051l.1-.1h0l20.031,11.7h0v.814c0,.051,0,.051.05.1,0,.051,0,.051.05.1a.05.05,0,0,0,.05.051v.1l.05.051.05.051.05.051.05.051.05.051.05.051.05.051h.1a.049.049,0,0,1,.05.051c.05,0,.05,0,.1.051.05,0,.05,0,.1.051h.05V44.491h-.05c-.05,0-.05,0-.1.051-.05,0-.05,0-.1.051a.049.049,0,0,0-.05.051h-.1l-.05.051-.05.051-.05.051-.05.051-.05.051-.05.051-.05.051v.1a.05.05,0,0,1-.05.051c0,.051,0,.051-.05.1,0,.051,0,.051-.05.1v.814h0L173.3,57.866h0l-.05-.051-.05-.051-.05-.051-.05-.051H173a.049.049,0,0,1-.05-.051c-.05,0-.05,0-.1-.051-.05,0-.05,0-.1-.051h-.8c-.05,0-.05,0-.1.051-.05,0-.05,0-.1.051a.049.049,0,0,0-.05.051h-.1l-.05.051-.05.051-.05.051-.05.051h0l-20.031-11.7a1.242,1.242,0,0,0-.552-1.424,1.174,1.174,0,0,0-1.657.458,1.205,1.205,0,0,0,.452,1.678,1.155,1.155,0,0,0,1.506-.254l20.031,11.7h0v.814c0,.051,0,.051.05.1,0,.051,0,.051.05.1a.05.05,0,0,0,.05.051v.1l.05.051.05.051.05.051.05.051.05.051.05.051.05.051h.1a.049.049,0,0,1,.05.051c.05,0,.05,0,.1.051.05,0,.05,0,.1.051h.05V83.447H172c-.05,0-.05,0-.1.051-.05,0-.05,0-.1.051a.049.049,0,0,0-.05.051h-.1l-.05.051-.05.051-.05.051-.05.051-.05.051-.05.051-.05.051v.1a.05.05,0,0,1-.05.051c0,.051,0,.051-.05.1,0,.051,0,.051-.05.1v.814h0l-20.031,11.7h0l-.05-.051-.05-.051-.05-.051-.05-.051h-.1a.049.049,0,0,1-.05-.051c-.05,0-.05,0-.1-.051-.05,0-.05,0-.1-.051h-.8c-.05,0-.05,0-.1.051-.05,0-.05,0-.1.051a.049.049,0,0,0-.05.051h-.1l-.05.051-.05.051-.05.051-.05.051h0l-20.031-11.7a1.241,1.241,0,0,0-.552-1.424,1.174,1.174,0,0,0-1.657.458,1.205,1.205,0,0,0,.452,1.678,1.155,1.155,0,0,0,1.506-.254l20.031,11.7h0v.814c0,.051,0,.051.05.1,0,.051,0,.051.05.1a.05.05,0,0,0,.05.051v.1l.05.051.05.051.05.051.05.051.05.051.05.051.05.051h.1a.049.049,0,0,1,.05.051c.05,0,.05,0,.1.051.05,0,.05,0,.1.051h.05V122.4h-.05c-.05,0-.05,0-.1.051-.05,0-.05,0-.1.051a.049.049,0,0,0-.05.051h-.1l-.05.051-.05.051-.05.051-.05.051-.05.051-.05.051-.05.051v.1a.05.05,0,0,1-.05.051c0,.051,0,.051-.05.1,0,.051,0,.051-.05.1v.814h0l-20.031,11.7h0l-.05-.051-.05-.051-.05-.051-.05-.051h-.1a.049.049,0,0,1-.05-.051c-.05,0-.05,0-.1-.051-.05,0-.05,0-.1-.051h-.753c-.05,0-.05,0-.1.051-.05,0-.05,0-.1.051a.049.049,0,0,0-.05.051h-.1l-.05.051-.05.051-.05.051-.05.051h0l-20.031-11.7a1.241,1.241,0,0,0-.552-1.424,1.174,1.174,0,0,0-1.657.458,1.205,1.205,0,0,0,.452,1.678,1.155,1.155,0,0,0,1.506-.254l20.031,11.7h0V137c0,.051,0,.051.05.1,0,.051,0,.051.05.1a.05.05,0,0,0,.05.051v.1l.05.051.05.051.05.051.05.051.05.051.05.051.05.051h.1a.049.049,0,0,1,.05.051c.05,0,.05,0,.1.051.05,0,.05,0,.1.051h.05l.05,11.389h.552l-.05-12.2h.05c.05,0,.05,0,.1-.051.05,0,.05,0,.1-.051a.049.049,0,0,0,.05-.051h.1l.05-.051.05-.051.05-.051.05-.051.05-.051.05-.051.05-.051v-.1a.05.05,0,0,1,.05-.051c0-.051,0-.051.05-.1,0-.051,0-.051.05-.1v-.814h0l20.031-11.7h0l.05.051.05.051.05.051.05.051h.1a.049.049,0,0,1,.05.051c.05,0,.05,0,.1.051.05,0,.05,0,.1.051h.8c.05,0,.05,0,.1-.051.05,0,.05,0,.1-.051a.049.049,0,0,0,.05-.051h.1l.05-.051.05-.051.05-.051.05-.051h0l20.031,11.7h0v.814c0,.051,0,.051.05.1,0,.051,0,.051.05.1a.05.05,0,0,0,.05.051v.1l.05.051.05.051.05.051.05.051.05.051.05.051.05.051h.1a.049.049,0,0,1,.05.051c.05,0,.05,0,.1.051.05,0,.05,0,.1.051h.05l.1,12.323h.6L172.6,137.05h.05c.05,0,.05,0,.1-.051.05,0,.05,0,.1-.051a.049.049,0,0,0,.05-.051h.1l.05-.051.05-.051.05-.051.05-.051.05-.051.05-.051.05-.051v-.1a.05.05,0,0,1,.05-.051c0-.051,0-.051.05-.1,0-.051,0-.051.05-.1v-.814h0l20.031-11.7h0l.05.051.05.051.05.051.05.051h.1a.049.049,0,0,1,.05.051c.05,0,.05,0,.1.051.05,0,.05,0,.1.051h.8c.05,0,.05,0,.1-.051.05,0,.05,0,.1-.051a.049.049,0,0,0,.05-.051h.1l.05-.051.05-.051.05-.051.05-.051h0l20.031,11.7h0v.814c0,.051,0,.051.05.1,0,.051,0,.051.05.1a.05.05,0,0,0,.05.051v.1l.05.051.05.051.05.051.05.051.05.051.05.051.05.051h.1a.049.049,0,0,1,.05.051c.05,0,.05,0,.1.051.05,0,.05,0,.1.051h.05l-.05,12.374h.653l-.05-12.374h.05c.05,0,.05,0,.1-.051.05,0,.05,0,.1-.051a.049.049,0,0,0,.05-.051h.1l.05-.051.05-.051.05-.051.05-.051.05-.051.05-.051.05-.051v-.1a.05.05,0,0,1,.05-.051c0-.051,0-.051.05-.1,0-.051,0-.051.05-.1v-.814h0l20.031-11.7h0l.05.051.05.051.05.051.05.051h.1a.049.049,0,0,1,.05.051c.05,0,.05,0,.1.051.05,0,.05,0,.1.051h.8c.05,0,.05,0,.1-.051.05,0,.05,0,.1-.051a.049.049,0,0,0,.05-.051h.1l.05-.051.05-.051.05-.051.05-.051h0l20.031,11.7h0v.814c0,.051,0,.051.05.1,0,.051,0,.051.05.1a.05.05,0,0,0,.05.051v.1l.05.051.05.051.05.051.05.051.05.051.05.051.05.051h.1a.049.049,0,0,1,.05.051c.05,0,.05,0,.1.051.05,0,.05,0,.1.051h.05l-.045,12.294h.446l.151-12.294h.05c.05,0,.05,0,.1-.051.05,0,.05,0,.1-.051a.049.049,0,0,0,.05-.051h.1l.05-.051.05-.051.05-.051.05-.051.05-.051.05-.051.05-.051v-.1a.05.05,0,0,1,.05-.051c0-.051,0-.051.05-.1,0-.051,0-.051.05-.1v-.814h0l20.031-11.7h0l.05.051.05.051.05.051.05.051h.1a.049.049,0,0,1,.05.051c.05,0,.05,0,.1.051.05,0,.05,0,.1.051h.8c.05,0,.05,0,.1-.051.05,0,.05,0,.1-.051a.049.049,0,0,0,.05-.051h.1l.05-.051.05-.051.05-.051.05-.051h0l20.031,11.7a1.242,1.242,0,0,0,.552,1.424,1.174,1.174,0,0,0,1.657-.458,1.205,1.205,0,0,0-.452-1.678,1.155,1.155,0,0,0-1.506.254l-20.031-11.7h0V122.4c0-.051,0-.051-.05-.1,0-.051,0-.051-.05-.1a.05.05,0,0,0-.05-.051v-.1l-.05-.051-.05-.051-.05-.051-.05-.051-.05-.051-.05-.051-.05-.051h-.1a.049.049,0,0,1-.05-.051c-.05,0-.05,0-.1-.051-.05,0-.05,0-.1-.051h-.05V98.094h.05c.05,0,.05,0,.1-.051.05,0,.05,0,.1-.051a.049.049,0,0,0,.05-.051h.1l.05-.051.05-.051.05-.051.05-.051.05-.051.05-.051.05-.051v-.1a.05.05,0,0,1,.05-.051c0-.051,0-.051.05-.1,0-.051,0-.051.05-.1v-.814h0l20.031-11.7h0l.1.1c.05.051.05.051.1.051s.05.051.1.051.05.051.1.051.05.051.1.051.05.051.1.051h.5c.05,0,.1,0,.1-.051.05,0,.05,0,.1-.051a.174.174,0,0,0,.1-.051.049.049,0,0,0,.05-.051h.05c.05,0,.05-.051.1-.1.05,0,.05-.051.1-.051l.1-.1c.05-.051.05-.051.05-.1s.05-.051.05-.1.05-.051.05-.1.05-.051.05-.1.05-.051.05-.1V83.6c0-.051,0-.1-.05-.1,0-.051,0-.051-.05-.1a.178.178,0,0,0-.05-.1.05.05,0,0,0-.05-.051v-.051c0-.051-.05-.051-.1-.1,0-.051-.05-.051-.05-.1l-.1-.1-.1-.1c-.05,0-.05-.051-.1-.051s-.05-.051-.1-.051-.05-.051-.1-.051-.05-.051-.1-.051h0V59.137h.05c.05,0,.05,0,.1-.051.05,0,.05,0,.1-.051a.049.049,0,0,0,.05-.051h.1l.05-.051.05-.051.05-.051.05-.051.05-.051.05-.051.05-.051v-.1a.05.05,0,0,1,.05-.051c0-.051,0-.051.05-.1,0-.051,0-.051.05-.1v-.814h0c20.433-11.29-1.305.712-.8.458C306.543,58.07,305.69,57.917,305.087,58.273ZM261.36,7.925h.552c.05,0,.05,0,.1-.051.05,0,.05,0,.1-.051a.049.049,0,0,0,.05-.051h.1l.05-.051.05-.051.05-.051.05-.051h0l20.031,11.7h0v.814c0,.051,0,.051.05.1,0,.051,0,.051.05.1a.05.05,0,0,0,.05.051v.1l.05.051.05.051.05.051.05.051.05.051.05.051.05.051h.1a.049.049,0,0,1,.05.051c.05,0,.05,0,.1.051.05,0,.05,0,.1.051h.05V44.389h-.05c-.05,0-.05,0-.1.051-.05,0-.05,0-.1.051a.049.049,0,0,0-.05.051H283l-.05.051-.05.051-.05.051-.05.051-.05.051-.05.051-.05.051V45a.05.05,0,0,1-.05.051c0,.051,0,.051-.05.1,0,.051,0,.051-.05.1v.814h0l-20.031,11.7h0l-.05-.051-.05-.051-.05-.051-.05-.051h-.1a.049.049,0,0,1-.05-.051c-.05,0-.05,0-.1-.051-.05,0-.05,0-.1-.051h-.8c-.05,0-.05,0-.1.051-.05,0-.05,0-.1.051a.049.049,0,0,0-.05.051h-.1l-.05.051-.05.051-.05.051-.05.051h0l-20.031-11.7h0v-.814c0-.051,0-.051-.05-.1,0-.051,0-.051-.05-.1a.05.05,0,0,0-.05-.051v-.1l-.05-.051-.05-.051-.05-.051-.05-.051-.05-.051-.05-.051-.05-.051h-.1a.049.049,0,0,1-.05-.051c-.05,0-.05,0-.1-.051-.05,0-.05,0-.1-.051h-.05V20.843h.05c.05,0,.05,0,.1-.051.05,0,.05,0,.1-.051a.049.049,0,0,0,.05-.051h.1l.05-.051.05-.051.05-.051.05-.051.05-.051.05-.051.05-.051v-.1a.05.05,0,0,1,.05-.051c0-.051,0-.051.05-.1,0-.051,0-.051.05-.1v-.814h0l20.031-11.7h0l.05.051.05.051.05.051.05.051h.1a.049.049,0,0,1,.05.051c.05,0,.05,0,.1.051.05,0,.05,0,.1.051h.151C261.31,7.925,261.36,7.925,261.36,7.925ZM217.583-17.91h.1c.05,0,.05,0,.1-.051.05,0,.05,0,.1-.051a.049.049,0,0,0,.05-.051h.1l.05-.051.05-.051.05-.051.05-.051.05-.051.05-.051.05-.051v-.1a.05.05,0,0,1,.05-.051c0-.051,0-.051.05-.1,0-.051,0-.051.05-.1v-.814h0l20.031-11.7h0l.05.051.05.051.05.051.05.051h.1a.049.049,0,0,1,.05.051c.05,0,.05,0,.1.051.05,0,.05,0,.1.051h.8c.05,0,.05,0,.1-.051.05,0,.05,0,.1-.051a.049.049,0,0,0,.05-.051h.1l.05-.051.05-.051.05-.051.05-.051h0l20.031,11.7h0v.814c0,.051,0,.051.05.1,0,.051,0,.051.05.1a.05.05,0,0,0,.05.051v.1l.05.051.05.051.05.051.05.051.05.051.05.051.05.051h.1a.049.049,0,0,1,.05.051.155.155,0,0,1,.1.051c.05,0,.05,0,.1.051h.05V5.535h-.05c-.05,0-.05,0-.1.051-.05,0-.05,0-.1.051a.049.049,0,0,0-.05.051h-.1l-.05.051-.05.051-.05.051-.05.051-.05.051-.05.051-.05.051v.1a.05.05,0,0,1-.05.051c0,.051,0,.051-.05.1,0,.051,0,.051-.05.1v.814h0l-20.031,11.7h0l-.05-.051-.05-.051-.05-.051-.05-.051h-.1a.049.049,0,0,1-.05-.051c-.05,0-.05,0-.1-.051-.05,0-.05,0-.1-.051h-.8c-.05,0-.05,0-.1.051-.05,0-.05,0-.1.051a.049.049,0,0,0-.05.051h-.1l-.05.051-.05.051-.05.051-.05.051h0l-20.031-11.7h0V6.4c0-.051,0-.051-.05-.1,0-.051,0-.051-.05-.1a.05.05,0,0,0-.05-.051v-.1l-.05-.051-.05-.051-.05-.051-.05-.051-.05-.051-.05-.051-.05-.051h-.1a.049.049,0,0,1-.05-.051c-.05,0-.05,0-.1-.051-.05,0-.05,0-.1-.051h-.05V-17.91Zm-.351,25.835h.552c.05,0,.05,0,.1-.051.05,0,.05,0,.1-.051a.049.049,0,0,0,.05-.051h.1l.05-.051.05-.051.05-.051.05-.051h0l20.031,11.7h0v.814c0,.051,0,.051.05.1,0,.051,0,.051.05.1a.05.05,0,0,0,.05.051v.1l.05.051.05.051.05.051.05.051.05.051.05.051.05.051h.1a.049.049,0,0,1,.05.051c.05,0,.05,0,.1.051.05,0,.05,0,.1.051h.05V44.389h-.05c-.05,0-.05,0-.1.051-.05,0-.05,0-.1.051a.049.049,0,0,0-.05.051h-.1l-.05.051-.05.051-.05.051-.05.051-.05.051-.05.051-.05.051V45a.05.05,0,0,1-.05.051c0,.051,0,.051-.05.1,0,.051,0,.051-.05.1v.814h0l-20.031,11.7h0l-.05-.051-.05-.051-.05-.051-.05-.051h-.1a.049.049,0,0,1-.05-.051c-.05,0-.05,0-.1-.051-.05,0-.05,0-.1-.051h-.8c-.05,0-.05,0-.1.051-.05,0-.05,0-.1.051a.049.049,0,0,0-.05.051h-.1l-.05.051-.05.051-.05.051-.05.051h0L196.4,46.067h0v-.814c0-.051,0-.051-.05-.1,0-.051,0-.051-.05-.1a.05.05,0,0,0-.05-.051v-.1l-.05-.051-.05-.051-.05-.051-.05-.051-.05-.051-.05-.051-.05-.051h-.1a.049.049,0,0,1-.05-.051c-.05,0-.05,0-.1-.051-.05,0-.05,0-.1-.051h-.05V20.843h.05c.05,0,.05,0,.1-.051.05,0,.05,0,.1-.051a.049.049,0,0,0,.05-.051h.1l.05-.051.05-.051.05-.051.05-.051.05-.051.05-.051.05-.051v-.1a.05.05,0,0,1,.05-.051c0-.051,0-.051.05-.1,0-.051,0-.051.05-.1v-.814h0l20.031-11.7h0l.05.051.05.051.05.051.05.051h.1a.049.049,0,0,1,.05.051c.05,0,.05,0,.1.051.05,0,.05,0,.1.051h.151C217.182,7.925,217.182,7.925,217.232,7.925Zm-22.24,10.527h-.05c-.05,0-.05,0-.1.051-.05,0-.05,0-.1.051a.049.049,0,0,0-.05.051h-.1l-.05.051-.05.051-.05.051-.05.051h0l-20.031-11.7V7.06c0-.051,0-.1.05-.1V6.45c0-.051,0-.051-.05-.1a.178.178,0,0,0-.05-.1c0-.051-.05-.051-.05-.1s-.05-.051-.05-.1-.05-.051-.05-.1l-.1-.1c-.05-.051-.05-.051-.1-.051l-.1-.1h-.05a.049.049,0,0,1-.05-.051.175.175,0,0,1-.1-.051c-.05,0-.05,0-.1-.051h-.05V-17.91h.05c.05,0,.05,0,.1-.051.05,0,.05,0,.1-.051a.049.049,0,0,0,.05-.051h.1l.05-.051.05-.051.05-.051.05-.051.05-.051.05-.051.05-.051v-.1a.05.05,0,0,1,.05-.051c0-.051,0-.051.05-.1,0-.051,0-.051.05-.1v-.814h0l20.031-11.7h0l.05.051.05.051.05.051.05.051h.1a.049.049,0,0,1,.05.051c.05,0,.05,0,.1.051.05,0,.05,0,.1.051h.8c.05,0,.05,0,.1-.051.05,0,.05,0,.1-.051a.049.049,0,0,0,.05-.051h.1l.05-.051.05-.051.05-.051.05-.051h0l20.031,11.7h0v.814c0,.051,0,.051.05.1,0,.051,0,.051.05.1a.05.05,0,0,0,.05.051v.1l.05.051.05.051.05.051.05.051.05.051.05.051.05.051h.1a.049.049,0,0,1,.05.051.155.155,0,0,1,.1.051c.05,0,.05,0,.1.051h.05V5.535h-.05c-.05,0-.05,0-.1.051-.05,0-.05,0-.1.051a.049.049,0,0,0-.05.051h-.1l-.05.051-.05.051-.05.051-.05.051-.05.051-.05.051-.05.051v.1a.05.05,0,0,1-.05.051c0,.051,0,.051-.05.1,0,.051,0,.051-.05.1v.814h0l-20.031,11.7h0l-.05-.051-.05-.051-.05-.051-.05-.051h-.1a.049.049,0,0,1-.05-.051c-.05,0-.05,0-.1-.051-.05,0-.05,0-.1-.051h-.653C195.042,18.452,194.992,18.452,194.992,18.452Zm0,103.29h-.1c-.05,0-.05,0-.1.051-.05,0-.05,0-.1.051a.049.049,0,0,0-.05.051h-.1l-.05.051-.05.051-.05.051-.05.051-.05.051-.05.051-.05.051v.1a.05.05,0,0,1-.05.051c0,.051,0,.051-.05.1,0,.051,0,.051-.05.1v.814h0l-20.031,11.7h0l-.05-.051-.05-.051-.05-.051-.05-.051h-.1a.049.049,0,0,1-.05-.051c-.05,0-.05,0-.1-.051-.05,0-.05,0-.1-.051H172.7c-.05,0-.05,0-.1.051-.05,0-.05,0-.1.051a.049.049,0,0,0-.05.051h-.1l-.05.051-.05.051-.05.051-.05.051h0l-20.031-11.7h0v-.814c0-.051,0-.051-.05-.1,0-.051,0-.051-.05-.1a.05.05,0,0,0-.05-.051v-.1l-.05-.051-.05-.051-.05-.051-.05-.051-.05-.051-.05-.051-.05-.051h-.1a.049.049,0,0,1-.05-.051c-.05,0-.05,0-.1-.051-.05,0-.05,0-.1-.051h-.05V98.3h.05c.05,0,.05,0,.1-.051.05,0,.05,0,.1-.051a.049.049,0,0,0,.05-.051h.1l.05-.051.05-.051.05-.051.05-.051.05-.051.05-.051.05-.051v-.1a.05.05,0,0,1,.05-.051c0-.051,0-.051.05-.1,0-.051,0-.051.05-.1v-.814h0l20.031-11.7h0l.05.051.05.051.05.051.05.051h.1a.049.049,0,0,1,.05.051c.05,0,.05,0,.1.051.05,0,.05,0,.1.051h.8c.05,0,.05,0,.1-.051.05,0,.05,0,.1-.051a.049.049,0,0,0,.05-.051h.1l.05-.051.05-.051.05-.051.05-.051h0l20.031,11.7h0v.814c0,.051,0,.051.05.1,0,.051,0,.051.05.1a.05.05,0,0,0,.05.051v.1l.05.051.05.051.05.051.05.051.05.051.05.051.05.051h.1a.049.049,0,0,1,.05.051c.05,0,.05,0,.1.051.05,0,.05,0,.1.051h.05Zm.452-25.835h-.653c-.05,0-.05,0-.1.051-.05,0-.05,0-.1.051a.049.049,0,0,0-.05.051h-.1l-.05.051-.05.051-.05.051-.05.051h0l-20.031-11.7h0v-.814c0-.051,0-.051-.05-.1,0-.051,0-.051-.05-.1a.05.05,0,0,0-.05-.051v-.1l-.05-.051-.05-.051-.05-.051-.05-.051-.05-.051-.05-.051-.05-.051h-.1a.049.049,0,0,1-.05-.051c-.05,0-.05,0-.1-.051-.05,0-.05,0-.1-.051h-.05V59.443h.05c.05,0,.05,0,.1-.051.05,0,.05,0,.1-.051a.049.049,0,0,0,.05-.051h.1l.05-.051.05-.051.05-.051.05-.051.05-.051.05-.051.05-.051v-.1a.05.05,0,0,1,.05-.051c0-.051,0-.051.05-.1,0-.051,0-.051.05-.1v-.814h0l20.031-11.7h0l.05.051.05.051.05.051.05.051h.1a.049.049,0,0,1,.05.051c.05,0,.05,0,.1.051.05,0,.05,0,.1.051h.8c.05,0,.05,0,.1-.051.05,0,.05,0,.1-.051a.049.049,0,0,0,.05-.051h.1l.05-.051.05-.051.05-.051.05-.051h0l20.031,11.7h0v.814c0,.051,0,.051.05.1,0,.051,0,.051.05.1a.05.05,0,0,0,.05.051v.1l.05.051.05.051.05.051.05.051.05.051.05.051.05.051h.1a.049.049,0,0,1,.05.051c.05,0,.05,0,.1.051.05,0,.05,0,.1.051h.05V82.888h-.05c-.05,0-.05,0-.1.051-.05,0-.05,0-.1.051a.049.049,0,0,0-.05.051h-.1l-.05.051-.05.051-.05.051-.05.051-.05.051-.05.051-.05.051v.1a.05.05,0,0,1-.05.051c0,.051,0,.051-.05.1,0,.051,0,.051-.05.1v.814h0l-20.031,11.7h0l-.05-.051-.05-.051L196,96.11l-.05-.051h-.1a.049.049,0,0,1-.05-.051c-.05,0-.05,0-.1-.051-.05,0-.05,0-.1-.051h-.151Zm43.677,25.835h-.1c-.05,0-.05,0-.1.051-.05,0-.05,0-.1.051a.049.049,0,0,0-.05.051h-.1l-.05.051-.05.051-.05.051-.05.051-.05.051-.05.051-.05.051v.1a.05.05,0,0,1-.05.051c0,.051,0,.051-.05.1,0,.051,0,.051-.05.1v.814h0l-20.031,11.7h0l-.05-.051-.05-.051-.05-.051-.05-.051h-.1a.049.049,0,0,1-.05-.051c-.05,0-.05,0-.1-.051-.05,0-.05,0-.1-.051h-.753c-.05,0-.05,0-.1.051-.05,0-.05,0-.1.051a.049.049,0,0,0-.05.051h-.1l-.05.051-.05.051-.05.051-.05.051h0l-20.031-11.7h0v-.814c0-.051,0-.051-.05-.1,0-.051,0-.051-.05-.1a.05.05,0,0,0-.05-.051v-.1l-.05-.051-.05-.051-.05-.051-.05-.051-.05-.051-.05-.051-.05-.051h-.1a.049.049,0,0,1-.05-.051c-.05,0-.05,0-.1-.051-.05,0-.05,0-.1-.051h-.05V98.3h.05c.05,0,.05,0,.1-.051.05,0,.05,0,.1-.051a.049.049,0,0,0,.05-.051h.1l.05-.051.05-.051.05-.051.05-.051.05-.051.05-.051.05-.051v-.1a.05.05,0,0,1,.05-.051c0-.051,0-.051.05-.1,0-.051,0-.051.05-.1v-.814h0l20.031-11.7h0l.05.051.05.051.05.051.05.051h.1a.049.049,0,0,1,.05.051c.05,0,.05,0,.1.051.05,0,.05,0,.1.051h.8c.05,0,.05,0,.1-.051.05,0,.05,0,.1-.051a.049.049,0,0,0,.05-.051h.1l.05-.051.05-.051.05-.051.05-.051h0l20.031,11.7h0v.814c0,.051,0,.051.05.1,0,.051,0,.051.05.1a.05.05,0,0,0,.05.051v.1l.05.051.05.051.05.051.05.051.05.051.05.051.05.051h.1a.049.049,0,0,1,.05.051c.05,0,.05,0,.1.051.05,0,.05,0,.1.051h.05Zm.5-25.835h-.653c-.05,0-.05,0-.1.051-.05,0-.05,0-.1.051a.049.049,0,0,0-.05.051h-.1l-.05.051-.05.051-.05.051-.05.051h0l-20.031-11.7h0v-.814c0-.051,0-.051-.05-.1,0-.051,0-.051-.05-.1a.05.05,0,0,0-.05-.051v-.1l-.05-.051-.05-.051-.05-.051-.05-.051-.05-.051-.05-.051-.05-.051h-.1a.049.049,0,0,1-.05-.051c-.05,0-.05,0-.1-.051-.05,0-.05,0-.1-.051h-.05V59.443h.05c.05,0,.05,0,.1-.051.05,0,.05,0,.1-.051a.049.049,0,0,0,.05-.051h.1l.05-.051.05-.051.05-.051.05-.051.05-.051.05-.051.05-.051v-.1a.05.05,0,0,1,.05-.051c0-.051,0-.051.05-.1,0-.051,0-.051.05-.1v-.814h0l20.031-11.7h0l.05.051.05.051.05.051.05.051h.1a.049.049,0,0,1,.05.051c.05,0,.05,0,.1.051.05,0,.05,0,.1.051h.8c.05,0,.05,0,.1-.051.05,0,.05,0,.1-.051a.049.049,0,0,0,.05-.051h.1l.05-.051.05-.051.05-.051.05-.051h0l20.031,11.7h0v.814c0,.051,0,.051.05.1,0,.051,0,.051.05.1a.05.05,0,0,0,.05.051v.1l.05.051.05.051.05.051.05.051.05.051.05.051.05.051h.1a.049.049,0,0,1,.05.051c.05,0,.05,0,.1.051.05,0,.05,0,.1.051h.05V82.888h-.05c-.05,0-.05,0-.1.051-.05,0-.05,0-.1.051a.049.049,0,0,0-.05.051h-.1l-.05.051-.05.051-.05.051-.05.051-.05.051-.05.051-.05.051v.1a.05.05,0,0,1-.05.051c0,.051,0,.051-.05.1,0,.051,0,.051-.05.1v.814h0l-20.031,11.7h0l-.05-.051-.05-.051-.05-.051-.05-.051h-.1a.049.049,0,0,1-.05-.051c-.05,0-.05,0-.1-.051-.05,0-.05,0-.1-.051h-.151ZM283.3,121.742h-.1c-.05,0-.05,0-.1.051-.05,0-.05,0-.1.051a.049.049,0,0,0-.05.051h-.1l-.05.051-.05.051-.05.051-.05.051-.05.051-.05.051-.05.051v.1a.05.05,0,0,1-.05.051c0,.051,0,.051-.05.1,0,.051,0,.051-.05.1v.814h0l-20.031,11.7h0l-.05-.051-.05-.051-.05-.051-.05-.051h-.1a.049.049,0,0,1-.05-.051c-.05,0-.05,0-.1-.051-.05,0-.05,0-.1-.051h-.7c-.05,0-.05,0-.1.051-.05,0-.05,0-.1.051a.049.049,0,0,0-.05.051h-.1l-.05.051-.05.051-.05.051-.05.051h0l-20.031-11.7h0v-.814c0-.051,0-.051-.05-.1,0-.051,0-.051-.05-.1a.05.05,0,0,0-.05-.051v-.1l-.05-.051-.05-.051-.05-.051-.05-.051-.05-.051-.05-.051-.05-.051h-.1a.049.049,0,0,1-.05-.051c-.05,0-.05,0-.1-.051-.05,0-.05,0-.1-.051h-.05V98.3h.05c.05,0,.05,0,.1-.051.05,0,.05,0,.1-.051a.049.049,0,0,0,.05-.051h.1l.05-.051.05-.051.05-.051.05-.051.05-.051.05-.051.05-.051v-.1a.05.05,0,0,1,.05-.051c0-.051,0-.051.05-.1,0-.051,0-.051.05-.1v-.814h0l20.031-11.7h0l.05.051.05.051.05.051.05.051h.1a.049.049,0,0,1,.05.051c.05,0,.05,0,.1.051.05,0,.05,0,.1.051h.8c.05,0,.05,0,.1-.051.05,0,.05,0,.1-.051a.049.049,0,0,0,.05-.051h.1l.05-.051.05-.051.05-.051.05-.051h0l20.031,11.7h0v.814c0,.051,0,.051.05.1,0,.051,0,.051.05.1a.05.05,0,0,0,.05.051v.1l.05.051.05.051.05.051.05.051.05.051.05.051.05.051h.1a.049.049,0,0,1,.05.051c.05,0,.05,0,.1.051.05,0,.05,0,.1.051h.05v23.445Zm22.089-38.753h0c-.1,0-.1.051-.151.051a.175.175,0,0,0-.1.051.049.049,0,0,0-.05.051h-.05c-.05,0-.05.051-.1.1-.05,0-.05.051-.1.051l-.1.1-.1.1c0,.051-.05.051-.05.1s-.05.051-.05.1-.05.051-.05.1-.05.051-.05.1v.509c0,.051,0,.1.05.1v.051l-20.031,11.7h0l-.05-.051-.05-.051-.05-.051-.05-.051h-.1a.049.049,0,0,1-.05-.051c-.05,0-.05,0-.1-.051-.05,0-.05,0-.1-.051h-.8c-.05,0-.05,0-.1.051-.05,0-.05,0-.1.051a.049.049,0,0,0-.05.051h-.1l-.05.051-.05.051-.05.051-.05.051h0l-20.031-11.7h0v-.814c0-.051,0-.051-.05-.1,0-.051,0-.051-.05-.1a.05.05,0,0,0-.05-.051v-.1l-.05-.051-.05-.051-.05-.051-.05-.051-.05-.051-.05-.051-.05-.051h-.1a.049.049,0,0,1-.05-.051c-.05,0-.05,0-.1-.051-.05,0-.05,0-.1-.051h-.05V59.443h.05c.05,0,.05,0,.1-.051.05,0,.05,0,.1-.051a.049.049,0,0,0,.05-.051h.1l.05-.051.05-.051.05-.051.05-.051.05-.051.05-.051.05-.051v-.1a.05.05,0,0,1,.05-.051c0-.051,0-.051.05-.1,0-.051,0-.051.05-.1v-.814h0l20.031-11.7h0l.05.051.05.051.05.051.05.051h.1a.049.049,0,0,1,.05.051c.05,0,.05,0,.1.051.05,0,.05,0,.1.051h.8c.05,0,.05,0,.1-.051.05,0,.05,0,.1-.051a.049.049,0,0,0,.05-.051h.1l.05-.051.05-.051.05-.051.05-.051h0l20.031,11.7h0v.814c0,.051,0,.051.05.1,0,.051,0,.051.05.1a.05.05,0,0,0,.05.051v.1l.05.051.05.051.05.051.05.051.05.051.05.051.05.051h.1a.049.049,0,0,1,.05.051c.05,0,.05,0,.1.051.05,0,.05,0,.1.051h.05Z" transform="translate(43.836 424.576)" opacity="0.235" fill="url(#linear-gradient)"/>
    </g>
  </g>
</svg>
