<svg xmlns="http://www.w3.org/2000/svg" xmlns:xlink="http://www.w3.org/1999/xlink" width="768" height="421" viewBox="0 0 768 421">
  <defs>
    <linearGradient id="linear-gradient" x1="0.596" y1="0.5" x2="0.412" y2="0.474" gradientUnits="objectBoundingBox">
      <stop offset="0" stop-color="#0090f0"/>
      <stop offset="0" stop-color="#006ab1"/>
      <stop offset="1" stop-color="#004878"/>
    </linearGradient>
  </defs>
  <g id="Footer" transform="translate(11088 -5069)">
    <rect id="Base" width="768" height="421" transform="translate(-11088 5069)" fill="#1a3855"/>
    <g id="Back_Icon" data-name="Back Icon" transform="translate(-27519.219 -6006)">
      <path id="Path_4917" data-name="Path 4917" d="M358.433,84.782c-.636.386.381-.772.572-.129l1.271-.837h0l-.064-.064-.064-.064-.064-.064-.064-.064h-.127a.063.063,0,0,1-.064-.064c-.064,0-.064,0-.127-.064-.064,0-.064,0-.127-.064H358.56c-.064,0-.064,0-.127.064-.064,0-.064,0-.127.064a.062.062,0,0,0-.064.064h-.127l-.064.064-.064.064-.064.064-.064.064h0L332.5,69.006h0v-1.03c0-.064,0-.064-.064-.129,0-.064,0-.064-.064-.129a.063.063,0,0,0-.064-.064v-.129l-.064-.064-.064-.064-.064-.064-.063-.064-.064-.064-.064-.064-.064-.064h-.127a.063.063,0,0,1-.064-.064c-.063,0-.063,0-.127-.064-.064,0-.064,0-.127-.064h-.064V37.39h.064c.064,0,.064,0,.127-.064.064,0,.064,0,.127-.064a.063.063,0,0,0,.064-.064h.127l.064-.064.064-.064.064-.064.063-.064.064-.064.064-.064.064-.064v-.129a.063.063,0,0,1,.064-.064c0-.064,0-.064.064-.129,0-.064,0-.064.064-.129v-1.03h0l25.362-14.81a1.631,1.631,0,0,0,1.907.322,1.526,1.526,0,0,0,.572-2.125,1.486,1.486,0,0,0-2.1-.58,1.6,1.6,0,0,0-.7,1.8L332.18,34.685h0l-.064-.064-.063-.064-.064-.064-.064-.064H331.8a.062.062,0,0,1-.064-.064c-.064,0-.064,0-.127-.064-.064,0-.064,0-.127-.064h-1.017c-.064,0-.064,0-.127.064-.064,0-.064,0-.127.064a.062.062,0,0,0-.064.064h-.127l-.064.064-.064.064-.064.064-.064.064h0L304.4,19.875h0v-1.03c0-.064,0-.064-.064-.129,0-.064,0-.064-.064-.129a.063.063,0,0,0-.064-.064v-.129l-.064-.064-.064-.064-.064-.064-.064-.064-.064-.064-.064-.064-.064-.064h-.127a.063.063,0,0,1-.064-.064c-.064,0-.064,0-.127-.064-.064,0-.064,0-.127-.064h-.064V-11.677h.064c.064,0,.064,0,.127-.064.064,0,.064,0,.127-.064a.063.063,0,0,0,.064-.064h.127l.064-.064.064-.064.064-.064.064-.064.064-.064.064-.064.064-.064v-.129a.063.063,0,0,1,.064-.064c0-.064,0-.064.064-.129,0-.064,0-.064.064-.129V-13.8h0l25.362-14.81h0l.064.064.064.064.064.064.064.064h.127a.062.062,0,0,1,.064.064c.064,0,.064,0,.127.064.064,0,.064,0,.127.064h1.017c.064,0,.064,0,.127-.064.064,0,.064,0,.127-.064a.062.062,0,0,0,.064-.064h.127l.064-.064.064-.064.063-.064.064-.064h0L357.543-13.8a1.572,1.572,0,0,0,.7,1.8,1.486,1.486,0,0,0,2.1-.58,1.526,1.526,0,0,0-.572-2.125,1.463,1.463,0,0,0-1.907.322L332.5-29.192h0v-1.03c0-.064,0-.064-.064-.129,0-.064,0-.064-.064-.129a.063.063,0,0,0-.064-.064v-.129l-.064-.064-.064-.064-.064-.064-.063-.064-.064-.064-.064-.064-.064-.064h-.127a.063.063,0,0,1-.064-.064.2.2,0,0,1-.127-.064c-.064,0-.064,0-.127-.064H330.4c-.064,0-.064,0-.127.064-.064,0-.064,0-.127.064a.062.062,0,0,0-.064.064h-.127l-.064.064-.064.064-.064.064-.063.064-.064.064-.064.064-.064.064v.129a.063.063,0,0,1-.064.064c0,.064,0,.064-.064.129,0,.064,0,.064-.064.129v1.03h0l-25.362,14.81h0l-.064-.064-.064-.064-.064-.064-.064-.064h-.127a.062.062,0,0,1-.064-.064c-.064,0-.064,0-.127-.064-.064,0-.064,0-.127-.064h-1.017c-.064,0-.064,0-.127.064-.064,0-.064,0-.127.064a.062.062,0,0,0-.064.064H301.8l-.064.064-.064.064-.064.064-.064.064h0L276.18-29.192h0v-1.03c0-.064,0-.064-.064-.129,0-.064,0-.064-.064-.129a.063.063,0,0,0-.064-.064v-.129l-.064-.064-.064-.064-.064-.064-.064-.064-.064-.064-.064-.064-.064-.064h-.127a.063.063,0,0,1-.064-.064c-.064,0-.064,0-.127-.064-.064,0-.064,0-.127-.064h-.064l-.127-9.529h-.254l-.318,9.529h-.064c-.064,0-.064,0-.127.064-.064,0-.064,0-.127.064a.063.063,0,0,0-.064.064h-.127l-.064.064-.064.064-.064.064-.064.064-.064.064-.064.064-.064.064v.129a.063.063,0,0,1-.064.064c0,.064,0,.064-.064.129,0,.064,0,.064-.064.129v1.03h0L247.83-14.382h0l-.064-.064-.064-.064-.064-.064-.064-.064h-.127a.063.063,0,0,1-.064-.064c-.064,0-.064,0-.127-.064-.064,0-.064,0-.127-.064h-1.017c-.064,0-.064,0-.127.064-.064,0-.064,0-.127.064a.063.063,0,0,0-.064.064h-.127l-.064.064-.064.064-.064.064-.064.064h0l-25.362-14.81h0v-1.03c0-.064,0-.064-.064-.129,0-.064,0-.064-.064-.129a.063.063,0,0,0-.064-.064v-.129l-.064-.064-.064-.064-.064-.064-.064-.064-.064-.064-.064-.064-.064-.064h-.127a.063.063,0,0,1-.064-.064.2.2,0,0,1-.127-.064c-.064,0-.064,0-.127-.064h-.064l-.126-10.013h-.445l-.128,10.013h-.064c-.064,0-.064,0-.127.064-.064,0-.064,0-.127.064a.063.063,0,0,0-.064.064H217.7l-.064.064-.064.064-.064.064-.064.064-.064.064-.064.064-.064.064v.129a.063.063,0,0,1-.064.064c0,.064,0,.064-.064.129,0,.064,0,.064-.064.129v1.03h0L191.7-14.382h0l-.064-.064-.064-.064-.064-.064-.064-.064h-.127a.062.062,0,0,1-.064-.064c-.064,0-.064,0-.127-.064-.064,0-.064,0-.127-.064h-1.017c-.064,0-.064,0-.127.064-.064,0-.064,0-.127.064a.063.063,0,0,0-.064.064h-.127l-.064.064-.064.064-.064.064-.064.064h0l-25.362-14.81a1.572,1.572,0,0,0-.7-1.8,1.486,1.486,0,0,0-2.1.58,1.526,1.526,0,0,0,.572,2.125,1.463,1.463,0,0,0,1.907-.322L188.969-13.8h0v1.03c0,.064,0,.064.064.129,0,.064,0,.064.064.129a.063.063,0,0,0,.064.064v.129l.064.064.064.064.064.064.064.064.064.064.064.064.064.064h.127a.062.062,0,0,1,.064.064.2.2,0,0,1,.127.064c.064,0,.064,0,.127.064h.064V18.008h0c-.064,0-.064,0-.127.064-.064,0-.064,0-.127.064-.064,0-.064.064-.127.064s-.064.064-.127.064-.064.064-.127.129l-.127.129c-.064.064-.064.064-.064.129l-.127.129v.064a.063.063,0,0,1-.064.064.226.226,0,0,1-.064.129c0,.064,0,.064-.064.129,0,.064,0,.129-.064.129v.644c0,.064,0,.064.064.129a.226.226,0,0,0,.064.129c0,.064.064.064.064.129s.064.064.064.129.064.064.127.129l.127.129c.064.064.064.064.127.064l.127.129h.064a.062.062,0,0,1,.064.064.221.221,0,0,1,.127.064c.064,0,.064,0,.127.064.064,0,.127,0,.127.064h.636c.064,0,.064,0,.127-.064a.221.221,0,0,0,.127-.064c.064,0,.064-.064.127-.064s.064-.064.127-.064.064-.064.127-.064l.127-.129h0l25.362,14.81h0v1.03c0,.064,0,.064.064.129,0,.064,0,.064.064.129a.063.063,0,0,0,.064.064V37l.064.064.064.064.064.064.064.064.064.064.064.064.064.064h.127a.063.063,0,0,1,.064.064c.064,0,.064,0,.127.064.064,0,.064,0,.127.064h.064V67.332h-.064c-.064,0-.064,0-.127.064-.064,0-.064,0-.127.064a.063.063,0,0,0-.064.064h-.127l-.064.064-.064.064-.064.064-.064.064-.064.064-.064.064-.064.064V68.1a.063.063,0,0,1-.064.064c0,.064,0,.064-.064.129,0,.064,0,.064-.064.129v1.03h0l-25.362,14.81h0l-.064-.064-.064-.064-.064-.064-.064-.064h-.127a.063.063,0,0,1-.064-.064c-.064,0-.064,0-.127-.064-.064,0-.064,0-.127-.064h-1.017c-.064,0-.064,0-.127.064-.064,0-.064,0-.127.064a.062.062,0,0,0-.064.064h-.127l-.064.064-.064.064-.064.064-.064.064h0L163.8,69.457a1.572,1.572,0,0,0-.7-1.8,1.486,1.486,0,0,0-2.1.58,1.526,1.526,0,0,0,.572,2.125,1.463,1.463,0,0,0,1.907-.322l25.362,14.81h0v1.03c0,.064,0,.064.064.129,0,.064,0,.064.064.129a.063.063,0,0,0,.064.064v.129l.064.064.064.064.064.064.064.064.064.064.064.064.064.064h.127a.062.062,0,0,1,.064.064c.064,0,.064,0,.127.064.064,0,.064,0,.127.064h.064v29.685h-.064c-.064,0-.064,0-.127.064-.064,0-.064,0-.127.064a.063.063,0,0,0-.064.064h-.127l-.064.064-.064.064-.064.064-.064.064-.064.064-.064.064-.064.064v.129a.063.063,0,0,1-.064.064c0,.064,0,.064-.064.129,0,.064,0,.064-.064.129v1.03h0l-25.362,14.81h0l-.064-.064-.064-.064-.064-.064-.064-.064H163.1a.063.063,0,0,1-.064-.064c-.064,0-.064,0-.127-.064-.064,0-.064,0-.127-.064h-1.017c-.064,0-.064,0-.127.064-.064,0-.064,0-.127.064a.063.063,0,0,0-.064.064h-.127l-.064.064-.064.064-.064.064-.064.064h0L135.7,118.782a1.572,1.572,0,0,0-.7-1.8,1.486,1.486,0,0,0-2.1.579,1.526,1.526,0,0,0,.572,2.125,1.463,1.463,0,0,0,1.907-.322l25.362,14.81h0v1.03c0,.064,0,.064.064.129,0,.064,0,.064.064.129a.063.063,0,0,0,.064.064v.129l.064.064.064.064.064.064.064.064.064.064.064.064.064.064h.127a.063.063,0,0,1,.064.064c.064,0,.064,0,.127.064.064,0,.064,0,.127.064h.064v29.685h-.064c-.064,0-.064,0-.127.064-.064,0-.064,0-.127.064a.063.063,0,0,0-.064.064h-.127l-.064.064-.064.064-.064.064-.064.064-.064.064-.064.064-.064.064v.129a.063.063,0,0,1-.064.064c0,.064,0,.064-.064.129,0,.064,0,.064-.064.129v1.03h0l-25.362,14.81h0l-.064-.064-.064-.064-.064-.064-.064-.064H135a.062.062,0,0,1-.064-.064c-.064,0-.064,0-.127-.064-.064,0-.064,0-.127-.064h-.953c-.064,0-.064,0-.127.064-.064,0-.064,0-.127.064a.063.063,0,0,0-.064.064h-.127l-.063.064-.064.064-.064.064-.064.064h0l-25.362-14.81a1.572,1.572,0,0,0-.7-1.8,1.486,1.486,0,0,0-2.1.58,1.526,1.526,0,0,0,.572,2.125,1.463,1.463,0,0,0,1.907-.322l25.362,14.81h0v.966c0,.064,0,.064.064.129,0,.064,0,.064.064.129a.063.063,0,0,0,.064.064v.129l.063.064.064.064.064.064.064.064.064.064.064.064.064.064h.127a.063.063,0,0,1,.064.064c.064,0,.064,0,.127.064.064,0,.064,0,.127.064h.064l.064,14.42h.7l-.064-15.451h.064c.064,0,.064,0,.127-.064.064,0,.064,0,.127-.064a.062.062,0,0,0,.064-.064h.127l.064-.064.064-.064.064-.064.064-.064.064-.064.064-.064.064-.064v-.129a.063.063,0,0,1,.064-.064c0-.064,0-.064.064-.129,0-.064,0-.064.064-.129V182.4h0l25.362-14.81h0l.064.064.064.064.064.064.064.064h.127a.063.063,0,0,1,.064.064c.064,0,.064,0,.127.064.064,0,.064,0,.127.064h1.017c.064,0,.064,0,.127-.064.064,0,.064,0,.127-.064a.063.063,0,0,0,.064-.064h.127l.064-.064.064-.064.064-.064.064-.064h0l25.362,14.81h0v1.03c0,.064,0,.064.064.129,0,.064,0,.064.064.129a.063.063,0,0,0,.064.064v.129l.064.064.064.064.064.064.064.064.064.064.064.064.064.064h.127a.062.062,0,0,1,.064.064c.064,0,.064,0,.127.064.064,0,.064,0,.127.064h.064l.128,15.6h.763l-.191-15.6h.064c.064,0,.064,0,.127-.064.064,0,.064,0,.127-.064a.062.062,0,0,0,.064-.064h.127l.064-.064.064-.064.064-.064.064-.064.064-.064.064-.064.064-.064v-.129a.063.063,0,0,1,.064-.064c0-.064,0-.064.064-.129,0-.064,0-.064.064-.129V182.4h0l25.362-14.81h0l.064.064.063.064.064.064.064.064h.127a.063.063,0,0,1,.064.064c.064,0,.064,0,.127.064.064,0,.064,0,.127.064h1.017c.064,0,.064,0,.127-.064.064,0,.064,0,.127-.064a.063.063,0,0,0,.064-.064h.127l.064-.064.064-.064.064-.064.064-.064h0l25.362,14.81h0v1.03c0,.064,0,.064.064.129,0,.064,0,.064.064.129a.063.063,0,0,0,.063.064v.129l.064.064.064.064.064.064.064.064.064.064.064.064.064.064h.127a.063.063,0,0,1,.064.064c.064,0,.064,0,.127.064.064,0,.064,0,.127.064h.064l-.064,15.667h.826l-.064-15.667h.064c.064,0,.064,0,.127-.064.064,0,.064,0,.127-.064a.062.062,0,0,0,.064-.064h.127l.064-.064.064-.064.064-.064.064-.064.064-.064.064-.064.064-.064v-.129a.063.063,0,0,1,.064-.064c0-.064,0-.064.064-.129,0-.064,0-.064.064-.129V182.4h0l25.362-14.81h0l.064.064.064.064.064.064.064.064h.127a.063.063,0,0,1,.064.064c.064,0,.064,0,.127.064.064,0,.064,0,.127.064h1.017c.064,0,.064,0,.127-.064.064,0,.064,0,.127-.064a.063.063,0,0,0,.064-.064h.127l.064-.064.064-.064.064-.064.064-.064h0L301.1,182.4h0v1.03c0,.064,0,.064.064.129,0,.064,0,.064.064.129a.063.063,0,0,0,.064.064v.129l.064.064.064.064.064.064.064.064.064.064.064.064.064.064h.127a.062.062,0,0,1,.064.064c.064,0,.064,0,.127.064.064,0,.064,0,.127.064h.064l-.057,15.567h.565l.191-15.567H303c.064,0,.064,0,.127-.064.064,0,.064,0,.127-.064a.063.063,0,0,0,.064-.064h.127l.064-.064.064-.064.064-.064.064-.064.064-.064.064-.064.064-.064v-.129a.063.063,0,0,1,.064-.064c0-.064,0-.064.064-.129,0-.064,0-.064.064-.129V182.4h0l25.362-14.81h0l.064.064.064.064.064.064.064.064h.127a.062.062,0,0,1,.064.064c.064,0,.064,0,.127.064.064,0,.064,0,.127.064h1.017c.064,0,.064,0,.127-.064.064,0,.064,0,.127-.064a.063.063,0,0,0,.064-.064h.127l.064-.064.064-.064.064-.064.064-.064h0l25.362,14.81a1.572,1.572,0,0,0,.7,1.8,1.486,1.486,0,0,0,2.1-.58,1.526,1.526,0,0,0-.572-2.125,1.463,1.463,0,0,0-1.907.322l-25.362-14.81h0v-1.03c0-.064,0-.064-.064-.129,0-.064,0-.064-.064-.129a.063.063,0,0,0-.064-.064v-.129l-.064-.064-.064-.064-.064-.064-.064-.064-.064-.064-.064-.064-.064-.064h-.127a.063.063,0,0,1-.064-.064c-.064,0-.064,0-.127-.064-.064,0-.064,0-.127-.064h-.064V135.2h.064c.064,0,.064,0,.127-.064.064,0,.064,0,.127-.064a.063.063,0,0,0,.064-.064h.127l.064-.064.064-.064.064-.064.064-.064.064-.064.064-.064.064-.064v-.129a.063.063,0,0,1,.064-.064c0-.064,0-.064.064-.129,0-.064,0-.064.064-.129v-1.03h0l25.362-14.81h0l.127.129c.064.064.064.064.127.064s.064.064.127.064.064.064.127.064.064.064.127.064.064.064.127.064h.636c.064,0,.127,0,.127-.064.064,0,.064,0,.127-.064a.221.221,0,0,0,.127-.064.063.063,0,0,0,.064-.064h.064c.064,0,.064-.064.127-.129.064,0,.064-.064.127-.064l.127-.129c.064-.064.064-.064.064-.129s.064-.064.064-.129.063-.064.063-.129.064-.064.064-.129.064-.064.064-.129v-.644c0-.064,0-.129-.064-.129,0-.064,0-.064-.064-.129a.226.226,0,0,0-.063-.129.063.063,0,0,0-.064-.064v-.064c0-.064-.064-.064-.127-.129,0-.064-.064-.064-.064-.129l-.127-.129-.127-.129c-.064,0-.064-.064-.127-.064s-.063-.064-.127-.064-.064-.064-.127-.064-.064-.064-.127-.064h0V85.877H359c.064,0,.064,0,.127-.064.064,0,.064,0,.127-.064a.062.062,0,0,0,.063-.064h.127l.064-.064.064-.064.064-.064.064-.064.064-.064.064-.064.064-.064V85.1a.063.063,0,0,1,.064-.064c0-.064,0-.064.063-.129,0-.064,0-.064.064-.129v-1.03h0c25.871-14.3-1.653.9-1.017.58C360.276,84.525,359.2,84.331,358.433,84.782ZM303.068,21.034h.7c.064,0,.064,0,.127-.064.064,0,.064,0,.127-.064a.063.063,0,0,0,.064-.064h.127l.064-.064.064-.064.064-.064.064-.064h0l25.362,14.81h0v1.03c0,.064,0,.064.064.129,0,.064,0,.064.064.129a.063.063,0,0,0,.064.064v.129l.064.064.064.064.064.064.064.064.064.064.064.064.064.064h.127a.063.063,0,0,1,.064.064c.064,0,.064,0,.127.064.064,0,.064,0,.127.064h.063V67.2h-.063c-.064,0-.064,0-.127.064-.064,0-.064,0-.127.064a.063.063,0,0,0-.064.064h-.127l-.064.064-.064.064-.064.064-.064.064-.064.064-.064.064-.064.064v.129a.063.063,0,0,1-.064.064c0,.064,0,.064-.064.129,0,.064,0,.064-.064.129v1.03h0l-25.362,14.81h0l-.064-.064-.064-.064-.064-.064-.064-.064h-.127a.063.063,0,0,1-.064-.064c-.064,0-.064,0-.127-.064-.064,0-.064,0-.127-.064H302.75c-.064,0-.064,0-.127.064-.064,0-.064,0-.127.064a.063.063,0,0,0-.064.064h-.127l-.064.064-.064.064-.064.064-.064.064h0l-25.362-14.81h0V68.3c0-.064,0-.064-.064-.129,0-.064,0-.064-.064-.129a.063.063,0,0,0-.064-.064v-.129l-.064-.064-.064-.064-.064-.064-.064-.064-.064-.064-.064-.064-.064-.064h-.127a.062.062,0,0,1-.064-.064c-.064,0-.064,0-.127-.064-.064,0-.064,0-.127-.064h-.064V37.39h.064c.064,0,.064,0,.127-.064.064,0,.064,0,.127-.064a.062.062,0,0,0,.064-.064h.127l.064-.064.064-.064.064-.064.064-.064.064-.064.064-.064.064-.064v-.129a.063.063,0,0,1,.064-.064c0-.064,0-.064.064-.129,0-.064,0-.064.064-.129v-1.03h0l25.362-14.81h0l.064.064.064.064.064.064.064.064h.127a.063.063,0,0,1,.064.064c.064,0,.064,0,.127.064.064,0,.064,0,.127.064h.191C303,21.034,303.068,21.034,303.068,21.034ZM247.64-11.677h.127c.064,0,.064,0,.127-.064.064,0,.064,0,.127-.064a.063.063,0,0,0,.064-.064h.127l.064-.064.064-.064.064-.064.064-.064.064-.064.064-.064.064-.064v-.129a.063.063,0,0,1,.064-.064c0-.064,0-.064.064-.129,0-.064,0-.064.064-.129V-13.8h0l25.362-14.81h0l.064.064.064.064.064.064.064.064h.127a.063.063,0,0,1,.064.064c.064,0,.064,0,.127.064.064,0,.064,0,.127.064h1.017c.064,0,.064,0,.127-.064.064,0,.064,0,.127-.064a.063.063,0,0,0,.064-.064h.127l.064-.064.064-.064.064-.064.064-.064h0L301.988-13.8h0v1.03c0,.064,0,.064.064.129,0,.064,0,.064.064.129a.063.063,0,0,0,.064.064v.129l.064.064.064.064.064.064.064.064L302.5-12l.064.064.064.064h.127a.063.063,0,0,1,.064.064.2.2,0,0,1,.127.064c.064,0,.064,0,.127.064h.064V18.008h-.064c-.064,0-.064,0-.127.064-.064,0-.064,0-.127.064a.063.063,0,0,0-.064.064h-.127l-.064.064-.064.064-.064.064-.064.064-.064.064-.064.064-.064.064v.129a.063.063,0,0,1-.064.064c0,.064,0,.064-.064.129,0,.064,0,.064-.064.129v1.03h0l-25.362,14.81h0l-.064-.064-.064-.064-.064-.064-.064-.064h-.127a.063.063,0,0,1-.064-.064c-.064,0-.064,0-.127-.064-.064,0-.064,0-.127-.064h-1.017c-.064,0-.064,0-.127.064-.064,0-.064,0-.127.064a.063.063,0,0,0-.064.064h-.127l-.064.064-.064.064-.064.064-.064.064h0l-25.362-14.81h0V19.1c0-.064,0-.064-.064-.129,0-.064,0-.064-.064-.129a.063.063,0,0,0-.064-.064v-.129l-.064-.064-.064-.064-.064-.064-.064-.064-.064-.064-.064-.064-.064-.064h-.127a.063.063,0,0,1-.064-.064c-.064,0-.064,0-.127-.064-.064,0-.064,0-.127-.064H247.7V-11.677Zm-.445,32.711h.7c.064,0,.064,0,.127-.064.064,0,.064,0,.127-.064a.062.062,0,0,0,.064-.064h.127l.064-.064.064-.064.064-.064.064-.064h0l25.362,14.81h0v1.03c0,.064,0,.064.064.129,0,.064,0,.064.064.129a.063.063,0,0,0,.064.064v.129l.064.064.064.064.064.064.064.064.064.064.064.064.064.064h.127a.062.062,0,0,1,.064.064c.064,0,.064,0,.127.064.064,0,.064,0,.127.064h.064V67.2h-.064c-.064,0-.064,0-.127.064-.064,0-.064,0-.127.064a.062.062,0,0,0-.064.064h-.127l-.064.064-.064.064-.064.064-.064.064-.064.064-.064.064-.064.064v.129a.063.063,0,0,1-.064.064c0,.064,0,.064-.064.129,0,.064,0,.064-.064.129v1.03h0l-25.362,14.81h0l-.064-.064-.064-.064-.064-.064-.064-.064h-.127a.062.062,0,0,1-.064-.064c-.064,0-.064,0-.127-.064-.063,0-.063,0-.127-.064h-1.017c-.064,0-.064,0-.127.064-.064,0-.064,0-.127.064a.063.063,0,0,0-.064.064h-.127l-.064.064-.064.064-.064.064-.064.064h0l-25.362-14.81h0V68.3c0-.064,0-.064-.064-.129,0-.064,0-.064-.064-.129a.063.063,0,0,0-.064-.064v-.129l-.064-.064-.064-.064-.064-.064-.064-.064-.064-.064-.064-.064-.064-.064h-.127a.063.063,0,0,1-.064-.064c-.064,0-.064,0-.127-.064-.064,0-.064,0-.127-.064h-.064V37.39h.064c.064,0,.064,0,.127-.064.064,0,.064,0,.127-.064a.063.063,0,0,0,.064-.064h.127l.064-.064.064-.064L220.37,37l.064-.064.064-.064.064-.064.064-.064v-.129a.063.063,0,0,1,.064-.064c0-.064,0-.064.064-.129,0-.064,0-.064.064-.129v-1.03h0l25.362-14.81h0l.064.064.064.064.064.064.064.064h.127a.063.063,0,0,1,.064.064c.064,0,.064,0,.127.064.064,0,.064,0,.127.064h.191C247.131,21.034,247.131,21.034,247.195,21.034ZM219.036,34.363h-.064c-.064,0-.064,0-.127.064-.064,0-.064,0-.127.064a.063.063,0,0,0-.064.064h-.127l-.064.064-.064.064-.064.064-.064.064h0L192.911,20v-.064c0-.064,0-.129.064-.129v-.644c0-.064,0-.064-.064-.129a.226.226,0,0,0-.064-.129c0-.064-.064-.064-.064-.129s-.064-.064-.064-.129-.064-.064-.064-.129l-.127-.129c-.064-.064-.064-.064-.127-.064l-.127-.129h-.064a.063.063,0,0,1-.064-.064.221.221,0,0,1-.127-.064c-.064,0-.064,0-.127-.064h-.064V-11.677h.064c.064,0,.064,0,.127-.064.064,0,.064,0,.127-.064a.063.063,0,0,0,.064-.064h.127l.064-.064.064-.064.064-.064.064-.064.064-.064.064-.064.064-.064v-.129a.063.063,0,0,1,.064-.064c0-.064,0-.064.064-.129,0-.064,0-.064.064-.129V-13.8h0l25.362-14.81h0l.064.064.064.064.064.064.064.064h.127a.063.063,0,0,1,.064.064c.064,0,.064,0,.127.064.064,0,.064,0,.127.064h1.017c.064,0,.064,0,.127-.064.064,0,.064,0,.127-.064a.063.063,0,0,0,.064-.064h.127l.064-.064.064-.064.064-.064.064-.064h0L246.114-13.8h0v1.03c0,.064,0,.064.064.129,0,.064,0,.064.064.129a.063.063,0,0,0,.064.064v.129l.064.064.064.064.064.064.064.064.064.064.064.064.064.064h.127a.063.063,0,0,1,.064.064.2.2,0,0,1,.127.064c.064,0,.064,0,.127.064h.064V18.008H247.2c-.064,0-.064,0-.127.064-.064,0-.064,0-.127.064a.063.063,0,0,0-.064.064h-.127l-.064.064-.064.064-.064.064-.064.064-.064.064-.064.064-.064.064v.129a.063.063,0,0,1-.064.064c0,.064,0,.064-.064.129,0,.064,0,.064-.064.129v1.03h0l-25.362,14.81h0l-.064-.064-.064-.064-.064-.064-.064-.064h-.127a.063.063,0,0,1-.064-.064c-.064,0-.064,0-.127-.064-.063,0-.063,0-.127-.064h-.826C219.1,34.363,219.036,34.363,219.036,34.363Zm0,130.781h-.127c-.064,0-.064,0-.127.064-.064,0-.064,0-.127.064a.063.063,0,0,0-.064.064h-.127l-.064.064-.064.064-.064.064-.064.064-.064.064-.064.064-.064.064v.129a.063.063,0,0,1-.064.064c0,.064,0,.064-.064.129,0,.064,0,.064-.064.129v1.03h0l-25.362,14.81h0l-.064-.064-.064-.064-.064-.064-.064-.064h-.127a.063.063,0,0,1-.064-.064c-.064,0-.064,0-.127-.064-.064,0-.064,0-.127-.064h-.953c-.064,0-.064,0-.127.064-.063,0-.063,0-.127.064a.063.063,0,0,0-.064.064h-.127l-.064.064-.064.064-.064.064-.064.064h0l-25.362-14.81h0v-1.03c0-.064,0-.064-.064-.129,0-.064,0-.064-.064-.129a.063.063,0,0,0-.064-.064v-.129l-.064-.064-.064-.064-.064-.064-.064-.064-.064-.064-.064-.064-.064-.064h-.127a.062.062,0,0,1-.064-.064c-.064,0-.064,0-.127-.064-.064,0-.064,0-.127-.064h-.064V135.459h.064c.064,0,.064,0,.127-.064.064,0,.064,0,.127-.064a.062.062,0,0,0,.064-.064h.127l.064-.064.064-.064.064-.064.064-.064.064-.064.064-.064.064-.064v-.129a.063.063,0,0,1,.064-.064c0-.064,0-.064.064-.129,0-.064,0-.064.064-.129v-1.03h0l25.362-14.81h0l.064.064.064.064.064.064.064.064h.127a.063.063,0,0,1,.064.064c.064,0,.064,0,.127.064.064,0,.064,0,.127.064h1.017c.064,0,.064,0,.127-.064.064,0,.064,0,.127-.064a.063.063,0,0,0,.064-.064h.127l.064-.064.064-.064.064-.064.064-.064h0l25.362,14.81h0v1.03c0,.064,0,.064.064.129,0,.064,0,.064.064.129a.063.063,0,0,0,.064.064v.129l.064.064.064.064.064.064.064.064.064.064.064.064.064.064h.127a.063.063,0,0,1,.064.064c.064,0,.064,0,.127.064.064,0,.064,0,.127.064h.064Zm.572-32.711h-.826c-.064,0-.064,0-.127.064-.064,0-.064,0-.127.064a.063.063,0,0,0-.064.064h-.127l-.064.064-.064.064-.064.064-.064.064h0l-25.362-14.81h0v-1.03c0-.064,0-.064-.064-.129,0-.064,0-.064-.064-.129a.063.063,0,0,0-.064-.064v-.129l-.064-.064-.064-.064-.064-.064-.064-.064-.064-.064-.064-.064-.064-.064h-.127a.063.063,0,0,1-.064-.064c-.064,0-.064,0-.127-.064-.064,0-.064,0-.127-.064h-.064V86.263h.064c.064,0,.064,0,.127-.064.064,0,.064,0,.127-.064a.063.063,0,0,0,.064-.064h.127l.064-.064.064-.064.064-.064.064-.064.064-.064.064-.064.064-.064v-.129a.063.063,0,0,1,.064-.064c0-.064,0-.064.064-.129,0-.064,0-.064.064-.129v-1.03h0l25.362-14.81h0l.064.064.064.064.064.064.064.064h.127a.063.063,0,0,1,.064.064c.064,0,.064,0,.127.064.064,0,.064,0,.127.064H219.8c.064,0,.064,0,.127-.064.064,0,.064,0,.127-.064a.063.063,0,0,0,.064-.064h.127l.064-.064.064-.064.064-.064.064-.064h0l25.362,14.81h0v1.03c0,.064,0,.064.064.129,0,.064,0,.064.064.129a.063.063,0,0,0,.064.064v.129l.063.064.064.064.064.064.064.064.064.064.064.064.064.064h.127a.063.063,0,0,1,.064.064c.064,0,.064,0,.127.064.064,0,.064,0,.127.064H247v29.685h-.064c-.064,0-.064,0-.127.064-.064,0-.064,0-.127.064a.063.063,0,0,0-.064.064H246.5l-.064.064-.064.064-.064.064-.064.064-.064.064-.064.064-.063.064v.129a.063.063,0,0,1-.064.064c0,.064,0,.064-.064.129,0,.064,0,.064-.064.129v1.03h0L220.5,132.883h0l-.064-.064-.064-.064-.064-.064-.064-.064h-.127a.062.062,0,0,1-.064-.064c-.064,0-.064,0-.127-.064-.064,0-.064,0-.127-.064h-.191Zm55.3,32.711h-.127c-.064,0-.064,0-.127.064-.064,0-.064,0-.127.064a.062.062,0,0,0-.064.064h-.127l-.064.064-.064.064-.064.064-.064.064-.064.064-.064.064-.064.064v.129a.063.063,0,0,1-.064.064c0,.064,0,.064-.064.129,0,.064,0,.064-.064.129v1.03h0l-25.362,14.81h0l-.064-.064-.064-.064-.064-.064-.064-.064h-.127a.063.063,0,0,1-.064-.064c-.064,0-.064,0-.127-.064-.064,0-.064,0-.127-.064h-.953c-.064,0-.064,0-.127.064-.064,0-.064,0-.127.064a.063.063,0,0,0-.064.064h-.127l-.064.064-.064.064-.064.064-.064.064h0l-25.362-14.81h0v-1.03c0-.064,0-.064-.064-.129,0-.064,0-.064-.064-.129a.063.063,0,0,0-.064-.064v-.129l-.064-.064-.064-.064-.063-.064-.064-.064-.064-.064-.064-.064-.064-.064h-.127a.063.063,0,0,1-.064-.064c-.064,0-.064,0-.127-.064-.064,0-.064,0-.127-.064h-.064V135.459h.064c.064,0,.064,0,.127-.064.064,0,.064,0,.127-.064a.063.063,0,0,0,.064-.064h.127l.064-.064.064-.064.064-.064.064-.064.063-.064.064-.064.064-.064v-.129a.063.063,0,0,1,.064-.064c0-.064,0-.064.064-.129,0-.064,0-.064.064-.129v-1.03h0l25.362-14.81h0l.064.064.064.064.064.064.064.064h.127a.063.063,0,0,1,.064.064c.064,0,.064,0,.127.064.064,0,.064,0,.127.064H247.7c.064,0,.064,0,.127-.064.064,0,.064,0,.127-.064a.063.063,0,0,0,.064-.064h.127l.064-.064.064-.064.064-.064.064-.064h0l25.362,14.81h0v1.03c0,.064,0,.064.064.129,0,.064,0,.064.064.129a.063.063,0,0,0,.064.064v.129l.064.064.064.064.064.064.064.064.064.064.064.064.063.064h.127a.063.063,0,0,1,.064.064c.064,0,.064,0,.127.064.064,0,.064,0,.127.064h.064Zm.636-32.711h-.826c-.064,0-.064,0-.127.064-.064,0-.064,0-.127.064a.063.063,0,0,0-.064.064h-.127l-.064.064-.064.064-.064.064-.064.064h0l-25.362-14.81h0v-1.03c0-.064,0-.064-.064-.129,0-.064,0-.064-.064-.129a.063.063,0,0,0-.064-.064v-.129l-.064-.064-.064-.064-.064-.064-.064-.064-.064-.064-.064-.064-.064-.064h-.127a.062.062,0,0,1-.064-.064c-.064,0-.064,0-.127-.064-.064,0-.064,0-.127-.064h-.064V86.263h.064c.064,0,.064,0,.127-.064.064,0,.064,0,.127-.064a.063.063,0,0,0,.064-.064h.127l.064-.064.064-.064.064-.064.064-.064.064-.064.064-.064.064-.064v-.129a.063.063,0,0,1,.064-.064c0-.064,0-.064.064-.129,0-.064,0-.064.064-.129v-1.03h0l25.362-14.81h0l.064.064.064.064.064.064.064.064h.127a.063.063,0,0,1,.064.064c.064,0,.064,0,.127.064.064,0,.064,0,.127.064h1.017c.064,0,.064,0,.127-.064.064,0,.064,0,.127-.064a.063.063,0,0,0,.064-.064h.127l.064-.064.064-.064.064-.064.064-.064h0L301.8,84.138h0v1.03c0,.064,0,.064.064.129,0,.064,0,.064.064.129a.063.063,0,0,0,.064.064v.129l.064.064.064.064.064.064.064.064.064.064.064.064.064.064h.127a.063.063,0,0,1,.064.064c.064,0,.064,0,.127.064.064,0,.064,0,.127.064h.064v29.685h-.064c-.064,0-.064,0-.127.064-.064,0-.064,0-.127.064a.063.063,0,0,0-.064.064h-.127l-.064.064-.064.064-.064.064-.064.064-.064.064-.064.064-.064.064v.129a.063.063,0,0,1-.064.064c0,.064,0,.064-.064.129,0,.064,0,.064-.064.129v1.03h0l-25.362,14.81h0l-.064-.064-.064-.064-.064-.064-.064-.064h-.127a.063.063,0,0,1-.064-.064c-.064,0-.064,0-.127-.064-.064,0-.064,0-.127-.064h-.191Zm55.3,32.711h-.127c-.064,0-.064,0-.127.064-.063,0-.063,0-.127.064a.063.063,0,0,0-.064.064h-.127l-.064.064-.063.064-.064.064-.064.064-.064.064-.064.064-.064.064v.129a.063.063,0,0,1-.064.064c0,.064,0,.064-.064.129,0,.064,0,.064-.064.129v1.03h0l-25.362,14.81h0l-.064-.064-.064-.064-.064-.064-.064-.064h-.127a.063.063,0,0,1-.064-.064c-.064,0-.064,0-.127-.064-.064,0-.064,0-.127-.064h-.89c-.064,0-.064,0-.127.064-.064,0-.064,0-.127.064a.063.063,0,0,0-.064.064h-.127l-.064.064-.064.064-.064.064-.064.064h0l-25.362-14.81h0v-1.03c0-.064,0-.064-.064-.129,0-.064,0-.064-.064-.129a.063.063,0,0,0-.064-.064v-.129l-.064-.064-.063-.064-.064-.064-.064-.064-.064-.064-.064-.064-.064-.064h-.127a.063.063,0,0,1-.064-.064c-.063,0-.063,0-.127-.064-.064,0-.064,0-.127-.064h-.064V135.459h.064c.064,0,.064,0,.127-.064.064,0,.064,0,.127-.064a.063.063,0,0,0,.064-.064h.127l.064-.064.064-.064.064-.064.064-.064.064-.064.063-.064.064-.064v-.129a.063.063,0,0,1,.064-.064c0-.064,0-.064.064-.129,0-.064,0-.064.064-.129v-1.03h0l25.362-14.81h0l.064.064.064.064.064.064.064.064h.127a.063.063,0,0,1,.064.064c.064,0,.064,0,.127.064.064,0,.064,0,.127.064H303.7c.064,0,.064,0,.127-.064.064,0,.064,0,.127-.064a.063.063,0,0,0,.064-.064h.127l.064-.064.064-.064.063-.064.064-.064h0l25.362,14.81h0v1.03c0,.064,0,.064.064.129,0,.064,0,.064.064.129a.063.063,0,0,0,.064.064v.129l.064.064.064.064.064.064.063.064.064.064.063.064.064.064h.127a.062.062,0,0,1,.063.064c.064,0,.064,0,.127.064.064,0,.064,0,.127.064h.064v29.685Zm27.968-49.067h0c-.127,0-.127.064-.191.064a.221.221,0,0,0-.127.064.062.062,0,0,0-.064.064h-.064c-.064,0-.064.064-.127.129-.064,0-.064.064-.127.064l-.127.129-.127.129c0,.064-.064.064-.064.129s-.063.064-.063.129-.064.064-.064.129-.064.064-.064.129v.644c0,.064,0,.129.064.129v.064l-25.362,14.81h0l-.064-.064-.064-.064-.064-.064-.064-.064h-.127a.062.062,0,0,1-.064-.064c-.064,0-.064,0-.127-.064-.064,0-.064,0-.127-.064h-1.017c-.064,0-.064,0-.127.064-.064,0-.064,0-.127.064a.063.063,0,0,0-.064.064h-.127l-.063.064-.064.064-.064.064-.064.064h0l-25.362-14.81h0v-1.03c0-.064,0-.064-.064-.129,0-.064,0-.064-.064-.129a.063.063,0,0,0-.064-.064v-.129l-.064-.064-.064-.064-.064-.064-.064-.064-.064-.064-.064-.064-.064-.064h-.127a.063.063,0,0,1-.064-.064c-.064,0-.064,0-.127-.064-.064,0-.064,0-.127-.064h-.064V86.263h.064c.064,0,.064,0,.127-.064.064,0,.064,0,.127-.064a.063.063,0,0,0,.064-.064h.127l.064-.064.064-.064.064-.064.064-.064.064-.064.064-.064.064-.064v-.129a.063.063,0,0,1,.064-.064c0-.064,0-.064.064-.129,0-.064,0-.064.064-.129v-1.03h0l25.362-14.81h0l.064.064.064.064.064.064.063.064h.127a.063.063,0,0,1,.064.064c.064,0,.064,0,.127.064.064,0,.064,0,.127.064h1.017c.064,0,.064,0,.127-.064.064,0,.064,0,.127-.064a.062.062,0,0,0,.064-.064h.127l.064-.064.064-.064.064-.064.064-.064h0l25.362,14.81h0v1.03c0,.064,0,.064.064.129,0,.064,0,.064.063.129a.063.063,0,0,0,.064.064v.129l.064.064.064.064.064.064.064.064.064.064.064.064.064.064h.127a.062.062,0,0,1,.064.064c.064,0,.064,0,.127.064.064,0,.064,0,.127.064h.064Z" transform="translate(16827.564 11295.329)" opacity="0.235" fill="url(#linear-gradient)"/>
    </g>
  </g>
</svg>
