<svg xmlns="http://www.w3.org/2000/svg" xmlns:xlink="http://www.w3.org/1999/xlink" width="1440.001" height="331" viewBox="0 0 1440.001 331">
  <defs>
    <linearGradient id="linear-gradient" x1="0.596" y1="0.5" x2="0.412" y2="0.474" gradientUnits="objectBoundingBox">
      <stop offset="0" stop-color="#0090f0"/>
      <stop offset="0" stop-color="#006ab1"/>
      <stop offset="1" stop-color="#004878"/>
    </linearGradient>
    <linearGradient id="linear-gradient-2" x1="0.404" x2="0.588" y2="0.474" xlink:href="#linear-gradient"/>
  </defs>
  <g id="Footer" transform="translate(14214 -4578)">
    <rect id="Base" width="1440" height="331" transform="translate(-14214 4578)" fill="#1a3855"/>
    <g id="Back_Icons" data-name="Back Icons" transform="translate(-14214 666.391)">
      <path id="Path_4917" data-name="Path 4917" d="M369.191,90.128c-.663.4.4-.805.6-.134l1.325-.872h0l-.066-.067-.066-.067-.066-.067-.066-.067h-.133a.065.065,0,0,1-.066-.067c-.066,0-.066,0-.132-.067-.066,0-.066,0-.133-.067h-1.06c-.066,0-.066,0-.133.067-.066,0-.066,0-.133.067a.065.065,0,0,0-.066.067h-.133l-.066.067-.066.067-.066.067-.066.067h0L342.157,73.684h0V72.61c0-.067,0-.067-.066-.134,0-.067,0-.067-.066-.134a.066.066,0,0,0-.066-.067V72.14l-.066-.067-.066-.067-.066-.067-.066-.067-.066-.067-.066-.067-.066-.067h-.133a.065.065,0,0,1-.066-.067c-.066,0-.066,0-.132-.067-.066,0-.066,0-.133-.067h-.066V40.727h.066c.066,0,.066,0,.133-.067.066,0,.066,0,.132-.067a.065.065,0,0,0,.066-.067h.133l.066-.067.066-.067.066-.067.066-.067.066-.067.066-.067.066-.067v-.134a.066.066,0,0,1,.066-.067c0-.067,0-.067.066-.134,0-.067,0-.067.066-.134V38.512h0l26.437-15.438a1.7,1.7,0,0,0,1.988.336,1.591,1.591,0,0,0,.6-2.215,1.549,1.549,0,0,0-2.186-.6,1.673,1.673,0,0,0-.729,1.879L341.826,37.908h0l-.066-.067-.066-.067-.066-.067-.066-.067h-.133a.065.065,0,0,1-.066-.067c-.066,0-.066,0-.133-.067-.066,0-.066,0-.133-.067h-1.06c-.066,0-.066,0-.133.067-.066,0-.066,0-.133.067a.065.065,0,0,0-.066.067h-.132l-.066.067-.066.067-.066.067-.066.067h0L312.871,22.47h0V21.4c0-.067,0-.067-.066-.134,0-.067,0-.067-.066-.134a.065.065,0,0,0-.066-.067v-.134l-.066-.067-.066-.067-.066-.067-.066-.067-.066-.067-.066-.067-.066-.067h-.132a.065.065,0,0,1-.066-.067c-.066,0-.066,0-.132-.067-.066,0-.066,0-.132-.067h-.066V-10.42h.066c.066,0,.066,0,.132-.067.066,0,.066,0,.132-.067a.065.065,0,0,0,.066-.067h.132l.066-.067.066-.067.066-.067.066-.067.066-.067.066-.067.066-.067v-.134a.065.065,0,0,1,.066-.067c0-.067,0-.067.066-.134,0-.067,0-.067.066-.134v-1.074h0l26.437-15.438h0l.066.067.066.067.066.067.066.067h.132a.065.065,0,0,1,.066.067c.066,0,.066,0,.133.067.066,0,.066,0,.133.067h1.06c.066,0,.066,0,.133-.067.066,0,.066,0,.133-.067a.065.065,0,0,0,.066-.067h.133l.066-.067.066-.067.066-.067.066-.067h0l26.437,15.438a1.639,1.639,0,0,0,.729,1.879,1.549,1.549,0,0,0,2.186-.6,1.591,1.591,0,0,0-.6-2.215,1.525,1.525,0,0,0-1.988.336L342.157-28.677h0v-1.074c0-.067,0-.067-.066-.134,0-.067,0-.067-.066-.134a.066.066,0,0,0-.066-.067v-.134l-.066-.067-.066-.067-.066-.067-.066-.067-.066-.067-.066-.067-.066-.067h-.133a.065.065,0,0,1-.066-.067.2.2,0,0,1-.132-.067c-.066,0-.066,0-.133-.067h-1.06c-.066,0-.066,0-.133.067-.066,0-.066,0-.133.067a.065.065,0,0,0-.066.067h-.133l-.066.067-.066.067-.066.067-.066.067-.066.067-.066.067-.066.067v.134a.065.065,0,0,1-.066.067c0,.067,0,.067-.066.134,0,.067,0,.067-.066.134v1.074h0L312.407-13.239h0l-.066-.067-.066-.067-.066-.067-.066-.067h-.133a.065.065,0,0,1-.066-.067c-.066,0-.066,0-.133-.067-.066,0-.066,0-.133-.067h-1.06c-.066,0-.066,0-.133.067-.066,0-.066,0-.132.067a.065.065,0,0,0-.066.067h-.133l-.066.067-.066.067-.066.067-.066.067h0L283.451-28.677h0v-1.074c0-.067,0-.067-.066-.134,0-.067,0-.067-.066-.134a.065.065,0,0,0-.066-.067v-.134l-.066-.067-.066-.067-.066-.067-.066-.067-.066-.067-.066-.067-.066-.067h-.132a.065.065,0,0,1-.066-.067c-.066,0-.066,0-.132-.067-.066,0-.066,0-.133-.067h-.066l-.132-9.933h-.265l-.332,9.933h-.066c-.066,0-.066,0-.133.067-.066,0-.066,0-.133.067a.065.065,0,0,0-.066.067H281l-.066.067-.066.067-.066.067-.066.067-.066.067-.066.067-.066.067v.134a.065.065,0,0,1-.066.067c0,.067,0,.067-.066.134,0,.067,0,.067-.066.134v1.074h0L253.9-13.239h0l-.066-.067-.066-.067-.066-.067-.066-.067H253.5a.065.065,0,0,1-.066-.067c-.066,0-.066,0-.133-.067-.066,0-.066,0-.133-.067h-1.06c-.066,0-.066,0-.133.067-.066,0-.066,0-.133.067a.065.065,0,0,0-.066.067h-.133l-.066.067-.066.067-.066.067-.066.067h0L224.944-28.677h0v-1.074c0-.067,0-.067-.066-.134,0-.067,0-.067-.066-.134a.065.065,0,0,0-.066-.067v-.134l-.066-.067-.066-.067-.066-.067-.066-.067-.066-.067-.066-.067-.066-.067h-.133a.065.065,0,0,1-.066-.067.2.2,0,0,1-.133-.067c-.066,0-.066,0-.133-.067h-.066l-.132-10.437h-.464l-.133,10.437h-.066c-.066,0-.066,0-.133.067-.066,0-.066,0-.133.067a.065.065,0,0,0-.066.067h-.133l-.066.067-.066.067-.066.067-.066.067-.066.067-.066.067-.066.067v.134a.065.065,0,0,1-.066.067c0,.067,0,.067-.066.134,0,.067,0,.067-.066.134v1.074h0L195.392-13.239h0l-.066-.067-.066-.067-.066-.067-.066-.067h-.133a.065.065,0,0,1-.066-.067c-.066,0-.066,0-.133-.067-.066,0-.066,0-.132-.067H193.6c-.066,0-.066,0-.133.067-.066,0-.066,0-.132.067a.065.065,0,0,0-.066.067h-.133l-.066.067-.066.067-.066.067-.066.067h0L166.437-28.677a1.638,1.638,0,0,0-.729-1.879,1.549,1.549,0,0,0-2.187.6,1.591,1.591,0,0,0,.6,2.215,1.525,1.525,0,0,0,1.988-.336l26.437,15.438h0v1.074c0,.067,0,.067.066.134,0,.067,0,.067.066.134a.065.065,0,0,0,.066.067v.134l.066.067.066.067.066.067.066.067.066.067.066.067.066.067h.133a.065.065,0,0,1,.066.067.2.2,0,0,1,.133.067c.066,0,.066,0,.133.067h.066V20.523h0c-.066,0-.066,0-.133.067-.066,0-.066,0-.133.067-.066,0-.066.067-.133.067s-.066.067-.132.067-.066.067-.133.134l-.132.134c-.066.067-.066.067-.066.134l-.132.134V21.4a.066.066,0,0,1-.066.067.235.235,0,0,1-.066.134c0,.067,0,.067-.066.134,0,.067,0,.134-.066.134v.671c0,.067,0,.067.066.134a.235.235,0,0,0,.066.134c0,.067.066.067.066.134s.066.067.066.134.066.067.132.134l.133.134c.066.067.066.067.133.067l.133.134h.066a.065.065,0,0,1,.066.067.23.23,0,0,1,.133.067c.066,0,.066,0,.133.067.066,0,.133,0,.133.067h.663c.066,0,.066,0,.133-.067a.231.231,0,0,0,.133-.067c.066,0,.066-.067.132-.067s.066-.067.133-.067.066-.067.133-.067l.132-.134h0L221.7,38.78h0v1.074c0,.067,0,.067.066.134,0,.067,0,.067.066.134a.065.065,0,0,0,.066.067v.134l.066.067.066.067.066.067.066.067.066.067.066.067.066.067h.133a.065.065,0,0,1,.066.067c.066,0,.066,0,.133.067.066,0,.066,0,.132.067h.066V71.939h-.066c-.066,0-.066,0-.132.067-.066,0-.066,0-.133.067a.065.065,0,0,0-.066.067h-.133l-.066.067-.066.067-.066.067-.066.067-.066.067-.066.067-.066.067v.134a.065.065,0,0,1-.066.067c0,.067,0,.067-.066.134,0,.067,0,.067-.066.134v1.074h0L195.26,89.592h0l-.066-.067-.066-.067-.066-.067-.066-.067h-.133a.065.065,0,0,1-.066-.067c-.066,0-.066,0-.133-.067-.066,0-.066,0-.133-.067h-1.06c-.066,0-.066,0-.132.067-.066,0-.066,0-.133.067a.065.065,0,0,0-.066.067h-.133l-.066.067-.066.067-.066.067-.066.067h0L166.3,74.154a1.639,1.639,0,0,0-.729-1.879,1.549,1.549,0,0,0-2.187.6,1.591,1.591,0,0,0,.6,2.215,1.525,1.525,0,0,0,1.988-.336L192.411,90.2h0V91.27c0,.067,0,.067.066.134,0,.067,0,.067.066.134a.065.065,0,0,0,.066.067v.134l.066.067.066.067.066.067.066.067.066.067.066.067.066.067h.133a.065.065,0,0,1,.066.067c.066,0,.066,0,.133.067.066,0,.066,0,.133.067h.066v30.943h-.066c-.066,0-.066,0-.133.067-.066,0-.066,0-.133.067a.065.065,0,0,0-.066.067h-.133l-.066.067-.066.067-.066.067-.066.067-.066.067-.066.067-.066.067v.134a.065.065,0,0,1-.066.067c0,.067,0,.067-.066.134,0,.067,0,.067-.066.134v1.074h0l-26.437,15.438h0l-.066-.067-.066-.067-.066-.067-.066-.067h-.132a.065.065,0,0,1-.066-.067c-.066,0-.066,0-.133-.067-.066,0-.066,0-.132-.067h-1.06c-.066,0-.066,0-.133.067-.066,0-.066,0-.132.067a.065.065,0,0,0-.066.067h-.133l-.066.067-.066.067-.066.067-.066.067h0l-26.437-15.438a1.639,1.639,0,0,0-.729-1.879,1.549,1.549,0,0,0-2.187.6,1.591,1.591,0,0,0,.6,2.215,1.525,1.525,0,0,0,1.988-.336l26.437,15.438h0v1.074c0,.067,0,.067.066.134,0,.067,0,.067.066.134a.066.066,0,0,0,.066.067v.134l.066.067.066.067.066.067.066.067.066.067.066.067.066.067h.133a.065.065,0,0,1,.066.067c.066,0,.066,0,.132.067.066,0,.066,0,.133.067h.066V174.77h-.066c-.066,0-.066,0-.133.067-.066,0-.066,0-.132.067a.065.065,0,0,0-.066.067h-.133l-.066.067-.066.067-.066.067-.066.067-.066.067-.066.067-.066.067v.134a.066.066,0,0,1-.066.067c0,.067,0,.067-.066.134,0,.067,0,.067-.066.134v1.074h0l-26.437,15.438h0l-.066-.067-.066-.067-.066-.067-.066-.067h-.133a.065.065,0,0,1-.066-.067c-.066,0-.066,0-.133-.067-.066,0-.066,0-.133-.067h-.994c-.066,0-.066,0-.133.067-.066,0-.066,0-.132.067a.065.065,0,0,0-.066.067H134.5l-.066.067-.066.067-.066.067-.066.067h0L107.8,176.985a1.639,1.639,0,0,0-.729-1.879,1.549,1.549,0,0,0-2.187.6,1.59,1.59,0,0,0,.6,2.215,1.525,1.525,0,0,0,1.988-.336L133.9,193.027h0v1.007c0,.067,0,.067.066.134,0,.067,0,.067.066.134a.065.065,0,0,0,.066.067v.134l.066.067.066.067.066.067.066.067.066.067.066.067.066.067h.133a.065.065,0,0,1,.066.067c.066,0,.066,0,.133.067.066,0,.066,0,.132.067h.066l.066,15.031h.729l-.066-16.106h.066c.066,0,.066,0,.133-.067.066,0,.066,0,.133-.067a.065.065,0,0,0,.066-.067h.133l.066-.067.066-.067.066-.067.066-.067.066-.067.066-.067.066-.067V193.3a.065.065,0,0,1,.066-.067c0-.067,0-.067.066-.134,0-.067,0-.067.066-.134v-1.074h0l26.437-15.438h0l.066.067.066.067.066.067.066.067h.133a.065.065,0,0,1,.066.067c.066,0,.066,0,.133.067.066,0,.066,0,.132.067h1.06c.066,0,.066,0,.133-.067.066,0,.066,0,.133-.067a.065.065,0,0,0,.066-.067h.133l.066-.067.066-.067.066-.067.066-.067h0l26.437,15.438h0v1.074c0,.067,0,.067.066.134,0,.067,0,.067.066.134a.065.065,0,0,0,.066.067v.134l.066.067.066.067.066.067.066.067.066.067.066.067.066.067h.132a.065.065,0,0,1,.066.067c.066,0,.066,0,.133.067.066,0,.066,0,.133.067h.066l.133,16.265h.8l-.2-16.265h.066c.066,0,.066,0,.132-.067.066,0,.066,0,.133-.067a.065.065,0,0,0,.066-.067h.133l.066-.067.066-.067.066-.067.066-.067.066-.067.066-.067.066-.067V193.3a.065.065,0,0,1,.066-.067c0-.067,0-.067.066-.134,0-.067,0-.067.066-.134v-1.074h0l26.437-15.438h0l.066.067.066.067.066.067.066.067h.132a.065.065,0,0,1,.066.067c.066,0,.066,0,.133.067.066,0,.066,0,.133.067h1.06c.066,0,.066,0,.133-.067.066,0,.066,0,.133-.067a.065.065,0,0,0,.066-.067h.133l.066-.067.066-.067.066-.067.066-.067h0l26.437,15.438h0v1.074c0,.067,0,.067.066.134,0,.067,0,.067.066.134a.065.065,0,0,0,.066.067v.134l.066.067.066.067.066.067.066.067.066.067.066.067.066.067h.133a.065.065,0,0,1,.066.067c.066,0,.066,0,.132.067.066,0,.066,0,.133.067h.066l-.066,16.331h.861l-.066-16.331h.066c.066,0,.066,0,.133-.067.066,0,.066,0,.133-.067a.065.065,0,0,0,.066-.067h.133l.066-.067.066-.067.066-.067.066-.067.066-.067.066-.067.066-.067V193.3a.065.065,0,0,1,.066-.067c0-.067,0-.067.066-.134,0-.067,0-.067.066-.134v-1.074h0l26.437-15.438h0l.066.067.066.067.066.067.066.067h.133a.065.065,0,0,1,.066.067c.066,0,.066,0,.132.067.066,0,.066,0,.133.067h1.06c.066,0,.066,0,.133-.067.066,0,.066,0,.133-.067a.065.065,0,0,0,.066-.067h.133l.066-.067.066-.067.066-.067.066-.067h0l26.437,15.438h0v1.074c0,.067,0,.067.066.134,0,.067,0,.067.066.134a.065.065,0,0,0,.066.067v.134l.066.067.066.067.066.067.066.067.066.067.066.067.066.067h.133a.065.065,0,0,1,.066.067c.066,0,.066,0,.133.067.066,0,.066,0,.133.067h.066l-.059,16.227h.589l.2-16.227h.066c.066,0,.066,0,.133-.067.066,0,.066,0,.132-.067a.065.065,0,0,0,.066-.067h.132l.066-.067.066-.067.066-.067.066-.067.066-.067.066-.067.066-.067V193.3a.065.065,0,0,1,.066-.067c0-.067,0-.067.066-.134,0-.067,0-.067.066-.134v-1.074h0l26.438-15.438h0l.066.067.066.067.066.067.066.067h.133a.065.065,0,0,1,.066.067c.066,0,.066,0,.133.067.066,0,.066,0,.132.067h1.06c.066,0,.066,0,.133-.067.066,0,.066,0,.133-.067a.065.065,0,0,0,.066-.067h.132l.066-.067.066-.067.066-.067.066-.067h0l26.437,15.438a1.639,1.639,0,0,0,.729,1.879,1.549,1.549,0,0,0,2.187-.6,1.591,1.591,0,0,0-.6-2.215,1.525,1.525,0,0,0-1.988.336l-26.437-15.438h0v-1.074c0-.067,0-.067-.066-.134,0-.067,0-.067-.066-.134a.066.066,0,0,0-.066-.067V174.3l-.066-.067-.066-.067-.066-.067-.066-.067-.066-.067-.066-.067-.066-.067h-.133a.065.065,0,0,1-.066-.067c-.066,0-.066,0-.133-.067-.066,0-.066,0-.132-.067h-.066V142.685h.066c.066,0,.066,0,.132-.067.066,0,.066,0,.133-.067a.065.065,0,0,0,.066-.067h.133l.066-.067.066-.067.066-.067.066-.067.066-.067.066-.067.066-.067v-.134a.065.065,0,0,1,.066-.067c0-.067,0-.067.066-.134,0-.067,0-.067.066-.134V140.47h0l26.437-15.438h0l.133.134c.066.067.066.067.133.067s.066.067.133.067.066.067.133.067.066.067.132.067.066.067.133.067h.663c.066,0,.133,0,.133-.067.066,0,.066,0,.132-.067a.23.23,0,0,0,.133-.067.065.065,0,0,0,.066-.067h.066c.066,0,.066-.067.132-.134.066,0,.066-.067.133-.067l.133-.134c.066-.067.066-.067.066-.134s.066-.067.066-.134.066-.067.066-.134.066-.067.066-.134.066-.067.066-.134v-.671c0-.067,0-.134-.066-.134,0-.067,0-.067-.066-.134a.235.235,0,0,0-.066-.134.065.065,0,0,0-.066-.067v-.067c0-.067-.066-.067-.133-.134,0-.067-.066-.067-.066-.134l-.133-.134-.132-.134c-.066,0-.066-.067-.133-.067s-.066-.067-.133-.067-.066-.067-.132-.067-.066-.067-.133-.067h0V91.269h.066c.066,0,.066,0,.133-.067.066,0,.066,0,.133-.067a.065.065,0,0,0,.066-.067h.133l.066-.067.066-.067.066-.067.066-.067.066-.067.066-.067.066-.067v-.134a.065.065,0,0,1,.066-.067c0-.067,0-.067.066-.134,0-.067,0-.067.066-.134V89.054h0c26.967-14.9-1.723.94-1.06.6C371.113,89.86,369.986,89.658,369.191,90.128Zm-57.712-66.45h.729c.066,0,.066,0,.133-.067.066,0,.066,0,.133-.067a.065.065,0,0,0,.066-.067h.132l.066-.067.066-.067.066-.067.066-.067h0l26.437,15.438h0V39.72c0,.067,0,.067.066.134,0,.067,0,.067.066.134a.065.065,0,0,0,.066.067v.134l.066.067.066.067.066.067.066.067.066.067.066.067.066.067h.132a.065.065,0,0,1,.066.067c.066,0,.066,0,.133.067.066,0,.066,0,.133.067h.066V71.8H340.5c-.066,0-.066,0-.133.067-.066,0-.066,0-.133.067a.065.065,0,0,0-.066.067h-.132l-.066.067-.066.067-.066.067-.066.067-.066.067-.066.067-.066.067v.134a.065.065,0,0,1-.066.067c0,.067,0,.067-.066.134,0,.067,0,.067-.066.134v1.074h0L312.937,89.457h0l-.066-.067-.066-.067-.066-.067-.066-.067h-.132a.065.065,0,0,1-.066-.067c-.066,0-.066,0-.133-.067-.066,0-.066,0-.133-.067h-1.06c-.066,0-.066,0-.133.067-.066,0-.066,0-.133.067a.065.065,0,0,0-.066.067h-.133l-.066.067-.066.067-.066.067-.066.067h0L283.982,74.019h0V72.945c0-.067,0-.067-.066-.134,0-.067,0-.067-.066-.134a.065.065,0,0,0-.066-.067v-.134l-.066-.067-.066-.067-.066-.067-.066-.067-.066-.067-.066-.067-.066-.067h-.133a.065.065,0,0,1-.066-.067c-.066,0-.066,0-.133-.067-.066,0-.066,0-.133-.067h-.066V40.727h.066c.066,0,.066,0,.133-.067.066,0,.066,0,.133-.067a.065.065,0,0,0,.066-.067h.133l.066-.067.066-.067.066-.067.066-.067.066-.067.066-.067.066-.067v-.134a.065.065,0,0,1,.066-.067c0-.067,0-.067.066-.134,0-.067,0-.067.066-.134V38.512h0l26.437-15.438h0l.066.067.066.067.066.067.066.067h.133a.065.065,0,0,1,.066.067c.066,0,.066,0,.133.067.066,0,.066,0,.133.067h.2C311.413,23.678,311.479,23.678,311.479,23.678ZM253.7-10.42h.133c.066,0,.066,0,.133-.067.066,0,.066,0,.132-.067a.065.065,0,0,0,.066-.067h.133l.066-.067.066-.067.066-.067.066-.067.066-.067.066-.067.066-.067v-.134a.065.065,0,0,1,.066-.067c0-.067,0-.067.066-.134,0-.067,0-.067.066-.134v-1.074h0L281.4-28.073h0l.066.067.066.067.066.067.066.067h.133a.065.065,0,0,1,.066.067c.066,0,.066,0,.133.067.066,0,.066,0,.133.067h1.06c.066,0,.066,0,.133-.067.066,0,.066,0,.132-.067a.065.065,0,0,0,.066-.067h.133l.066-.067.066-.067.066-.067.066-.067h0l26.437,15.438h0v1.074c0,.067,0,.067.066.134,0,.067,0,.067.066.134a.065.065,0,0,0,.066.067v.134l.066.067.066.067.066.067.066.067.066.067.066.067.066.067h.133a.065.065,0,0,1,.066.067.2.2,0,0,1,.132.067c.066,0,.066,0,.133.067h.066V20.523h-.066c-.066,0-.066,0-.133.067-.066,0-.066,0-.132.067a.065.065,0,0,0-.066.067h-.133l-.066.067-.066.067-.066.067-.066.067-.066.067-.066.067-.066.067v.134a.065.065,0,0,1-.066.067c0,.067,0,.067-.066.134,0,.067,0,.067-.066.134v1.074h0L283.916,38.176h0l-.066-.067-.066-.067-.066-.067-.066-.067h-.133a.065.065,0,0,1-.066-.067c-.066,0-.066,0-.132-.067-.066,0-.066,0-.133-.067h-1.06c-.066,0-.066,0-.133.067-.066,0-.066,0-.133.067a.065.065,0,0,0-.066.067h-.133l-.066.067-.066.067-.066.067-.066.067h0L254.96,22.738h0V21.664c0-.067,0-.067-.066-.134,0-.067,0-.067-.066-.134a.065.065,0,0,0-.066-.067v-.134l-.066-.067-.066-.067-.066-.067-.066-.067-.066-.067-.066-.067-.066-.067h-.133a.065.065,0,0,1-.066-.067c-.066,0-.066,0-.132-.067-.066,0-.066,0-.133-.067h-.066V-10.42Zm-.464,34.1h.729c.066,0,.066,0,.132-.067.066,0,.066,0,.133-.067a.065.065,0,0,0,.066-.067h.133l.066-.067.066-.067.066-.067.066-.067h0l26.437,15.438h0V39.72c0,.067,0,.067.066.134,0,.067,0,.067.066.134a.065.065,0,0,0,.066.067v.134l.066.067.066.067.066.067.066.067.066.067.066.067.066.067h.133a.065.065,0,0,1,.066.067c.066,0,.066,0,.133.067.066,0,.066,0,.133.067h.066V71.8h-.066c-.066,0-.066,0-.133.067-.066,0-.066,0-.133.067a.065.065,0,0,0-.066.067H281.8l-.066.067-.066.067-.066.067-.066.067-.066.067-.066.067-.066.067v.134a.065.065,0,0,1-.066.067c0,.067,0,.067-.066.134,0,.067,0,.067-.066.134v1.074h0L254.7,89.457h0l-.066-.067-.066-.067-.066-.067-.066-.067H254.3a.065.065,0,0,1-.066-.067c-.066,0-.066,0-.133-.067-.066,0-.066,0-.132-.067h-1.06c-.066,0-.066,0-.133.067-.066,0-.066,0-.133.067a.065.065,0,0,0-.066.067h-.133l-.066.067-.066.067-.066.067-.066.067h0L225.74,74.019h0V72.945c0-.067,0-.067-.066-.134,0-.067,0-.067-.066-.134a.065.065,0,0,0-.066-.067v-.134l-.066-.067-.066-.067-.066-.067-.066-.067-.066-.067-.066-.067-.066-.067h-.133a.065.065,0,0,1-.066-.067c-.066,0-.066,0-.133-.067-.066,0-.066,0-.133-.067h-.066V40.727h.066c.066,0,.066,0,.133-.067.066,0,.066,0,.133-.067a.065.065,0,0,0,.066-.067h.133l.066-.067.066-.067.066-.067.066-.067.066-.067.066-.067.066-.067v-.134a.065.065,0,0,1,.066-.067c0-.067,0-.067.066-.134,0-.067,0-.067.066-.134V38.512h0l26.437-15.438h0l.066.067.066.067.066.067.066.067h.133a.065.065,0,0,1,.066.067c.066,0,.066,0,.133.067.066,0,.066,0,.133.067h.2C253.171,23.678,253.171,23.678,253.238,23.678ZM223.885,37.572h-.066c-.066,0-.066,0-.133.067-.066,0-.066,0-.133.067a.065.065,0,0,0-.066.067h-.133l-.066.067-.066.067-.066.067-.066.067h0L196.652,22.6v-.067c0-.067,0-.134.066-.134v-.671c0-.067,0-.067-.066-.134a.235.235,0,0,0-.066-.134c0-.067-.066-.067-.066-.134s-.066-.067-.066-.134-.066-.067-.066-.134l-.133-.134c-.066-.067-.066-.067-.133-.067l-.133-.134h-.066a.065.065,0,0,1-.066-.067.23.23,0,0,1-.132-.067c-.066,0-.066,0-.133-.067h-.066V-10.42h.066c.066,0,.066,0,.133-.067.066,0,.066,0,.132-.067a.065.065,0,0,0,.066-.067h.133l.066-.067.066-.067.066-.067.066-.067.066-.067.066-.067.066-.067v-.134a.065.065,0,0,1,.066-.067c0-.067,0-.067.066-.134,0-.067,0-.067.066-.134v-1.074h0l26.437-15.438h0l.066.067.066.067.066.067.066.067h.133a.065.065,0,0,1,.066.067c.066,0,.066,0,.133.067.066,0,.066,0,.133.067h1.06c.066,0,.066,0,.132-.067.066,0,.066,0,.133-.067a.065.065,0,0,0,.066-.067h.133l.066-.067.066-.067.066-.067.066-.067h0l26.437,15.438h0v1.074c0,.067,0,.067.066.134,0,.067,0,.067.066.134a.065.065,0,0,0,.066.067v.134l.066.067.066.067.066.067.066.067.066.067.066.067.066.067h.133a.065.065,0,0,1,.066.067.2.2,0,0,1,.133.067c.066,0,.066,0,.132.067h.066V20.523h-.066c-.066,0-.066,0-.132.067-.066,0-.066,0-.133.067a.065.065,0,0,0-.066.067h-.133l-.066.067-.066.067-.066.067-.066.067-.066.067-.066.067-.066.067v.134a.065.065,0,0,1-.066.067c0,.067,0,.067-.066.134,0,.067,0,.067-.066.134v1.074h0L225.674,38.176h0l-.066-.067-.066-.067-.066-.067-.066-.067h-.133a.065.065,0,0,1-.066-.067c-.066,0-.066,0-.133-.067-.066,0-.066,0-.132-.067h-.861C223.951,37.572,223.885,37.572,223.885,37.572Zm0,136.325h-.133c-.066,0-.066,0-.133.067-.066,0-.066,0-.133.067a.065.065,0,0,0-.066.067h-.133l-.066.067-.066.067-.066.067-.066.067-.066.067-.066.067-.066.067v.134a.065.065,0,0,1-.066.067c0,.067,0,.067-.066.134,0,.067,0,.067-.066.134v1.074h0L196.188,191.55h0l-.066-.067-.066-.067-.066-.067-.066-.067h-.133a.065.065,0,0,1-.066-.067c-.066,0-.066,0-.132-.067-.066,0-.066,0-.133-.067h-.994c-.066,0-.066,0-.133.067-.066,0-.066,0-.133.067a.065.065,0,0,0-.066.067H194l-.066.067-.066.067-.066.067-.066.067h0L167.3,176.112h0v-1.074c0-.067,0-.067-.066-.134,0-.067,0-.067-.066-.134a.065.065,0,0,0-.066-.067v-.134l-.066-.067-.066-.067-.066-.067-.066-.067-.066-.067-.066-.067-.066-.067H166.5a.065.065,0,0,1-.066-.067c-.066,0-.066,0-.133-.067-.066,0-.066,0-.132-.067h-.066V142.954h.066c.066,0,.066,0,.132-.067.066,0,.066,0,.133-.067a.065.065,0,0,0,.066-.067h.133l.066-.067.066-.067.066-.067.066-.067.066-.067.066-.067.066-.067v-.134a.065.065,0,0,1,.066-.067c0-.067,0-.067.066-.134,0-.067,0-.067.066-.134v-1.074h0L193.737,125.3h0l.066.067.066.067.066.067.066.067h.133a.065.065,0,0,1,.066.067c.066,0,.066,0,.133.067.066,0,.066,0,.133.067h1.06c.066,0,.066,0,.132-.067.066,0,.066,0,.133-.067a.065.065,0,0,0,.066-.067h.133l.066-.067.066-.067.066-.067.066-.067h0l26.437,15.438h0v1.074c0,.067,0,.067.066.134,0,.067,0,.067.066.134a.065.065,0,0,0,.066.067v.134l.066.067.066.067.066.067.066.067.066.067.066.067.066.067h.133a.065.065,0,0,1,.066.067c.066,0,.066,0,.133.067.066,0,.066,0,.132.067h.066Zm.6-34.1h-.861c-.066,0-.066,0-.133.067-.066,0-.066,0-.133.067a.065.065,0,0,0-.066.067h-.133l-.066.067-.066.067-.066.067-.066.067h0l-26.437-15.438h0v-1.074c0-.067,0-.067-.066-.134,0-.067,0-.067-.066-.134a.065.065,0,0,0-.066-.067v-.134l-.066-.067-.066-.067-.066-.067-.066-.067-.066-.067-.066-.067-.066-.067h-.132a.065.065,0,0,1-.066-.067c-.066,0-.066,0-.132-.067-.066,0-.066,0-.133-.067h-.066V91.672h.066c.066,0,.066,0,.133-.067.066,0,.066,0,.132-.067a.065.065,0,0,0,.066-.067h.132l.066-.067.066-.067.066-.067.066-.067.066-.067.066-.067.066-.067v-.134a.065.065,0,0,1,.066-.067c0-.067,0-.067.066-.134,0-.067,0-.067.066-.134V89.457h0l26.437-15.438h0l.066.067.066.067.066.067.066.067h.133a.065.065,0,0,1,.066.067c.066,0,.066,0,.133.067.066,0,.066,0,.133.067h1.06c.066,0,.066,0,.133-.067.066,0,.066,0,.133-.067a.065.065,0,0,0,.066-.067h.133l.066-.067.066-.067.066-.067.066-.067h0l26.437,15.438h0v1.074c0,.067,0,.067.066.134,0,.067,0,.067.066.134a.065.065,0,0,0,.066.067V91l.066.067.066.067.066.067.066.067.066.067.066.067.066.067h.133a.065.065,0,0,1,.066.067c.066,0,.066,0,.133.067.066,0,.066,0,.133.067h.066v30.943h-.066c-.066,0-.066,0-.133.067-.066,0-.066,0-.133.067a.065.065,0,0,0-.066.067h-.133l-.066.067-.066.067-.066.067-.066.067-.066.067-.066.067-.066.067v.134a.065.065,0,0,1-.066.067c0,.067,0,.067-.066.134,0,.067,0,.067-.066.134v1.074h0l-26.437,15.438h0l-.066-.067-.066-.067-.066-.067-.066-.067h-.133a.065.065,0,0,1-.066-.067c-.066,0-.066,0-.133-.067-.066,0-.066,0-.133-.067h-.2Zm57.646,34.1h-.133c-.066,0-.066,0-.132.067-.066,0-.066,0-.133.067a.065.065,0,0,0-.066.067h-.133l-.066.067-.066.067-.066.067-.066.067-.066.067-.066.067-.066.067v.134a.065.065,0,0,1-.066.067c0,.067,0,.067-.066.134,0,.067,0,.067-.066.134v1.074h0L254.43,191.55h0l-.066-.067-.066-.067-.066-.067-.066-.067h-.133a.065.065,0,0,1-.066-.067c-.066,0-.066,0-.133-.067-.066,0-.066,0-.132-.067h-.994c-.066,0-.066,0-.133.067-.066,0-.066,0-.132.067a.065.065,0,0,0-.066.067h-.133l-.066.067-.066.067-.066.067-.066.067h0l-26.437-15.438h0v-1.074c0-.067,0-.067-.066-.134,0-.067,0-.067-.066-.134a.065.065,0,0,0-.066-.067v-.134l-.066-.067-.066-.067-.066-.067-.066-.067-.066-.067-.066-.067-.066-.067h-.133a.065.065,0,0,1-.066-.067c-.066,0-.066,0-.133-.067-.066,0-.066,0-.133-.067h-.066V142.954h.066c.066,0,.066,0,.133-.067.066,0,.066,0,.133-.067a.065.065,0,0,0,.066-.067h.133l.066-.067.066-.067.066-.067.066-.067.066-.067.066-.067.066-.067v-.134a.065.065,0,0,1,.066-.067c0-.067,0-.067.066-.134,0-.067,0-.067.066-.134v-1.074h0L251.978,125.3h0l.066.067.066.067.066.067.066.067h.133a.065.065,0,0,1,.066.067c.066,0,.066,0,.132.067.066,0,.066,0,.133.067h1.06c.066,0,.066,0,.133-.067.066,0,.066,0,.133-.067a.065.065,0,0,0,.066-.067h.132l.066-.067.066-.067.066-.067.066-.067h0l26.437,15.438h0v1.074c0,.067,0,.067.066.134,0,.067,0,.067.066.134a.065.065,0,0,0,.066.067v.134l.066.067.066.067.066.067.066.067.066.067.066.067.066.067h.133a.065.065,0,0,1,.066.067c.066,0,.066,0,.133.067.066,0,.066,0,.133.067h.066Zm.663-34.1h-.861c-.066,0-.066,0-.133.067-.066,0-.066,0-.132.067a.065.065,0,0,0-.066.067h-.133l-.066.067-.066.067-.066.067-.066.067h0l-26.437-15.438h0v-1.074c0-.067,0-.067-.066-.134,0-.067,0-.067-.066-.134a.065.065,0,0,0-.066-.067v-.134l-.066-.067-.066-.067-.066-.067-.066-.067-.066-.067-.066-.067-.066-.067h-.132a.065.065,0,0,1-.066-.067c-.066,0-.066,0-.133-.067-.066,0-.066,0-.133-.067h-.066V91.672h.066c.066,0,.066,0,.133-.067.066,0,.066,0,.133-.067a.065.065,0,0,0,.066-.067h.132l.066-.067.066-.067.066-.067.066-.067.066-.067.066-.067.066-.067v-.134a.065.065,0,0,1,.066-.067c0-.067,0-.067.066-.134,0-.067,0-.067.066-.134V89.457h0L281.2,74.019h0l.066.067.066.067.066.067.066.067h.133a.065.065,0,0,1,.066.067c.066,0,.066,0,.132.067.066,0,.066,0,.133.067h1.06c.066,0,.066,0,.133-.067.066,0,.066,0,.132-.067a.065.065,0,0,0,.066-.067h.133l.066-.067.066-.067.066-.067.066-.067h0l26.437,15.438h0v1.074c0,.067,0,.067.066.134,0,.067,0,.067.066.134a.065.065,0,0,0,.066.067V91l.066.067.066.067.066.067.066.067.066.067.066.067.066.067h.132a.065.065,0,0,1,.066.067c.066,0,.066,0,.132.067.066,0,.066,0,.133.067h.066v30.943h-.066c-.066,0-.066,0-.133.067-.066,0-.066,0-.132.067a.065.065,0,0,0-.066.067h-.132l-.066.067-.066.067-.066.067-.066.067-.066.067-.066.067-.066.067v.134a.065.065,0,0,1-.066.067c0,.067,0,.067-.066.134,0,.067,0,.067-.066.134v1.074h0l-26.437,15.438h0l-.066-.067-.066-.067-.066-.067-.066-.067h-.133a.065.065,0,0,1-.066-.067c-.066,0-.066,0-.132-.067-.066,0-.066,0-.133-.067h-.2Zm57.646,34.1H340.3c-.066,0-.066,0-.133.067-.066,0-.066,0-.132.067a.065.065,0,0,0-.066.067h-.132l-.066.067-.066.067-.066.067-.066.067-.066.067-.066.067-.066.067v.134a.065.065,0,0,1-.066.067c0,.067,0,.067-.066.134,0,.067,0,.067-.066.134v1.074h0L312.738,191.55h0l-.066-.067-.066-.067-.066-.067-.066-.067h-.133a.065.065,0,0,1-.066-.067c-.066,0-.066,0-.133-.067-.066,0-.066,0-.133-.067h-.928c-.066,0-.066,0-.133.067-.066,0-.066,0-.132.067a.065.065,0,0,0-.066.067h-.133l-.066.067-.066.067-.066.067-.066.067h0l-26.437-15.438h0v-1.074c0-.067,0-.067-.066-.134,0-.067,0-.067-.066-.134a.065.065,0,0,0-.066-.067v-.134l-.066-.067-.066-.067-.066-.067-.066-.067-.066-.067-.066-.067-.066-.067h-.133a.065.065,0,0,1-.066-.067c-.066,0-.066,0-.132-.067-.066,0-.066,0-.133-.067h-.066V142.954h.066c.066,0,.066,0,.133-.067.066,0,.066,0,.132-.067a.065.065,0,0,0,.066-.067h.133l.066-.067.066-.067.066-.067.066-.067.066-.067.066-.067.066-.067v-.134a.065.065,0,0,1,.066-.067c0-.067,0-.067.066-.134,0-.067,0-.067.066-.134v-1.074h0L310.353,125.3h0l.066.067.066.067.066.067.066.067h.133a.065.065,0,0,1,.066.067c.066,0,.066,0,.132.067.066,0,.066,0,.133.067h1.06c.066,0,.066,0,.133-.067.066,0,.066,0,.133-.067a.065.065,0,0,0,.066-.067h.132l.066-.067.066-.067.066-.067.066-.067h0l26.437,15.438h0v1.074c0,.067,0,.067.066.134,0,.067,0,.067.066.134a.066.066,0,0,0,.066.067v.134l.066.067.066.067.066.067.066.067.066.067.066.067.066.067h.133a.065.065,0,0,1,.066.067c.066,0,.066,0,.133.067.066,0,.066,0,.133.067h.066V173.9Zm29.154-51.147h0c-.133,0-.133.067-.2.067a.231.231,0,0,0-.133.067.065.065,0,0,0-.066.067h-.066c-.066,0-.066.067-.133.134-.066,0-.066.067-.132.067l-.133.134-.132.134c0,.067-.066.067-.066.134s-.066.067-.066.134-.066.067-.066.134-.066.067-.066.134v.671c0,.067,0,.134.066.134v.067l-26.437,15.438h0l-.066-.067-.066-.067-.066-.067-.066-.067h-.133a.065.065,0,0,1-.066-.067c-.066,0-.066,0-.132-.067-.066,0-.066,0-.133-.067h-1.06c-.066,0-.066,0-.132.067-.066,0-.066,0-.133.067a.065.065,0,0,0-.066.067h-.133l-.066.067-.066.067-.066.067-.066.067h0L313,124.831h0v-1.074c0-.067,0-.067-.066-.134,0-.067,0-.067-.066-.134a.065.065,0,0,0-.066-.067v-.134l-.066-.067-.066-.067-.066-.067-.066-.067-.066-.067-.066-.067-.066-.067h-.133a.065.065,0,0,1-.066-.067c-.066,0-.066,0-.133-.067-.066,0-.066,0-.133-.067h-.066V91.672h.066c.066,0,.066,0,.133-.067.066,0,.066,0,.133-.067a.065.065,0,0,0,.066-.067h.133l.066-.067.066-.067.066-.067.066-.067.066-.067.066-.067L312.8,91v-.134a.065.065,0,0,1,.066-.067c0-.067,0-.067.066-.134,0-.067,0-.067.066-.134V89.457h0l26.437-15.438h0l.066.067.066.067.066.067.066.067h.133a.065.065,0,0,1,.066.067c.066,0,.066,0,.133.067.066,0,.066,0,.132.067h1.06c.066,0,.066,0,.133-.067.066,0,.066,0,.132-.067a.065.065,0,0,0,.066-.067h.133l.066-.067.066-.067.066-.067.066-.067h0L368.4,89.457h0v1.074c0,.067,0,.067.066.134,0,.067,0,.067.066.134a.065.065,0,0,0,.066.067V91l.066.067.066.067.066.067.066.067.066.067.066.067.066.067h.133a.065.065,0,0,1,.066.067c.066,0,.066,0,.133.067.066,0,.066,0,.133.067h.066Z" transform="translate(1057.51 3954.938)" opacity="0.235" fill="url(#linear-gradient)"/>
      <path id="Path_4918" data-name="Path 4918" d="M113.214,47.749c.426.274-.256-.547-.384-.091l-.853-.593h0l.043-.046.043-.046.043-.046.043-.046h.085a.043.043,0,0,0,.043-.046c.043,0,.043,0,.085-.046.043,0,.043,0,.085-.046h.682c.043,0,.043,0,.085.046.043,0,.043,0,.085.046a.043.043,0,0,1,.043.046h.085l.043.046.043.046.043.046.043.046h0l17.017-10.494h0v-.73c0-.046,0-.046.043-.091,0-.046,0-.046.043-.091,0,0,0-.046.043-.046v-.091l.043-.046.043-.046.043-.046.043-.046.043-.046.043-.046.043-.046h.085a.043.043,0,0,0,.043-.046c.043,0,.043,0,.085-.046.043,0,.043,0,.085-.046h.043v-20.9h-.043c-.043,0-.043,0-.085-.046-.043,0-.043,0-.085-.046a.043.043,0,0,1-.043-.046h-.085L131,13.985l-.043-.046-.043-.046-.043-.046-.043-.046-.043-.046-.043-.046V13.62s0-.046-.043-.046c0-.046,0-.046-.043-.091,0-.046,0-.046-.043-.091v-.73h0L113.6,2.168a1.052,1.052,0,0,1-1.28.228A1.114,1.114,0,0,1,111.935.89a.97.97,0,0,1,1.407-.411,1.168,1.168,0,0,1,.469,1.278l17.017,10.494h0l.043-.046.043-.046.043-.046.043-.046h.085a.043.043,0,0,0,.043-.046c.043,0,.043,0,.085-.046.043,0,.043,0,.085-.046h.682c.043,0,.043,0,.085.046.043,0,.043,0,.085.046a.043.043,0,0,1,.043.046h.085l.043.046.043.046.043.046.043.046h0L149.467,1.757h0v-.73c0-.046,0-.046.043-.091,0-.046,0-.046.043-.091,0,0,0-.046.043-.046V.708l.043-.046.043-.046.043-.046.043-.046.043-.046.043-.046.043-.046h.085a.043.043,0,0,0,.043-.046c.043,0,.043,0,.085-.046.043,0,.043,0,.085-.046h.043V-20.6h-.043c-.043,0-.043,0-.085-.046-.043,0-.043,0-.085-.046a.043.043,0,0,1-.043-.046h-.085l-.043-.046-.043-.046-.043-.046-.043-.046-.043-.046-.043-.046-.043-.046v-.091s0-.046-.043-.046c0-.046,0-.046-.043-.091,0-.046,0-.046-.043-.091v-.73h0L132.45-32.6h0l-.043.046-.043.046-.043.046-.043.046h-.085a.043.043,0,0,0-.043.046c-.043,0-.043,0-.085.046-.043,0-.043,0-.085.046H131.3c-.043,0-.043,0-.085-.046-.043,0-.043,0-.085-.046a.043.043,0,0,1-.043-.046H131l-.043-.046-.043-.046-.043-.046-.043-.046h0L113.812-22.106a1.143,1.143,0,0,1-.469,1.278.97.97,0,0,1-1.407-.411,1.114,1.114,0,0,1,.384-1.506.946.946,0,0,1,1.28.228l17.017-10.494h0v-.73c0-.046,0-.046.043-.091,0-.046,0-.046.043-.091,0,0,0-.046.043-.046v-.091l.043-.046.043-.046.043-.046.043-.046.043-.046.043-.046.043-.046h.085a.043.043,0,0,0,.043-.046.128.128,0,0,0,.085-.046c.043,0,.043,0,.085-.046h.682c.043,0,.043,0,.085.046.043,0,.043,0,.085.046a.043.043,0,0,1,.043.046h.085l.043.046.043.046.043.046.043.046.043.046.043.046.043.046v.091s0,.046.043.046c0,.046,0,.046.043.091,0,.046,0,.046.043.091v.73h0l17.017,10.494h0l.043-.046.043-.046.043-.046.043-.046h.085a.043.043,0,0,0,.043-.046c.043,0,.043,0,.085-.046.043,0,.043,0,.085-.046h.682c.043,0,.043,0,.085.046.043,0,.043,0,.085.046a.043.043,0,0,1,.043.046h.085l.043.046.043.046.043.046.043.046h0L168.4-33.011h0v-.73c0-.046,0-.046.043-.091,0-.046,0-.046.043-.091,0,0,0-.046.043-.046v-.091l.043-.046.043-.046.043-.046.043-.046.043-.046.043-.046.043-.046h.085a.043.043,0,0,0,.043-.046c.043,0,.043,0,.085-.046.043,0,.043,0,.085-.046h.043V-42h.469v7.483h.043c.043,0,.043,0,.085.046.043,0,.043,0,.085.046a.043.043,0,0,1,.043.046h.085l.043.046.043.046.043.046.043.046.043.046.043.046.043.046v.091s0,.046.043.046c0,.046,0,.046.043.091,0,.046,0,.046.043.091v.73h0l17.017,10.494h0l.043-.046.043-.046.043-.046.043-.046h.085a.043.043,0,0,0,.043-.046c.043,0,.043,0,.085-.046.043,0,.043,0,.085-.046h.682c.043,0,.043,0,.085.046.043,0,.043,0,.085.046a.043.043,0,0,1,.043.046h.085l.043.046.043.046.043.046.043.046h0l17.017-10.494h0v-.73c0-.046,0-.046.043-.091,0-.046,0-.046.043-.091,0,0,0-.046.043-.046v-.091l.043-.046.043-.046.043-.046.043-.046.043-.046.043-.046.043-.046h.085a.043.043,0,0,0,.043-.046.128.128,0,0,0,.085-.046c.043,0,.043,0,.085-.046h.043V-42h.469v7.483h.043c.043,0,.043,0,.085.046.043,0,.043,0,.085.046a.043.043,0,0,1,.043.046h.085l.043.046.043.046.043.046.043.046.043.046.043.046.043.046v.091s0,.046.043.046c0,.046,0,.046.043.091,0,.046,0,.046.043.091v.73h0l17.017,10.494h0l.043-.046.043-.046.043-.046.043-.046h.085a.043.043,0,0,0,.043-.046c.043,0,.043,0,.085-.046.043,0,.043,0,.085-.046h.682c.043,0,.043,0,.085.046.043,0,.043,0,.085.046a.043.043,0,0,1,.043.046h.085l.043.046.043.046.043.046.043.046h0l17.017-10.494a1.143,1.143,0,0,1,.469-1.278.97.97,0,0,1,1.407.411,1.114,1.114,0,0,1-.384,1.506.946.946,0,0,1-1.279-.228L226.92-22.106h0v.73c0,.046,0,.046-.043.091,0,.046,0,.046-.043.091,0,0,0,.046-.043.046v.091l-.043.046-.043.046-.043.046-.043.046-.043.046-.043.046-.043.046h-.085a.043.043,0,0,0-.043.046.128.128,0,0,0-.085.046c-.043,0-.043,0-.085.046h-.043V.434h0c.043,0,.043,0,.085.046.043,0,.043,0,.085.046.043,0,.043.046.085.046s.043.046.085.046.043.046.085.091l.085.091c.043.046.043.046.043.091l.085.091v.046s0,.046.043.046a.163.163,0,0,0,.043.091c0,.046,0,.046.043.091,0,.046,0,.091.043.091V1.8c0,.046,0,.046-.043.091a.163.163,0,0,1-.043.091c0,.046-.043.046-.043.091s-.043.046-.043.091-.043.046-.085.091l-.085.091c-.043.046-.043.046-.085.046l-.085.091h-.043a.043.043,0,0,0-.043.046.146.146,0,0,0-.085.046c-.043,0-.043,0-.085.046-.043,0-.085,0-.085.046h-.427c-.043,0-.043,0-.085-.046a.146.146,0,0,1-.085-.046c-.043,0-.043-.046-.085-.046s-.043-.046-.085-.046-.043-.046-.085-.046l-.085-.091h0L208.154,12.844h0v.73c0,.046,0,.046-.043.091,0,.046,0,.046-.043.091,0,0,0,.046-.043.046v.091l-.043.046-.043.046-.043.046-.043.046-.043.046-.043.046-.043.046h-.085a.043.043,0,0,0-.043.046c-.043,0-.043,0-.085.046-.043,0-.043,0-.085.046h-.043V35.384h.043c.043,0,.043,0,.085.046.043,0,.043,0,.085.046a.043.043,0,0,1,.043.046h.085l.043.046.043.046.043.046.043.046.043.046.043.046.043.046v.091s0,.046.043.046c0,.046,0,.046.043.091,0,.046,0,.046.043.091v.73h0l17.017,10.494h0l.043-.046.043-.046.043-.046.043-.046h.085a.043.043,0,0,0,.043-.046c.043,0,.043,0,.085-.046.043,0,.043,0,.085-.046h.682c.043,0,.043,0,.085.046.043,0,.043,0,.085.046a.043.043,0,0,1,.043.046h.085l.043.046.043.046.043.046.043.046h0L243.809,36.89a1.143,1.143,0,0,1,.469-1.278.97.97,0,0,1,1.407.411,1.114,1.114,0,0,1-.384,1.506.946.946,0,0,1-1.28-.228L227.005,47.8h0v.73c0,.046,0,.046-.043.091,0,.046,0,.046-.043.091,0,0,0,.046-.043.046v.091l-.043.046-.043.046-.043.046-.043.046-.043.046-.043.046-.043.046h-.085a.043.043,0,0,0-.043.046c-.043,0-.043,0-.085.046-.043,0-.043,0-.085.046h-.043V70.335h.043c.043,0,.043,0,.085.046.043,0,.043,0,.085.046a.043.043,0,0,1,.043.046h.085l.043.046.043.046.043.046.043.046.043.046.043.046.043.046v.091s0,.046.043.046c0,.046,0,.046.043.091,0,.046,0,.046.043.091v.73h0l17.017,10.494h0l.043-.046.043-.046.043-.046.043-.046h.085a.043.043,0,0,0,.043-.046c.043,0,.043,0,.085-.046.043,0,.043,0,.085-.046h.682c.043,0,.043,0,.085.046.043,0,.043,0,.085.046a.043.043,0,0,1,.043.046h.085l.043.046.043.046.043.046.043.046h0L262.66,71.841a1.143,1.143,0,0,1,.469-1.278.97.97,0,0,1,1.407.411,1.114,1.114,0,0,1-.384,1.506.946.946,0,0,1-1.279-.228L245.856,82.746h0v.73c0,.046,0,.046-.043.091,0,.046,0,.046-.043.091,0,0,0,.046-.043.046V83.8l-.043.046-.043.046-.043.046-.043.046-.043.046-.043.046-.043.046h-.085a.043.043,0,0,0-.043.046c-.043,0-.043,0-.085.046-.043,0-.043,0-.085.046h-.043v21.034h.043c.043,0,.043,0,.085.046.043,0,.043,0,.085.046a.043.043,0,0,1,.043.046h.085l.043.046.043.046.043.046.043.046.043.046.043.046.043.046v.091s0,.046.043.046c0,.046,0,.046.043.091,0,.046,0,.046.043.091v.73h0l17.017,10.494h0l.043-.046.043-.046.043-.046.043-.046h.085a.043.043,0,0,0,.043-.046c.043,0,.043,0,.085-.046.043,0,.043,0,.085-.046h.64c.043,0,.043,0,.085.046.043,0,.043,0,.085.046a.043.043,0,0,1,.043.046h.085l.043.046.043.046.043.046.043.046h0l17.017-10.494a1.143,1.143,0,0,1,.469-1.278.97.97,0,0,1,1.407.411,1.114,1.114,0,0,1-.384,1.506.946.946,0,0,1-1.279-.228L264.665,117.7h0v.684c0,.046,0,.046-.043.091,0,.046,0,.046-.043.091,0,0,0,.046-.043.046v.091l-.043.046-.043.046-.043.046-.043.046-.043.046-.043.046-.043.046h-.085a.043.043,0,0,0-.043.046c-.043,0-.043,0-.085.046-.043,0-.043,0-.085.046H263.9l.171,10.422h-.512l-.128-11.152h-.043c-.043,0-.043,0-.085-.046-.043,0-.043,0-.085-.046a.043.043,0,0,1-.043-.046h-.085l-.043-.046L263,118.2l-.043-.046-.043-.046-.043-.046-.043-.046-.043-.046v-.091s0-.046-.043-.046c0-.046,0-.046-.043-.091,0-.046,0-.046-.043-.091v-.73h0l-17.017-10.494h0l-.043.046-.043.046-.043.046-.043.046h-.085a.043.043,0,0,0-.043.046c-.043,0-.043,0-.085.046-.043,0-.043,0-.085.046h-.682c-.043,0-.043,0-.085-.046-.043,0-.043,0-.085-.046a.043.043,0,0,1-.043-.046h-.085l-.043-.046-.043-.046-.043-.046-.043-.046h0l-17.017,10.494h0v.73c0,.046,0,.046-.043.091,0,.046,0,.046-.043.091,0,0,0,.046-.043.046v.091l-.043.046-.043.046-.043.046-.043.046-.043.046-.043.046-.043.046h-.085a.043.043,0,0,0-.043.046c-.043,0-.043,0-.085.046-.043,0-.043,0-.085.046h-.043l-.075,11.306h-.445l.05-11.306h-.043c-.043,0-.043,0-.085-.046-.043,0-.043,0-.085-.046a.043.043,0,0,1-.043-.046h-.085l-.043-.046-.043-.046-.043-.046-.043-.046-.043-.046-.043-.046-.043-.046v-.091s0-.046-.043-.046c0-.046,0-.046-.043-.091,0-.046,0-.046-.043-.091v-.73h0l-17.017-10.494h0l-.043.046-.043.046-.043.046-.043.046h-.085a.043.043,0,0,0-.043.046c-.043,0-.043,0-.085.046-.043,0-.043,0-.085.046h-.682c-.043,0-.043,0-.085-.046-.043,0-.043,0-.085-.046a.043.043,0,0,1-.043-.046h-.085l-.043-.046-.043-.046-.043-.046-.043-.046h0l-17.017,10.494h0v.73c0,.046,0,.046-.043.091,0,.046,0,.046-.043.091,0,0,0,.046-.043.046v.091l-.043.046-.043.046-.043.046-.043.046L189,118.2l-.043.046-.043.046h-.085a.043.043,0,0,0-.043.046c-.043,0-.043,0-.085.046-.043,0-.043,0-.085.046h-.043l-.03,11.293h-.354l-.085-11.293h-.043c-.043,0-.043,0-.085-.046-.043,0-.043,0-.085-.046a.043.043,0,0,1-.043-.046h-.085l-.043-.046-.043-.046-.043-.046-.043-.046-.043-.046-.043-.046-.043-.046v-.091s0-.046-.043-.046c0-.046,0-.046-.043-.091,0-.046,0-.046-.043-.091v-.73h0l-17.017-10.494h0l-.043.046-.043.046-.043.046-.043.046h-.085a.043.043,0,0,0-.043.046c-.043,0-.043,0-.085.046-.043,0-.043,0-.085.046h-.682c-.043,0-.043,0-.085-.046-.043,0-.043,0-.085-.046a.043.043,0,0,1-.043-.046h-.085l-.043-.046-.043-.046-.043-.046-.043-.046h0l-17.017,10.494h0v.73c0,.046,0,.046-.043.091,0,.046,0,.046-.043.091,0,0,0,.046-.043.046v.091l-.043.046-.043.046-.043.046-.043.046-.043.046-.043.046-.043.046h-.085a.043.043,0,0,0-.043.046c-.043,0-.043,0-.085.046-.043,0-.043,0-.085.046h-.043l-.046,11.44h-.4l-.025-11.44h-.043c-.043,0-.043,0-.085-.046-.043,0-.043,0-.085-.046a.043.043,0,0,1-.043-.046h-.085l-.043-.046-.043-.046-.043-.046-.043-.046-.043-.046-.043-.046-.043-.046v-.091s0-.046-.043-.046c0-.046,0-.046-.043-.091,0-.046,0-.046-.043-.091v-.73h0l-17.017-10.494h0l-.043.046-.043.046-.043.046-.043.046h-.085a.043.043,0,0,0-.043.046c-.043,0-.043,0-.085.046-.043,0-.043,0-.085.046h-.682c-.043,0-.043,0-.085-.046-.043,0-.043,0-.085-.046a.043.043,0,0,1-.043-.046h-.085l-.043-.046-.043-.046-.043-.046-.043-.046h0l-17.017,10.494a1.143,1.143,0,0,1-.469,1.278.97.97,0,0,1-1.407-.411,1.114,1.114,0,0,1,.384-1.506.946.946,0,0,1,1.28.228l17.017-10.494h0v-.73c0-.046,0-.046.043-.091,0-.046,0-.046.043-.091,0,0,0-.046.043-.046v-.091l.043-.046.043-.046.043-.046.043-.046.043-.046.043-.046.043-.046h.085a.043.043,0,0,0,.043-.046c.043,0,.043,0,.085-.046.043,0,.043,0,.085-.046h.043V83.476h-.043c-.043,0-.043,0-.085-.046-.043,0-.043,0-.085-.046a.043.043,0,0,1-.043-.046h-.085l-.043-.046-.043-.046-.043-.046-.043-.046-.043-.046L131,83.065l-.043-.046v-.091s0-.046-.043-.046c0-.046,0-.046-.043-.091,0-.046,0-.046-.043-.091v-.73h0L113.812,71.476h0l-.085.091c-.043.046-.043.046-.085.046s-.043.046-.085.046-.043.046-.085.046-.043.046-.085.046-.043.046-.085.046h-.426c-.043,0-.085,0-.085-.046-.043,0-.043,0-.085-.046a.146.146,0,0,1-.085-.046.043.043,0,0,1-.043-.046h-.043c-.043,0-.043-.046-.085-.091-.043,0-.043-.046-.085-.046l-.085-.091c-.043-.046-.043-.046-.043-.091s-.043-.046-.043-.091-.043-.046-.043-.091-.043-.046-.043-.091-.043-.046-.043-.091v-.456c0-.046,0-.091.043-.091,0-.046,0-.046.043-.091a.163.163,0,0,1,.043-.091s0-.046.043-.046v-.046c0-.046.043-.046.085-.091,0-.046.043-.046.043-.091l.085-.091.085-.091c.043,0,.043-.046.085-.046s.043-.046.085-.046.043-.046.085-.046.043-.046.085-.046h0V48.525h-.043c-.043,0-.043,0-.085-.046-.043,0-.043,0-.085-.046a.043.043,0,0,1-.043-.046h-.085l-.043-.046-.043-.046-.043-.046-.043-.046-.043-.046-.043-.046-.043-.046v-.091s0-.046-.043-.046c0-.046,0-.046-.043-.091,0-.046,0-.046-.043-.091v-.73h0c-17.359-10.129,1.109.639.683.411C111.978,47.567,112.7,47.43,113.214,47.749ZM150.363,2.578h-.469c-.043,0-.043,0-.085-.046-.043,0-.043,0-.085-.046a.043.043,0,0,1-.043-.046h-.085l-.043-.046-.043-.046-.043-.046-.043-.046h0L132.407,12.753h0v.73c0,.046,0,.046-.043.091,0,.046,0,.046-.043.091,0,0,0,.046-.043.046V13.8l-.043.046-.043.046-.043.046-.043.046-.043.046-.043.046-.043.046H131.9a.043.043,0,0,0-.043.046c-.043,0-.043,0-.085.046-.043,0-.043,0-.085.046h-.043V35.293h.043c.043,0,.043,0,.085.046.043,0,.043,0,.085.046a.043.043,0,0,1,.043.046h.085l.043.046.043.046.043.046.043.046.043.046.043.046.043.046v.091s0,.046.043.046c0,.046,0,.046.043.091,0,.046,0,.046.043.091v.73h0l17.017,10.494h0l.043-.046.043-.046.043-.046.043-.046h.085a.043.043,0,0,0,.043-.046c.043,0,.043,0,.085-.046.043,0,.043,0,.085-.046h.682c.043,0,.043,0,.085.046.043,0,.043,0,.085.046a.043.043,0,0,1,.043.046h.085l.043.046.043.046.043.046.043.046h0L168.062,36.8h0v-.73c0-.046,0-.046.043-.091,0-.046,0-.046.043-.091,0,0,0-.046.043-.046V35.75l.043-.046.043-.046.043-.046.043-.046.043-.046.043-.046.043-.046h.085a.043.043,0,0,0,.043-.046c.043,0,.043,0,.085-.046.043,0,.043,0,.085-.046h.043V14.168h-.043c-.043,0-.043,0-.085-.046-.043,0-.043,0-.085-.046a.043.043,0,0,1-.043-.046h-.085l-.043-.046-.043-.046-.043-.046-.043-.046-.043-.046-.043-.046-.043-.046V13.62s0-.046-.043-.046c0-.046,0-.046-.043-.091,0-.046,0-.046-.043-.091v-.73h0L151.045,2.168h0L151,2.213l-.043.046-.043.046-.043.046h-.085a.043.043,0,0,0-.043.046c-.043,0-.043,0-.085.046-.043,0-.043,0-.085.046h-.128C150.405,2.578,150.363,2.578,150.363,2.578ZM187.553-20.6h-.085c-.043,0-.043,0-.085-.046-.043,0-.043,0-.085-.046a.043.043,0,0,1-.043-.046h-.085l-.043-.046-.043-.046-.043-.046L187-20.92l-.043-.046-.043-.046-.043-.046v-.091s0-.046-.043-.046c0-.046,0-.046-.043-.091,0-.046,0-.046-.043-.091v-.73h0L169.726-32.6h0l-.043.046-.043.046-.043.046-.043.046h-.085a.043.043,0,0,0-.043.046c-.043,0-.043,0-.085.046-.043,0-.043,0-.085.046h-.682c-.043,0-.043,0-.085-.046-.043,0-.043,0-.085-.046a.043.043,0,0,1-.043-.046h-.085l-.043-.046-.043-.046-.043-.046L168.1-32.6h0L151.087-22.106h0v.73c0,.046,0,.046-.043.091,0,.046,0,.046-.043.091,0,0,0,.046-.043.046v.091l-.043.046-.043.046-.043.046-.043.046-.043.046-.043.046-.043.046h-.085a.043.043,0,0,0-.043.046.128.128,0,0,0-.085.046c-.043,0-.043,0-.085.046h-.043V.434h.043c.043,0,.043,0,.085.046.043,0,.043,0,.085.046a.043.043,0,0,1,.043.046h.085l.043.046.043.046.043.046.043.046.043.046.043.046.043.046V.981s0,.046.043.046c0,.046,0,.046.043.091,0,.046,0,.046.043.091v.73h0L168.1,12.434h0l.043-.046.043-.046.043-.046.043-.046h.085a.043.043,0,0,0,.043-.046c.043,0,.043,0,.085-.046.043,0,.043,0,.085-.046h.682c.043,0,.043,0,.085.046.043,0,.043,0,.085.046a.043.043,0,0,1,.043.046h.085l.043.046.043.046.043.046.043.046h0L186.743,1.939h0v-.73c0-.046,0-.046.043-.091,0-.046,0-.046.043-.091,0,0,0-.046.043-.046V.89l.043-.046L186.956.8,187,.753l.043-.046.043-.046.043-.046.043-.046h.085A.043.043,0,0,0,187.3.525c.043,0,.043,0,.085-.046.043,0,.043,0,.085-.046h.043V-20.6Zm.3,23.179h-.469c-.043,0-.043,0-.085-.046-.043,0-.043,0-.085-.046a.043.043,0,0,1-.043-.046h-.085l-.043-.046L187,2.35l-.043-.046-.043-.046h0L169.9,12.753h0v.73c0,.046,0,.046-.043.091,0,.046,0,.046-.043.091,0,0,0,.046-.043.046V13.8l-.043.046-.043.046-.043.046-.043.046-.043.046-.043.046-.043.046h-.085a.043.043,0,0,0-.043.046c-.043,0-.043,0-.085.046-.043,0-.043,0-.085.046h-.043V35.293h.043c.043,0,.043,0,.085.046.043,0,.043,0,.085.046a.043.043,0,0,1,.043.046h.085l.043.046.043.046.043.046.043.046.043.046.043.046.043.046v.091s0,.046.043.046c0,.046,0,.046.043.091,0,.046,0,.046.043.091v.73h0l17.017,10.494h0l.043-.046L187,47.2l.043-.046.043-.046h.085a.043.043,0,0,0,.043-.046c.043,0,.043,0,.085-.046.043,0,.043,0,.085-.046h.682c.043,0,.043,0,.085.046.043,0,.043,0,.085.046a.043.043,0,0,1,.043.046h.085l.043.046.043.046.043.046.043.046h0L205.552,36.8h0v-.73c0-.046,0-.046.043-.091,0-.046,0-.046.043-.091,0,0,0-.046.043-.046V35.75l.043-.046.043-.046.043-.046.043-.046.043-.046.043-.046.043-.046h.085a.043.043,0,0,0,.043-.046c.043,0,.043,0,.085-.046.043,0,.043,0,.085-.046h.043V14.168h-.043c-.043,0-.043,0-.085-.046-.043,0-.043,0-.085-.046a.043.043,0,0,1-.043-.046h-.085l-.043-.046-.043-.046-.043-.046-.043-.046-.043-.046-.043-.046-.043-.046V13.62s0-.046-.043-.046c0-.046,0-.046-.043-.091,0-.046,0-.046-.043-.091v-.73h0L188.534,2.168h0l-.043.046-.043.046-.043.046-.043.046h-.085a.043.043,0,0,0-.043.046c-.043,0-.043,0-.085.046-.043,0-.043,0-.085.046h-.128C187.894,2.578,187.894,2.578,187.852,2.578Zm18.894,9.445h.043c.043,0,.043,0,.085.046.043,0,.043,0,.085.046a.043.043,0,0,1,.043.046h.085l.043.046.043.046.043.046.043.046h0L224.275,1.848V1.8c0-.046,0-.091-.043-.091V1.255c0-.046,0-.046.043-.091a.163.163,0,0,1,.043-.091c0-.046.043-.046.043-.091S224.4.936,224.4.89s.043-.046.043-.091l.085-.091c.043-.046.043-.046.085-.046L224.7.571h.043a.043.043,0,0,0,.043-.046.146.146,0,0,0,.085-.046c.043,0,.043,0,.085-.046H225V-20.6h-.043c-.043,0-.043,0-.085-.046-.043,0-.043,0-.085-.046a.043.043,0,0,1-.043-.046h-.085l-.043-.046-.043-.046-.043-.046-.043-.046-.043-.046-.043-.046-.043-.046v-.091s0-.046-.043-.046c0-.046,0-.046-.043-.091,0-.046,0-.046-.043-.091v-.73h0L207.215-32.6h0l-.043.046-.043.046-.043.046-.043.046h-.085a.043.043,0,0,0-.043.046c-.043,0-.043,0-.085.046-.043,0-.043,0-.085.046h-.682c-.043,0-.043,0-.085-.046-.043,0-.043,0-.085-.046a.043.043,0,0,1-.043-.046h-.085l-.043-.046-.043-.046-.043-.046-.043-.046h0L188.577-22.106h0v.73c0,.046,0,.046-.043.091,0,.046,0,.046-.043.091,0,0,0,.046-.043.046v.091l-.043.046-.043.046-.043.046-.043.046-.043.046-.043.046-.043.046h-.085a.043.043,0,0,0-.043.046.128.128,0,0,0-.085.046c-.043,0-.043,0-.085.046h-.043V.434h.043c.043,0,.043,0,.085.046.043,0,.043,0,.085.046a.043.043,0,0,1,.043.046h.085l.043.046.043.046.043.046.043.046.043.046.043.046.043.046V.981s0,.046.043.046c0,.046,0,.046.043.091,0,.046,0,.046.043.091v.73h0l17.017,10.494h0l.043-.046.043-.046.043-.046.043-.046h.085a.043.043,0,0,0,.043-.046c.043,0,.043,0,.085-.046.043,0,.043,0,.085-.046h.555C206.7,12.023,206.746,12.023,206.746,12.023Zm0,92.67h.085c.043,0,.043,0,.085.046.043,0,.043,0,.085.046a.043.043,0,0,1,.043.046h.085l.043.046.043.046.043.046.043.046.043.046.043.046.043.046v.091s0,.046.043.046c0,.046,0,.046.043.091,0,.046,0,.046.043.091v.73h0l17.017,10.494h0l.043-.046.043-.046.043-.046.043-.046h.085a.043.043,0,0,0,.043-.046c.043,0,.043,0,.085-.046.043,0,.043,0,.085-.046h.64c.043,0,.043,0,.085.046.043,0,.043,0,.085.046a.043.043,0,0,1,.043.046h.085l.043.046.043.046.043.046.043.046h0L243.169,106.2h0v-.73c0-.046,0-.046.043-.091,0-.046,0-.046.043-.091,0,0,0-.046.043-.046v-.091l.043-.046.043-.046.043-.046.043-.046.043-.046.043-.046.043-.046h.085a.043.043,0,0,0,.043-.046c.043,0,.043,0,.085-.046.043,0,.043,0,.085-.046h.043V83.659h-.043c-.043,0-.043,0-.085-.046-.043,0-.043,0-.085-.046a.043.043,0,0,1-.043-.046H243.6l-.043-.046-.043-.046-.043-.046-.043-.046-.043-.046-.043-.046L243.3,83.2v-.091s0-.046-.043-.046c0-.046,0-.046-.043-.091,0-.046,0-.046-.043-.091v-.73h0L226.152,71.658h0l-.043.046-.043.046-.043.046-.043.046H225.9a.043.043,0,0,0-.043.046c-.043,0-.043,0-.085.046-.043,0-.043,0-.085.046H225c-.043,0-.043,0-.085-.046-.043,0-.043,0-.085-.046a.043.043,0,0,1-.043-.046H224.7l-.043-.046-.043-.046-.043-.046-.043-.046h0L207.514,82.153h0v.73c0,.046,0,.046-.043.091,0,.046,0,.046-.043.091,0,0,0,.046-.043.046V83.2l-.043.046-.043.046-.043.046-.043.046-.043.046-.043.046-.043.046H207a.043.043,0,0,0-.043.046c-.043,0-.043,0-.085.046-.043,0-.043,0-.085.046h-.043Zm-.384-23.179h.554c.043,0,.043,0,.085.046.043,0,.043,0,.085.046a.043.043,0,0,1,.043.046h.085l.043.046.043.046.043.046.043.046h0L224.4,71.339h0v-.73c0-.046,0-.046.043-.091,0-.046,0-.046.043-.091,0,0,0-.046.043-.046V70.29l.043-.046.043-.046.043-.046.043-.046.043-.046.043-.046.043-.046h.085a.043.043,0,0,0,.043-.046c.043,0,.043,0,.085-.046.043,0,.043,0,.085-.046h.043V48.8h-.043c-.043,0-.043,0-.085-.046-.043,0-.043,0-.085-.046a.043.043,0,0,1-.043-.046h-.085l-.043-.046-.043-.046-.043-.046-.043-.046-.043-.046-.043-.046-.043-.046v-.091s0-.046-.043-.046c0-.046,0-.046-.043-.091,0-.046,0-.046-.043-.091v-.73h0L207.386,36.8h0l-.043.046-.043.046-.043.046-.043.046h-.085a.043.043,0,0,0-.043.046c-.043,0-.043,0-.085.046-.043,0-.043,0-.085.046h-.682c-.043,0-.043,0-.085-.046-.043,0-.043,0-.085-.046a.043.043,0,0,1-.043-.046h-.085l-.043-.046-.043-.046-.043-.046-.043-.046h0L188.747,47.293h0v.73c0,.046,0,.046-.043.091,0,.046,0,.046-.043.091,0,0,0,.046-.043.046v.091l-.043.046-.043.046-.043.046-.043.046-.043.046-.043.046-.043.046h-.085a.043.043,0,0,0-.043.046c-.043,0-.043,0-.085.046-.043,0-.043,0-.085.046h-.043V69.833h.043c.043,0,.043,0,.085.046.043,0,.043,0,.085.046a.043.043,0,0,1,.043.046h.085l.043.046.043.046.043.046.043.046.043.046.043.046.043.046v.091s0,.046.043.046c0,.046,0,.046.043.091,0,.046,0,.046.043.091v.73h0l17.017,10.494h0l.043-.046.043-.046.043-.046.043-.046h.085a.043.043,0,0,0,.043-.046c.043,0,.043,0,.085-.046.043,0,.043,0,.085-.046h.128Zm-37.105,23.179h.085c.043,0,.043,0,.085.046.043,0,.043,0,.085.046a.043.043,0,0,1,.043.046h.085l.043.046.043.046.043.046.043.046.043.046.043.046.043.046v.091s0,.046.043.046c0,.046,0,.046.043.091,0,.046,0,.046.043.091v.73h0l17.017,10.494h0l.043-.046.043-.046.043-.046.043-.046h.085a.043.043,0,0,0,.043-.046c.043,0,.043,0,.085-.046.043,0,.043,0,.085-.046h.64c.043,0,.043,0,.085.046.043,0,.043,0,.085.046a.043.043,0,0,1,.043.046h.085l.043.046.043.046.043.046.043.046h0L205.68,106.2h0v-.73c0-.046,0-.046.043-.091,0-.046,0-.046.043-.091,0,0,0-.046.043-.046v-.091l.043-.046.043-.046.043-.046.043-.046.043-.046.043-.046.043-.046h.085a.043.043,0,0,0,.043-.046c.043,0,.043,0,.085-.046.043,0,.043,0,.085-.046h.043V83.659H206.4c-.043,0-.043,0-.085-.046-.043,0-.043,0-.085-.046a.043.043,0,0,1-.043-.046h-.085l-.043-.046-.043-.046-.043-.046-.043-.046-.043-.046-.043-.046-.043-.046v-.091s0-.046-.043-.046c0-.046,0-.046-.043-.091,0-.046,0-.046-.043-.091v-.73h0L188.662,71.658h0l-.043.046-.043.046-.043.046-.043.046h-.085a.043.043,0,0,0-.043.046c-.043,0-.043,0-.085.046-.043,0-.043,0-.085.046h-.682c-.043,0-.043,0-.085-.046-.043,0-.043,0-.085-.046a.043.043,0,0,1-.043-.046h-.085l-.043-.046-.043-.046-.043-.046-.043-.046h0L170.024,82.153h0v.73c0,.046,0,.046-.043.091,0,.046,0,.046-.043.091,0,0,0,.046-.043.046V83.2l-.043.046-.043.046-.043.046-.043.046-.043.046-.043.046-.043.046h-.085a.043.043,0,0,0-.043.046c-.043,0-.043,0-.085.046-.043,0-.043,0-.085.046h-.043Zm-.426-23.179h.554c.043,0,.043,0,.085.046.043,0,.043,0,.085.046a.043.043,0,0,1,.043.046h.085l.043.046.043.046.043.046.043.046h0l17.017-10.494h0v-.73c0-.046,0-.046.043-.091,0-.046,0-.046.043-.091,0,0,0-.046.043-.046V70.29l.043-.046.043-.046.043-.046.043-.046.043-.046.043-.046.043-.046h.085a.043.043,0,0,0,.043-.046c.043,0,.043,0,.085-.046.043,0,.043,0,.085-.046h.043V48.8H187.6c-.043,0-.043,0-.085-.046-.043,0-.043,0-.085-.046a.043.043,0,0,1-.043-.046H187.3l-.043-.046-.043-.046-.043-.046-.043-.046-.043-.046-.043-.046L187,48.343v-.091s0-.046-.043-.046c0-.046,0-.046-.043-.091,0-.046,0-.046-.043-.091v-.73h0L169.854,36.8h0l-.043.046-.043.046-.043.046-.043.046H169.6a.043.043,0,0,0-.043.046c-.043,0-.043,0-.085.046-.043,0-.043,0-.085.046H168.7c-.043,0-.043,0-.085-.046-.043,0-.043,0-.085-.046a.043.043,0,0,1-.043-.046H168.4l-.043-.046-.043-.046-.043-.046-.043-.046h0L151.215,47.293h0v.73c0,.046,0,.046-.043.091,0,.046,0,.046-.043.091,0,0,0,.046-.043.046v.091l-.043.046-.043.046-.043.046-.043.046-.043.046-.043.046-.043.046H150.7a.043.043,0,0,0-.043.046c-.043,0-.043,0-.085.046-.043,0-.043,0-.085.046h-.043V69.833h.043c.043,0,.043,0,.085.046.043,0,.043,0,.085.046a.043.043,0,0,1,.043.046h.085l.043.046.043.046.043.046.043.046L151,70.2l.043.046.043.046v.091s0,.046.043.046c0,.046,0,.046.043.091,0,.046,0,.046.043.091v.73h0l17.017,10.494h0l.043-.046.043-.046.043-.046.043-.046h.085a.043.043,0,0,0,.043-.046c.043,0,.043,0,.085-.046.043,0,.043,0,.085-.046h.128Zm-37.105,23.179h.085c.043,0,.043,0,.085.046.043,0,.043,0,.085.046a.043.043,0,0,1,.043.046h.085l.043.046.043.046.043.046.043.046.043.046.043.046.043.046v.091s0,.046.043.046c0,.046,0,.046.043.091,0,.046,0,.046.043.091v.73h0l17.017,10.494h0l.043-.046.043-.046.043-.046.043-.046h.085a.043.043,0,0,0,.043-.046c.043,0,.043,0,.085-.046.043,0,.043,0,.085-.046h.6c.043,0,.043,0,.085.046.043,0,.043,0,.085.046a.043.043,0,0,1,.043.046h.085l.043.046.043.046.043.046.043.046h0L168.105,106.2h0v-.73c0-.046,0-.046.043-.091,0-.046,0-.046.043-.091,0,0,0-.046.043-.046v-.091l.043-.046.043-.046.043-.046.043-.046.043-.046.043-.046.043-.046h.085a.043.043,0,0,0,.043-.046c.043,0,.043,0,.085-.046.043,0,.043,0,.085-.046h.043V83.659h-.043c-.043,0-.043,0-.085-.046-.043,0-.043,0-.085-.046a.043.043,0,0,1-.043-.046h-.085l-.043-.046-.043-.046-.043-.046-.043-.046-.043-.046-.043-.046-.043-.046v-.091s0-.046-.043-.046c0-.046,0-.046-.043-.091,0-.046,0-.046-.043-.091v-.73h0L151.088,71.658h0l-.043.046L151,71.75l-.043.046-.043.046h-.085a.043.043,0,0,0-.043.046c-.043,0-.043,0-.085.046-.043,0-.043,0-.085.046h-.682c-.043,0-.043,0-.085-.046-.043,0-.043,0-.085-.046a.043.043,0,0,1-.043-.046h-.085l-.043-.046-.043-.046-.043-.046-.043-.046h0L132.45,82.153h0v.73c0,.046,0,.046-.043.091,0,.046,0,.046-.043.091,0,0,0,.046-.043.046V83.2l-.043.046-.043.046-.043.046-.043.046-.043.046-.043.046-.043.046h-.085a.043.043,0,0,0-.043.046c-.043,0-.043,0-.085.046-.043,0-.043,0-.085.046h-.043v21.034ZM112.959,69.925h0c.085,0,.085.046.128.046a.146.146,0,0,1,.085.046.043.043,0,0,1,.043.046h.043c.043,0,.043.046.085.091.043,0,.043.046.085.046l.085.091.085.091c0,.046.043.046.043.091s.043.046.043.091.043.046.043.091.043.046.043.091V71.2c0,.046,0,.091-.043.091v.046l17.017,10.494h0l.043-.046.043-.046.043-.046.043-.046H131a.043.043,0,0,0,.043-.046c.043,0,.043,0,.085-.046.043,0,.043,0,.085-.046h.682c.043,0,.043,0,.085.046.043,0,.043,0,.085.046a.043.043,0,0,1,.043.046h.085l.043.046.043.046.043.046.043.046h0l17.017-10.494h0v-.73c0-.046,0-.046.043-.091,0-.046,0-.046.043-.091,0,0,0-.046.043-.046V70.29l.043-.046.043-.046.043-.046.043-.046.043-.046.043-.046.043-.046h.085a.043.043,0,0,0,.043-.046c.043,0,.043,0,.085-.046.043,0,.043,0,.085-.046h.043V48.8h-.043c-.043,0-.043,0-.085-.046-.043,0-.043,0-.085-.046a.043.043,0,0,1-.043-.046h-.085l-.043-.046-.043-.046-.043-.046-.043-.046-.043-.046-.043-.046-.043-.046v-.091s0-.046-.043-.046c0-.046,0-.046-.043-.091,0-.046,0-.046-.043-.091v-.73h0L132.364,36.8h0l-.043.046-.043.046-.043.046-.043.046h-.085a.043.043,0,0,0-.043.046c-.043,0-.043,0-.085.046-.043,0-.043,0-.085.046h-.682c-.043,0-.043,0-.085-.046-.043,0-.043,0-.085-.046a.043.043,0,0,1-.043-.046h-.085l-.043-.046-.043-.046-.043-.046-.043-.046h0L113.726,47.293h0v.73c0,.046,0,.046-.043.091,0,.046,0,.046-.043.091,0,0,0,.046-.043.046v.091l-.043.046-.043.046-.043.046-.043.046-.043.046-.043.046-.043.046h-.085a.043.043,0,0,0-.043.046c-.043,0-.043,0-.085.046-.043,0-.043,0-.085.046h-.043Z" transform="translate(-104.654 4112.479)" opacity="0.304" fill="url(#linear-gradient-2)"/>
    </g>
  </g>
</svg>
