<svg xmlns="http://www.w3.org/2000/svg" width="24" height="24" viewBox="0 0 24 24">
  <g id="Icon" transform="translate(0 0.906)">
    <g id="Base" transform="translate(0 -0.906)" fill="#fff" stroke="#707070" stroke-width="1" opacity="0">
      <rect width="24" height="24" stroke="none"/>
      <rect x="0.5" y="0.5" width="23" height="23" fill="none"/>
    </g>
    <g id="phone_" data-name="phone " transform="translate(2 1.094)">
      <path id="Path_4845" data-name="Path 4845" d="M281.832,0a.391.391,0,1,0,0,.781,7.843,7.843,0,0,1,7.834,7.834.391.391,0,1,0,.781,0A8.625,8.625,0,0,0,281.832,0Zm0,0" transform="translate(-270.448)" fill="#fff"/>
      <path id="Path_4846" data-name="Path 4846" d="M287.707,66.813a.391.391,0,0,0,.391-.391,6.273,6.273,0,0,0-6.266-6.266.391.391,0,0,0,0,.781,5.491,5.491,0,0,1,5.484,5.485A.391.391,0,0,0,287.707,66.813Zm0,0" transform="translate(-270.448 -57.806)" fill="#fff"/>
      <path id="Path_4847" data-name="Path 4847" d="M284.966,124.244a.391.391,0,1,0,.781,0,3.92,3.92,0,0,0-3.915-3.915.391.391,0,1,0,0,.781A3.138,3.138,0,0,1,284.966,124.244Zm0,0" transform="translate(-270.448 -115.628)" fill="#fff"/>
      <path id="Path_4848" data-name="Path 4848" d="M281.441,180.875a.391.391,0,0,0,.391.39.785.785,0,0,1,.784.784.391.391,0,1,0,.781,0,1.567,1.567,0,0,0-1.566-1.566A.391.391,0,0,0,281.441,180.875Zm0,0" transform="translate(-270.448 -173.434)" fill="#fff"/>
      <path id="Path_4849" data-name="Path 4849" d="M168.215,315.07a.391.391,0,1,1-.391-.391A.391.391,0,0,1,168.215,315.07Zm0,0" transform="translate(-160.893 -302.388)" fill="#fff"/>
      <path id="Path_4850" data-name="Path 4850" d="M10.7,88.768a4.644,4.644,0,0,0,5.325-.9l.808-.808a1.121,1.121,0,0,0,0-1.586l-3.121-3.12a1.12,1.12,0,0,0-1.586,0L10.8,83.682a.773.773,0,0,1-.953.126,14.653,14.653,0,0,1-1.378-1,.391.391,0,0,0-.495.6A15.4,15.4,0,0,0,9.43,84.467a1.558,1.558,0,0,0,1.926-.232l1.326-1.326a.339.339,0,0,1,.481,0l3.121,3.121a.34.34,0,0,1,0,.481l-.808.808a3.862,3.862,0,0,1-4.429.748A21.645,21.645,0,0,1,1.172,78.14a3.834,3.834,0,0,1,.75-4.412l.79-.79a.339.339,0,0,1,.48,0l3.121,3.121a.339.339,0,0,1,0,.481L4.987,77.866a1.558,1.558,0,0,0-.232,1.926c.225.353.468.7.722,1.034a.391.391,0,1,0,.621-.473c-.241-.316-.471-.647-.685-.981a.773.773,0,0,1,.126-.953l1.326-1.326a1.12,1.12,0,0,0,0-1.586L3.745,72.386a1.12,1.12,0,0,0-1.586,0l-.79.79a4.614,4.614,0,0,0-.9,5.311A22.421,22.421,0,0,0,10.7,88.768Zm0,0" transform="translate(0.001 -69.242)" fill="#fff"/>
    </g>
  </g>
</svg>
