<svg xmlns="http://www.w3.org/2000/svg" xmlns:xlink="http://www.w3.org/1999/xlink" width="277.837" height="251.761" viewBox="0 0 277.837 251.761">
  <defs>
    <linearGradient id="linear-gradient" x1="0.596" y1="0.5" x2="0.412" y2="0.474" gradientUnits="objectBoundingBox">
      <stop offset="0" stop-color="#0090f0"/>
      <stop offset="0" stop-color="#006ab1"/>
      <stop offset="1" stop-color="#004878"/>
    </linearGradient>
  </defs>
  <path id="Path_4917" data-name="Path 4917" d="M369.191,90.128c-.663.4.4-.805.6-.134l1.325-.872h0l-.066-.067-.066-.067-.066-.067-.066-.067h-.133a.065.065,0,0,1-.066-.067c-.066,0-.066,0-.132-.067-.066,0-.066,0-.133-.067h-1.06c-.066,0-.066,0-.133.067-.066,0-.066,0-.133.067a.065.065,0,0,0-.066.067h-.133l-.066.067-.066.067-.066.067-.066.067h0L342.157,73.684h0V72.61c0-.067,0-.067-.066-.134,0-.067,0-.067-.066-.134a.066.066,0,0,0-.066-.067V72.14l-.066-.067-.066-.067-.066-.067-.066-.067-.066-.067-.066-.067-.066-.067h-.133a.065.065,0,0,1-.066-.067c-.066,0-.066,0-.132-.067-.066,0-.066,0-.133-.067h-.066V40.727h.066c.066,0,.066,0,.133-.067.066,0,.066,0,.132-.067a.065.065,0,0,0,.066-.067h.133l.066-.067.066-.067.066-.067.066-.067.066-.067.066-.067.066-.067v-.134a.066.066,0,0,1,.066-.067c0-.067,0-.067.066-.134,0-.067,0-.067.066-.134V38.512h0l26.437-15.438a1.7,1.7,0,0,0,1.988.336,1.591,1.591,0,0,0,.6-2.215,1.549,1.549,0,0,0-2.186-.6,1.673,1.673,0,0,0-.729,1.879L341.826,37.908h0l-.066-.067-.066-.067-.066-.067-.066-.067h-.133a.065.065,0,0,1-.066-.067c-.066,0-.066,0-.133-.067-.066,0-.066,0-.133-.067h-1.06c-.066,0-.066,0-.133.067-.066,0-.066,0-.133.067a.065.065,0,0,0-.066.067h-.132l-.066.067-.066.067-.066.067-.066.067h0L312.871,22.47h0V21.4c0-.067,0-.067-.066-.134,0-.067,0-.067-.066-.134a.065.065,0,0,0-.066-.067v-.134l-.066-.067-.066-.067-.066-.067-.066-.067-.066-.067-.066-.067-.066-.067h-.132a.065.065,0,0,1-.066-.067c-.066,0-.066,0-.132-.067-.066,0-.066,0-.132-.067h-.066V-10.42h.066c.066,0,.066,0,.132-.067.066,0,.066,0,.132-.067a.065.065,0,0,0,.066-.067h.132l.066-.067.066-.067.066-.067.066-.067.066-.067.066-.067.066-.067v-.134a.065.065,0,0,1,.066-.067c0-.067,0-.067.066-.134,0-.067,0-.067.066-.134v-1.074h0l26.437-15.438h0l.066.067.066.067.066.067.066.067h.132a.065.065,0,0,1,.066.067c.066,0,.066,0,.133.067.066,0,.066,0,.133.067h1.06c.066,0,.066,0,.133-.067.066,0,.066,0,.133-.067a.065.065,0,0,0,.066-.067h.133l.066-.067.066-.067.066-.067.066-.067h0l26.437,15.438a1.639,1.639,0,0,0,.729,1.879,1.549,1.549,0,0,0,2.186-.6,1.591,1.591,0,0,0-.6-2.215,1.525,1.525,0,0,0-1.988.336L342.157-28.677h0v-1.074c0-.067,0-.067-.066-.134,0-.067,0-.067-.066-.134a.066.066,0,0,0-.066-.067v-.134l-.066-.067-.066-.067-.066-.067-.066-.067-.066-.067-.066-.067-.066-.067h-.133a.065.065,0,0,1-.066-.067.2.2,0,0,1-.132-.067c-.066,0-.066,0-.133-.067h-1.06c-.066,0-.066,0-.133.067-.066,0-.066,0-.133.067a.065.065,0,0,0-.066.067h-.133l-.066.067-.066.067-.066.067-.066.067-.066.067-.066.067-.066.067v.134a.065.065,0,0,1-.066.067c0,.067,0,.067-.066.134,0,.067,0,.067-.066.134v1.074h0L312.407-13.239h0l-.066-.067-.066-.067-.066-.067-.066-.067h-.133a.065.065,0,0,1-.066-.067c-.066,0-.066,0-.133-.067-.066,0-.066,0-.133-.067h-1.06c-.066,0-.066,0-.133.067-.066,0-.066,0-.132.067a.065.065,0,0,0-.066.067h-.133l-.066.067-.066.067-.066.067-.066.067h0L283.451-28.677h0v-1.074c0-.067,0-.067-.066-.134,0-.067,0-.067-.066-.134a.065.065,0,0,0-.066-.067v-.134l-.066-.067-.066-.067-.066-.067-.066-.067-.066-.067-.066-.067-.066-.067h-.132a.065.065,0,0,1-.066-.067c-.066,0-.066,0-.132-.067-.066,0-.066,0-.133-.067h-.066l-.132-9.933h-.265l-.332,9.933h-.066c-.066,0-.066,0-.133.067-.066,0-.066,0-.133.067a.065.065,0,0,0-.066.067H281l-.066.067-.066.067-.066.067-.066.067-.066.067-.066.067-.066.067v.134a.065.065,0,0,1-.066.067c0,.067,0,.067-.066.134,0,.067,0,.067-.066.134v1.074h0L253.9-13.239h0l-.066-.067-.066-.067-.066-.067-.066-.067H253.5a.065.065,0,0,1-.066-.067c-.066,0-.066,0-.133-.067-.066,0-.066,0-.133-.067h-1.06c-.066,0-.066,0-.133.067-.066,0-.066,0-.133.067a.065.065,0,0,0-.066.067h-.133l-.066.067-.066.067-.066.067-.066.067h0L224.944-28.677h0v-1.074c0-.067,0-.067-.066-.134,0-.067,0-.067-.066-.134a.065.065,0,0,0-.066-.067v-.134l-.066-.067-.066-.067-.066-.067-.066-.067-.066-.067-.066-.067-.066-.067h-.133a.065.065,0,0,1-.066-.067.2.2,0,0,1-.133-.067c-.066,0-.066,0-.133-.067h-.066l-.132-10.437h-.464l-.133,10.437h-.066c-.066,0-.066,0-.133.067-.066,0-.066,0-.133.067a.065.065,0,0,0-.066.067h-.133l-.066.067-.066.067-.066.067-.066.067-.066.067-.066.067-.066.067v.134a.065.065,0,0,1-.066.067c0,.067,0,.067-.066.134,0,.067,0,.067-.066.134v1.074h0L195.392-13.239h0l-.066-.067-.066-.067-.066-.067-.066-.067h-.133a.065.065,0,0,1-.066-.067c-.066,0-.066,0-.133-.067-.066,0-.066,0-.132-.067H193.6c-.066,0-.066,0-.133.067-.066,0-.066,0-.132.067a.065.065,0,0,0-.066.067h-.133l-.066.067-.066.067-.066.067-.066.067h0L166.437-28.677a1.638,1.638,0,0,0-.729-1.879,1.549,1.549,0,0,0-2.187.6,1.591,1.591,0,0,0,.6,2.215,1.525,1.525,0,0,0,1.988-.336l26.437,15.438h0v1.074c0,.067,0,.067.066.134,0,.067,0,.067.066.134a.065.065,0,0,0,.066.067v.134l.066.067.066.067.066.067.066.067.066.067.066.067.066.067h.133a.065.065,0,0,1,.066.067.2.2,0,0,1,.133.067c.066,0,.066,0,.133.067h.066V20.523h0c-.066,0-.066,0-.133.067-.066,0-.066,0-.133.067-.066,0-.066.067-.133.067s-.066.067-.132.067-.066.067-.133.134l-.132.134c-.066.067-.066.067-.066.134l-.132.134V21.4a.066.066,0,0,1-.066.067.235.235,0,0,1-.066.134c0,.067,0,.067-.066.134,0,.067,0,.134-.066.134v.671c0,.067,0,.067.066.134a.235.235,0,0,0,.066.134c0,.067.066.067.066.134s.066.067.066.134.066.067.132.134l.133.134c.066.067.066.067.133.067l.133.134h.066a.065.065,0,0,1,.066.067.23.23,0,0,1,.133.067c.066,0,.066,0,.133.067.066,0,.133,0,.133.067h.663c.066,0,.066,0,.133-.067a.231.231,0,0,0,.133-.067c.066,0,.066-.067.132-.067s.066-.067.133-.067.066-.067.133-.067l.132-.134h0L221.7,38.78h0v1.074c0,.067,0,.067.066.134,0,.067,0,.067.066.134a.065.065,0,0,0,.066.067v.134l.066.067.066.067.066.067.066.067.066.067.066.067.066.067h.133a.065.065,0,0,1,.066.067c.066,0,.066,0,.133.067.066,0,.066,0,.132.067h.066V71.939h-.066c-.066,0-.066,0-.132.067-.066,0-.066,0-.133.067a.065.065,0,0,0-.066.067h-.133l-.066.067-.066.067-.066.067-.066.067-.066.067-.066.067-.066.067v.134a.065.065,0,0,1-.066.067c0,.067,0,.067-.066.134,0,.067,0,.067-.066.134v1.074h0L195.26,89.592h0l-.066-.067-.066-.067-.066-.067-.066-.067h-.133a.065.065,0,0,1-.066-.067c-.066,0-.066,0-.133-.067-.066,0-.066,0-.133-.067h-1.06c-.066,0-.066,0-.132.067-.066,0-.066,0-.133.067a.065.065,0,0,0-.066.067h-.133l-.066.067-.066.067-.066.067-.066.067h0L166.3,74.154a1.639,1.639,0,0,0-.729-1.879,1.549,1.549,0,0,0-2.187.6,1.591,1.591,0,0,0,.6,2.215,1.525,1.525,0,0,0,1.988-.336L192.411,90.2h0V91.27c0,.067,0,.067.066.134,0,.067,0,.067.066.134a.065.065,0,0,0,.066.067v.134l.066.067.066.067.066.067.066.067.066.067.066.067.066.067h.133a.065.065,0,0,1,.066.067c.066,0,.066,0,.133.067.066,0,.066,0,.133.067h.066v30.943h-.066c-.066,0-.066,0-.133.067-.066,0-.066,0-.133.067a.065.065,0,0,0-.066.067h-.133l-.066.067-.066.067-.066.067-.066.067-.066.067-.066.067-.066.067v.134a.065.065,0,0,1-.066.067c0,.067,0,.067-.066.134,0,.067,0,.067-.066.134v1.074h0l-26.437,15.438h0l-.066-.067-.066-.067-.066-.067-.066-.067h-.132a.065.065,0,0,1-.066-.067c-.066,0-.066,0-.133-.067-.066,0-.066,0-.132-.067h-1.06c-.066,0-.066,0-.133.067-.066,0-.066,0-.132.067a.065.065,0,0,0-.066.067h-.133l-.066.067-.066.067-.066.067-.066.067h0l-26.437-15.438a1.639,1.639,0,0,0-.729-1.879,1.549,1.549,0,0,0-2.187.6,1.591,1.591,0,0,0,.6,2.215,1.525,1.525,0,0,0,1.988-.336l26.437,15.438h0v1.074c0,.067,0,.067.066.134,0,.067,0,.067.066.134a.066.066,0,0,0,.066.067v.134l.066.067.066.067.066.067.066.067.066.067.066.067.066.067h.133a.065.065,0,0,1,.066.067c.066,0,.066,0,.132.067.066,0,.066,0,.133.067h.066V174.77h-.066c-.066,0-.066,0-.133.067-.066,0-.066,0-.132.067a.065.065,0,0,0-.066.067h-.133l-.066.067-.066.067-.066.067-.066.067-.066.067-.066.067-.066.067v.134a.066.066,0,0,1-.066.067c0,.067,0,.067-.066.134,0,.067,0,.067-.066.134v1.074h0l-26.437,15.438h0l-.066-.067-.066-.067-.066-.067-.066-.067h-.133a.065.065,0,0,1-.066-.067c-.066,0-.066,0-.133-.067-.066,0-.066,0-.133-.067h-.994c-.066,0-.066,0-.133.067-.066,0-.066,0-.132.067a.065.065,0,0,0-.066.067H134.5l-.066.067-.066.067-.066.067-.066.067h0L107.8,176.985a1.639,1.639,0,0,0-.729-1.879,1.549,1.549,0,0,0-2.187.6,1.59,1.59,0,0,0,.6,2.215,1.525,1.525,0,0,0,1.988-.336L133.9,193.027h0v1.007c0,.067,0,.067.066.134,0,.067,0,.067.066.134a.065.065,0,0,0,.066.067v.134l.066.067.066.067.066.067.066.067.066.067.066.067.066.067h.133a.065.065,0,0,1,.066.067c.066,0,.066,0,.133.067.066,0,.066,0,.132.067h.066l.066,15.031h.729l-.066-16.106h.066c.066,0,.066,0,.133-.067.066,0,.066,0,.133-.067a.065.065,0,0,0,.066-.067h.133l.066-.067.066-.067.066-.067.066-.067.066-.067.066-.067.066-.067V193.3a.065.065,0,0,1,.066-.067c0-.067,0-.067.066-.134,0-.067,0-.067.066-.134v-1.074h0l26.437-15.438h0l.066.067.066.067.066.067.066.067h.133a.065.065,0,0,1,.066.067c.066,0,.066,0,.133.067.066,0,.066,0,.132.067h1.06c.066,0,.066,0,.133-.067.066,0,.066,0,.133-.067a.065.065,0,0,0,.066-.067h.133l.066-.067.066-.067.066-.067.066-.067h0l26.437,15.438h0v1.074c0,.067,0,.067.066.134,0,.067,0,.067.066.134a.065.065,0,0,0,.066.067v.134l.066.067.066.067.066.067.066.067.066.067.066.067.066.067h.132a.065.065,0,0,1,.066.067c.066,0,.066,0,.133.067.066,0,.066,0,.133.067h.066l.133,16.265h.8l-.2-16.265h.066c.066,0,.066,0,.132-.067.066,0,.066,0,.133-.067a.065.065,0,0,0,.066-.067h.133l.066-.067.066-.067.066-.067.066-.067.066-.067.066-.067.066-.067V193.3a.065.065,0,0,1,.066-.067c0-.067,0-.067.066-.134,0-.067,0-.067.066-.134v-1.074h0l26.437-15.438h0l.066.067.066.067.066.067.066.067h.132a.065.065,0,0,1,.066.067c.066,0,.066,0,.133.067.066,0,.066,0,.133.067h1.06c.066,0,.066,0,.133-.067.066,0,.066,0,.133-.067a.065.065,0,0,0,.066-.067h.133l.066-.067.066-.067.066-.067.066-.067h0l26.437,15.438h0v1.074c0,.067,0,.067.066.134,0,.067,0,.067.066.134a.065.065,0,0,0,.066.067v.134l.066.067.066.067.066.067.066.067.066.067.066.067.066.067h.133a.065.065,0,0,1,.066.067c.066,0,.066,0,.132.067.066,0,.066,0,.133.067h.066l-.066,16.331h.861l-.066-16.331h.066c.066,0,.066,0,.133-.067.066,0,.066,0,.133-.067a.065.065,0,0,0,.066-.067h.133l.066-.067.066-.067.066-.067.066-.067.066-.067.066-.067.066-.067V193.3a.065.065,0,0,1,.066-.067c0-.067,0-.067.066-.134,0-.067,0-.067.066-.134v-1.074h0l26.437-15.438h0l.066.067.066.067.066.067.066.067h.133a.065.065,0,0,1,.066.067c.066,0,.066,0,.132.067.066,0,.066,0,.133.067h1.06c.066,0,.066,0,.133-.067.066,0,.066,0,.133-.067a.065.065,0,0,0,.066-.067h.133l.066-.067.066-.067.066-.067.066-.067h0l26.437,15.438h0v1.074c0,.067,0,.067.066.134,0,.067,0,.067.066.134a.065.065,0,0,0,.066.067v.134l.066.067.066.067.066.067.066.067.066.067.066.067.066.067h.133a.065.065,0,0,1,.066.067c.066,0,.066,0,.133.067.066,0,.066,0,.133.067h.066l-.059,16.227h.589l.2-16.227h.066c.066,0,.066,0,.133-.067.066,0,.066,0,.132-.067a.065.065,0,0,0,.066-.067h.132l.066-.067.066-.067.066-.067.066-.067.066-.067.066-.067.066-.067V193.3a.065.065,0,0,1,.066-.067c0-.067,0-.067.066-.134,0-.067,0-.067.066-.134v-1.074h0l26.438-15.438h0l.066.067.066.067.066.067.066.067h.133a.065.065,0,0,1,.066.067c.066,0,.066,0,.133.067.066,0,.066,0,.132.067h1.06c.066,0,.066,0,.133-.067.066,0,.066,0,.133-.067a.065.065,0,0,0,.066-.067h.132l.066-.067.066-.067.066-.067.066-.067h0l26.437,15.438a1.639,1.639,0,0,0,.729,1.879,1.549,1.549,0,0,0,2.187-.6,1.591,1.591,0,0,0-.6-2.215,1.525,1.525,0,0,0-1.988.336l-26.437-15.438h0v-1.074c0-.067,0-.067-.066-.134,0-.067,0-.067-.066-.134a.066.066,0,0,0-.066-.067V174.3l-.066-.067-.066-.067-.066-.067-.066-.067-.066-.067-.066-.067-.066-.067h-.133a.065.065,0,0,1-.066-.067c-.066,0-.066,0-.133-.067-.066,0-.066,0-.132-.067h-.066V142.685h.066c.066,0,.066,0,.132-.067.066,0,.066,0,.133-.067a.065.065,0,0,0,.066-.067h.133l.066-.067.066-.067.066-.067.066-.067.066-.067.066-.067.066-.067v-.134a.065.065,0,0,1,.066-.067c0-.067,0-.067.066-.134,0-.067,0-.067.066-.134V140.47h0l26.437-15.438h0l.133.134c.066.067.066.067.133.067s.066.067.133.067.066.067.133.067.066.067.132.067.066.067.133.067h.663c.066,0,.133,0,.133-.067.066,0,.066,0,.132-.067a.23.23,0,0,0,.133-.067.065.065,0,0,0,.066-.067h.066c.066,0,.066-.067.132-.134.066,0,.066-.067.133-.067l.133-.134c.066-.067.066-.067.066-.134s.066-.067.066-.134.066-.067.066-.134.066-.067.066-.134.066-.067.066-.134v-.671c0-.067,0-.134-.066-.134,0-.067,0-.067-.066-.134a.235.235,0,0,0-.066-.134.065.065,0,0,0-.066-.067v-.067c0-.067-.066-.067-.133-.134,0-.067-.066-.067-.066-.134l-.133-.134-.132-.134c-.066,0-.066-.067-.133-.067s-.066-.067-.133-.067-.066-.067-.132-.067-.066-.067-.133-.067h0V91.269h.066c.066,0,.066,0,.133-.067.066,0,.066,0,.133-.067a.065.065,0,0,0,.066-.067h.133l.066-.067.066-.067.066-.067.066-.067.066-.067.066-.067.066-.067v-.134a.065.065,0,0,1,.066-.067c0-.067,0-.067.066-.134,0-.067,0-.067.066-.134V89.054h0c26.967-14.9-1.723.94-1.06.6C371.113,89.86,369.986,89.658,369.191,90.128Zm-57.712-66.45h.729c.066,0,.066,0,.133-.067.066,0,.066,0,.133-.067a.065.065,0,0,0,.066-.067h.132l.066-.067.066-.067.066-.067.066-.067h0l26.437,15.438h0V39.72c0,.067,0,.067.066.134,0,.067,0,.067.066.134a.065.065,0,0,0,.066.067v.134l.066.067.066.067.066.067.066.067.066.067.066.067.066.067h.132a.065.065,0,0,1,.066.067c.066,0,.066,0,.133.067.066,0,.066,0,.133.067h.066V71.8H340.5c-.066,0-.066,0-.133.067-.066,0-.066,0-.133.067a.065.065,0,0,0-.066.067h-.132l-.066.067-.066.067-.066.067-.066.067-.066.067-.066.067-.066.067v.134a.065.065,0,0,1-.066.067c0,.067,0,.067-.066.134,0,.067,0,.067-.066.134v1.074h0L312.937,89.457h0l-.066-.067-.066-.067-.066-.067-.066-.067h-.132a.065.065,0,0,1-.066-.067c-.066,0-.066,0-.133-.067-.066,0-.066,0-.133-.067h-1.06c-.066,0-.066,0-.133.067-.066,0-.066,0-.133.067a.065.065,0,0,0-.066.067h-.133l-.066.067-.066.067-.066.067-.066.067h0L283.982,74.019h0V72.945c0-.067,0-.067-.066-.134,0-.067,0-.067-.066-.134a.065.065,0,0,0-.066-.067v-.134l-.066-.067-.066-.067-.066-.067-.066-.067-.066-.067-.066-.067-.066-.067h-.133a.065.065,0,0,1-.066-.067c-.066,0-.066,0-.133-.067-.066,0-.066,0-.133-.067h-.066V40.727h.066c.066,0,.066,0,.133-.067.066,0,.066,0,.133-.067a.065.065,0,0,0,.066-.067h.133l.066-.067.066-.067.066-.067.066-.067.066-.067.066-.067.066-.067v-.134a.065.065,0,0,1,.066-.067c0-.067,0-.067.066-.134,0-.067,0-.067.066-.134V38.512h0l26.437-15.438h0l.066.067.066.067.066.067.066.067h.133a.065.065,0,0,1,.066.067c.066,0,.066,0,.133.067.066,0,.066,0,.133.067h.2C311.413,23.678,311.479,23.678,311.479,23.678ZM253.7-10.42h.133c.066,0,.066,0,.133-.067.066,0,.066,0,.132-.067a.065.065,0,0,0,.066-.067h.133l.066-.067.066-.067.066-.067.066-.067.066-.067.066-.067.066-.067v-.134a.065.065,0,0,1,.066-.067c0-.067,0-.067.066-.134,0-.067,0-.067.066-.134v-1.074h0L281.4-28.073h0l.066.067.066.067.066.067.066.067h.133a.065.065,0,0,1,.066.067c.066,0,.066,0,.133.067.066,0,.066,0,.133.067h1.06c.066,0,.066,0,.133-.067.066,0,.066,0,.132-.067a.065.065,0,0,0,.066-.067h.133l.066-.067.066-.067.066-.067.066-.067h0l26.437,15.438h0v1.074c0,.067,0,.067.066.134,0,.067,0,.067.066.134a.065.065,0,0,0,.066.067v.134l.066.067.066.067.066.067.066.067.066.067.066.067.066.067h.133a.065.065,0,0,1,.066.067.2.2,0,0,1,.132.067c.066,0,.066,0,.133.067h.066V20.523h-.066c-.066,0-.066,0-.133.067-.066,0-.066,0-.132.067a.065.065,0,0,0-.066.067h-.133l-.066.067-.066.067-.066.067-.066.067-.066.067-.066.067-.066.067v.134a.065.065,0,0,1-.066.067c0,.067,0,.067-.066.134,0,.067,0,.067-.066.134v1.074h0L283.916,38.176h0l-.066-.067-.066-.067-.066-.067-.066-.067h-.133a.065.065,0,0,1-.066-.067c-.066,0-.066,0-.132-.067-.066,0-.066,0-.133-.067h-1.06c-.066,0-.066,0-.133.067-.066,0-.066,0-.133.067a.065.065,0,0,0-.066.067h-.133l-.066.067-.066.067-.066.067-.066.067h0L254.96,22.738h0V21.664c0-.067,0-.067-.066-.134,0-.067,0-.067-.066-.134a.065.065,0,0,0-.066-.067v-.134l-.066-.067-.066-.067-.066-.067-.066-.067-.066-.067-.066-.067-.066-.067h-.133a.065.065,0,0,1-.066-.067c-.066,0-.066,0-.132-.067-.066,0-.066,0-.133-.067h-.066V-10.42Zm-.464,34.1h.729c.066,0,.066,0,.132-.067.066,0,.066,0,.133-.067a.065.065,0,0,0,.066-.067h.133l.066-.067.066-.067.066-.067.066-.067h0l26.437,15.438h0V39.72c0,.067,0,.067.066.134,0,.067,0,.067.066.134a.065.065,0,0,0,.066.067v.134l.066.067.066.067.066.067.066.067.066.067.066.067.066.067h.133a.065.065,0,0,1,.066.067c.066,0,.066,0,.133.067.066,0,.066,0,.133.067h.066V71.8h-.066c-.066,0-.066,0-.133.067-.066,0-.066,0-.133.067a.065.065,0,0,0-.066.067H281.8l-.066.067-.066.067-.066.067-.066.067-.066.067-.066.067-.066.067v.134a.065.065,0,0,1-.066.067c0,.067,0,.067-.066.134,0,.067,0,.067-.066.134v1.074h0L254.7,89.457h0l-.066-.067-.066-.067-.066-.067-.066-.067H254.3a.065.065,0,0,1-.066-.067c-.066,0-.066,0-.133-.067-.066,0-.066,0-.132-.067h-1.06c-.066,0-.066,0-.133.067-.066,0-.066,0-.133.067a.065.065,0,0,0-.066.067h-.133l-.066.067-.066.067-.066.067-.066.067h0L225.74,74.019h0V72.945c0-.067,0-.067-.066-.134,0-.067,0-.067-.066-.134a.065.065,0,0,0-.066-.067v-.134l-.066-.067-.066-.067-.066-.067-.066-.067-.066-.067-.066-.067-.066-.067h-.133a.065.065,0,0,1-.066-.067c-.066,0-.066,0-.133-.067-.066,0-.066,0-.133-.067h-.066V40.727h.066c.066,0,.066,0,.133-.067.066,0,.066,0,.133-.067a.065.065,0,0,0,.066-.067h.133l.066-.067.066-.067.066-.067.066-.067.066-.067.066-.067.066-.067v-.134a.065.065,0,0,1,.066-.067c0-.067,0-.067.066-.134,0-.067,0-.067.066-.134V38.512h0l26.437-15.438h0l.066.067.066.067.066.067.066.067h.133a.065.065,0,0,1,.066.067c.066,0,.066,0,.133.067.066,0,.066,0,.133.067h.2C253.171,23.678,253.171,23.678,253.238,23.678ZM223.885,37.572h-.066c-.066,0-.066,0-.133.067-.066,0-.066,0-.133.067a.065.065,0,0,0-.066.067h-.133l-.066.067-.066.067-.066.067-.066.067h0L196.652,22.6v-.067c0-.067,0-.134.066-.134v-.671c0-.067,0-.067-.066-.134a.235.235,0,0,0-.066-.134c0-.067-.066-.067-.066-.134s-.066-.067-.066-.134-.066-.067-.066-.134l-.133-.134c-.066-.067-.066-.067-.133-.067l-.133-.134h-.066a.065.065,0,0,1-.066-.067.23.23,0,0,1-.132-.067c-.066,0-.066,0-.133-.067h-.066V-10.42h.066c.066,0,.066,0,.133-.067.066,0,.066,0,.132-.067a.065.065,0,0,0,.066-.067h.133l.066-.067.066-.067.066-.067.066-.067.066-.067.066-.067.066-.067v-.134a.065.065,0,0,1,.066-.067c0-.067,0-.067.066-.134,0-.067,0-.067.066-.134v-1.074h0l26.437-15.438h0l.066.067.066.067.066.067.066.067h.133a.065.065,0,0,1,.066.067c.066,0,.066,0,.133.067.066,0,.066,0,.133.067h1.06c.066,0,.066,0,.132-.067.066,0,.066,0,.133-.067a.065.065,0,0,0,.066-.067h.133l.066-.067.066-.067.066-.067.066-.067h0l26.437,15.438h0v1.074c0,.067,0,.067.066.134,0,.067,0,.067.066.134a.065.065,0,0,0,.066.067v.134l.066.067.066.067.066.067.066.067.066.067.066.067.066.067h.133a.065.065,0,0,1,.066.067.2.2,0,0,1,.133.067c.066,0,.066,0,.132.067h.066V20.523h-.066c-.066,0-.066,0-.132.067-.066,0-.066,0-.133.067a.065.065,0,0,0-.066.067h-.133l-.066.067-.066.067-.066.067-.066.067-.066.067-.066.067-.066.067v.134a.065.065,0,0,1-.066.067c0,.067,0,.067-.066.134,0,.067,0,.067-.066.134v1.074h0L225.674,38.176h0l-.066-.067-.066-.067-.066-.067-.066-.067h-.133a.065.065,0,0,1-.066-.067c-.066,0-.066,0-.133-.067-.066,0-.066,0-.132-.067h-.861C223.951,37.572,223.885,37.572,223.885,37.572Zm0,136.325h-.133c-.066,0-.066,0-.133.067-.066,0-.066,0-.133.067a.065.065,0,0,0-.066.067h-.133l-.066.067-.066.067-.066.067-.066.067-.066.067-.066.067-.066.067v.134a.065.065,0,0,1-.066.067c0,.067,0,.067-.066.134,0,.067,0,.067-.066.134v1.074h0L196.188,191.55h0l-.066-.067-.066-.067-.066-.067-.066-.067h-.133a.065.065,0,0,1-.066-.067c-.066,0-.066,0-.132-.067-.066,0-.066,0-.133-.067h-.994c-.066,0-.066,0-.133.067-.066,0-.066,0-.133.067a.065.065,0,0,0-.066.067H194l-.066.067-.066.067-.066.067-.066.067h0L167.3,176.112h0v-1.074c0-.067,0-.067-.066-.134,0-.067,0-.067-.066-.134a.065.065,0,0,0-.066-.067v-.134l-.066-.067-.066-.067-.066-.067-.066-.067-.066-.067-.066-.067-.066-.067H166.5a.065.065,0,0,1-.066-.067c-.066,0-.066,0-.133-.067-.066,0-.066,0-.132-.067h-.066V142.954h.066c.066,0,.066,0,.132-.067.066,0,.066,0,.133-.067a.065.065,0,0,0,.066-.067h.133l.066-.067.066-.067.066-.067.066-.067.066-.067.066-.067.066-.067v-.134a.065.065,0,0,1,.066-.067c0-.067,0-.067.066-.134,0-.067,0-.067.066-.134v-1.074h0L193.737,125.3h0l.066.067.066.067.066.067.066.067h.133a.065.065,0,0,1,.066.067c.066,0,.066,0,.133.067.066,0,.066,0,.133.067h1.06c.066,0,.066,0,.132-.067.066,0,.066,0,.133-.067a.065.065,0,0,0,.066-.067h.133l.066-.067.066-.067.066-.067.066-.067h0l26.437,15.438h0v1.074c0,.067,0,.067.066.134,0,.067,0,.067.066.134a.065.065,0,0,0,.066.067v.134l.066.067.066.067.066.067.066.067.066.067.066.067.066.067h.133a.065.065,0,0,1,.066.067c.066,0,.066,0,.133.067.066,0,.066,0,.132.067h.066Zm.6-34.1h-.861c-.066,0-.066,0-.133.067-.066,0-.066,0-.133.067a.065.065,0,0,0-.066.067h-.133l-.066.067-.066.067-.066.067-.066.067h0l-26.437-15.438h0v-1.074c0-.067,0-.067-.066-.134,0-.067,0-.067-.066-.134a.065.065,0,0,0-.066-.067v-.134l-.066-.067-.066-.067-.066-.067-.066-.067-.066-.067-.066-.067-.066-.067h-.132a.065.065,0,0,1-.066-.067c-.066,0-.066,0-.132-.067-.066,0-.066,0-.133-.067h-.066V91.672h.066c.066,0,.066,0,.133-.067.066,0,.066,0,.132-.067a.065.065,0,0,0,.066-.067h.132l.066-.067.066-.067.066-.067.066-.067.066-.067.066-.067.066-.067v-.134a.065.065,0,0,1,.066-.067c0-.067,0-.067.066-.134,0-.067,0-.067.066-.134V89.457h0l26.437-15.438h0l.066.067.066.067.066.067.066.067h.133a.065.065,0,0,1,.066.067c.066,0,.066,0,.133.067.066,0,.066,0,.133.067h1.06c.066,0,.066,0,.133-.067.066,0,.066,0,.133-.067a.065.065,0,0,0,.066-.067h.133l.066-.067.066-.067.066-.067.066-.067h0l26.437,15.438h0v1.074c0,.067,0,.067.066.134,0,.067,0,.067.066.134a.065.065,0,0,0,.066.067V91l.066.067.066.067.066.067.066.067.066.067.066.067.066.067h.133a.065.065,0,0,1,.066.067c.066,0,.066,0,.133.067.066,0,.066,0,.133.067h.066v30.943h-.066c-.066,0-.066,0-.133.067-.066,0-.066,0-.133.067a.065.065,0,0,0-.066.067h-.133l-.066.067-.066.067-.066.067-.066.067-.066.067-.066.067-.066.067v.134a.065.065,0,0,1-.066.067c0,.067,0,.067-.066.134,0,.067,0,.067-.066.134v1.074h0l-26.437,15.438h0l-.066-.067-.066-.067-.066-.067-.066-.067h-.133a.065.065,0,0,1-.066-.067c-.066,0-.066,0-.133-.067-.066,0-.066,0-.133-.067h-.2Zm57.646,34.1h-.133c-.066,0-.066,0-.132.067-.066,0-.066,0-.133.067a.065.065,0,0,0-.066.067h-.133l-.066.067-.066.067-.066.067-.066.067-.066.067-.066.067-.066.067v.134a.065.065,0,0,1-.066.067c0,.067,0,.067-.066.134,0,.067,0,.067-.066.134v1.074h0L254.43,191.55h0l-.066-.067-.066-.067-.066-.067-.066-.067h-.133a.065.065,0,0,1-.066-.067c-.066,0-.066,0-.133-.067-.066,0-.066,0-.132-.067h-.994c-.066,0-.066,0-.133.067-.066,0-.066,0-.132.067a.065.065,0,0,0-.066.067h-.133l-.066.067-.066.067-.066.067-.066.067h0l-26.437-15.438h0v-1.074c0-.067,0-.067-.066-.134,0-.067,0-.067-.066-.134a.065.065,0,0,0-.066-.067v-.134l-.066-.067-.066-.067-.066-.067-.066-.067-.066-.067-.066-.067-.066-.067h-.133a.065.065,0,0,1-.066-.067c-.066,0-.066,0-.133-.067-.066,0-.066,0-.133-.067h-.066V142.954h.066c.066,0,.066,0,.133-.067.066,0,.066,0,.133-.067a.065.065,0,0,0,.066-.067h.133l.066-.067.066-.067.066-.067.066-.067.066-.067.066-.067.066-.067v-.134a.065.065,0,0,1,.066-.067c0-.067,0-.067.066-.134,0-.067,0-.067.066-.134v-1.074h0L251.978,125.3h0l.066.067.066.067.066.067.066.067h.133a.065.065,0,0,1,.066.067c.066,0,.066,0,.132.067.066,0,.066,0,.133.067h1.06c.066,0,.066,0,.133-.067.066,0,.066,0,.133-.067a.065.065,0,0,0,.066-.067h.132l.066-.067.066-.067.066-.067.066-.067h0l26.437,15.438h0v1.074c0,.067,0,.067.066.134,0,.067,0,.067.066.134a.065.065,0,0,0,.066.067v.134l.066.067.066.067.066.067.066.067.066.067.066.067.066.067h.133a.065.065,0,0,1,.066.067c.066,0,.066,0,.133.067.066,0,.066,0,.133.067h.066Zm.663-34.1h-.861c-.066,0-.066,0-.133.067-.066,0-.066,0-.132.067a.065.065,0,0,0-.066.067h-.133l-.066.067-.066.067-.066.067-.066.067h0l-26.437-15.438h0v-1.074c0-.067,0-.067-.066-.134,0-.067,0-.067-.066-.134a.065.065,0,0,0-.066-.067v-.134l-.066-.067-.066-.067-.066-.067-.066-.067-.066-.067-.066-.067-.066-.067h-.132a.065.065,0,0,1-.066-.067c-.066,0-.066,0-.133-.067-.066,0-.066,0-.133-.067h-.066V91.672h.066c.066,0,.066,0,.133-.067.066,0,.066,0,.133-.067a.065.065,0,0,0,.066-.067h.132l.066-.067.066-.067.066-.067.066-.067.066-.067.066-.067.066-.067v-.134a.065.065,0,0,1,.066-.067c0-.067,0-.067.066-.134,0-.067,0-.067.066-.134V89.457h0L281.2,74.019h0l.066.067.066.067.066.067.066.067h.133a.065.065,0,0,1,.066.067c.066,0,.066,0,.132.067.066,0,.066,0,.133.067h1.06c.066,0,.066,0,.133-.067.066,0,.066,0,.132-.067a.065.065,0,0,0,.066-.067h.133l.066-.067.066-.067.066-.067.066-.067h0l26.437,15.438h0v1.074c0,.067,0,.067.066.134,0,.067,0,.067.066.134a.065.065,0,0,0,.066.067V91l.066.067.066.067.066.067.066.067.066.067.066.067.066.067h.132a.065.065,0,0,1,.066.067c.066,0,.066,0,.132.067.066,0,.066,0,.133.067h.066v30.943h-.066c-.066,0-.066,0-.133.067-.066,0-.066,0-.132.067a.065.065,0,0,0-.066.067h-.132l-.066.067-.066.067-.066.067-.066.067-.066.067-.066.067-.066.067v.134a.065.065,0,0,1-.066.067c0,.067,0,.067-.066.134,0,.067,0,.067-.066.134v1.074h0l-26.437,15.438h0l-.066-.067-.066-.067-.066-.067-.066-.067h-.133a.065.065,0,0,1-.066-.067c-.066,0-.066,0-.132-.067-.066,0-.066,0-.133-.067h-.2Zm57.646,34.1H340.3c-.066,0-.066,0-.133.067-.066,0-.066,0-.132.067a.065.065,0,0,0-.066.067h-.132l-.066.067-.066.067-.066.067-.066.067-.066.067-.066.067-.066.067v.134a.065.065,0,0,1-.066.067c0,.067,0,.067-.066.134,0,.067,0,.067-.066.134v1.074h0L312.738,191.55h0l-.066-.067-.066-.067-.066-.067-.066-.067h-.133a.065.065,0,0,1-.066-.067c-.066,0-.066,0-.133-.067-.066,0-.066,0-.133-.067h-.928c-.066,0-.066,0-.133.067-.066,0-.066,0-.132.067a.065.065,0,0,0-.066.067h-.133l-.066.067-.066.067-.066.067-.066.067h0l-26.437-15.438h0v-1.074c0-.067,0-.067-.066-.134,0-.067,0-.067-.066-.134a.065.065,0,0,0-.066-.067v-.134l-.066-.067-.066-.067-.066-.067-.066-.067-.066-.067-.066-.067-.066-.067h-.133a.065.065,0,0,1-.066-.067c-.066,0-.066,0-.132-.067-.066,0-.066,0-.133-.067h-.066V142.954h.066c.066,0,.066,0,.133-.067.066,0,.066,0,.132-.067a.065.065,0,0,0,.066-.067h.133l.066-.067.066-.067.066-.067.066-.067.066-.067.066-.067.066-.067v-.134a.065.065,0,0,1,.066-.067c0-.067,0-.067.066-.134,0-.067,0-.067.066-.134v-1.074h0L310.353,125.3h0l.066.067.066.067.066.067.066.067h.133a.065.065,0,0,1,.066.067c.066,0,.066,0,.132.067.066,0,.066,0,.133.067h1.06c.066,0,.066,0,.133-.067.066,0,.066,0,.133-.067a.065.065,0,0,0,.066-.067h.132l.066-.067.066-.067.066-.067.066-.067h0l26.437,15.438h0v1.074c0,.067,0,.067.066.134,0,.067,0,.067.066.134a.066.066,0,0,0,.066.067v.134l.066.067.066.067.066.067.066.067.066.067.066.067.066.067h.133a.065.065,0,0,1,.066.067c.066,0,.066,0,.133.067.066,0,.066,0,.133.067h.066V173.9Zm29.154-51.147h0c-.133,0-.133.067-.2.067a.231.231,0,0,0-.133.067.065.065,0,0,0-.066.067h-.066c-.066,0-.066.067-.133.134-.066,0-.066.067-.132.067l-.133.134-.132.134c0,.067-.066.067-.066.134s-.066.067-.066.134-.066.067-.066.134-.066.067-.066.134v.671c0,.067,0,.134.066.134v.067l-26.437,15.438h0l-.066-.067-.066-.067-.066-.067-.066-.067h-.133a.065.065,0,0,1-.066-.067c-.066,0-.066,0-.132-.067-.066,0-.066,0-.133-.067h-1.06c-.066,0-.066,0-.132.067-.066,0-.066,0-.133.067a.065.065,0,0,0-.066.067h-.133l-.066.067-.066.067-.066.067-.066.067h0L313,124.831h0v-1.074c0-.067,0-.067-.066-.134,0-.067,0-.067-.066-.134a.065.065,0,0,0-.066-.067v-.134l-.066-.067-.066-.067-.066-.067-.066-.067-.066-.067-.066-.067-.066-.067h-.133a.065.065,0,0,1-.066-.067c-.066,0-.066,0-.133-.067-.066,0-.066,0-.133-.067h-.066V91.672h.066c.066,0,.066,0,.133-.067.066,0,.066,0,.133-.067a.065.065,0,0,0,.066-.067h.133l.066-.067.066-.067.066-.067.066-.067.066-.067.066-.067L312.8,91v-.134a.065.065,0,0,1,.066-.067c0-.067,0-.067.066-.134,0-.067,0-.067.066-.134V89.457h0l26.437-15.438h0l.066.067.066.067.066.067.066.067h.133a.065.065,0,0,1,.066.067c.066,0,.066,0,.133.067.066,0,.066,0,.132.067h1.06c.066,0,.066,0,.133-.067.066,0,.066,0,.132-.067a.065.065,0,0,0,.066-.067h.133l.066-.067.066-.067.066-.067.066-.067h0L368.4,89.457h0v1.074c0,.067,0,.067.066.134,0,.067,0,.067.066.134a.065.065,0,0,0,.066.067V91l.066.067.066.067.066.067.066.067.066.067.066.067.066.067h.133a.065.065,0,0,1,.066.067c.066,0,.066,0,.133.067.066,0,.066,0,.133.067h.066Z" transform="translate(-104.654 41.329)" opacity="0.235" fill="url(#linear-gradient)"/>
</svg>
