<svg id="Twitter" xmlns="http://www.w3.org/2000/svg" width="40" height="40" viewBox="0 0 40 40">
  <g id="Twitter_Icon" data-name="Twitter Icon">
    <circle id="Base" cx="20" cy="20" r="20" fill="rgba(255,255,255,0.31)"/>
    <path id="Path_39" data-name="Path 39" d="M45.027,20A12.83,12.83,0,0,0,57.973,7.055V6.438A10.022,10.022,0,0,0,60.192,4.1a10.234,10.234,0,0,1-2.589.74A4.8,4.8,0,0,0,59.575,2.37a11.308,11.308,0,0,1-2.836,1.11A4.4,4.4,0,0,0,53.411,2a4.632,4.632,0,0,0-4.562,4.562,2.4,2.4,0,0,0,.123.986A12.747,12.747,0,0,1,39.6,2.74a4.722,4.722,0,0,0-.616,2.342A4.9,4.9,0,0,0,40.959,8.9a4.156,4.156,0,0,1-2.1-.616h0a4.506,4.506,0,0,0,3.7,4.438,3.8,3.8,0,0,1-1.233.123,2.1,2.1,0,0,1-.863-.123,4.671,4.671,0,0,0,4.315,3.205A9.308,9.308,0,0,1,39.11,17.9,3.413,3.413,0,0,1,38,17.781,11.637,11.637,0,0,0,45.027,20" transform="translate(-29 9)" fill="#0390F0" fill-rule="evenodd"/>
  </g>
</svg>
