<svg xmlns="http://www.w3.org/2000/svg" width="24" height="24" viewBox="0 0 24 24">
  <g id="Icon" transform="translate(0 0.816)">
    <g id="Base" transform="translate(0 -0.816)" fill="#fff" stroke="#707070" stroke-width="1" opacity="0">
      <rect width="24" height="24" stroke="none"/>
      <rect x="0.5" y="0.5" width="23" height="23" fill="none"/>
    </g>
    <path id="email_1_" data-name="email (1)" d="M23.222,24H9.444a1.783,1.783,0,0,0-1.778,1.778v.667a.444.444,0,1,0,.889,0v-.667a1.115,1.115,0,0,1,.044-.267l4.978,4.267L8.6,34.044a1.115,1.115,0,0,1-.044-.267v-.667a.444.444,0,1,0-.889,0v.667a1.783,1.783,0,0,0,1.778,1.778H23.222A1.783,1.783,0,0,0,25,33.778v-8A1.783,1.783,0,0,0,23.222,24Zm-13.956.911a.433.433,0,0,1,.178-.022H23.222a.433.433,0,0,1,.178.022l-6.778,5.8a.467.467,0,0,1-.578,0Zm13.956,9.756H9.444a.433.433,0,0,1-.178-.022l5-4.289,1.2,1.044a1.293,1.293,0,0,0,1.733,0l1.2-1.044,5,4.289A.433.433,0,0,1,23.222,34.667Zm.889-.889a1.115,1.115,0,0,1-.044.267l-4.978-4.267,4.978-4.267a1.115,1.115,0,0,1,.044.267ZM6.333,28.667a.446.446,0,0,1,.444-.444H9.444a.444.444,0,1,1,0,.889H6.778A.446.446,0,0,1,6.333,28.667Zm3.111,2.667h-4a.444.444,0,1,1,0-.889h4a.444.444,0,1,1,0,.889Z" transform="translate(-3 -18.817)" fill="#fff"/>
  </g>
</svg>
