<svg xmlns="http://www.w3.org/2000/svg" width="60" height="60" viewBox="0 0 60 60">
  <g id="Icon" transform="translate(-21124 -14834)">
    <rect id="Base" width="60" height="60" transform="translate(21124 14834)" fill="#fff" opacity="0"/>
    <path id="analytics" d="M13.264,38.894H5.273a1.191,1.191,0,0,0-1.19,1.19V53.775a1.191,1.191,0,0,0,1.19,1.19h7.991a1.191,1.191,0,0,0,1.19-1.19V40.084A1.191,1.191,0,0,0,13.264,38.894Zm-1.19,13.691H6.463V41.275h5.61v11.31Zm14.372-26.5H18.455a1.191,1.191,0,0,0-1.19,1.19V53.464a1.191,1.191,0,0,0,1.19,1.19h7.991a1.191,1.191,0,0,0,1.19-1.19V27.275A1.19,1.19,0,0,0,26.446,26.085Zm-1.19,26.189h-5.61V28.466h5.61ZM39.628,30.442H31.637a1.191,1.191,0,0,0-1.19,1.19V53.153a1.191,1.191,0,0,0,1.19,1.19h7.991a1.191,1.191,0,0,0,1.19-1.19V31.632A1.19,1.19,0,0,0,39.628,30.442Zm-1.19,21.521h-5.61V32.822h5.61ZM52.81,18.306H44.819a1.191,1.191,0,0,0-1.19,1.19V52.842a1.191,1.191,0,0,0,1.19,1.19H52.81A1.191,1.191,0,0,0,54,52.842V19.5A1.19,1.19,0,0,0,52.81,18.306Zm-1.19,33.346h-5.61V20.687h5.61ZM8.486,33.047a4.485,4.485,0,0,0,4.039-6.439l7.456-6.526a4.478,4.478,0,0,0,6.156-1.191l5.02,1.758c-.007.1-.012.2-.012.305a4.486,4.486,0,1,0,8.547-1.9L46.3,13.405a4.489,4.489,0,1,0-1.547-1.81L38.146,17.24a4.479,4.479,0,0,0-6.2,1.162l-5.02-1.758c.007-.1.012-.2.012-.305a4.486,4.486,0,1,0-8.525,1.953l-7.456,6.526a4.485,4.485,0,1,0-2.469,8.229ZM48.814,7.586a2.105,2.105,0,1,1-2.105,2.105A2.108,2.108,0,0,1,48.814,7.586ZM35.632,18.849a2.105,2.105,0,1,1-2.105,2.105A2.108,2.108,0,0,1,35.632,18.849ZM22.45,14.234a2.105,2.105,0,1,1-2.105,2.105,2.108,2.108,0,0,1,2.105-2.105ZM8.486,26.455A2.105,2.105,0,1,1,6.381,28.56,2.108,2.108,0,0,1,8.486,26.455Z" transform="translate(21125 14833.795)" fill="#fe7070"/>
  </g>
</svg>
