<svg xmlns="http://www.w3.org/2000/svg" width="40" height="40" viewBox="0 0 40 40">
  <g id="Icon" transform="translate(-20922 -14833)">
    <rect id="Base" width="40" height="40" transform="translate(20922 14833)" fill="#0090f0" opacity="0"/>
    <g id="Layer_2" data-name="Layer 2" transform="translate(20926 14837)">
      <path id="Path_4835" data-name="Path 4835" d="M16.054,15.164a1.581,1.581,0,0,1-1.467-1.571,1.5,1.5,0,0,1,2.563-1.085,1.767,1.767,0,0,1,.341.5,1.037,1.037,0,0,0,1.932-.734,3.71,3.71,0,0,0-.816-1.23,3.6,3.6,0,0,0-1.457-.868V8.953a1.033,1.033,0,1,0-2.067,0v1.188A3.379,3.379,0,0,0,12.871,12a3.658,3.658,0,0,0,3.245,5.229A1.55,1.55,0,0,1,17.635,18.8a1.519,1.519,0,0,1-1.519,1.519,1.5,1.5,0,0,1-1.405-.951,1.042,1.042,0,0,0-1.932.775,3.617,3.617,0,0,0,2.3,2.067v1.157a1.033,1.033,0,0,0,2.067,0V22.221a3.617,3.617,0,0,0,2.532-3.947,3.772,3.772,0,0,0-3.627-3.11Z" transform="translate(0.384 0.231)" fill="#ffc051"/>
      <path id="Path_4836" data-name="Path 4836" d="M16.5,1A15.5,15.5,0,1,0,32,16.5,15.5,15.5,0,0,0,16.5,1Zm0,28.933A13.433,13.433,0,1,1,29.933,16.5,13.433,13.433,0,0,1,16.5,29.933Z" transform="translate(0 0)" fill="#ffc051"/>
    </g>
  </g>
</svg>
