<svg xmlns="http://www.w3.org/2000/svg" width="60" height="60" viewBox="0 0 60 60">
  <g id="Icon" transform="translate(-21124 -14834)">
    <rect id="Base" width="60" height="60" transform="translate(21124 14834)" fill="#fff" opacity="0"/>
    <g id="phone" transform="translate(21126.502 14836.505)">
      <path id="Path_4762" data-name="Path 4762" d="M282.516,0a1.074,1.074,0,1,0,0,2.148A21.569,21.569,0,0,1,304.06,23.693a1.074,1.074,0,0,0,2.148,0A23.72,23.72,0,0,0,282.516,0Zm0,0" transform="translate(-251.21)" fill="#6fd231"/>
      <path id="Path_4763" data-name="Path 4763" d="M298.672,78.462a1.074,1.074,0,0,0,1.074-1.074,17.25,17.25,0,0,0-17.231-17.231,1.074,1.074,0,1,0,0,2.148A15.1,15.1,0,0,1,297.6,77.387,1.074,1.074,0,0,0,298.672,78.462Zm0,0" transform="translate(-251.21 -53.694)" fill="#6fd231"/>
      <path id="Path_4764" data-name="Path 4764" d="M291.135,131.1a1.074,1.074,0,0,0,2.148,0,10.78,10.78,0,0,0-10.767-10.767,1.074,1.074,0,1,0,0,2.148A8.629,8.629,0,0,1,291.135,131.1Zm0,0" transform="translate(-251.21 -107.402)" fill="#6fd231"/>
      <path id="Path_4765" data-name="Path 4765" d="M281.441,181.559a1.074,1.074,0,0,0,1.074,1.074,2.159,2.159,0,0,1,2.157,2.157,1.074,1.074,0,0,0,2.148,0,4.31,4.31,0,0,0-4.305-4.305A1.074,1.074,0,0,0,281.441,181.559Zm0,0" transform="translate(-251.21 -161.096)" fill="#6fd231"/>
      <path id="Path_4766" data-name="Path 4766" d="M169.582,315.754a1.074,1.074,0,1,1-1.074-1.074A1.074,1.074,0,0,1,169.582,315.754Zm0,0" transform="translate(-149.449 -280.876)" fill="#6fd231"/>
      <path id="Path_4767" data-name="Path 4767" d="M29.436,118.012a12.771,12.771,0,0,0,14.644-2.468l2.221-2.221a3.082,3.082,0,0,0,0-4.362L37.72,100.38a3.08,3.08,0,0,0-4.361,0l-3.646,3.647a2.126,2.126,0,0,1-2.621.347,40.294,40.294,0,0,1-3.79-2.746,1.074,1.074,0,0,0-1.36,1.663,42.367,42.367,0,0,0,3.993,2.894,4.285,4.285,0,0,0,5.3-.638l3.647-3.647a.933.933,0,0,1,1.322,0l8.582,8.582a.935.935,0,0,1,0,1.323l-2.221,2.222a10.622,10.622,0,0,1-12.18,2.058,59.525,59.525,0,0,1-27.156-27.3A10.543,10.543,0,0,1,5.287,76.652L7.46,74.48a.933.933,0,0,1,1.321,0l8.583,8.583a.933.933,0,0,1,0,1.322l-3.646,3.647a4.286,4.286,0,0,0-.638,5.3c.62.97,1.288,1.926,1.986,2.843a1.074,1.074,0,1,0,1.709-1.3c-.662-.87-1.3-1.778-1.885-2.7a2.126,2.126,0,0,1,.347-2.621l3.646-3.646a3.081,3.081,0,0,0,0-4.361L10.3,72.962a3.08,3.08,0,0,0-4.361,0L3.768,75.133A12.69,12.69,0,0,0,1.3,89.74,61.658,61.658,0,0,0,29.436,118.012Zm0,0" transform="translate(0 -64.317)" fill="#6fd231"/>
    </g>
  </g>
</svg>
