<svg xmlns="http://www.w3.org/2000/svg" xmlns:xlink="http://www.w3.org/1999/xlink" width="375.5" height="788" viewBox="0 0 375.5 788">
  <defs>
    <radialGradient id="radial-gradient" cx="0.463" cy="0.523" r="1.007" gradientUnits="objectBoundingBox">
      <stop offset="0" stop-color="#1a3855"/>
      <stop offset="0.086" stop-color="#17324c"/>
      <stop offset="1" stop-color="#0e1e2e"/>
      <stop offset="1" stop-color="#050b11"/>
    </radialGradient>
    <linearGradient id="linear-gradient" x1="0.596" y1="0.5" x2="0.412" y2="0.474" gradientUnits="objectBoundingBox">
      <stop offset="0" stop-color="#0090f0"/>
      <stop offset="0" stop-color="#006ab1"/>
      <stop offset="1" stop-color="#004878"/>
    </linearGradient>
  </defs>
  <g id="Cover" transform="translate(10250 -199)">
    <rect id="Base" width="375" height="788" transform="translate(-10250 199)" fill="url(#radial-gradient)"/>
    <g id="Back_Icons" data-name="Back Icons" transform="translate(-10604.704 354)">
      <g id="Icons" transform="translate(442.086 73)" opacity="0.169">
        <path id="Path_4890" data-name="Path 4890" d="M331.846,64.811l-.056-.055-.057-.055-.057-.055h-.113a.055.055,0,0,1-.057-.055c-.057,0-.057,0-.113-.055-.057,0-.057,0-.113-.055h-.9c-.056,0-.056,0-.113.055-.057,0-.057,0-.113.055a.055.055,0,0,0-.057.055h-.113l-.057.055-.057.055-.056.055-.057.055h0L307.208,52.274h0V51.4c0-.055,0-.055-.056-.109,0-.055,0-.055-.057-.109a.054.054,0,0,0-.057-.055v-.109l-.056-.055-.057-.055-.057-.055-.056-.055-.057-.055-.057-.055-.056-.055h-.113a.055.055,0,0,1-.057-.055c-.056,0-.056,0-.113-.055-.057,0-.057,0-.113-.055h-.057V25.393h.057c.056,0,.056,0,.113-.055.057,0,.057,0,.113-.055a.055.055,0,0,0,.057-.055h.113l.056-.055.057-.055.057-.055.056-.055.057-.055.057-.055.056-.055v-.109a.054.054,0,0,1,.057-.055c0-.055,0-.055.057-.109,0-.055,0-.055.056-.109v-.876h0l22.547-12.592a1.5,1.5,0,0,0,1.7.274,1.268,1.268,0,0,0,.509-1.807,1.353,1.353,0,0,0-1.865-.493,1.337,1.337,0,0,0-.622,1.533L306.926,23.094h0l-.057-.055-.057-.055-.057-.055-.056-.055h-.113a.055.055,0,0,1-.057-.055c-.056,0-.056,0-.113-.055-.056,0-.056,0-.113-.055h-.9c-.056,0-.056,0-.113.055-.057,0-.057,0-.113.055a.055.055,0,0,0-.056.055H305l-.057.055-.057.055-.056.055-.057.055h0L282.231,10.5h0V9.626c0-.055,0-.055-.057-.109,0-.055,0-.055-.056-.109a.054.054,0,0,0-.057-.055V9.243l-.057-.055-.057-.055-.057-.055-.057-.055-.056-.055-.057-.055-.057-.055h-.113a.055.055,0,0,1-.057-.055c-.057,0-.057,0-.113-.055-.057,0-.057,0-.113-.055h-.057V-16.324h.057c.056,0,.056,0,.113-.055.057,0,.057,0,.113-.055a.055.055,0,0,0,.057-.055h.113l.057-.055.057-.055.056-.055.057-.055.057-.055.057-.055.057-.055v-.109a.054.054,0,0,1,.057-.055c0-.055,0-.055.056-.109,0-.055,0-.055.057-.109v-.876h0l22.547-12.592h0l.057.055.056.055.057.055L305-30.5h.113a.055.055,0,0,1,.056.055c.057,0,.057,0,.113.055.057,0,.057,0,.113.055h.9c.057,0,.057,0,.113-.055.057,0,.057,0,.113-.055a.055.055,0,0,0,.057-.055h.113l.056-.055.057-.055.057-.055.057-.055h0L329.473-18.13a1.311,1.311,0,0,0,.622,1.533,1.353,1.353,0,0,0,1.865-.493,1.268,1.268,0,0,0-.509-1.807,1.341,1.341,0,0,0-1.7.274L307.208-31.215h0v-.876c0-.055,0-.055-.056-.109,0-.055,0-.055-.057-.109a.054.054,0,0,0-.057-.055v-.109l-.056-.055-.057-.055-.057-.055-.056-.055-.057-.055L306.7-32.8l-.056-.055h-.113a.055.055,0,0,1-.057-.055.178.178,0,0,1-.113-.055c-.057,0-.057,0-.113-.055h-.9c-.057,0-.057,0-.113.055-.057,0-.057,0-.113.055a.055.055,0,0,0-.056.055h-.113l-.056.055-.057.055-.057.055-.056.055-.057.055-.057.055-.056.055v.109a.054.054,0,0,1-.057.055c0,.055,0,.055-.057.109,0,.055,0,.055-.056.109v.876h0L281.836-18.623h0l-.057-.055-.057-.055-.056-.055-.057-.055H281.5a.055.055,0,0,1-.057-.055c-.057,0-.057,0-.113-.055-.057,0-.057,0-.113-.055h-.9c-.056,0-.056,0-.113.055-.057,0-.057,0-.113.055a.055.055,0,0,0-.057.055h-.113l-.057.055-.057.055-.056.055-.057.055h0L257.141-31.215h0v-.876c0-.055,0-.055-.057-.109,0-.055,0-.055-.057-.109a.054.054,0,0,0-.056-.055v-.109l-.057-.055-.056-.055-.057-.055-.056-.055-.057-.055-.057-.055-.057-.055h-.113a.055.055,0,0,1-.057-.055c-.056,0-.056,0-.113-.055-.057,0-.057,0-.113-.055h-.057V-42H255.5v8.978h-.056c-.057,0-.057,0-.113.055-.057,0-.057,0-.113.055a.055.055,0,0,0-.057.055h-.113l-.057.055-.057.055-.057.055-.056.055-.057.055-.057.055-.057.055v.109a.054.054,0,0,1-.057.055c0,.055,0,.055-.057.109,0,.055,0,.055-.056.109v.876h0L231.938-18.623h0l-.057-.055-.057-.055-.057-.055-.057-.055H231.6a.055.055,0,0,1-.057-.055c-.057,0-.057,0-.113-.055-.057,0-.057,0-.113-.055h-.9c-.057,0-.057,0-.113.055-.056,0-.056,0-.113.055a.055.055,0,0,0-.057.055h-.113l-.057.055-.057.055-.057.055-.057.055h0L207.243-31.215h0v-.876c0-.055,0-.055-.056-.109,0-.055,0-.055-.057-.109a.054.054,0,0,0-.057-.055v-.109l-.057-.055-.057-.055-.057-.055-.057-.055-.057-.055-.057-.055-.057-.055h-.113a.055.055,0,0,1-.057-.055.178.178,0,0,1-.113-.055c-.057,0-.057,0-.113-.055h-.056V-42H205.6v8.978h-.056c-.057,0-.057,0-.113.055-.057,0-.057,0-.113.055a.055.055,0,0,0-.057.055h-.113l-.057.055-.057.055-.057.055-.057.055-.057.055-.057.055-.057.055v.109a.054.054,0,0,1-.057.055c0,.055,0,.055-.057.109,0,.055,0,.055-.057.109v.876h0L182.04-18.623h0l-.057-.055-.057-.055-.057-.055-.057-.055H181.7a.055.055,0,0,1-.057-.055c-.057,0-.057,0-.113-.055-.057,0-.057,0-.113-.055h-.9c-.057,0-.057,0-.113.055-.057,0-.057,0-.113.055a.055.055,0,0,0-.057.055h-.113l-.057.055-.057.055-.057.055-.057.055h0L157.346-31.215a1.311,1.311,0,0,0-.622-1.533,1.353,1.353,0,0,0-1.865.493,1.268,1.268,0,0,0,.509,1.807,1.341,1.341,0,0,0,1.7-.274L179.61-18.13h0v.876c0,.055,0,.055.057.109,0,.055,0,.055.057.109a.054.054,0,0,0,.057.055v.109l.057.055.057.055.057.055.057.055.057.055.057.055.057.055h.113a.055.055,0,0,1,.057.055.178.178,0,0,1,.113.055c.057,0,.057,0,.113.055h.057V8.915h0c-.057,0-.057,0-.113.055-.057,0-.057,0-.113.055-.057,0-.057.055-.113.055s-.057.055-.113.055-.057.055-.113.109l-.113.11c-.057.055-.057.055-.057.109l-.113.109v.055a.054.054,0,0,1-.057.055.189.189,0,0,1-.057.109c0,.055,0,.055-.057.109,0,.055,0,.109-.057.109v.547c0,.055,0,.055.057.109a.189.189,0,0,0,.057.109c0,.055.057.055.057.109s.057.055.057.109.057.055.113.109l.113.109c.057.055.057.055.113.055l.113.109h.057a.055.055,0,0,1,.057.055.2.2,0,0,1,.113.055c.057,0,.057,0,.113.055.057,0,.113,0,.113.055h.565c.057,0,.057,0,.113-.055a.2.2,0,0,0,.113-.055c.057,0,.057-.055.113-.055s.057-.055.113-.055.057-.055.113-.055l.113-.109h0l22.547,12.592h0v.876c0,.055,0,.055.057.109,0,.055,0,.055.056.109a.054.054,0,0,0,.057.055v.109l.057.055.057.055.057.055.057.055.057.055.057.055.056.055h.113a.055.055,0,0,1,.057.055c.057,0,.057,0,.113.055.057,0,.057,0,.113.055h.057V50.851h-.057c-.057,0-.057,0-.113.055-.057,0-.057,0-.113.055a.055.055,0,0,0-.057.055h-.113l-.056.055-.057.055-.057.055-.057.055-.057.055-.057.055-.057.055v.11a.054.054,0,0,1-.057.055c0,.055,0,.055-.056.109,0,.055,0,.055-.057.109v.876h0L181.927,65.249h0l-.057-.055-.057-.055-.057-.055-.057-.055h-.113a.055.055,0,0,1-.057-.055c-.057,0-.057,0-.113-.055-.057,0-.057,0-.113-.055h-.9c-.057,0-.057,0-.113.055-.057,0-.057,0-.113.055a.055.055,0,0,0-.057.055h-.113l-.057.055-.057.055-.057.055-.057.055h0L157.233,52.657a1.311,1.311,0,0,0-.622-1.533,1.353,1.353,0,0,0-1.865.493,1.268,1.268,0,0,0,.509,1.807,1.341,1.341,0,0,0,1.7-.274L179.5,65.742h0v.876c0,.055,0,.055.057.109,0,.055,0,.055.057.109a.054.054,0,0,0,.057.055V67l.057.055.057.055.057.055.057.055.057.055.057.055.057.055h.113a.055.055,0,0,1,.057.055c.057,0,.057,0,.113.055.057,0,.057,0,.113.055h.057V92.787h-.057c-.057,0-.057,0-.113.055-.057,0-.057,0-.113.055a.055.055,0,0,0-.057.055h-.113l-.057.055-.057.055-.057.055-.057.055-.057.055-.057.055-.057.055v.109a.054.054,0,0,1-.057.055c0,.055,0,.055-.057.109,0,.055,0,.055-.057.109v.876h0L156.95,107.185h0l-.057-.055-.057-.055-.056-.055-.057-.055h-.113a.055.055,0,0,1-.057-.055c-.057,0-.057,0-.113-.055-.056,0-.056,0-.113-.055h-.9c-.056,0-.056,0-.113.055-.057,0-.057,0-.113.055a.055.055,0,0,0-.056.055h-.113l-.057.055-.057.055-.057.055-.056.055h0L132.256,94.593a1.311,1.311,0,0,0-.622-1.533,1.353,1.353,0,0,0-1.865.493,1.268,1.268,0,0,0,.509,1.807,1.341,1.341,0,0,0,1.7-.274l22.547,12.592h0v.876c0,.055,0,.055.057.109,0,.055,0,.055.057.109a.054.054,0,0,0,.057.055v.109l.056.055.057.055.057.055.057.055.057.055.057.055.057.055h.113a.055.055,0,0,1,.057.055c.056,0,.056,0,.113.055.057,0,.057,0,.113.055h.057v25.238h-.057c-.057,0-.057,0-.113.055-.057,0-.057,0-.113.055a.055.055,0,0,0-.057.055h-.113l-.057.055-.057.055-.057.055-.057.055-.057.055-.057.055-.056.055v.11a.054.054,0,0,1-.057.055c0,.055,0,.055-.057.109,0,.055,0,.055-.057.109v.876h0l-22.547,12.592h0l-.057-.055-.056-.055-.057-.055-.057-.055h-.113a.055.055,0,0,1-.057-.055c-.057,0-.057,0-.113-.055-.057,0-.057,0-.113-.055H130.5c-.057,0-.057,0-.113.055-.056,0-.056,0-.113.055a.055.055,0,0,0-.057.055h-.113l-.056.055-.057.055-.057.055-.056.055h0L107.335,136.53a1.311,1.311,0,0,0-.622-1.533,1.353,1.353,0,0,0-1.865.493,1.268,1.268,0,0,0,.509,1.807,1.341,1.341,0,0,0,1.7-.274L129.6,149.614h0v.821c0,.055,0,.055.056.109,0,.055,0,.055.057.109a.054.054,0,0,0,.057.055v.11l.057.055.057.055.057.055.057.055.057.055.057.055.057.055h.113a.055.055,0,0,1,.057.055c.056,0,.056,0,.113.055.056,0,.056,0,.113.055h.057v13.577h.622V150.49h.056c.057,0,.057,0,.113-.055.057,0,.057,0,.113-.055a.055.055,0,0,0,.057-.055h.113l.057-.055.057-.055.056-.055.057-.055.057-.055.057-.055.057-.055v-.109a.054.054,0,0,1,.057-.055c0-.055,0-.055.056-.11,0-.055,0-.055.057-.11v-.876h0L154.8,136.091h0l.057.055.056.055.057.055.057.055h.113a.055.055,0,0,1,.057.055c.057,0,.057,0,.113.055.057,0,.057,0,.113.055h.9c.057,0,.057,0,.113-.055.057,0,.057,0,.113-.055a.055.055,0,0,0,.057-.055h.113l.057-.055.057-.055.057-.055.057-.055h0L179.5,148.683h0v.876c0,.055,0,.055.057.11,0,.055,0,.055.057.11a.054.054,0,0,0,.057.055v.109l.057.055.057.055.057.055.057.055.057.055.057.055.057.055h.113a.055.055,0,0,1,.057.055c.057,0,.057,0,.113.055.057,0,.057,0,.113.055h.057v14.453h.622V150.49h.057c.057,0,.057,0,.113-.055.057,0,.057,0,.113-.055a.055.055,0,0,0,.057-.055h.113l.057-.055.057-.055.057-.055.057-.055.057-.055.057-.055.057-.055v-.109a.054.054,0,0,1,.057-.055c0-.055,0-.055.057-.11,0-.055,0-.055.057-.11v-.876h0L204.7,136.091h0l.057.055.057.055.057.055.057.055h.113a.055.055,0,0,1,.057.055c.056,0,.056,0,.113.055.057,0,.057,0,.113.055h.9c.056,0,.056,0,.113-.055.057,0,.057,0,.113-.055a.055.055,0,0,0,.057-.055h.113l.057-.055.057-.055.057-.055.057-.055h0l22.547,12.592h0v.876c0,.055,0,.055.057.11,0,.055,0,.055.057.11a.054.054,0,0,0,.057.055v.109l.057.055.057.055.056.055.057.055.057.055.057.055.057.055h.113a.055.055,0,0,1,.057.055c.057,0,.057,0,.113.055.057,0,.057,0,.113.055h.057v14.453h.622V150.49h.057c.057,0,.057,0,.113-.055.056,0,.056,0,.113-.055a.055.055,0,0,0,.057-.055h.113l.057-.055.057-.055.057-.055.057-.055.057-.055.057-.055.057-.055v-.109a.054.054,0,0,1,.057-.055c0-.055,0-.055.057-.11,0-.055,0-.055.057-.11v-.876h0L254.6,136.091h0l.057.055.057.055.057.055.057.055h.113a.055.055,0,0,1,.057.055c.057,0,.057,0,.113.055.057,0,.057,0,.113.055h.9c.057,0,.057,0,.113-.055.057,0,.057,0,.113-.055a.055.055,0,0,0,.056-.055h.113l.056-.055.057-.055.057-.055.057-.055h0l22.547,12.592h0v.876c0,.055,0,.055.057.11,0,.055,0,.055.057.11a.054.054,0,0,0,.056.055v.109l.057.055.057.055.056.055.057.055.057.055.056.055.057.055h.113a.055.055,0,0,1,.056.055c.057,0,.057,0,.113.055.057,0,.057,0,.113.055h.057v14.453h.622V150.49h.056c.057,0,.057,0,.113-.055.057,0,.057,0,.113-.055a.055.055,0,0,0,.057-.055h.113l.057-.055.056-.055.057-.055.057-.055.057-.055.057-.055.057-.055v-.109a.054.054,0,0,1,.056-.055c0-.055,0-.055.057-.11,0-.055,0-.055.056-.11v-.876h0L304.5,136.091h0l.057.055.057.055.057.055.056.055h.113a.055.055,0,0,1,.056.055c.057,0,.057,0,.113.055.056,0,.056,0,.113.055h.9c.056,0,.056,0,.113-.055.057,0,.057,0,.113-.055a.055.055,0,0,0,.057-.055h.113l.056-.055.057-.055.057-.055.056-.055h0l22.547,12.592a1.311,1.311,0,0,0,.622,1.533,1.353,1.353,0,0,0,1.865-.493,1.268,1.268,0,0,0-.509-1.807,1.341,1.341,0,0,0-1.7.274L306.926,135.6h0v-.876c0-.055,0-.055-.057-.109,0-.055,0-.055-.056-.11a.054.054,0,0,0-.057-.055v-.109l-.057-.055-.057-.055-.056-.055-.057-.055-.056-.055-.057-.055-.057-.055h-.113a.055.055,0,0,1-.056-.055c-.057,0-.057,0-.113-.055-.057,0-.057,0-.113-.055h-.057V108.554h.057c.056,0,.056,0,.113-.055.057,0,.057,0,.113-.055a.055.055,0,0,0,.056-.055h.113l.057-.055.057-.055.056-.055.057-.055.056-.055.057-.055.057-.055v-.11a.054.054,0,0,1,.057-.055c0-.055,0-.055.056-.109,0-.055,0-.055.057-.109v-.876h0l22.547-12.592h0l.113.109c.057.055.057.055.113.055s.057.055.113.055.057.055.113.055.057.055.113.055.056.055.113.055h.565c.057,0,.113,0,.113-.055.057,0,.057,0,.113-.055a.2.2,0,0,0,.113-.055.055.055,0,0,0,.057-.055h.057c.056,0,.056-.055.113-.11.057,0,.057-.055.113-.055l.113-.11c.057-.055.057-.055.057-.11s.056-.055.056-.109.057-.055.057-.109.057-.055.057-.11.056-.055.056-.11v-.547c0-.055,0-.109-.056-.109,0-.055,0-.055-.057-.11a.189.189,0,0,0-.057-.109.054.054,0,0,0-.056-.055v-.055c0-.055-.057-.055-.113-.109,0-.055-.057-.055-.057-.109l-.113-.109-.113-.11c-.057,0-.057-.055-.113-.055s-.057-.055-.113-.055-.057-.055-.113-.055-.057-.055-.113-.055h0V66.618h.057c.057,0,.057,0,.113-.055.057,0,.057,0,.113-.055a.055.055,0,0,0,.057-.055h.113l.056-.055.057-.055.057-.055.056-.055.057-.055.057-.055.057-.055v-.11a.054.054,0,0,1,.056-.055c0-.055,0-.055.057-.109,0-.055,0-.055.057-.109v-.876h0l-1.808.712c.452.438-.056-.164.509-.438h.678Zm-50.8-53.323h.622c.057,0,.057,0,.113-.055.056,0,.056,0,.113-.055a.055.055,0,0,0,.057-.055h.113l.057-.055.057-.055.056-.055.057-.055h0L304.835,23.7h0v.876c0,.055,0,.055.056.109,0,.055,0,.055.057.109a.054.054,0,0,0,.057.055v.109l.056.055.057.055.057.055.056.055.057.055.057.055.056.055h.113a.055.055,0,0,1,.056.055c.057,0,.057,0,.113.055.056,0,.056,0,.113.055h.057V50.741H305.8c-.057,0-.057,0-.113.055-.057,0-.057,0-.113.055a.055.055,0,0,0-.056.055H305.4l-.056.055-.057.055-.057.055-.056.055-.057.055-.057.055-.056.055V51.4a.054.054,0,0,1-.057.055c0,.055,0,.055-.057.109,0,.055,0,.055-.056.109v.876h0L282.288,65.14h0l-.057-.055-.056-.055-.057-.055-.057-.055h-.113a.055.055,0,0,1-.057-.055c-.057,0-.057,0-.113-.055-.057,0-.057,0-.113-.055h-.9c-.057,0-.057,0-.113.055-.056,0-.056,0-.113.055a.055.055,0,0,0-.057.055h-.113l-.057.055-.056.055-.057.055-.057.055h0L257.593,52.548h0v-.876c0-.055,0-.055-.057-.109,0-.055,0-.055-.057-.109a.054.054,0,0,0-.057-.055v-.109l-.057-.055-.057-.055-.057-.055-.057-.055-.057-.055-.056-.055-.057-.055h-.113a.055.055,0,0,1-.057-.055c-.057,0-.057,0-.113-.055-.057,0-.057,0-.113-.055h-.056V25.393h.056c.057,0,.057,0,.113-.055.057,0,.057,0,.113-.055a.055.055,0,0,0,.057-.055h.113l.057-.055.056-.055.057-.055.057-.055.057-.055.057-.055.057-.055v-.109a.054.054,0,0,1,.057-.055c0-.055,0-.055.057-.109,0-.055,0-.055.057-.109v-.876h0l22.547-12.592h0l.057.055.057.055.056.055.057.055h.113a.055.055,0,0,1,.057.055c.057,0,.057,0,.113.055.057,0,.057,0,.113.055h.17C280.988,11.488,281.045,11.488,281.045,11.488ZM231.769-16.324h.113c.057,0,.057,0,.113-.055.056,0,.056,0,.113-.055a.055.055,0,0,0,.057-.055h.113l.057-.055.056-.055.057-.055.057-.055.057-.055.057-.055.057-.055v-.109a.054.054,0,0,1,.057-.055c0-.055,0-.055.056-.109,0-.055,0-.055.057-.109v-.876h0L255.39-30.722h0l.057.055.057.055.057.055.057.055h.113a.055.055,0,0,1,.057.055c.057,0,.057,0,.113.055.057,0,.057,0,.113.055h.9c.057,0,.057,0,.113-.055.056,0,.056,0,.113-.055a.055.055,0,0,0,.056-.055h.113l.057-.055.057-.055.057-.055.057-.055h0L280.084-18.13h0v.876c0,.055,0,.055.057.109,0,.055,0,.055.056.109a.054.054,0,0,0,.057.055v.109l.057.055.056.055.057.055.057.055.057.055.057.055.057.055h.113a.055.055,0,0,1,.057.055.178.178,0,0,1,.113.055c.057,0,.057,0,.113.055h.057V8.915h-.057c-.056,0-.056,0-.113.055-.057,0-.057,0-.113.055a.055.055,0,0,0-.057.055h-.113l-.057.055-.057.055-.057.055-.057.055-.057.055-.056.055-.057.055v.109a.054.054,0,0,1-.057.055c0,.055,0,.055-.056.109,0,.055,0,.055-.057.109v.876h0L257.537,23.313h0l-.057-.055-.057-.055-.057-.055-.057-.055H257.2a.055.055,0,0,1-.056-.055c-.057,0-.057,0-.113-.055-.057,0-.057,0-.113-.055h-.9c-.057,0-.057,0-.113.055-.057,0-.057,0-.113.055a.055.055,0,0,0-.057.055h-.113l-.057.055-.057.055-.057.055-.057.055h0L232.843,10.721h0V9.845c0-.055,0-.055-.057-.109,0-.055,0-.055-.056-.109a.054.054,0,0,0-.057-.055V9.462l-.057-.055-.057-.055L232.5,9.3l-.057-.055-.057-.055-.056-.055-.057-.055h-.113a.055.055,0,0,1-.057-.055c-.057,0-.057,0-.113-.055-.057,0-.057,0-.113-.055h-.057V-16.324Zm-.4,27.811h.622c.057,0,.057,0,.113-.055.057,0,.057,0,.113-.055a.055.055,0,0,0,.057-.055h.113l.057-.055.057-.055.057-.055.056-.055h0L255.164,23.7h0v.876c0,.055,0,.055.057.109,0,.055,0,.055.057.109a.054.054,0,0,0,.057.055v.109l.057.055.056.055.057.055.057.055.057.055.057.055.057.055h.113a.055.055,0,0,1,.057.055c.057,0,.057,0,.113.055.056,0,.056,0,.113.055h.056V50.741h-.056c-.057,0-.057,0-.113.055-.057,0-.057,0-.113.055a.055.055,0,0,0-.057.055h-.113l-.057.055-.057.055-.057.055-.057.055-.057.055-.056.055-.057.055V51.4a.054.054,0,0,1-.057.055c0,.055,0,.055-.057.109,0,.055,0,.055-.057.109v.876h0L232.617,65.14h0l-.056-.055-.057-.055-.057-.055-.057-.055h-.113a.055.055,0,0,1-.057-.055c-.057,0-.057,0-.113-.055-.057,0-.057,0-.113-.055h-.9c-.057,0-.057,0-.113.055-.057,0-.057,0-.113.055a.055.055,0,0,0-.056.055H230.7l-.057.055-.057.055-.057.055-.056.055h0L207.922,52.548h0v-.876c0-.055,0-.055-.057-.109,0-.055,0-.055-.057-.109a.054.054,0,0,0-.056-.055v-.109l-.057-.055-.057-.055-.057-.055-.057-.055-.057-.055-.057-.055-.057-.055h-.113a.055.055,0,0,1-.057-.055c-.057,0-.057,0-.113-.055-.056,0-.056,0-.113-.055H206.9V25.393h.057c.057,0,.057,0,.113-.055.057,0,.057,0,.113-.055a.055.055,0,0,0,.057-.055h.113l.057-.055.057-.055.057-.055.057-.055.057-.055.057-.055.057-.055v-.109a.054.054,0,0,1,.056-.055c0-.055,0-.055.057-.109,0-.055,0-.055.057-.109v-.876h0l22.547-12.592h0l.056.055.057.055.057.055.057.055h.113a.055.055,0,0,1,.056.055c.057,0,.057,0,.113.055.057,0,.057,0,.113.055h.17C231.317,11.488,231.317,11.488,231.373,11.488ZM206.34,22.82h-.057c-.057,0-.057,0-.113.055-.057,0-.057,0-.113.055a.055.055,0,0,0-.057.055h-.113l-.057.055-.057.055-.057.055-.057.055h0L183.115,10.612v-.055c0-.055,0-.109.057-.109V9.9c0-.055,0-.055-.057-.109a.189.189,0,0,0-.057-.109c0-.055-.057-.055-.057-.109s-.057-.055-.057-.109-.057-.055-.057-.109l-.113-.109c-.057-.055-.057-.055-.113-.055l-.113-.109h-.057a.055.055,0,0,1-.057-.055.2.2,0,0,1-.113-.055c-.057,0-.057,0-.113-.055h-.057V-16.324h.057c.057,0,.057,0,.113-.055.057,0,.057,0,.113-.055a.055.055,0,0,0,.057-.055h.113l.057-.055.057-.055.057-.055.057-.055.057-.055.057-.055.057-.055v-.109a.054.054,0,0,1,.057-.055c0-.055,0-.055.057-.109,0-.055,0-.055.057-.109v-.876h0l22.547-12.592h0l.056.055.057.055.057.055.057.055h.113a.055.055,0,0,1,.057.055c.057,0,.057,0,.113.055.057,0,.057,0,.113.055h.9c.057,0,.057,0,.113-.055.057,0,.057,0,.113-.055a.055.055,0,0,0,.057-.055h.113l.057-.055.057-.055.057-.055.057-.055h0L230.413-18.13h0v.876c0,.055,0,.055.057.109,0,.055,0,.055.057.109a.054.054,0,0,0,.056.055v.109l.057.055.057.055.057.055.057.055.057.055.057.055.057.055h.113a.055.055,0,0,1,.057.055.178.178,0,0,1,.113.055c.057,0,.057,0,.113.055h.057V8.915h-.057c-.057,0-.057,0-.113.055-.057,0-.057,0-.113.055a.055.055,0,0,0-.057.055h-.113l-.057.055-.057.055-.057.055-.057.055-.057.055-.057.055-.057.055v.109a.054.054,0,0,1-.056.055c0,.055,0,.055-.057.109,0,.055,0,.055-.057.109v.876h0L207.866,23.313h0l-.057-.055-.057-.055-.057-.055-.057-.055h-.113a.055.055,0,0,1-.057-.055c-.057,0-.057,0-.113-.055-.056,0-.056,0-.113-.055h-.735C206.4,22.82,206.34,22.82,206.34,22.82Zm0,111.191h-.113c-.057,0-.057,0-.113.055-.057,0-.057,0-.113.055a.055.055,0,0,0-.057.055h-.113l-.057.055-.057.055-.057.055-.057.055-.057.055-.057.055-.057.055v.109a.054.054,0,0,1-.057.055c0,.055,0,.055-.057.109,0,.055,0,.055-.056.11v.876h0L182.719,148.41h0l-.057-.055-.057-.055-.057-.055-.057-.055h-.113a.055.055,0,0,1-.057-.055c-.057,0-.057,0-.113-.055-.057,0-.057,0-.113-.055h-.848c-.057,0-.057,0-.113.055-.057,0-.057,0-.113.055a.055.055,0,0,0-.057.055h-.113l-.057.055-.057.055-.057.055-.057.055h0l-22.547-12.592h0v-.876c0-.055,0-.055-.056-.11,0-.055,0-.055-.057-.109a.054.054,0,0,0-.057-.055v-.109l-.056-.055-.057-.055-.057-.055-.056-.055-.057-.055-.057-.055-.057-.055H157.4a.055.055,0,0,1-.056-.055c-.057,0-.057,0-.113-.055-.057,0-.057,0-.113-.055h-.057V108.773h.057c.056,0,.056,0,.113-.055.057,0,.057,0,.113-.055a.055.055,0,0,0,.056-.055h.113l.057-.055.057-.055.057-.055.056-.055.057-.055.057-.055.056-.055v-.11a.054.054,0,0,1,.057-.055c0-.055,0-.055.057-.109,0-.055,0-.055.056-.11v-.876h0l22.547-12.592h0l.057.055.057.055.057.055.057.055h.113a.055.055,0,0,1,.057.055c.057,0,.057,0,.113.055.057,0,.057,0,.113.055h.9c.057,0,.057,0,.113-.055.057,0,.057,0,.113-.055a.055.055,0,0,0,.057-.055h.113l.057-.055.057-.055.057-.055.057-.055h0l22.547,12.592h0v.876c0,.055,0,.055.057.11,0,.055,0,.055.057.109a.054.054,0,0,0,.056.055v.11l.057.055.057.055.057.055.056.055.057.055.057.055.057.055H206a.055.055,0,0,1,.057.055c.057,0,.057,0,.113.055.057,0,.057,0,.113.055h.057v25.238Zm.509-27.811h-.735c-.057,0-.057,0-.113.055-.057,0-.057,0-.113.055a.055.055,0,0,0-.056.055h-.113l-.057.055-.057.055-.057.055-.057.055h0L182.945,93.991h0v-.876c0-.055,0-.055-.057-.109,0-.055,0-.055-.057-.11a.054.054,0,0,0-.057-.055v-.11l-.057-.055-.057-.055-.057-.055-.057-.055-.057-.055-.057-.055-.057-.055h-.113a.055.055,0,0,1-.057-.055c-.057,0-.057,0-.113-.055-.057,0-.057,0-.113-.055h-.057V66.946h.057c.057,0,.057,0,.113-.055.057,0,.057,0,.113-.055a.055.055,0,0,0,.057-.055h.113l.057-.055.057-.055.057-.055.057-.055.057-.055.057-.055.057-.055v-.109a.054.054,0,0,1,.057-.055c0-.055,0-.055.057-.109,0-.055,0-.055.057-.109V65.14h0l22.547-12.592h0l.057.055.057.055.057.055.057.055h.113a.055.055,0,0,1,.056.055c.057,0,.057,0,.113.055.057,0,.057,0,.113.055h.9c.057,0,.057,0,.113-.055.057,0,.057,0,.113-.055a.055.055,0,0,0,.057-.055h.113l.056-.055.057-.055.057-.055.057-.055h0L230.187,65.14h0v.876c0,.055,0,.055.057.109,0,.055,0,.055.056.109a.054.054,0,0,0,.057.055V66.4l.057.055.056.055.057.055.057.055.057.055.057.055.057.055h.113a.055.055,0,0,1,.057.055c.057,0,.057,0,.113.055.057,0,.057,0,.113.055h.057V92.185h-.057c-.057,0-.057,0-.113.055-.056,0-.056,0-.113.055a.055.055,0,0,0-.057.055h-.113l-.057.055-.057.055-.057.055-.057.055-.057.055-.056.055-.057.055v.109a.054.054,0,0,1-.057.055c0,.055,0,.055-.056.109,0,.055,0,.055-.057.109v.876h0L207.64,106.583h0l-.057-.055-.057-.055-.057-.055-.056-.055H207.3a.055.055,0,0,1-.057-.055c-.057,0-.057,0-.113-.055-.057,0-.057,0-.113-.055h-.17Zm49.163,27.811H255.9c-.057,0-.057,0-.113.055-.057,0-.057,0-.113.055a.055.055,0,0,0-.057.055H255.5l-.056.055-.057.055-.057.055-.057.055-.057.055-.057.055-.056.055v.109a.054.054,0,0,1-.057.055c0,.055,0,.055-.057.109,0,.055,0,.055-.057.11v.876h0L232.39,148.41h0l-.057-.055-.057-.055-.057-.055-.057-.055h-.113a.055.055,0,0,1-.057-.055c-.057,0-.057,0-.113-.055-.057,0-.057,0-.113-.055h-.848c-.057,0-.057,0-.113.055-.057,0-.057,0-.113.055a.055.055,0,0,0-.056.055h-.113l-.057.055-.057.055-.057.055-.056.055h0l-22.547-12.592h0v-.876c0-.055,0-.055-.057-.11,0-.055,0-.055-.057-.109a.054.054,0,0,0-.057-.055v-.109l-.057-.055-.056-.055-.057-.055-.057-.055-.057-.055-.057-.055-.057-.055h-.113a.055.055,0,0,1-.057-.055c-.057,0-.057,0-.113-.055-.056,0-.056,0-.113-.055h-.057V108.773h.057c.057,0,.057,0,.113-.055.057,0,.057,0,.113-.055a.055.055,0,0,0,.057-.055h.113l.057-.055.057-.055.057-.055.057-.055.057-.055.056-.055.057-.055v-.11a.054.054,0,0,1,.057-.055c0-.055,0-.055.057-.109,0-.055,0-.055.057-.11v-.876h0L230.3,94.374h0l.056.055.057.055.057.055.057.055h.113a.055.055,0,0,1,.056.055c.057,0,.057,0,.113.055.057,0,.057,0,.113.055h.9c.057,0,.057,0,.113-.055.057,0,.057,0,.113-.055a.055.055,0,0,0,.057-.055h.113l.057-.055.057-.055.057-.055.056-.055h0l22.547,12.592h0v.876c0,.055,0,.055.057.11,0,.055,0,.055.057.109a.054.054,0,0,0,.056.055v.11l.057.055.057.055.057.055.057.055.057.055.056.055.057.055h.113a.055.055,0,0,1,.057.055c.057,0,.057,0,.113.055.057,0,.057,0,.113.055h.057Zm.565-27.811h-.735c-.057,0-.057,0-.113.055-.057,0-.057,0-.113.055a.055.055,0,0,0-.057.055h-.113l-.056.055-.057.055-.057.055-.057.055h0L232.673,93.991h0v-.876c0-.055,0-.055-.057-.109,0-.055,0-.055-.056-.11a.054.054,0,0,0-.057-.055v-.11l-.057-.055-.057-.055-.057-.055-.057-.055-.057-.055-.057-.055-.057-.055h-.113a.055.055,0,0,1-.057-.055c-.057,0-.057,0-.113-.055-.057,0-.057,0-.113-.055h-.057V66.946h.057c.057,0,.057,0,.113-.055.056,0,.056,0,.113-.055a.055.055,0,0,0,.057-.055h.113l.057-.055.057-.055.057-.055.057-.055.057-.055.057-.055.057-.055v-.109a.054.054,0,0,1,.057-.055c0-.055,0-.055.056-.109,0-.055,0-.055.057-.109V65.14h0L255.22,52.548h0l.057.055.057.055.057.055.056.055h.113a.055.055,0,0,1,.057.055c.057,0,.057,0,.113.055.057,0,.057,0,.113.055h.9c.057,0,.057,0,.113-.055.057,0,.057,0,.113-.055a.055.055,0,0,0,.056-.055h.113l.056-.055.057-.055.057-.055.057-.055h0L279.915,65.14h0v.876c0,.055,0,.055.057.109,0,.055,0,.055.056.109a.054.054,0,0,0,.057.055V66.4l.057.055.056.055.057.055.057.055.057.055.057.055.057.055h.113a.055.055,0,0,1,.056.055c.056,0,.056,0,.113.055.057,0,.057,0,.113.055h.057V92.185h-.057c-.056,0-.056,0-.113.055-.057,0-.057,0-.113.055a.055.055,0,0,0-.056.055h-.113l-.057.055-.057.055-.057.055-.057.055-.057.055-.056.055-.057.055v.109a.054.054,0,0,1-.057.055c0,.055,0,.055-.056.109,0,.055,0,.055-.057.109v.876h0l-22.547,12.592h0l-.057-.055-.057-.055-.057-.055-.056-.055h-.113a.055.055,0,0,1-.056-.055c-.057,0-.057,0-.113-.055-.057,0-.057,0-.113-.055h-.17Zm49.163,27.811h-.113c-.057,0-.057,0-.113.055-.057,0-.057,0-.113.055a.055.055,0,0,0-.057.055h-.113l-.057.055-.056.055-.057.055-.057.055-.056.055-.057.055-.057.055v.109a.054.054,0,0,1-.056.055c0,.055,0,.055-.057.109,0,.055,0,.055-.057.11v.876h0L282.118,148.41h0l-.057-.055-.057-.055-.056-.055-.057-.055h-.113a.055.055,0,0,1-.056-.055c-.057,0-.057,0-.113-.055-.057,0-.057,0-.113-.055h-.791c-.057,0-.057,0-.113.055-.056,0-.056,0-.113.055a.055.055,0,0,0-.057.055h-.113l-.057.055-.056.055-.057.055-.056.055h0l-22.547-12.592h0v-.876c0-.055,0-.055-.057-.11,0-.055,0-.055-.057-.109a.054.054,0,0,0-.057-.055v-.109l-.057-.055-.057-.055-.057-.055-.057-.055-.057-.055-.056-.055-.057-.055h-.113a.055.055,0,0,1-.057-.055c-.057,0-.057,0-.113-.055-.057,0-.057,0-.113-.055h-.056V108.773h.056c.057,0,.057,0,.113-.055.057,0,.057,0,.113-.055a.055.055,0,0,0,.057-.055h.113l.057-.055.056-.055.057-.055.057-.055.057-.055.057-.055.057-.055v-.11a.054.054,0,0,1,.057-.055c0-.055,0-.055.057-.109,0-.055,0-.055.057-.11v-.876h0l22.547-12.592h0l.056.055.057.055.056.055.057.055h.113a.055.055,0,0,1,.057.055c.057,0,.057,0,.113.055.057,0,.057,0,.113.055h.9c.056,0,.056,0,.113-.055.056,0,.056,0,.113-.055a.055.055,0,0,0,.056-.055h.113l.057-.055.057-.055.057-.055.057-.055h0l22.547,12.592h0v.876c0,.055,0,.055.056.11,0,.055,0,.055.057.109a.054.054,0,0,0,.057.055v.11l.056.055.057.055.057.055.056.055.057.055.057.055.056.055h.113a.055.055,0,0,1,.057.055c.057,0,.057,0,.113.055.056,0,.056,0,.113.055h.057v25.238ZM330.6,92.294h0c-.113,0-.113.055-.17.055a.2.2,0,0,0-.113.055.055.055,0,0,0-.057.055h-.056c-.057,0-.057.055-.113.109-.056,0-.056.055-.113.055l-.113.109-.113.11c0,.055-.057.055-.057.109s-.056.055-.056.109-.057.055-.057.109-.057.055-.057.109v.547c0,.055,0,.109.057.109v.055l-22.547,12.592h0l-.056-.055-.057-.055-.057-.055-.056-.055H306.7a.055.055,0,0,1-.057-.055c-.056,0-.056,0-.113-.055-.056,0-.056,0-.113-.055h-.9c-.057,0-.057,0-.113.055-.057,0-.057,0-.113.055a.055.055,0,0,0-.056.055h-.113l-.056.055-.057.055-.057.055-.057.055h0L282.344,93.991h0v-.876c0-.055,0-.055-.057-.11,0-.055,0-.055-.056-.11a.054.054,0,0,0-.057-.055v-.11l-.057-.055-.057-.055-.057-.055-.057-.055-.057-.055-.056-.055-.057-.055h-.113a.055.055,0,0,1-.057-.055c-.057,0-.057,0-.113-.055-.057,0-.057,0-.113-.055h-.057V66.946h.057c.057,0,.057,0,.113-.055.057,0,.057,0,.113-.055a.055.055,0,0,0,.057-.055h.113l.057-.055.056-.055.057-.055.057-.055.057-.055.057-.055.057-.055v-.11a.054.054,0,0,1,.057-.055c0-.055,0-.055.056-.109,0-.055,0-.055.057-.109V65.14h0l22.547-12.592h0l.057.055.057.055.057.055.056.055h.113a.055.055,0,0,1,.056.055c.057,0,.057,0,.113.055.056,0,.056,0,.113.055h.9c.057,0,.057,0,.113-.055.057,0,.057,0,.113-.055a.055.055,0,0,0,.057-.055h.113l.056-.055.057-.055.057-.055.056-.055h0L329.586,65.14h0v.876c0,.055,0,.055.057.109,0,.055,0,.055.056.109a.054.054,0,0,0,.057.055v.11l.057.055.057.055.056.055.057.055.057.055.056.055.057.055h.113a.055.055,0,0,1,.057.055c.057,0,.057,0,.113.055.057,0,.057,0,.113.055h.056Z" transform="translate(-44.036 75)" fill="url(#linear-gradient)"/>
      </g>
      <g id="Icons-2" data-name="Icons" transform="translate(419.086 279.943)" opacity="0.169">
        <path id="Path_4890-2" data-name="Path 4890" d="M329.266,63.6l-.056-.054-.056-.054-.056-.054h-.112a.054.054,0,0,1-.056-.054c-.056,0-.056,0-.112-.054-.056,0-.056,0-.112-.054h-.894c-.056,0-.056,0-.112.054-.056,0-.056,0-.112.054a.054.054,0,0,0-.056.054h-.112l-.056.054-.056.054-.056.054-.056.054h0L304.908,51.2h0v-.866c0-.054,0-.054-.056-.108,0-.054,0-.054-.056-.108a.054.054,0,0,0-.056-.054v-.108l-.056-.054-.056-.054-.056-.054-.056-.054-.056-.054-.056-.054-.056-.054h-.112a.054.054,0,0,1-.056-.054c-.056,0-.056,0-.112-.054-.056,0-.056,0-.112-.054H303.9V24.628h.056c.056,0,.056,0,.112-.054.056,0,.056,0,.112-.054a.054.054,0,0,0,.056-.054h.112l.056-.054.056-.054.056-.054.056-.054.056-.054.056-.054.056-.054v-.108a.054.054,0,0,1,.056-.054c0-.054,0-.054.056-.108,0-.054,0-.054.056-.108v-.866h0L327.2,10.393a1.482,1.482,0,0,0,1.676.271,1.253,1.253,0,0,0,.5-1.786,1.337,1.337,0,0,0-1.844-.487,1.322,1.322,0,0,0-.615,1.516L304.628,22.355h0l-.056-.054-.056-.054-.056-.054-.056-.054h-.112a.054.054,0,0,1-.056-.054c-.056,0-.056,0-.112-.054-.056,0-.056,0-.112-.054h-.894c-.056,0-.056,0-.112.054-.056,0-.056,0-.112.054a.054.054,0,0,0-.056.054h-.112l-.056.054-.056.054-.056.054-.056.054h0L280.214,9.906h0V9.04c0-.054,0-.054-.056-.108,0-.054,0-.054-.056-.108a.054.054,0,0,0-.056-.054V8.661l-.056-.054-.056-.054-.056-.054-.056-.054-.056-.054-.056-.054-.056-.054h-.112a.054.054,0,0,1-.056-.054c-.056,0-.056,0-.112-.054-.056,0-.056,0-.112-.054h-.056V-16.615h.056c.056,0,.056,0,.112-.054.056,0,.056,0,.112-.054a.054.054,0,0,0,.056-.054h.112l.056-.054.056-.054.056-.054.056-.054.056-.054.056-.054.056-.054v-.108a.054.054,0,0,1,.056-.054c0-.054,0-.054.056-.108,0-.054,0-.054.056-.108V-18.4h0L302.505-30.85h0l.056.054.056.054.056.054.056.054h.112a.054.054,0,0,1,.056.054c.056,0,.056,0,.112.054.056,0,.056,0,.112.054h.894c.056,0,.056,0,.112-.054.056,0,.056,0,.112-.054a.054.054,0,0,0,.056-.054h.112l.056-.054.056-.054.056-.054.056-.054h0L326.919-18.4a1.3,1.3,0,0,0,.615,1.516,1.337,1.337,0,0,0,1.844-.487,1.253,1.253,0,0,0-.5-1.786,1.326,1.326,0,0,0-1.676.271L304.908-31.337h0V-32.2c0-.054,0-.054-.056-.108,0-.054,0-.054-.056-.108a.054.054,0,0,0-.056-.054v-.108l-.056-.054-.056-.054-.056-.054-.056-.054-.056-.054-.056-.054-.056-.054h-.112a.054.054,0,0,1-.056-.054.176.176,0,0,1-.112-.054c-.056,0-.056,0-.112-.054h-.894c-.056,0-.056,0-.112.054-.056,0-.056,0-.112.054a.054.054,0,0,0-.056.054h-.112l-.056.054-.056.054-.056.054-.056.054-.056.054-.056.054-.056.054v.108a.054.054,0,0,1-.056.054c0,.054,0,.054-.056.108,0,.054,0,.054-.056.108v.866h0L279.823-18.889h0l-.056-.054L279.711-19l-.056-.054-.056-.054h-.112a.054.054,0,0,1-.056-.054c-.056,0-.056,0-.112-.054-.056,0-.056,0-.112-.054h-.894c-.056,0-.056,0-.112.054-.056,0-.056,0-.112.054a.054.054,0,0,0-.056.054h-.112l-.056.054-.056.054-.056.054-.056.054h0L255.409-31.337h0V-32.2c0-.054,0-.054-.056-.108,0-.054,0-.054-.056-.108a.054.054,0,0,0-.056-.054v-.108l-.056-.054-.056-.054-.056-.054-.056-.054-.056-.054-.056-.054-.056-.054h-.112a.054.054,0,0,1-.056-.054c-.056,0-.056,0-.112-.054-.056,0-.056,0-.112-.054H254.4V-42h-.615v8.877h-.056c-.056,0-.056,0-.112.054-.056,0-.056,0-.112.054a.054.054,0,0,0-.056.054h-.112l-.056.054-.056.054-.056.054-.056.054-.056.054-.056.054-.056.054v.108a.054.054,0,0,1-.056.054c0,.054,0,.054-.056.108,0,.054,0,.054-.056.108v.866h0L230.492-18.889h0l-.056-.054L230.38-19l-.056-.054-.056-.054h-.112a.054.054,0,0,1-.056-.054c-.056,0-.056,0-.112-.054-.056,0-.056,0-.112-.054h-.894c-.056,0-.056,0-.112.054-.056,0-.056,0-.112.054a.054.054,0,0,0-.056.054h-.112l-.056.054-.056.054-.056.054-.056.054h0L206.078-31.337h0V-32.2c0-.054,0-.054-.056-.108,0-.054,0-.054-.056-.108a.054.054,0,0,0-.056-.054v-.108l-.056-.054-.056-.054-.056-.054-.056-.054-.056-.054-.056-.054-.056-.054h-.112a.054.054,0,0,1-.056-.054.176.176,0,0,1-.112-.054c-.056,0-.056,0-.112-.054h-.056V-42h-.615v8.877H204.4c-.056,0-.056,0-.112.054-.056,0-.056,0-.112.054a.054.054,0,0,0-.056.054h-.112l-.056.054-.056.054-.056.054-.056.054-.056.054-.056.054-.056.054v.108a.054.054,0,0,1-.056.054c0,.054,0,.054-.056.108,0,.054,0,.054-.056.108v.866h0L181.161-18.889h0l-.056-.054L181.049-19l-.056-.054-.056-.054h-.112a.054.054,0,0,1-.056-.054c-.056,0-.056,0-.112-.054-.056,0-.056,0-.112-.054h-.894c-.056,0-.056,0-.112.054-.056,0-.056,0-.112.054a.054.054,0,0,0-.056.054h-.112l-.056.054L179.15-19l-.056.054-.056.054h0L156.747-31.337a1.3,1.3,0,0,0-.615-1.516,1.337,1.337,0,0,0-1.844.487,1.253,1.253,0,0,0,.5,1.786,1.326,1.326,0,0,0,1.676-.271L178.759-18.4h0v.866c0,.054,0,.054.056.108,0,.054,0,.054.056.108a.054.054,0,0,0,.056.054v.108l.056.054.056.054.056.054.056.054.056.054.056.054.056.054h.112a.054.054,0,0,1,.056.054.176.176,0,0,1,.112.054c.056,0,.056,0,.112.054h.056V8.336h0c-.056,0-.056,0-.112.054-.056,0-.056,0-.112.054-.056,0-.056.054-.112.054s-.056.054-.112.054-.056.054-.112.108l-.112.108c-.056.054-.056.054-.056.108l-.112.108V9.04a.054.054,0,0,1-.056.054.187.187,0,0,1-.056.108c0,.054,0,.054-.056.108,0,.054,0,.108-.056.108V9.96c0,.054,0,.054.056.108a.187.187,0,0,0,.056.108c0,.054.056.054.056.108s.056.054.056.108.056.054.112.108l.112.108c.056.054.056.054.112.054l.112.108h.056a.054.054,0,0,1,.056.054.2.2,0,0,1,.112.054c.056,0,.056,0,.112.054.056,0,.112,0,.112.054h.559c.056,0,.056,0,.112-.054a.2.2,0,0,0,.112-.054c.056,0,.056-.054.112-.054s.056-.054.112-.054.056-.054.112-.054l.112-.108h0L203.34,23.058h0v.866c0,.054,0,.054.056.108,0,.054,0,.054.056.108a.054.054,0,0,0,.056.054V24.3l.056.054.056.054.056.054.056.054.056.054.056.054.056.054h.112a.054.054,0,0,1,.056.054c.056,0,.056,0,.112.054.056,0,.056,0,.112.054h.056V49.8h-.056c-.056,0-.056,0-.112.054-.056,0-.056,0-.112.054a.054.054,0,0,0-.056.054H203.9l-.056.054-.056.054-.056.054-.056.054-.056.054-.056.054-.056.054v.108a.054.054,0,0,1-.056.054c0,.054,0,.054-.056.108,0,.054,0,.054-.056.108v.866h0L181.049,64.031h0l-.056-.054-.056-.054-.056-.054-.056-.054h-.112a.054.054,0,0,1-.056-.054c-.056,0-.056,0-.112-.054-.056,0-.056,0-.112-.054h-.894c-.056,0-.056,0-.112.054-.056,0-.056,0-.112.054a.054.054,0,0,0-.056.054h-.112l-.056.054-.056.054-.056.054-.056.054h0L156.635,51.582a1.3,1.3,0,0,0-.615-1.516,1.337,1.337,0,0,0-1.844.487,1.253,1.253,0,0,0,.5,1.786,1.326,1.326,0,0,0,1.676-.271l22.291,12.449h0v.866c0,.054,0,.054.056.108,0,.054,0,.054.056.108a.054.054,0,0,0,.056.054v.108l.056.054.056.054.056.054.056.054.056.054.056.054.056.054h.112a.054.054,0,0,1,.056.054c.056,0,.056,0,.112.054.056,0,.056,0,.112.054h.056V91.256H179.6c-.056,0-.056,0-.112.054-.056,0-.056,0-.112.054a.054.054,0,0,0-.056.054h-.112l-.056.054-.056.054-.056.054-.056.054-.056.054-.056.054-.056.054v.108a.054.054,0,0,1-.056.054c0,.054,0,.054-.056.108,0,.054,0,.054-.056.108v.866h0l-22.291,12.449h0l-.056-.054-.056-.054-.056-.054-.056-.054h-.112a.054.054,0,0,1-.056-.054c-.056,0-.056,0-.112-.054-.056,0-.056,0-.112-.054h-.894c-.056,0-.056,0-.112.054-.056,0-.056,0-.112.054a.054.054,0,0,0-.056.054h-.112l-.056.054-.056.054-.056.054-.056.054h0L131.942,93.042a1.3,1.3,0,0,0-.615-1.515,1.337,1.337,0,0,0-1.844.487,1.253,1.253,0,0,0,.5,1.786,1.326,1.326,0,0,0,1.676-.271l22.291,12.449h0v.866c0,.054,0,.054.056.108,0,.054,0,.054.056.108a.054.054,0,0,0,.056.054v.108l.056.054.056.054.056.054.056.054.056.054.056.054.056.054h.112a.054.054,0,0,1,.056.054c.056,0,.056,0,.112.054.056,0,.056,0,.112.054h.056v24.952H154.9c-.056,0-.056,0-.112.054-.056,0-.056,0-.112.054a.054.054,0,0,0-.056.054h-.112l-.056.054-.056.054-.056.054-.056.054-.056.054-.056.054-.056.054v.108a.054.054,0,0,1-.056.054c0,.054,0,.054-.056.108,0,.054,0,.054-.056.108v.866h0l-22.291,12.449h0l-.056-.054-.056-.054-.056-.054-.056-.054h-.112a.054.054,0,0,1-.056-.054c-.056,0-.056,0-.112-.054-.056,0-.056,0-.112-.054h-.838c-.056,0-.056,0-.112.054-.056,0-.056,0-.112.054a.054.054,0,0,0-.056.054h-.112l-.056.054-.056.054-.056.054-.056.054h0L107.3,134.5a1.3,1.3,0,0,0-.615-1.516,1.337,1.337,0,0,0-1.844.487,1.253,1.253,0,0,0,.5,1.786,1.326,1.326,0,0,0,1.676-.271l22.291,12.449h0v.812c0,.054,0,.054.056.108,0,.054,0,.054.056.108a.054.054,0,0,0,.056.054v.108l.056.054.056.054.056.054.056.054.056.054.056.054.056.054h.112a.054.054,0,0,1,.056.054c.056,0,.056,0,.112.054.056,0,.056,0,.112.054h.056v13.423h.615V148.3h.056c.056,0,.056,0,.112-.054.056,0,.056,0,.112-.054a.054.054,0,0,0,.056-.054h.112l.056-.054.056-.054.056-.054.056-.054.056-.054.056-.054.056-.054v-.108a.054.054,0,0,1,.056-.054c0-.054,0-.054.056-.108,0-.054,0-.054.056-.108v-.866h0l22.291-12.449h0l.056.054.056.054.056.054.056.054h.112a.054.054,0,0,1,.056.054c.056,0,.056,0,.112.054.056,0,.056,0,.112.054h.894c.056,0,.056,0,.112-.054.056,0,.056,0,.112-.054a.054.054,0,0,0,.056-.054h.112l.056-.054.056-.054.056-.054.056-.054h0l22.291,12.449h0v.866c0,.054,0,.054.056.108,0,.054,0,.054.056.108a.054.054,0,0,0,.056.054v.108l.056.054.056.054.056.054.056.054.056.054.056.054.056.054h.112a.054.054,0,0,1,.056.054c.056,0,.056,0,.112.054.056,0,.056,0,.112.054h.056v14.289h.615V148.3h.056c.056,0,.056,0,.112-.054.056,0,.056,0,.112-.054a.054.054,0,0,0,.056-.054h.112l.056-.054.056-.054.056-.054.056-.054.056-.054.056-.054.056-.054v-.108a.054.054,0,0,1,.056-.054c0-.054,0-.054.056-.108,0-.054,0-.054.056-.108v-.866h0l22.291-12.449h0l.056.054.056.054.056.054.056.054h.112a.054.054,0,0,1,.056.054c.056,0,.056,0,.112.054.056,0,.056,0,.112.054h.894c.056,0,.056,0,.112-.054.056,0,.056,0,.112-.054a.054.054,0,0,0,.056-.054h.112l.056-.054.056-.054.056-.054.056-.054h0l22.291,12.449h0v.866c0,.054,0,.054.056.108,0,.054,0,.054.056.108a.054.054,0,0,0,.056.054v.108l.056.054.056.054.056.054.056.054.056.054.056.054.056.054h.112a.054.054,0,0,1,.056.054c.056,0,.056,0,.112.054.056,0,.056,0,.112.054h.056v14.289h.615V148.3h.056c.056,0,.056,0,.112-.054.056,0,.056,0,.112-.054a.054.054,0,0,0,.056-.054h.112l.056-.054.056-.054.056-.054.056-.054.056-.054.056-.054.056-.054v-.108a.054.054,0,0,1,.056-.054c0-.054,0-.054.056-.108,0-.054,0-.054.056-.108v-.866h0l22.291-12.449h0l.056.054.056.054.056.054.056.054h.112a.054.054,0,0,1,.056.054c.056,0,.056,0,.112.054.056,0,.056,0,.112.054h.894c.056,0,.056,0,.112-.054.056,0,.056,0,.112-.054a.054.054,0,0,0,.056-.054h.112l.056-.054.056-.054.056-.054.056-.054h0l22.291,12.449h0v.866c0,.054,0,.054.056.108,0,.054,0,.054.056.108a.054.054,0,0,0,.056.054v.108l.056.054.056.054.056.054.056.054.056.054.056.054.056.054h.112a.054.054,0,0,1,.056.054c.056,0,.056,0,.112.054.056,0,.056,0,.112.054h.056v14.289h.615V148.3h.056c.056,0,.056,0,.112-.054.056,0,.056,0,.112-.054a.054.054,0,0,0,.056-.054h.112l.056-.054.056-.054.056-.054.056-.054.056-.054.056-.054.056-.054v-.108a.054.054,0,0,1,.056-.054c0-.054,0-.054.056-.108,0-.054,0-.054.056-.108v-.866h0l22.291-12.449h0l.056.054.056.054.056.054.056.054h.112a.054.054,0,0,1,.056.054c.056,0,.056,0,.112.054.056,0,.056,0,.112.054h.894c.056,0,.056,0,.112-.054.056,0,.056,0,.112-.054a.054.054,0,0,0,.056-.054h.112l.056-.054.056-.054.056-.054.056-.054h0l22.291,12.449a1.3,1.3,0,0,0,.615,1.516,1.337,1.337,0,0,0,1.844-.487,1.253,1.253,0,0,0-.5-1.786,1.326,1.326,0,0,0-1.676.271l-22.291-12.449h0v-.866c0-.054,0-.054-.056-.108,0-.054,0-.054-.056-.108a.054.054,0,0,0-.056-.054v-.108l-.056-.054-.056-.054-.056-.054-.056-.054-.056-.054-.056-.054-.056-.054h-.112a.054.054,0,0,1-.056-.054c-.056,0-.056,0-.112-.054-.056,0-.056,0-.112-.054h-.056V106.844h.056c.056,0,.056,0,.112-.054.056,0,.056,0,.112-.054a.054.054,0,0,0,.056-.054h.112l.056-.054.056-.054.056-.054.056-.054.056-.054.056-.054.056-.054v-.108a.054.054,0,0,1,.056-.054c0-.054,0-.054.056-.108,0-.054,0-.054.056-.108v-.866h0l22.291-12.449h0l.112.108c.056.054.056.054.112.054s.056.054.112.054.056.054.112.054.056.054.112.054.056.054.112.054h.559c.056,0,.112,0,.112-.054.056,0,.056,0,.112-.054a.2.2,0,0,0,.112-.054.054.054,0,0,0,.056-.054h.056c.056,0,.056-.054.112-.108.056,0,.056-.054.112-.054l.112-.108c.056-.054.056-.054.056-.108s.056-.054.056-.108.056-.054.056-.108.056-.054.056-.108.056-.054.056-.108v-.541c0-.054,0-.108-.056-.108,0-.054,0-.054-.056-.108a.187.187,0,0,0-.056-.108.054.054,0,0,0-.056-.054v-.054c0-.054-.056-.054-.112-.108,0-.054-.056-.054-.056-.108l-.112-.108-.112-.108c-.056,0-.056-.054-.112-.054s-.056-.054-.112-.054-.056-.054-.112-.054-.056-.054-.112-.054h0V65.384h.056c.056,0,.056,0,.112-.054.056,0,.056,0,.112-.054a.054.054,0,0,0,.056-.054h.112l.056-.054.056-.054.056-.054.056-.054.056-.054.056-.054.056-.054v-.108a.054.054,0,0,1,.056-.054c0-.054,0-.054.056-.108,0-.054,0-.054.056-.108V63.6h0l-1.788.7c.447.433-.056-.163.5-.433h.67ZM279.041,10.88h.615c.056,0,.056,0,.112-.054.056,0,.056,0,.112-.054a.054.054,0,0,0,.056-.054h.112l.056-.054.056-.054.056-.054.056-.054h0L302.561,22.95h0v.866c0,.054,0,.054.056.108,0,.054,0,.054.056.108a.054.054,0,0,0,.056.054v.108l.056.054.056.054.056.054.056.054.056.054.056.054.056.054h.112a.054.054,0,0,1,.056.054c.056,0,.056,0,.112.054.056,0,.056,0,.112.054h.056V49.688h-.056c-.056,0-.056,0-.112.054-.056,0-.056,0-.112.054a.054.054,0,0,0-.056.054h-.112l-.056.054-.056.054-.056.054-.056.054-.056.054-.056.054-.056.054v.108a.054.054,0,0,1-.056.054c0,.054,0,.054-.056.108,0,.054,0,.054-.056.108v.866h0L280.27,63.923h0l-.056-.054-.056-.054-.056-.054-.056-.054h-.112a.054.054,0,0,1-.056-.054c-.056,0-.056,0-.112-.054-.056,0-.056,0-.112-.054h-.894c-.056,0-.056,0-.112.054-.056,0-.056,0-.112.054a.054.054,0,0,0-.056.054h-.112l-.056.054-.056.054-.056.054-.056.054h0L255.856,51.474h0v-.866c0-.054,0-.054-.056-.108,0-.054,0-.054-.056-.108a.054.054,0,0,0-.056-.054v-.108l-.056-.054-.056-.054-.056-.054-.056-.054-.056-.054-.056-.054-.056-.054h-.112a.054.054,0,0,1-.056-.054c-.056,0-.056,0-.112-.054-.056,0-.056,0-.112-.054h-.056V24.628h.056c.056,0,.056,0,.112-.054.056,0,.056,0,.112-.054a.054.054,0,0,0,.056-.054h.112l.056-.054.056-.054.056-.054.056-.054.056-.054.056-.054.056-.054v-.108a.054.054,0,0,1,.056-.054c0-.054,0-.054.056-.108,0-.054,0-.054.056-.108v-.866h0l22.291-12.449h0l.056.054.056.054.056.054.056.054h.112a.054.054,0,0,1,.056.054c.056,0,.056,0,.112.054.056,0,.056,0,.112.054h.168C278.985,10.88,279.041,10.88,279.041,10.88Zm-48.716-27.5h.112c.056,0,.056,0,.112-.054.056,0,.056,0,.112-.054a.054.054,0,0,0,.056-.054h.112l.056-.054.056-.054L231-16.94l.056-.054.056-.054.056-.054.056-.054v-.108a.054.054,0,0,1,.056-.054c0-.054,0-.054.056-.108,0-.054,0-.054.056-.108V-18.4h0L253.678-30.85h0l.056.054.056.054.056.054.056.054h.112a.054.054,0,0,1,.056.054c.056,0,.056,0,.112.054.056,0,.056,0,.112.054h.894c.056,0,.056,0,.112-.054.056,0,.056,0,.112-.054a.054.054,0,0,0,.056-.054h.112l.056-.054.056-.054.056-.054.056-.054h0L278.092-18.4h0v.866c0,.054,0,.054.056.108,0,.054,0,.054.056.108a.054.054,0,0,0,.056.054v.108l.056.054.056.054.056.054.056.054.056.054.056.054.056.054h.112a.054.054,0,0,1,.056.054.176.176,0,0,1,.112.054c.056,0,.056,0,.112.054h.056V8.336h-.056c-.056,0-.056,0-.112.054-.056,0-.056,0-.112.054a.054.054,0,0,0-.056.054h-.112l-.056.054-.056.054-.056.054-.056.054-.056.054-.056.054-.056.054v.108a.054.054,0,0,1-.056.054c0,.054,0,.054-.056.108,0,.054,0,.054-.056.108v.866h0L255.8,22.571h0l-.056-.054-.056-.054-.056-.054-.056-.054h-.112a.054.054,0,0,1-.056-.054c-.056,0-.056,0-.112-.054-.056,0-.056,0-.112-.054h-.894c-.056,0-.056,0-.112.054-.056,0-.056,0-.112.054a.054.054,0,0,0-.056.054H253.9l-.056.054-.056.054-.056.054-.056.054h0L231.387,10.122h0V9.256c0-.054,0-.054-.056-.108,0-.054,0-.054-.056-.108a.054.054,0,0,0-.056-.054V8.878l-.056-.054-.056-.054-.056-.054L231,8.661l-.056-.054-.056-.054-.056-.054h-.112a.054.054,0,0,1-.056-.054c-.056,0-.056,0-.112-.054-.056,0-.056,0-.112-.054h-.056V-16.615Zm-.391,27.5h.615c.056,0,.056,0,.112-.054.056,0,.056,0,.112-.054a.054.054,0,0,0,.056-.054h.112l.056-.054.056-.054.056-.054.056-.054h0L253.454,22.95h0v.866c0,.054,0,.054.056.108,0,.054,0,.054.056.108a.054.054,0,0,0,.056.054v.108l.056.054.056.054.056.054.056.054.056.054.056.054.056.054h.112a.054.054,0,0,1,.056.054c.056,0,.056,0,.112.054.056,0,.056,0,.112.054h.056V49.688H254.4c-.056,0-.056,0-.112.054-.056,0-.056,0-.112.054a.054.054,0,0,0-.056.054h-.112l-.056.054-.056.054-.056.054-.056.054-.056.054-.056.054-.056.054v.108a.054.054,0,0,1-.056.054c0,.054,0,.054-.056.108,0,.054,0,.054-.056.108v.866h0L231.163,63.923h0l-.056-.054-.056-.054L231,63.76l-.056-.054h-.112a.054.054,0,0,1-.056-.054c-.056,0-.056,0-.112-.054-.056,0-.056,0-.112-.054h-.894c-.056,0-.056,0-.112.054-.056,0-.056,0-.112.054a.054.054,0,0,0-.056.054h-.112l-.056.054-.056.054-.056.054-.056.054h0L206.749,51.474h0v-.866c0-.054,0-.054-.056-.108,0-.054,0-.054-.056-.108a.054.054,0,0,0-.056-.054v-.108l-.056-.054-.056-.054-.056-.054-.056-.054-.056-.054-.056-.054-.056-.054h-.112a.054.054,0,0,1-.056-.054c-.056,0-.056,0-.112-.054-.056,0-.056,0-.112-.054h-.056V24.628h.056c.056,0,.056,0,.112-.054.056,0,.056,0,.112-.054a.054.054,0,0,0,.056-.054h.112l.056-.054.056-.054.056-.054.056-.054.056-.054.056-.054.056-.054v-.108a.054.054,0,0,1,.056-.054c0-.054,0-.054.056-.108,0-.054,0-.054.056-.108v-.866h0L229.04,10.393h0l.056.054.056.054.056.054.056.054h.112a.054.054,0,0,1,.056.054c.056,0,.056,0,.112.054.056,0,.056,0,.112.054h.168C229.878,10.88,229.878,10.88,229.934,10.88Zm-24.749,11.2h-.056c-.056,0-.056,0-.112.054-.056,0-.056,0-.112.054a.054.054,0,0,0-.056.054h-.112l-.056.054-.056.054-.056.054-.056.054h0L182.223,10.014V9.96c0-.054,0-.108.056-.108V9.311c0-.054,0-.054-.056-.108a.187.187,0,0,0-.056-.108c0-.054-.056-.054-.056-.108s-.056-.054-.056-.108S182,8.823,182,8.769l-.112-.108c-.056-.054-.056-.054-.112-.054l-.112-.108h-.056a.054.054,0,0,1-.056-.054.2.2,0,0,1-.112-.054c-.056,0-.056,0-.112-.054h-.056V-16.615h.056c.056,0,.056,0,.112-.054.056,0,.056,0,.112-.054a.054.054,0,0,0,.056-.054h.112l.056-.054.056-.054.056-.054.056-.054.056-.054.056-.054.056-.054v-.108a.054.054,0,0,1,.056-.054c0-.054,0-.054.056-.108,0-.054,0-.054.056-.108V-18.4h0L204.57-30.85h0l.056.054.056.054.056.054.056.054h.112a.054.054,0,0,1,.056.054c.056,0,.056,0,.112.054.056,0,.056,0,.112.054h.894c.056,0,.056,0,.112-.054.056,0,.056,0,.112-.054a.054.054,0,0,0,.056-.054h.112l.056-.054.056-.054.056-.054.056-.054h0L228.984-18.4h0v.866c0,.054,0,.054.056.108,0,.054,0,.054.056.108a.054.054,0,0,0,.056.054v.108l.056.054.056.054.056.054.056.054.056.054.056.054.056.054h.112a.054.054,0,0,1,.056.054.176.176,0,0,1,.112.054c.056,0,.056,0,.112.054h.056V8.336h-.056c-.056,0-.056,0-.112.054-.056,0-.056,0-.112.054a.054.054,0,0,0-.056.054h-.112l-.056.054-.056.054-.056.054-.056.054-.056.054-.056.054-.056.054v.108a.054.054,0,0,1-.056.054c0,.054,0,.054-.056.108,0,.054,0,.054-.056.108v.866h0L206.693,22.571h0l-.056-.054-.056-.054-.056-.054-.056-.054h-.112a.054.054,0,0,1-.056-.054c-.056,0-.056,0-.112-.054-.056,0-.056,0-.112-.054h-.726C205.241,22.084,205.185,22.084,205.185,22.084Zm0,109.928h-.112c-.056,0-.056,0-.112.054-.056,0-.056,0-.112.054a.054.054,0,0,0-.056.054h-.112l-.056.054-.056.054-.056.054-.056.054-.056.054-.056.054-.056.054v.108a.054.054,0,0,1-.056.054c0,.054,0,.054-.056.108,0,.054,0,.054-.056.108v.866h0l-22.291,12.449h0l-.056-.054-.056-.054-.056-.054-.056-.054H181.5a.054.054,0,0,1-.056-.054c-.056,0-.056,0-.112-.054-.056,0-.056,0-.112-.054h-.838c-.056,0-.056,0-.112.054-.056,0-.056,0-.112.054a.054.054,0,0,0-.056.054h-.112l-.056.054-.056.054-.056.054-.056.054h0L157.474,133.8h0v-.866c0-.054,0-.054-.056-.108,0-.054,0-.054-.056-.108a.054.054,0,0,0-.056-.054v-.108l-.056-.054-.056-.054-.056-.054-.056-.054-.056-.054-.056-.054-.056-.054H156.8a.054.054,0,0,1-.056-.054c-.056,0-.056,0-.112-.054-.056,0-.056,0-.112-.054h-.056V107.06h.056c.056,0,.056,0,.112-.054.056,0,.056,0,.112-.054a.054.054,0,0,0,.056-.054h.112l.056-.054.056-.054.056-.054.056-.054.056-.054.056-.054.056-.054v-.108a.054.054,0,0,1,.056-.054c0-.054,0-.054.056-.108,0-.054,0-.054.056-.108v-.866h0l22.291-12.449h0l.056.054.056.054.056.054.056.054h.112a.054.054,0,0,1,.056.054c.056,0,.056,0,.112.054.056,0,.056,0,.112.054h.894c.056,0,.056,0,.112-.054.056,0,.056,0,.112-.054a.054.054,0,0,0,.056-.054h.112l.056-.054.056-.054.056-.054.056-.054h0l22.291,12.449h0v.866c0,.054,0,.054.056.108,0,.054,0,.054.056.108a.054.054,0,0,0,.056.054v.108l.056.054.056.054.056.054.056.054.056.054.056.054.056.054h.112a.054.054,0,0,1,.056.054c.056,0,.056,0,.112.054.056,0,.056,0,.112.054h.056v24.952Zm.5-27.5h-.726c-.056,0-.056,0-.112.054-.056,0-.056,0-.112.054a.054.054,0,0,0-.056.054h-.112l-.056.054-.056.054-.056.054-.056.054h0L182.056,92.447h0v-.866c0-.054,0-.054-.056-.108,0-.054,0-.054-.056-.108a.054.054,0,0,0-.056-.054V91.2l-.056-.054-.056-.054-.056-.054-.056-.054-.056-.054-.056-.054-.056-.054h-.112a.054.054,0,0,1-.056-.054c-.056,0-.056,0-.112-.054-.056,0-.056,0-.112-.054h-.056V65.709h.056c.056,0,.056,0,.112-.054.056,0,.056,0,.112-.054a.054.054,0,0,0,.056-.054h.112l.056-.054.056-.054.056-.054.056-.054.056-.054.056-.054.056-.054v-.108a.054.054,0,0,1,.056-.054c0-.054,0-.054.056-.108,0-.054,0-.054.056-.108v-.866h0l22.291-12.449h0l.056.054.056.054.056.054.056.054h.112a.054.054,0,0,1,.056.054c.056,0,.056,0,.112.054.056,0,.056,0,.112.054h.894c.056,0,.056,0,.112-.054.056,0,.056,0,.112-.054a.054.054,0,0,0,.056-.054h.112l.056-.054.056-.054.056-.054.056-.054h0l22.291,12.449h0v.866c0,.054,0,.054.056.108,0,.054,0,.054.056.108a.054.054,0,0,0,.056.054v.108l.056.054.056.054.056.054.056.054.056.054.056.054.056.054h.112a.054.054,0,0,1,.056.054c.056,0,.056,0,.112.054.056,0,.056,0,.112.054h.056V90.66h-.056c-.056,0-.056,0-.112.054-.056,0-.056,0-.112.054a.054.054,0,0,0-.056.054h-.112l-.056.054-.056.054-.056.054-.056.054-.056.054-.056.054-.056.054v.108a.054.054,0,0,1-.056.054c0,.054,0,.054-.056.108,0,.054,0,.054-.056.108v.866h0L206.47,104.9h0l-.056-.054-.056-.054-.056-.054-.056-.054h-.112a.054.054,0,0,1-.056-.054c-.056,0-.056,0-.112-.054-.056,0-.056,0-.112-.054h-.168Zm48.6,27.5h-.112c-.056,0-.056,0-.112.054-.056,0-.056,0-.112.054a.054.054,0,0,0-.056.054h-.112l-.056.054-.056.054-.056.054-.056.054-.056.054-.056.054-.056.054v.108a.054.054,0,0,1-.056.054c0,.054,0,.054-.056.108,0,.054,0,.054-.056.108v.866h0L230.94,146.247h0l-.056-.054-.056-.054-.056-.054-.056-.054H230.6a.054.054,0,0,1-.056-.054c-.056,0-.056,0-.112-.054-.056,0-.056,0-.112-.054h-.838c-.056,0-.056,0-.112.054-.056,0-.056,0-.112.054a.054.054,0,0,0-.056.054H229.1l-.056.054-.056.054-.056.054-.056.054h0L206.581,133.8h0v-.866c0-.054,0-.054-.056-.108,0-.054,0-.054-.056-.108a.054.054,0,0,0-.056-.054v-.108l-.056-.054-.056-.054-.056-.054-.056-.054-.056-.054-.056-.054-.056-.054h-.112a.054.054,0,0,1-.056-.054c-.056,0-.056,0-.112-.054-.056,0-.056,0-.112-.054h-.056V107.06h.056c.056,0,.056,0,.112-.054.056,0,.056,0,.112-.054a.054.054,0,0,0,.056-.054h.112l.056-.054.056-.054.056-.054.056-.054.056-.054.056-.054.056-.054v-.108a.054.054,0,0,1,.056-.054c0-.054,0-.054.056-.108,0-.054,0-.054.056-.108v-.866h0l22.291-12.449h0l.056.054.056.054.056.054.056.054h.112a.054.054,0,0,1,.056.054c.056,0,.056,0,.112.054.056,0,.056,0,.112.054h.894c.056,0,.056,0,.112-.054.056,0,.056,0,.112-.054a.054.054,0,0,0,.056-.054h.112l.056-.054.056-.054.056-.054.056-.054h0l22.291,12.449h0v.866c0,.054,0,.054.056.108,0,.054,0,.054.056.108a.054.054,0,0,0,.056.054v.108l.056.054.056.054.056.054.056.054.056.054.056.054.056.054h.112a.054.054,0,0,1,.056.054c.056,0,.056,0,.112.054.056,0,.056,0,.112.054h.056Zm.559-27.5h-.726c-.056,0-.056,0-.112.054-.056,0-.056,0-.112.054a.054.054,0,0,0-.056.054h-.112l-.056.054-.056.054-.056.054-.056.054h0L231.219,92.447h0v-.866c0-.054,0-.054-.056-.108,0-.054,0-.054-.056-.108a.054.054,0,0,0-.056-.054V91.2L231,91.148l-.056-.054-.056-.054-.056-.054-.056-.054-.056-.054-.056-.054h-.112a.054.054,0,0,1-.056-.054c-.056,0-.056,0-.112-.054-.056,0-.056,0-.112-.054h-.056V65.709h.056c.056,0,.056,0,.112-.054.056,0,.056,0,.112-.054a.054.054,0,0,0,.056-.054h.112l.056-.054.056-.054.056-.054.056-.054.056-.054.056-.054.056-.054v-.108a.054.054,0,0,1,.056-.054c0-.054,0-.054.056-.108,0-.054,0-.054.056-.108v-.866h0L253.51,51.474h0l.056.054.056.054.056.054.056.054h.112a.054.054,0,0,1,.056.054c.056,0,.056,0,.112.054.056,0,.056,0,.112.054h.894c.056,0,.056,0,.112-.054.056,0,.056,0,.112-.054a.054.054,0,0,0,.056-.054h.112l.056-.054.056-.054.056-.054.056-.054h0l22.291,12.449h0v.866c0,.054,0,.054.056.108,0,.054,0,.054.056.108a.054.054,0,0,0,.056.054v.108l.056.054.056.054.056.054.056.054.056.054.056.054.056.054h.112a.054.054,0,0,1,.056.054c.056,0,.056,0,.112.054.056,0,.056,0,.112.054h.056V90.66h-.056c-.056,0-.056,0-.112.054-.056,0-.056,0-.112.054a.054.054,0,0,0-.056.054h-.112l-.056.054-.056.054-.056.054-.056.054-.056.054-.056.054-.056.054v.108a.054.054,0,0,1-.056.054c0,.054,0,.054-.056.108,0,.054,0,.054-.056.108v.866h0L255.633,104.9h0l-.056-.054-.056-.054-.056-.054-.056-.054H255.3a.054.054,0,0,1-.056-.054c-.056,0-.056,0-.112-.054-.056,0-.056,0-.112-.054h-.168Zm48.6,27.5h-.112c-.056,0-.056,0-.112.054-.056,0-.056,0-.112.054a.054.054,0,0,0-.056.054h-.112l-.056.054-.056.054-.056.054-.056.054-.056.054-.056.054-.056.054v.108a.054.054,0,0,1-.056.054c0,.054,0,.054-.056.108,0,.054,0,.054-.056.108v.866h0L280.1,146.247h0l-.056-.054-.056-.054-.056-.054-.056-.054h-.112a.054.054,0,0,1-.056-.054c-.056,0-.056,0-.112-.054-.056,0-.056,0-.112-.054h-.782c-.056,0-.056,0-.112.054-.056,0-.056,0-.112.054a.054.054,0,0,0-.056.054h-.112l-.056.054-.056.054-.056.054-.056.054h0L255.8,133.8h0v-.866c0-.054,0-.054-.056-.108,0-.054,0-.054-.056-.108a.054.054,0,0,0-.056-.054v-.108l-.056-.054-.056-.054-.056-.054-.056-.054-.056-.054-.056-.054-.056-.054h-.112a.054.054,0,0,1-.056-.054c-.056,0-.056,0-.112-.054-.056,0-.056,0-.112-.054h-.056V107.06h.056c.056,0,.056,0,.112-.054.056,0,.056,0,.112-.054a.054.054,0,0,0,.056-.054h.112l.056-.054.056-.054.056-.054.056-.054.056-.054.056-.054.056-.054v-.108a.054.054,0,0,1,.056-.054c0-.054,0-.054.056-.108,0-.054,0-.054.056-.108v-.866h0l22.291-12.449h0l.056.054.056.054.056.054.056.054h.112a.054.054,0,0,1,.056.054c.056,0,.056,0,.112.054.056,0,.056,0,.112.054h.894c.056,0,.056,0,.112-.054.056,0,.056,0,.112-.054a.054.054,0,0,0,.056-.054h.112l.056-.054.056-.054.056-.054.056-.054h0l22.291,12.449h0v.866c0,.054,0,.054.056.108,0,.054,0,.054.056.108a.054.054,0,0,0,.056.054v.108l.056.054.056.054.056.054.056.054.056.054.056.054.056.054h.112a.054.054,0,0,1,.056.054c.056,0,.056,0,.112.054.056,0,.056,0,.112.054h.056v24.952Zm24.582-41.243h0c-.112,0-.112.054-.168.054a.2.2,0,0,0-.112.054.054.054,0,0,0-.056.054h-.056c-.056,0-.056.054-.112.108-.056,0-.056.054-.112.054l-.112.108-.112.108c0,.054-.056.054-.056.108s-.056.054-.056.108-.056.054-.056.108-.056.054-.056.108v.541c0,.054,0,.108.056.108v.054L304.74,104.9h0l-.056-.054-.056-.054-.056-.054-.056-.054H304.4a.054.054,0,0,1-.056-.054c-.056,0-.056,0-.112-.054-.056,0-.056,0-.112-.054h-.894c-.056,0-.056,0-.112.054-.056,0-.056,0-.112.054a.054.054,0,0,0-.056.054h-.112l-.056.054-.056.054-.056.054-.056.054h0L280.326,92.447h0v-.866c0-.054,0-.054-.056-.108,0-.054,0-.054-.056-.108a.054.054,0,0,0-.056-.054V91.2l-.056-.054-.056-.054-.056-.054-.056-.054-.056-.054-.056-.054-.056-.054h-.112a.054.054,0,0,1-.056-.054c-.056,0-.056,0-.112-.054-.056,0-.056,0-.112-.054h-.056V65.709h.056c.056,0,.056,0,.112-.054.056,0,.056,0,.112-.054a.054.054,0,0,0,.056-.054h.112l.056-.054.056-.054.056-.054.056-.054.056-.054.056-.054.056-.054v-.108a.054.054,0,0,1,.056-.054c0-.054,0-.054.056-.108,0-.054,0-.054.056-.108v-.866h0l22.291-12.449h0l.056.054.056.054.056.054.056.054h.112a.054.054,0,0,1,.056.054c.056,0,.056,0,.112.054.056,0,.056,0,.112.054h.894c.056,0,.056,0,.112-.054.056,0,.056,0,.112-.054a.054.054,0,0,0,.056-.054h.112l.056-.054.056-.054.056-.054.056-.054h0l22.291,12.449h0v.866c0,.054,0,.054.056.108,0,.054,0,.054.056.108a.054.054,0,0,0,.056.054v.108l.056.054.056.054.056.054.056.054.056.054.056.054.056.054h.112a.054.054,0,0,1,.056.054c.056,0,.056,0,.112.054.056,0,.056,0,.112.054h.056Z" transform="translate(-44.036 75)" fill="url(#linear-gradient)"/>
      </g>
    </g>
  </g>
</svg>
