<svg xmlns="http://www.w3.org/2000/svg" xmlns:xlink="http://www.w3.org/1999/xlink" width="1440" height="664" viewBox="0 0 1440 664">
  <defs>
    <radialGradient id="radial-gradient" cx="0.096" cy="0.5" r="2.189" gradientUnits="objectBoundingBox">
      <stop offset="0" stop-color="#0c3965"/>
      <stop offset="0.116" stop-color="#152f4b"/>
      <stop offset="0.244" stop-color="#13283e"/>
      <stop offset="0.704" stop-color="#112437"/>
      <stop offset="1" stop-color="#17324c"/>
      <stop offset="1" stop-color="#0e1e2e"/>
      <stop offset="1" stop-color="#050b11"/>
    </radialGradient>
    <linearGradient id="linear-gradient" x1="0.596" y1="0.5" x2="0.412" y2="0.474" gradientUnits="objectBoundingBox">
      <stop offset="0" stop-color="#0090f0"/>
      <stop offset="0" stop-color="#006ab1"/>
      <stop offset="1" stop-color="#004878"/>
    </linearGradient>
  </defs>
  <g id="Cover" transform="translate(14397 -1175)">
    <rect id="Base" width="1440" height="664" transform="translate(-14397 1175)" fill="url(#radial-gradient)"/>
    <g id="Back_Icons" data-name="Back Icons" transform="translate(-13511 1256)" opacity="0.169">
      <path id="Path_4890" data-name="Path 4890" d="M698.371,271.046l3.266-2.229h0l-.148-.159-.148-.159-.148-.159-.148-.159h-.3a.149.149,0,0,1-.148-.159c-.148,0-.148,0-.3-.159-.148,0-.148,0-.3-.159h-2.375c-.148,0-.148,0-.3.159-.148,0-.148,0-.3.159a.149.149,0,0,0-.148.159h-.3l-.148.159-.148.159-.148.159-.148.159h0l-59.231-36.623h0v-2.548c0-.159,0-.159-.148-.318,0-.159,0-.159-.148-.318,0,0,0-.159-.148-.159v-.318l-.148-.159-.148-.159-.148-.159-.148-.159-.148-.159-.148-.159-.148-.159h-.3a.149.149,0,0,1-.148-.159c-.148,0-.148,0-.3-.159-.148,0-.148,0-.3-.159h-.148V154.012h.148c.148,0,.148,0,.3-.159.148,0,.148,0,.3-.159a.149.149,0,0,0,.148-.159h.3l.148-.159.148-.159.148-.159.148-.159.148-.159.148-.159.148-.159V152.1s0-.159.148-.159c0-.159,0-.159.148-.318,0-.159,0-.159.148-.318v-2.548h0L696,112.134a3.656,3.656,0,0,0,4.453.8,3.894,3.894,0,0,0,1.336-5.255,3.373,3.373,0,0,0-4.9-1.433,4.08,4.08,0,0,0-1.633,4.458l-59.231,36.623h0l-.148-.159-.148-.159-.148-.159-.148-.159h-.3a.149.149,0,0,1-.148-.159c-.148,0-.148,0-.3-.159-.148,0-.148,0-.3-.159h-2.375c-.148,0-.148,0-.3.159-.148,0-.148,0-.3.159a.149.149,0,0,0-.148.159h-.3l-.148.159-.148.159-.148.159-.148.159h0L571.15,110.7h0v-2.548c0-.159,0-.159-.148-.318,0-.159,0-.159-.148-.318,0,0,0-.159-.148-.159v-.318l-.148-.159-.148-.159-.148-.159-.148-.159-.148-.159-.148-.159-.148-.159h-.3a.149.149,0,0,1-.148-.159c-.148,0-.148,0-.3-.159-.148,0-.148,0-.3-.159h-.148V32.679h.148c.148,0,.148,0,.3-.159.148,0,.148,0,.3-.159a.149.149,0,0,0,.148-.159h.3l.148-.159.148-.159.148-.159.148-.159.148-.159.148-.159.148-.159v-.318s0-.159.148-.159c0-.159,0-.159.148-.318,0-.159,0-.159.148-.318V27.424h0L630.381-9.2h0l.148.159.148.159.148.159.148.159h.3a.149.149,0,0,1,.148.159c.148,0,.148,0,.3.159.148,0,.148,0,.3.159h2.375c.148,0,.148,0,.3-.159.148,0,.148,0,.3-.159a.149.149,0,0,0,.148-.159h.3l.148-.159.148-.159.148-.159.148-.159h0l59.231,36.623a3.993,3.993,0,0,0,1.633,4.458,3.373,3.373,0,0,0,4.9-1.433,3.894,3.894,0,0,0-1.336-5.255,3.288,3.288,0,0,0-4.453.8L636.764-10.632h0v-2.548c0-.159,0-.159-.148-.318,0-.159,0-.159-.148-.318,0,0,0-.159-.148-.159v-.318l-.148-.159-.148-.159-.148-.159-.148-.159-.148-.159-.148-.159-.148-.159h-.3a.149.149,0,0,1-.148-.159.446.446,0,0,1-.3-.159c-.148,0-.148,0-.3-.159h-2.375c-.148,0-.148,0-.3.159-.148,0-.148,0-.3.159a.149.149,0,0,0-.148.159h-.3l-.148.159-.148.159-.148.159-.148.159-.148.159-.148.159-.148.159v.318s0,.159-.148.159c0,.159,0,.159-.148.318,0,.159,0,.159-.148.318v2.548h0L570.11,25.991h0l-.148-.159-.148-.159-.148-.159-.148-.159h-.3a.149.149,0,0,1-.148-.159c-.148,0-.148,0-.3-.159-.148,0-.148,0-.3-.159H566.1c-.148,0-.148,0-.3.159-.148,0-.148,0-.3.159a.149.149,0,0,0-.148.159h-.3l-.148.159-.148.159-.148.159-.148.159h0L505.238-10.632h0v-2.548c0-.159,0-.159-.148-.318,0-.159,0-.159-.148-.318,0,0,0-.159-.148-.159v-.318l-.148-.159-.148-.159-.148-.159-.148-.159-.148-.159-.148-.159-.148-.159h-.3a.149.149,0,0,1-.148-.159c-.148,0-.148,0-.3-.159-.148,0-.148,0-.3-.159h-.148V-42h-1.633v26.114h-.148c-.148,0-.148,0-.3.159-.148,0-.148,0-.3.159a.149.149,0,0,0-.148.159h-.3l-.148.159-.148.159-.148.159-.148.159-.148.159-.148.159-.148.159v.318s0,.159-.148.159c0,.159,0,.159-.148.318,0,.159,0,.159-.148.318v2.548h0L439.029,25.991h0l-.148-.159-.148-.159-.148-.159-.148-.159h-.3a.149.149,0,0,1-.148-.159c-.148,0-.148,0-.3-.159-.148,0-.148,0-.3-.159H435.02c-.148,0-.148,0-.3.159-.148,0-.148,0-.3.159a.149.149,0,0,0-.148.159h-.3l-.148.159-.148.159-.148.159-.148.159h0L374.156-10.632h0v-2.548c0-.159,0-.159-.148-.318,0-.159,0-.159-.148-.318,0,0,0-.159-.148-.159v-.318l-.148-.159-.148-.159-.148-.159-.148-.159-.148-.159-.148-.159-.148-.159h-.3a.149.149,0,0,1-.148-.159.446.446,0,0,1-.3-.159c-.148,0-.148,0-.3-.159h-.148V-42h-1.633v26.114H369.7c-.148,0-.148,0-.3.159-.148,0-.148,0-.3.159a.149.149,0,0,0-.148.159h-.3l-.148.159-.148.159-.148.159-.148.159-.148.159-.148.159-.148.159v.318s0,.159-.148.159c0,.159,0,.159-.148.318,0,.159,0,.159-.148.318v2.548h0L307.947,25.991h0l-.148-.159-.148-.159-.148-.159-.148-.159h-.3a.149.149,0,0,1-.148-.159c-.148,0-.148,0-.3-.159-.148,0-.148,0-.3-.159h-2.375c-.148,0-.148,0-.3.159-.148,0-.148,0-.3.159a.149.149,0,0,0-.148.159h-.3l-.148.159-.148.159-.148.159-.148.159h0L243.075-10.632a3.993,3.993,0,0,0-1.633-4.458,3.373,3.373,0,0,0-4.9,1.433A3.894,3.894,0,0,0,237.879-8.4a3.288,3.288,0,0,0,4.453-.8l59.231,36.623h0v2.548c0,.159,0,.159.148.318,0,.159,0,.159.148.318,0,0,0,.159.148.159v.318l.148.159.148.159.148.159.148.159.148.159.148.159.148.159h.3a.149.149,0,0,1,.148.159.446.446,0,0,1,.3.159c.148,0,.148,0,.3.159h.148v73.4h0c-.148,0-.148,0-.3.159-.148,0-.148,0-.3.159-.148,0-.148.159-.3.159s-.148.159-.3.159-.148.159-.3.318l-.3.318c-.148.159-.148.159-.148.318l-.3.318v.159s0,.159-.148.159a.569.569,0,0,1-.148.318c0,.159,0,.159-.148.318,0,.159,0,.318-.148.318v1.592c0,.159,0,.159.148.318a.569.569,0,0,0,.148.318c0,.159.148.159.148.318s.148.159.148.318.148.159.3.318l.3.318c.148.159.148.159.3.159l.3.318h.148a.149.149,0,0,1,.148.159.509.509,0,0,1,.3.159c.148,0,.148,0,.3.159.148,0,.3,0,.3.159h1.485c.148,0,.148,0,.3-.159a.509.509,0,0,0,.3-.159c.148,0,.148-.159.3-.159s.148-.159.3-.159.148-.159.3-.159l.3-.318h0l59.231,36.623h0v2.548c0,.159,0,.159.148.318,0,.159,0,.159.148.318,0,0,0,.159.148.159v.318l.148.159.148.159.148.159.148.159.148.159.148.159.148.159h.3a.149.149,0,0,1,.148.159c.148,0,.148,0,.3.159.148,0,.148,0,.3.159h.148v73.4h-.148c-.148,0-.148,0-.3.159-.148,0-.148,0-.3.159a.149.149,0,0,0-.148.159h-.3l-.148.159-.148.159-.148.159-.148.159-.148.159-.148.159-.148.159v.318s0,.159-.148.159c0,.159,0,.159-.148.318,0,.159,0,.159-.148.318v2.548h0l-59.231,36.623h0l-.148-.159-.148-.159-.148-.159-.148-.159h-.3a.149.149,0,0,1-.148-.159c-.148,0-.148,0-.3-.159-.148,0-.148,0-.3-.159h-2.375c-.148,0-.148,0-.3.159-.148,0-.148,0-.3.159a.149.149,0,0,0-.148.159h-.3l-.148.159-.148.159-.148.159-.148.159h0l-59.231-36.623a3.993,3.993,0,0,0-1.633-4.458,3.373,3.373,0,0,0-4.9,1.433,3.894,3.894,0,0,0,1.336,5.255,3.288,3.288,0,0,0,4.454-.8l59.231,36.623h0v2.548c0,.159,0,.159.148.318,0,.159,0,.159.148.318,0,0,0,.159.148.159v.318l.148.159.148.159.148.159.148.159.148.159.148.159.148.159h.3a.149.149,0,0,1,.148.159c.148,0,.148,0,.3.159.148,0,.148,0,.3.159h.148v73.4h-.148c-.148,0-.148,0-.3.159-.148,0-.148,0-.3.159a.149.149,0,0,0-.148.159h-.3l-.148.159-.148.159-.148.159-.148.159-.148.159-.148.159-.148.159v.318s0,.159-.148.159c0,.159,0,.159-.148.318,0,.159,0,.159-.148.318v2.548h0L242.036,391.9h0l-.148-.159-.148-.159-.148-.159-.148-.159h-.3a.149.149,0,0,1-.148-.159c-.148,0-.148,0-.3-.159-.148,0-.148,0-.3-.159h-2.375c-.148,0-.148,0-.3.159-.148,0-.148,0-.3.159a.149.149,0,0,0-.148.159h-.3l-.148.159-.148.159-.148.159-.148.159h0l-59.231-36.623a3.993,3.993,0,0,0-1.633-4.458,3.373,3.373,0,0,0-4.9,1.433,3.894,3.894,0,0,0,1.336,5.255,3.288,3.288,0,0,0,4.453-.8l59.231,36.623h0v2.548c0,.159,0,.159.148.318,0,.159,0,.159.148.318,0,0,0,.159.148.159V397l.148.159.148.159.148.159.148.159.148.159.148.159.148.159h.3a.149.149,0,0,1,.148.159c.148,0,.148,0,.3.159.148,0,.148,0,.3.159h.148v73.4h-.148c-.148,0-.148,0-.3.159-.148,0-.148,0-.3.159a.149.149,0,0,0-.148.159h-.3l-.148.159-.148.159-.148.159-.148.159-.148.159-.148.159-.148.159v.319s0,.159-.148.159c0,.159,0,.159-.148.318,0,.159,0,.159-.148.318v2.548h0l-59.231,36.623h0l-.148-.159-.148-.159-.148-.159-.148-.159h-.3a.149.149,0,0,1-.148-.159c-.148,0-.148,0-.3-.159-.148,0-.148,0-.3-.159h-2.227c-.148,0-.148,0-.3.159-.148,0-.148,0-.3.159a.149.149,0,0,0-.148.159h-.3l-.148.159-.148.159-.148.159-.148.159h0L111.7,477.249a3.993,3.993,0,0,0-1.633-4.458,3.373,3.373,0,0,0-4.9,1.433,3.893,3.893,0,0,0,1.336,5.255,3.288,3.288,0,0,0,4.453-.8L170.186,515.3h0v2.389c0,.159,0,.159.148.318,0,.159,0,.159.148.318,0,0,0,.159.148.159v.318l.148.159.148.159.148.159.148.159.148.159.148.159.148.159h.3a.149.149,0,0,1,.148.159c.148,0,.148,0,.3.159.148,0,.148,0,.3.159h.148v39.488h1.633V517.852h.148c.148,0,.148,0,.3-.159.148,0,.148,0,.3-.159a.149.149,0,0,0,.148-.159h.3l.148-.159.148-.159.148-.159.148-.159.148-.159.148-.159.148-.159v-.318s0-.159.148-.159c0-.159,0-.159.148-.318,0-.159,0-.159.148-.318V512.6h0l59.231-36.623h0l.148.159.148.159.148.159.148.159h.3a.149.149,0,0,1,.148.159c.148,0,.148,0,.3.159.148,0,.148,0,.3.159H240.4c.148,0,.148,0,.3-.159.148,0,.148,0,.3-.159a.149.149,0,0,0,.148-.159h.3l.148-.159.148-.159.148-.159.148-.159h0L301.267,512.6h0v2.548c0,.159,0,.159.148.318,0,.159,0,.159.148.318,0,0,0,.159.148.159v.318l.148.159.148.159.148.159.148.159.148.159.148.159.148.159h.3a.149.149,0,0,1,.148.159c.148,0,.148,0,.3.159.148,0,.148,0,.3.159h.148v42.037h1.633V517.852h.148c.148,0,.148,0,.3-.159.148,0,.148,0,.3-.159a.149.149,0,0,0,.148-.159h.3l.148-.159.148-.159.148-.159.148-.159.148-.159.148-.159.148-.159v-.318s0-.159.148-.159c0-.159,0-.159.148-.318,0-.159,0-.159.148-.318V512.6h0l59.231-36.623h0l.148.159.148.159.148.159.148.159h.3a.149.149,0,0,1,.148.159c.148,0,.148,0,.3.159.148,0,.148,0,.3.159h2.375c.148,0,.148,0,.3-.159.148,0,.148,0,.3-.159a.149.149,0,0,0,.148-.159h.3l.148-.159.148-.159.148-.159.148-.159h0L432.349,512.6h0v2.548c0,.159,0,.159.148.318,0,.159,0,.159.148.318,0,0,0,.159.148.159v.318l.148.159.148.159.148.159.148.159.148.159.148.159.148.159h.3a.149.149,0,0,1,.148.159c.148,0,.148,0,.3.159.148,0,.148,0,.3.159h.148v42.037h1.633V517.852h.148c.148,0,.148,0,.3-.159.148,0,.148,0,.3-.159a.149.149,0,0,0,.148-.159h.3l.148-.159.148-.159.148-.159.148-.159.148-.159.148-.159.148-.159v-.318s0-.159.148-.159c0-.159,0-.159.148-.318,0-.159,0-.159.148-.318V512.6h0l59.231-36.623h0l.148.159.148.159.148.159.148.159h.3a.149.149,0,0,1,.148.159c.148,0,.148,0,.3.159.148,0,.148,0,.3.159h2.375c.148,0,.148,0,.3-.159.148,0,.148,0,.3-.159a.149.149,0,0,0,.148-.159h.3l.148-.159.148-.159.148-.159.148-.159h0L563.43,512.6h0v2.548c0,.159,0,.159.148.318,0,.159,0,.159.148.318,0,0,0,.159.148.159v.318l.148.159.148.159.148.159.148.159.148.159.148.159.148.159h.3a.149.149,0,0,1,.148.159c.148,0,.148,0,.3.159.148,0,.148,0,.3.159h.148v42.037h1.633V517.852h.148c.148,0,.148,0,.3-.159.148,0,.148,0,.3-.159a.149.149,0,0,0,.148-.159h.3l.148-.159.148-.159.148-.159.148-.159.148-.159.148-.159.148-.159v-.318s0-.159.148-.159c0-.159,0-.159.148-.318,0-.159,0-.159.148-.318V512.6h0l59.231-36.623h0l.148.159.148.159.148.159.148.159h.3a.149.149,0,0,1,.148.159c.148,0,.148,0,.3.159.148,0,.148,0,.3.159h2.375c.148,0,.148,0,.3-.159.148,0,.148,0,.3-.159a.149.149,0,0,0,.148-.159h.3l.148-.159.148-.159.148-.159.148-.159h0L694.511,512.6a3.993,3.993,0,0,0,1.633,4.458,3.373,3.373,0,0,0,4.9-1.433,3.893,3.893,0,0,0-1.336-5.255,3.288,3.288,0,0,0-4.453.8l-59.231-36.623h0v-2.548c0-.159,0-.159-.148-.318,0-.159,0-.159-.148-.318,0,0,0-.159-.148-.159v-.318l-.148-.159-.148-.159-.148-.159-.148-.159-.148-.159-.148-.159-.148-.159h-.3a.149.149,0,0,1-.148-.159c-.148,0-.148,0-.3-.159-.148,0-.148,0-.3-.159h-.148v-73.4h.148c.148,0,.148,0,.3-.159.148,0,.148,0,.3-.159a.149.149,0,0,0,.148-.159h.3l.148-.159.148-.159.148-.159.148-.159.148-.159.148-.159.148-.159v-.319s0-.159.148-.159c0-.159,0-.159.148-.318,0-.159,0-.159.148-.318v-2.548h0L695.254,354h0l.3.318c.148.159.148.159.3.159s.148.159.3.159.148.159.3.159.148.159.3.159.148.159.3.159h1.484c.148,0,.3,0,.3-.159.148,0,.148,0,.3-.159a.509.509,0,0,0,.3-.159.149.149,0,0,0,.148-.159h.148c.148,0,.148-.159.3-.318.148,0,.148-.159.3-.159l.3-.318c.148-.159.148-.159.148-.318s.148-.159.148-.318.148-.159.148-.318.148-.159.148-.318.148-.159.148-.318V350.5c0-.159,0-.318-.148-.318,0-.159,0-.159-.148-.318a.568.568,0,0,0-.148-.318s0-.159-.148-.159v-.159c0-.159-.148-.159-.3-.318,0-.159-.148-.159-.148-.318l-.3-.318-.3-.318c-.148,0-.148-.159-.3-.159s-.148-.159-.3-.159-.148-.159-.3-.159-.148-.159-.3-.159h0v-73.4h.148c.148,0,.148,0,.3-.159.148,0,.148,0,.3-.159a.149.149,0,0,0,.148-.159h.3l.148-.159.148-.159.148-.159.148-.159.148-.159.148-.159.148-.159V272s0-.159.148-.159c0-.159,0-.159.148-.318,0-.159,0-.159.148-.318v-2.548l-2.672,1.115h.445S697.926,269.453,698.371,271.046ZM568.033,113.567h1.633c.148,0,.148,0,.3-.159.148,0,.148,0,.3-.159a.149.149,0,0,0,.148-.159h.3l.148-.159.148-.159.148-.159.148-.159h0l59.231,36.623h0v2.548c0,.159,0,.159.148.318,0,.159,0,.159.148.318,0,0,0,.159.148.159v.318l.148.159.148.159.148.159.148.159.148.159.148.159.148.159h.3a.149.149,0,0,1,.148.159c.148,0,.148,0,.3.159.148,0,.148,0,.3.159h.148v73.4h-.148c-.148,0-.148,0-.3.159-.148,0-.148,0-.3.159a.149.149,0,0,0-.148.159h-.3l-.148.159-.148.159-.148.159-.148.159-.148.159-.148.159-.148.159v.318s0,.159-.148.159c0,.159,0,.159-.148.318,0,.159,0,.159-.148.318v2.548h0L571.3,269.613h0l-.148-.159-.148-.159-.148-.159-.148-.159h-.3a.149.149,0,0,1-.148-.159c-.148,0-.148,0-.3-.159-.148,0-.148,0-.3-.159H567.29c-.148,0-.148,0-.3.159-.148,0-.148,0-.3.159a.149.149,0,0,0-.148.159h-.3l-.148.159-.148.159-.148.159-.148.159h0L506.426,232.99h0v-2.548c0-.159,0-.159-.148-.318,0-.159,0-.159-.148-.318,0,0,0-.159-.148-.159v-.318l-.148-.159-.148-.159-.148-.159-.148-.159-.148-.159-.148-.159-.148-.159h-.3a.149.149,0,0,1-.148-.159c-.148,0-.148,0-.3-.159-.148,0-.148,0-.3-.159h-.148V154.012h.148c.148,0,.148,0,.3-.159.148,0,.148,0,.3-.159a.149.149,0,0,0,.148-.159h.3l.148-.159.148-.159.148-.159.148-.159.148-.159.148-.159.148-.159V152.1s0-.159.148-.159c0-.159,0-.159.148-.318,0-.159,0-.159.148-.318v-2.548h0l59.231-36.623h0l.148.159.148.159.148.159.148.159h.3a.149.149,0,0,1,.148.159c.148,0,.148,0,.3.159.148,0,.148,0,.3.159h.445C567.884,113.567,568.033,113.567,568.033,113.567ZM438.585,32.679h.3c.148,0,.148,0,.3-.159.148,0,.148,0,.3-.159a.149.149,0,0,0,.148-.159h.3l.148-.159.148-.159.148-.159.148-.159.148-.159.148-.159.148-.159v-.318s0-.159.148-.159c0-.159,0-.159.148-.318,0-.159,0-.159.148-.318V27.424h0L500.637-9.2h0l.148.159.148.159.148.159.148.159h.3a.149.149,0,0,1,.148.159c.148,0,.148,0,.3.159.148,0,.148,0,.3.159h2.375c.148,0,.148,0,.3-.159.148,0,.148,0,.3-.159a.149.149,0,0,0,.148-.159h.3l.148-.159.148-.159.148-.159.148-.159h0L565.51,27.424h0v2.548c0,.159,0,.159.148.318,0,.159,0,.159.148.318,0,0,0,.159.148.159v.318l.148.159.148.159.148.159.148.159.148.159.148.159.148.159h.3a.149.149,0,0,1,.148.159.446.446,0,0,1,.3.159c.148,0,.148,0,.3.159h.148v73.4h-.148c-.148,0-.148,0-.3.159-.148,0-.148,0-.3.159a.149.149,0,0,0-.148.159h-.3l-.148.159-.148.159-.148.159-.148.159-.148.159-.148.159-.148.159v.318s0,.159-.148.159c0,.159,0,.159-.148.318,0,.159,0,.159-.148.318v2.548h0l-59.231,36.623h0l-.148-.159-.148-.159-.148-.159-.148-.159h-.3a.149.149,0,0,1-.148-.159c-.148,0-.148,0-.3-.159-.148,0-.148,0-.3-.159H502.27c-.148,0-.148,0-.3.159-.148,0-.148,0-.3.159a.149.149,0,0,0-.148.159h-.3l-.148.159-.148.159-.148.159-.148.159h0l-59.231-36.623h0v-2.548c0-.159,0-.159-.148-.318,0-.159,0-.159-.148-.318,0,0,0-.159-.148-.159v-.318l-.148-.159-.148-.159-.148-.159-.148-.159-.148-.159-.148-.159-.148-.159h-.3a.149.149,0,0,1-.148-.159c-.148,0-.148,0-.3-.159-.148,0-.148,0-.3-.159h-.148v-73.4Zm-1.039,80.889h1.633c.148,0,.148,0,.3-.159.148,0,.148,0,.3-.159a.149.149,0,0,0,.148-.159h.3l.148-.159.148-.159.148-.159.148-.159h0l59.231,36.623h0v2.548c0,.159,0,.159.148.318,0,.159,0,.159.148.318,0,0,0,.159.148.159v.318l.148.159.148.159.148.159.148.159.148.159.148.159.148.159h.3a.149.149,0,0,1,.148.159c.148,0,.148,0,.3.159.148,0,.148,0,.3.159h.148v73.4h-.148c-.148,0-.148,0-.3.159-.148,0-.148,0-.3.159a.149.149,0,0,0-.148.159h-.3l-.148.159-.148.159-.148.159-.148.159-.148.159-.148.159-.148.159v.318s0,.159-.148.159c0,.159,0,.159-.148.318,0,.159,0,.159-.148.318v2.548h0l-59.231,36.623h0l-.148-.159-.148-.159-.148-.159-.148-.159h-.3a.149.149,0,0,1-.148-.159c-.148,0-.148,0-.3-.159-.148,0-.148,0-.3-.159H436.8c-.148,0-.148,0-.3.159-.148,0-.148,0-.3.159a.149.149,0,0,0-.148.159h-.3l-.148.159-.148.159-.148.159-.148.159h0L375.939,232.99h0v-2.548c0-.159,0-.159-.148-.318,0-.159,0-.159-.148-.318,0,0,0-.159-.148-.159v-.318l-.148-.159-.148-.159-.148-.159-.148-.159-.148-.159-.148-.159-.148-.159h-.3a.149.149,0,0,1-.148-.159c-.148,0-.148,0-.3-.159-.148,0-.148,0-.3-.159h-.148V154.012h.148c.148,0,.148,0,.3-.159.148,0,.148,0,.3-.159a.149.149,0,0,0,.148-.159h.3l.148-.159.148-.159.148-.159.148-.159.148-.159.148-.159.148-.159V152.1s0-.159.148-.159c0-.159,0-.159.148-.318,0-.159,0-.159.148-.318v-2.548h0l59.231-36.623h0l.148.159.148.159.148.159.148.159h.3a.149.149,0,0,1,.148.159c.148,0,.148,0,.3.159.148,0,.148,0,.3.159h.445C437.4,113.567,437.4,113.567,437.546,113.567Zm-65.763,32.961h-.148c-.148,0-.148,0-.3.159-.148,0-.148,0-.3.159a.149.149,0,0,0-.148.159h-.3l-.148.159-.148.159-.148.159-.148.159h0L310.77,111.02v-.159c0-.159,0-.318.148-.318V108.95c0-.159,0-.159-.148-.318a.569.569,0,0,0-.148-.318c0-.159-.148-.159-.148-.318s-.148-.159-.148-.318-.148-.159-.148-.318l-.3-.318c-.148-.159-.148-.159-.3-.159l-.3-.318h-.148a.149.149,0,0,1-.148-.159.509.509,0,0,1-.3-.159c-.148,0-.148,0-.3-.159h-.148v-73.4h.148c.148,0,.148,0,.3-.159.148,0,.148,0,.3-.159a.149.149,0,0,0,.148-.159h.3l.148-.159.148-.159.148-.159.148-.159.148-.159.148-.159.148-.159v-.318s0-.159.148-.159c0-.159,0-.159.148-.318,0-.159,0-.159.148-.318V27.424h0L370.15-9.2h0l.148.159.148.159.148.159.148.159h.3a.149.149,0,0,1,.148.159c.148,0,.148,0,.3.159.148,0,.148,0,.3.159h2.375c.148,0,.148,0,.3-.159.148,0,.148,0,.3-.159a.149.149,0,0,0,.148-.159h.3l.148-.159.148-.159.148-.159.148-.159h0l59.231,36.623h0v2.548c0,.159,0,.159.148.318,0,.159,0,.159.148.318,0,0,0,.159.148.159v.318l.148.159.148.159.148.159.148.159.148.159.148.159.148.159h.3a.149.149,0,0,1,.148.159.446.446,0,0,1,.3.159c.148,0,.148,0,.3.159h.148v73.4h-.148c-.148,0-.148,0-.3.159-.148,0-.148,0-.3.159a.149.149,0,0,0-.148.159h-.3l-.148.159-.148.159-.148.159-.148.159-.148.159-.148.159-.148.159v.318s0,.159-.148.159c0,.159,0,.159-.148.318,0,.159,0,.159-.148.318v2.548h0l-59.231,36.623h0l-.148-.159-.148-.159-.148-.159-.148-.159h-.3a.149.149,0,0,1-.148-.159c-.148,0-.148,0-.3-.159-.148,0-.148,0-.3-.159h-1.93C371.931,146.528,371.783,146.528,371.783,146.528Zm0,323.4h-.3c-.148,0-.148,0-.3.159-.148,0-.148,0-.3.159a.149.149,0,0,0-.148.159h-.3l-.148.159-.148.159-.148.159-.148.159-.148.159-.148.159-.148.159v.318s0,.159-.148.159c0,.159,0,.159-.148.318,0,.159,0,.159-.148.319v2.548h0L309.731,511.8h0l-.148-.159-.148-.159-.148-.159-.148-.159h-.3a.149.149,0,0,1-.148-.159c-.148,0-.148,0-.3-.159-.148,0-.148,0-.3-.159h-2.227c-.148,0-.148,0-.3.159-.148,0-.148,0-.3.159a.149.149,0,0,0-.148.159h-.3l-.148.159-.148.159-.148.159-.148.159h0l-59.231-36.623h0v-2.548c0-.159,0-.159-.148-.319,0-.159,0-.159-.148-.318,0,0,0-.159-.148-.159v-.318l-.148-.159-.148-.159-.148-.159-.148-.159-.148-.159-.148-.159-.148-.159h-.3a.149.149,0,0,1-.148-.159c-.148,0-.148,0-.3-.159-.148,0-.148,0-.3-.159h-.148v-73.4h.148c.148,0,.148,0,.3-.159.148,0,.148,0,.3-.159a.149.149,0,0,0,.148-.159h.3l.148-.159.148-.159.148-.159.148-.159.148-.159.148-.159.148-.159v-.318s0-.159.148-.159c0-.159,0-.159.148-.318,0-.159,0-.159.148-.318v-2.548h0l59.231-36.623h0l.148.159.148.159.148.159.148.159h.3a.149.149,0,0,1,.148.159c.148,0,.148,0,.3.159.148,0,.148,0,.3.159h2.375c.148,0,.148,0,.3-.159.148,0,.148,0,.3-.159a.149.149,0,0,0,.148-.159h.3l.148-.159.148-.159.148-.159.148-.159h0l59.231,36.623h0v2.548c0,.159,0,.159.148.318,0,.159,0,.159.148.318,0,0,0,.159.148.159v.318l.148.159.148.159.148.159.148.159.148.159.148.159.148.159h.3a.149.149,0,0,1,.148.159c.148,0,.148,0,.3.159.148,0,.148,0,.3.159h.148v73.4Zm1.336-80.889h-1.93c-.148,0-.148,0-.3.159-.148,0-.148,0-.3.159a.149.149,0,0,0-.148.159h-.3l-.148.159-.148.159-.148.159-.148.159h0l-59.231-36.623h0v-2.548c0-.159,0-.159-.148-.318,0-.159,0-.159-.148-.318,0,0,0-.159-.148-.159v-.319l-.148-.159-.148-.159-.148-.159-.148-.159-.148-.159-.148-.159-.148-.159h-.3a.149.149,0,0,1-.148-.159c-.148,0-.148,0-.3-.159-.148,0-.148,0-.3-.159h-.148v-73.4h.148c.148,0,.148,0,.3-.159.148,0,.148,0,.3-.159a.149.149,0,0,0,.148-.159h.3l.148-.159.148-.159.148-.159.148-.159.148-.159.148-.159.148-.159v-.318s0-.159.148-.159c0-.159,0-.159.148-.318,0-.159,0-.159.148-.318v-2.548h0l59.231-36.623h0l.148.159.148.159.148.159.148.159h.3a.149.149,0,0,1,.148.159c.148,0,.148,0,.3.159.148,0,.148,0,.3.159h2.375c.148,0,.148,0,.3-.159.148,0,.148,0,.3-.159a.149.149,0,0,0,.148-.159h.3l.148-.159.148-.159.148-.159.148-.159h0l59.231,36.623h0v2.548c0,.159,0,.159.148.318,0,.159,0,.159.148.318,0,0,0,.159.148.159v.318l.148.159.148.159.148.159.148.159.148.159.148.159.148.159h.3a.149.149,0,0,1,.148.159c.148,0,.148,0,.3.159.148,0,.148,0,.3.159h.148v73.4h-.148c-.148,0-.148,0-.3.159-.148,0-.148,0-.3.159a.149.149,0,0,0-.148.159h-.3l-.148.159-.148.159-.148.159-.148.159-.148.159-.148.159-.148.159v.318s0,.159-.148.159c0,.159,0,.159-.148.318,0,.159,0,.159-.148.318v2.548h0L375.2,390.15h0l-.148-.159-.148-.159-.148-.159-.148-.159h-.3a.149.149,0,0,1-.148-.159c-.148,0-.148,0-.3-.159-.148,0-.148,0-.3-.159h-.445ZM502.27,469.924h-.3c-.148,0-.148,0-.3.159-.148,0-.148,0-.3.159a.149.149,0,0,0-.148.159h-.3l-.148.159-.148.159-.148.159-.148.159-.148.159-.148.159-.148.159v.318s0,.159-.148.159c0,.159,0,.159-.148.318,0,.159,0,.159-.148.319v2.548h0L440.218,511.8h0l-.148-.159-.148-.159-.148-.159-.148-.159h-.3a.149.149,0,0,1-.148-.159c-.148,0-.148,0-.3-.159-.148,0-.148,0-.3-.159h-2.227c-.148,0-.148,0-.3.159-.148,0-.148,0-.3.159a.149.149,0,0,0-.148.159h-.3l-.148.159-.148.159-.148.159-.148.159h0l-59.231-36.623h0v-2.548c0-.159,0-.159-.148-.319,0-.159,0-.159-.148-.318,0,0,0-.159-.148-.159v-.318l-.148-.159-.148-.159-.148-.159-.148-.159-.148-.159-.148-.159-.148-.159h-.3a.149.149,0,0,1-.148-.159c-.148,0-.148,0-.3-.159-.148,0-.148,0-.3-.159h-.148v-73.4h.148c.148,0,.148,0,.3-.159.148,0,.148,0,.3-.159a.149.149,0,0,0,.148-.159h.3l.148-.159.148-.159.148-.159.148-.159.148-.159.148-.159.148-.159v-.318s0-.159.148-.159c0-.159,0-.159.148-.318,0-.159,0-.159.148-.318v-2.548h0l59.231-36.623h0l.148.159.148.159.148.159.148.159h.3a.149.149,0,0,1,.148.159c.148,0,.148,0,.3.159.148,0,.148,0,.3.159h2.375c.148,0,.148,0,.3-.159.148,0,.148,0,.3-.159a.149.149,0,0,0,.148-.159h.3l.148-.159.148-.159.148-.159.148-.159h0L499.6,391.264h0v2.548c0,.159,0,.159.148.318,0,.159,0,.159.148.318,0,0,0,.159.148.159v.318l.148.159.148.159.148.159.148.159.148.159.148.159.148.159h.3a.149.149,0,0,1,.148.159c.148,0,.148,0,.3.159.148,0,.148,0,.3.159h.148Zm1.484-80.889h-1.93c-.148,0-.148,0-.3.159-.148,0-.148,0-.3.159a.149.149,0,0,0-.148.159h-.3l-.148.159-.148.159-.148.159-.148.159h0L440.96,353.527h0v-2.548c0-.159,0-.159-.148-.318,0-.159,0-.159-.148-.318,0,0,0-.159-.148-.159v-.319l-.148-.159-.148-.159-.148-.159-.148-.159-.148-.159-.148-.159-.148-.159h-.3a.149.149,0,0,1-.148-.159c-.148,0-.148,0-.3-.159-.148,0-.148,0-.3-.159h-.148v-73.4h.148c.148,0,.148,0,.3-.159.148,0,.148,0,.3-.159a.149.149,0,0,0,.148-.159h.3l.148-.159.148-.159.148-.159.148-.159.148-.159.148-.159.148-.159v-.318s0-.159.148-.159c0-.159,0-.159.148-.318,0-.159,0-.159.148-.318v-2.548h0l59.231-36.623h0l.148.159.148.159.148.159.148.159h.3a.149.149,0,0,1,.148.159c.148,0,.148,0,.3.159.148,0,.148,0,.3.159H504.2c.148,0,.148,0,.3-.159.148,0,.148,0,.3-.159a.149.149,0,0,0,.148-.159h.3l.148-.159.148-.159.148-.159.148-.159h0l59.231,36.623h0v2.548c0,.159,0,.159.148.318,0,.159,0,.159.148.318,0,0,0,.159.148.159v.318l.148.159.148.159.148.159.148.159.148.159.148.159.148.159h.3a.149.149,0,0,1,.148.159c.148,0,.148,0,.3.159.148,0,.148,0,.3.159h.148v73.4h-.148c-.148,0-.148,0-.3.159-.148,0-.148,0-.3.159a.149.149,0,0,0-.148.159h-.3l-.148.159-.148.159-.148.159-.148.159-.148.159-.148.159-.148.159v.318s0,.159-.148.159c0,.159,0,.159-.148.318,0,.159,0,.159-.148.318v2.548h0L505.833,390.15h0l-.148-.159-.148-.159-.148-.159-.148-.159h-.3a.149.149,0,0,1-.148-.159c-.148,0-.148,0-.3-.159-.148,0-.148,0-.3-.159h-.445Zm129.151,80.889h-.3c-.148,0-.148,0-.3.159-.148,0-.148,0-.3.159a.149.149,0,0,0-.148.159h-.3l-.148.159-.148.159-.148.159-.148.159-.148.159-.148.159-.148.159v.318s0,.159-.148.159c0,.159,0,.159-.148.318,0,.159,0,.159-.148.319v2.548h0L570.853,511.8h0l-.148-.159-.148-.159-.148-.159-.148-.159h-.3a.149.149,0,0,1-.148-.159c-.148,0-.148,0-.3-.159-.148,0-.148,0-.3-.159h-2.078c-.148,0-.148,0-.3.159-.148,0-.148,0-.3.159a.149.149,0,0,0-.148.159h-.3l-.148.159-.148.159-.148.159-.148.159h0l-59.231-36.623h0v-2.548c0-.159,0-.159-.148-.319,0-.159,0-.159-.148-.318,0,0,0-.159-.148-.159v-.318l-.148-.159-.148-.159-.148-.159-.148-.159-.148-.159-.148-.159-.148-.159h-.3a.149.149,0,0,1-.148-.159c-.148,0-.148,0-.3-.159-.148,0-.148,0-.3-.159h-.148v-73.4h.148c.148,0,.148,0,.3-.159.148,0,.148,0,.3-.159a.149.149,0,0,0,.148-.159h.3l.148-.159.148-.159.148-.159.148-.159.148-.159.148-.159.148-.159v-.318s0-.159.148-.159c0-.159,0-.159.148-.318,0-.159,0-.159.148-.318v-2.548h0l59.231-36.623h0l.148.159.148.159.148.159.148.159h.3a.149.149,0,0,1,.148.159c.148,0,.148,0,.3.159.148,0,.148,0,.3.159h2.375c.148,0,.148,0,.3-.159.148,0,.148,0,.3-.159a.149.149,0,0,0,.148-.159h.3l.148-.159.148-.159L571,354.8l.148-.159h0l59.231,36.623h0v2.548c0,.159,0,.159.148.318,0,.159,0,.159.148.318,0,0,0,.159.148.159v.318l.148.159.148.159.148.159.148.159.148.159.148.159.148.159h.3a.149.149,0,0,1,.148.159c.148,0,.148,0,.3.159.148,0,.148,0,.3.159h.148v73.4Zm65.318-121.333h0c-.3,0-.3.159-.445.159a.509.509,0,0,0-.3.159.149.149,0,0,0-.148.159h-.148c-.148,0-.148.159-.3.318-.148,0-.148.159-.3.159l-.3.318-.3.318c0,.159-.148.159-.148.318s-.148.159-.148.318-.148.159-.148.318-.148.159-.148.318v1.592c0,.159,0,.318.148.318v.159L636.319,390.15h0l-.148-.159-.148-.159-.148-.159-.148-.159h-.3a.149.149,0,0,1-.148-.159c-.148,0-.148,0-.3-.159-.148,0-.148,0-.3-.159h-2.375c-.148,0-.148,0-.3.159-.148,0-.148,0-.3.159a.149.149,0,0,0-.148.159h-.3l-.148.159-.148.159-.148.159-.148.159h0l-59.231-36.623h0v-2.548c0-.159,0-.159-.148-.318,0-.159,0-.159-.148-.318,0,0,0-.159-.148-.159v-.318l-.148-.159-.148-.159-.148-.159-.148-.159-.148-.159-.148-.159-.148-.159h-.3a.149.149,0,0,1-.148-.159c-.148,0-.148,0-.3-.159-.148,0-.148,0-.3-.159h-.148v-73.4h.148c.148,0,.148,0,.3-.159.148,0,.148,0,.3-.159a.149.149,0,0,0,.148-.159h.3l.148-.159.148-.159.148-.159.148-.159.148-.159.148-.159.148-.159v-.318s0-.159.148-.159c0-.159,0-.159.148-.318,0-.159,0-.159.148-.318v-2.548h0l59.231-36.623h0l.148.159.148.159.148.159.148.159h.3a.149.149,0,0,1,.148.159c.148,0,.148,0,.3.159.148,0,.148,0,.3.159h2.375c.148,0,.148,0,.3-.159.148,0,.148,0,.3-.159a.149.149,0,0,0,.148-.159h.3l.148-.159.148-.159.148-.159.148-.159h0l59.231,36.623h0v2.548c0,.159,0,.159.148.318,0,.159,0,.159.148.318,0,0,0,.159.148.159v.318l.148.159.148.159.148.159.148.159.148.159.148.159.148.159h.3a.149.149,0,0,1,.148.159c.148,0,.148,0,.3.159.148,0,.148,0,.3.159h.148Z" transform="translate(-148.297 21.112)" fill="url(#linear-gradient)"/>
    </g>
  </g>
</svg>
