<svg xmlns="http://www.w3.org/2000/svg" width="60" height="60" viewBox="0 0 60 60">
  <g id="Icon" transform="translate(-21124 -14834)">
    <rect id="Base" width="60" height="60" transform="translate(21124 14834)" fill="#347af0" opacity="0"/>
    <path id="neural" d="M11.553,31a6.663,6.663,0,1,0,2.653,9.7l6.3,3.153A6.665,6.665,0,1,0,32.521,41.6l8.849-9.253a6.666,6.666,0,1,0-.118-10.609L32.26,12.748A6.669,6.669,0,1,0,20.5,10.141l-5.91,2.153a6.669,6.669,0,1,0-3.26,9.145L14.4,26.6ZM8.667,42a5,5,0,1,1,5-5A5.005,5.005,0,0,1,8.667,42Zm6.282-2.791A6.622,6.622,0,0,0,12.954,31.9l2.4-3.7L22.577,40.36a6.691,6.691,0,0,0-1.5,1.919ZM27,15.333a6.627,6.627,0,0,0,4.082-1.407l8.993,8.993A6.637,6.637,0,0,0,38.9,25.285l-5.235-.72c0-.022,0-.043,0-.065A6.664,6.664,0,0,0,21.46,20.8l-.994-.5,3.648-5.634A6.612,6.612,0,0,0,27,15.333Zm.833,23.391V31.108a6.675,6.675,0,0,0,5.6-4.893l5.235.72c0,.022,0,.043,0,.065a6.63,6.63,0,0,0,1.5,4.2l-8.75,9.149A6.638,6.638,0,0,0,27.833,38.724ZM27,19.5a5,5,0,1,1-5,5A5.005,5.005,0,0,1,27,19.5Zm-6.282,2.791a6.642,6.642,0,0,0,5.449,8.818v7.616a6.612,6.612,0,0,0-2.215.687l-7.59-12.772,3.192-4.93ZM27,50.333a5,5,0,1,1,5-5A5.005,5.005,0,0,1,27,50.333ZM45.333,22a5,5,0,1,1-5,5A5.005,5.005,0,0,1,45.333,22ZM27,3.667a5,5,0,1,1-5,5A5.005,5.005,0,0,1,27,3.667Zm-5.927,8.039a6.712,6.712,0,0,0,1.639,2.058l-3.747,5.787-4.017-2.008a6.517,6.517,0,0,0,.214-3.683ZM3.667,15.333a5,5,0,1,1,5,5A5.005,5.005,0,0,1,3.667,15.333Zm9.1,5.249a6.723,6.723,0,0,0,1.444-1.547l3.848,1.923L15.412,25.04Z" transform="translate(21127 14837)" fill="#347af0"/>
  </g>
</svg>
