<svg xmlns="http://www.w3.org/2000/svg" width="60" height="60" viewBox="0 0 60 60">
  <g id="Icon" transform="translate(-21124 -14834)">
    <rect id="Base" width="60" height="60" transform="translate(21124 14834)" fill="#fff" opacity="0"/>
    <g id="support_1_" data-name="support (1)" transform="translate(21125.605 14836.403)">
      <path id="Path_4768" data-name="Path 4768" d="M246.122,7.013a1.086,1.086,0,0,0,1.086-1.086V1.086a1.086,1.086,0,1,0-2.171,0V5.928A1.086,1.086,0,0,0,246.122,7.013Z" transform="translate(-217.824)" fill="#347af0"/>
      <path id="Path_4769" data-name="Path 4769" d="M54.835,110.594l-1.918-1.912a3.636,3.636,0,0,0-4.3-.614L45,104.458l.176-.176a3.768,3.768,0,0,0,0-5.32,3.727,3.727,0,0,0-1.89-1.022,3.792,3.792,0,0,0,.15-1.056A3.759,3.759,0,0,0,40.446,93.2a3.791,3.791,0,0,0,.15-1.056,3.756,3.756,0,0,0-2.99-3.681A3.757,3.757,0,0,0,33.59,83.67l-7.162-1.356c-1.092-.207-2.456-.344-3.317.441a1.961,1.961,0,0,0-.164.17,3.775,3.775,0,0,0-3.961.871,3.735,3.735,0,0,0-1.1,2.661,3.8,3.8,0,0,0,.149,1.056,3.76,3.76,0,0,0-2.99,3.678,3.785,3.785,0,0,0,.15,1.059,3.764,3.764,0,0,0-2.334,5.809,3.762,3.762,0,0,0-1.445,6.224l.175.175-3.614,3.608a3.63,3.63,0,0,0-4.107.712l-1.919,1.914a3.627,3.627,0,0,0,0,5.121l2.395,2.392a1.086,1.086,0,1,0,1.534-1.536l-2.395-2.392a1.456,1.456,0,0,1,0-2.048l1.919-1.914a1.454,1.454,0,0,1,1.771-.217,1.1,1.1,0,0,0,.137.167,1.08,1.08,0,0,0,.312.217L18.63,121.472a1.069,1.069,0,0,0,.523.529,1.453,1.453,0,0,1-.06,1.982L17.176,125.9a1.458,1.458,0,0,1-2.053,0l-2.395-2.4a1.086,1.086,0,0,0-1.535,1.535l2.4,2.4a3.635,3.635,0,0,0,5.12,0l1.918-1.916a3.63,3.63,0,0,0,.508-4.483l4.068-4.063.013-.013c.466-.482,1.763-.391,3.017-.3a15.614,15.614,0,0,0,2.856.019l4.455,4.449a3.628,3.628,0,0,0,.616,4.3l1.918,1.916a3.63,3.63,0,0,0,5.121,0l11.636-11.622a3.626,3.626,0,0,0,0-5.122ZM26.025,84.447l4.709.891-2.819,2.818a6.844,6.844,0,0,1-1.689-1.228,5,5,0,0,1-1.6-2.468h0a.949.949,0,0,1,0-.107,3.678,3.678,0,0,1,1.4.095Zm-5.5.885a1.6,1.6,0,0,1,2.026-.192A7.765,7.765,0,0,0,24.725,88.5a8.04,8.04,0,0,0,3.128,1.938,1.593,1.593,0,0,1-2.436,2.035h0l-4.9-4.887a1.6,1.6,0,0,1,0-2.25ZM17.684,90.07a1.6,1.6,0,0,1,2.256,0l3.942,3.935a1.6,1.6,0,0,1-2.258,2.254h0l-2.991-2.99-.014-.014-.936-.935a1.593,1.593,0,0,1,0-2.251Zm-2.842,4.736A1.606,1.606,0,0,1,17.09,94.8l3,3a1.593,1.593,0,0,1-2.258,2.249L16.745,98.96h0l-1.9-1.9a1.6,1.6,0,0,1,0-2.253Zm-1.891,5.69a1.6,1.6,0,0,1,2.259,0l1.089,1.088a1.593,1.593,0,0,1-2.259,2.248L13.9,103.7l0-.006-.006-.006-.941-.937a1.594,1.594,0,0,1,0-2.252Zm22.124,12.338a1.086,1.086,0,0,0-1.535,0l-.966.965c-.918.918-2.581.8-4.189.691-1.746-.121-3.552-.247-4.721.953l-4,3.994-10-9.985,3.539-3.532a3.765,3.765,0,0,0,5.731-3.211c0-.009,0-.019,0-.028h.028a3.755,3.755,0,0,0,3.764-3.759c0-.009,0-.019,0-.028h.029a3.751,3.751,0,0,0,3.764-3.788h.029a3.766,3.766,0,0,0,3.213-5.724l3.1-3.1a1.593,1.593,0,0,1,.815-.434c.032,0,.064-.009.1-.015a1.591,1.591,0,0,1,1.351,2.7l-.945.941-.01.009L33.081,90.57a1.086,1.086,0,0,0,1.534,1.536l.948-.947h0l.143-.143a1.6,1.6,0,0,1,2.253.006,1.593,1.593,0,0,1,0,2.25l-.95.952h0L35.92,95.307a1.086,1.086,0,0,0,1.532,1.538l1.093-1.088A1.593,1.593,0,0,1,40.8,98.009L38.906,99.9a1.086,1.086,0,1,0,1.535,1.535l.928-.929.016-.015a1.593,1.593,0,0,1,2.255,2.251l-.944.943h0l-1.5,1.5a1.086,1.086,0,0,0,1.534,1.536l.733-.732,3.512,3.508-10,9.987L33.4,115.908a4.269,4.269,0,0,0,.713-.574l.965-.964a1.085,1.085,0,0,0,0-1.535ZM53.3,114.18,41.665,125.8a1.459,1.459,0,0,1-2.052,0l-1.918-1.916a1.452,1.452,0,0,1,0-2.046l11.636-11.622a1.459,1.459,0,0,1,2.053,0l1.918,1.912a1.455,1.455,0,0,1,0,2.049Z" transform="translate(0 -73.297)" fill="#347af0"/>
      <path id="Path_4770" data-name="Path 4770" d="M86,8.547A1.086,1.086,0,0,0,87.532,7.01L83.576,3.062A1.086,1.086,0,1,0,82.042,4.6Z" transform="translate(-72.116 -2.449)" fill="#347af0"/>
      <path id="Path_4771" data-name="Path 4771" d="M372.737,8.865a1.083,1.083,0,0,0,.767-.317L377.457,4.6a1.086,1.086,0,1,0-1.534-1.536L371.97,7.011a1.086,1.086,0,0,0,.767,1.854Z" transform="translate(-330.79 -2.449)" fill="#347af0"/>
      <path id="Path_4772" data-name="Path 4772" d="M60.241,430.518a1.086,1.086,0,0,0,.013,1.535l0,0a1.086,1.086,0,1,0-.016-1.538Z" transform="translate(-52.672 -383.819)" fill="#347af0"/>
      <path id="Path_4773" data-name="Path 4773" d="M333.6,334.29a1.086,1.086,0,1,0-.488-2.055l-.006,0a1.085,1.085,0,0,0,.494,2.052Z" transform="translate(-295.868 -296.316)" fill="#347af0"/>
    </g>
  </g>
</svg>
