<svg xmlns="http://www.w3.org/2000/svg" width="40" height="40" viewBox="0 0 40 40">
  <g id="Icon" transform="translate(-202 -3046.999)">
    <rect id="Base" width="40" height="40" transform="translate(202 3046.999)" fill="#fff" opacity="0.001"/>
    <path id="icon_quote" d="M15.659,30h0V24.86q0-.041,0-.082V17.927a4,4,0,0,0-4-4H0V24.778a4,4,0,0,0,4,4h7.66a4,4,0,0,0,4-3.891ZM.012,13.924H7.3a8.18,8.18,0,0,1,.468-2.169,8.565,8.565,0,0,1,2.682-3.731,9.029,9.029,0,0,1,1.025-.716c1.658-1,3-2.763,2.651-4.665A2.978,2.978,0,0,0,10.244.183,16.507,16.507,0,0,0,5.732,2.767,15.469,15.469,0,0,0,.887,9.507,14.762,14.762,0,0,0,.012,13.924ZM33.929,30h0V17.924a4,4,0,0,0-4-4H18.27V24.775a4,4,0,0,0,4,4h7.66a4,4,0,0,0,4-3.891ZM18.282,13.924h7.291a8.185,8.185,0,0,1,.468-2.169,8.565,8.565,0,0,1,2.683-3.731,9.019,9.019,0,0,1,1.025-.716c1.658-1,3-2.763,2.651-4.665A2.978,2.978,0,0,0,28.514.183,16.508,16.508,0,0,0,24,2.767a15.47,15.47,0,0,0-4.845,6.739A14.763,14.763,0,0,0,18.282,13.924Z" transform="translate(205 3051.997)" fill="#ffc051" fill-rule="evenodd"/>
  </g>
</svg>
