<svg xmlns="http://www.w3.org/2000/svg" width="60" height="60" viewBox="0 0 60 60">
  <g id="Icon" transform="translate(-21124 -14834)">
    <rect id="Base" width="60" height="60" transform="translate(21124 14834)" fill="#fff" opacity="0"/>
    <g id="consulting" transform="translate(21125 14835.017)">
      <path id="Path_4759" data-name="Path 4759" d="M5.139,42.089a1.34,1.34,0,0,0,1.643,1.643l6.969-1.886a20.336,20.336,0,0,0,10.685,3.025h.015A15.449,15.449,0,0,0,46.5,51.793l5.007,1.355a1.34,1.34,0,0,0,1.643-1.643L51.795,46.5a15.448,15.448,0,0,0-6.923-22.05v-.014A20.436,20.436,0,1,0,7.025,35.12Zm46.183-3.542a12.726,12.726,0,0,1-2.092,7,1.342,1.342,0,0,0-.174,1.085l.9,3.32-3.32-.9a1.33,1.33,0,0,0-1.085.173,12.771,12.771,0,0,1-18.216-4.567A20.477,20.477,0,0,0,44.663,27.333a12.845,12.845,0,0,1,6.658,11.214ZM6.679,24.434a17.778,17.778,0,1,1,8.027,14.845,1.336,1.336,0,0,0-1.085-.174L8.334,40.537,9.765,35.25a1.342,1.342,0,0,0-.174-1.085,17.678,17.678,0,0,1-2.913-9.731Z" transform="translate(0 0)" fill="#ffc051"/>
      <path id="Path_4760" data-name="Path 4760" d="M16.5,29.831h4.931v4.93A1.339,1.339,0,0,0,22.773,36.1h5.718a1.339,1.339,0,0,0,1.339-1.339v-4.93h4.931A1.339,1.339,0,0,0,36.1,28.492V22.773a1.339,1.339,0,0,0-1.339-1.339H29.831V16.5a1.339,1.339,0,0,0-1.339-1.339H22.773A1.339,1.339,0,0,0,21.434,16.5v4.93H16.5a1.339,1.339,0,0,0-1.339,1.339v5.719A1.339,1.339,0,0,0,16.5,29.831Zm1.339-5.719h4.931a1.339,1.339,0,0,0,1.339-1.339v-4.93h3.04v4.93a1.339,1.339,0,0,0,1.339,1.339h4.931v3.04H28.491a1.339,1.339,0,0,0-1.339,1.339v4.93h-3.04v-4.93a1.339,1.339,0,0,0-1.339-1.339H17.843Z" transform="translate(-1.196 -1.198)" fill="#ffc051"/>
    </g>
  </g>
</svg>
