<svg xmlns="http://www.w3.org/2000/svg" width="60" height="60" viewBox="0 0 60 60">
  <g id="Icon" transform="translate(-21124 -14834)">
    <rect id="Base" width="60" height="60" transform="translate(21124 14834)" fill="#fec052" opacity="0"/>
    <g id="_24-hours-support" data-name="24-hours-support" transform="translate(21107.662 14817.669)">
      <path id="Path_4774" data-name="Path 4774" d="M23.61,46.335A22.728,22.728,0,0,1,60.418,28.492H56.96a1.137,1.137,0,1,0,0,2.273H63.39a1.137,1.137,0,0,0,1.137-1.137V23.2a1.137,1.137,0,1,0-2.273,0v3.849A25,25,0,0,0,28.661,64.016a1.136,1.136,0,1,0,1.607-1.607A22.582,22.582,0,0,1,23.61,46.335Z" transform="translate(0 0)" fill="#fec052"/>
      <path id="Path_4775" data-name="Path 4775" d="M132.371,437.863c-.645-.314-1.283-.663-1.9-1.037a1.137,1.137,0,0,0-1.184,1.94c.675.412,1.378.8,2.088,1.141a1.137,1.137,0,0,0,.993-2.044Z" transform="translate(-95.964 -371.075)" fill="#fec052"/>
      <path id="Path_4776" data-name="Path 4776" d="M437.985,132.569a1.137,1.137,0,1,0,2.046-.991c-.342-.708-.725-1.41-1.138-2.088a1.137,1.137,0,1,0-1.942,1.182C437.326,131.288,437.674,131.926,437.985,132.569Z" transform="translate(-371.181 -96.146)" fill="#fec052"/>
      <path id="Path_4777" data-name="Path 4777" d="M254.045,467.769c-.718.085-1.443.136-2.158.153a1.136,1.136,0,0,0,.026,2.272h.027c.786-.018,1.583-.075,2.371-.168a1.137,1.137,0,1,0-.266-2.258Z" transform="translate(-205.007 -398.862)" fill="#fec052"/>
      <path id="Path_4778" data-name="Path 4778" d="M190.888,462.224c-.707-.118-1.418-.272-2.113-.458a1.137,1.137,0,0,0-.587,2.2c.765.2,1.547.373,2.326.5a1.137,1.137,0,1,0,.374-2.242Z" transform="translate(-148.319 -393.471)" fill="#fec052"/>
      <path id="Path_4779" data-name="Path 4779" d="M469.055,250.854a1.137,1.137,0,0,0-1.164,1.108c-.018.719-.07,1.445-.156,2.158a1.137,1.137,0,0,0,.994,1.264,1.266,1.266,0,0,0,.136.008,1.137,1.137,0,0,0,1.127-1c.093-.784.151-1.582.17-2.371A1.136,1.136,0,0,0,469.055,250.854Z" transform="translate(-398.825 -205.067)" fill="#fec052"/>
      <path id="Path_4780" data-name="Path 4780" d="M421.131,371.221a1.138,1.138,0,0,0-1.579.3c-.4.594-.841,1.177-1.3,1.73A1.136,1.136,0,1,0,420,374.7c.5-.608.985-1.248,1.429-1.9A1.136,1.136,0,0,0,421.131,371.221Z" transform="translate(-354.389 -312.433)" fill="#fec052"/>
      <path id="Path_4781" data-name="Path 4781" d="M461.829,188.984c.184.692.337,1.4.456,2.113a1.137,1.137,0,0,0,1.12.951,1.162,1.162,0,0,0,.187-.016,1.136,1.136,0,0,0,.935-1.307c-.129-.781-.3-1.564-.5-2.326a1.137,1.137,0,1,0-2.2.585Z" transform="translate(-393.522 -148.512)" fill="#fec052"/>
      <path id="Path_4782" data-name="Path 4782" d="M373.058,418.4c-.556.46-1.138.9-1.73,1.3a1.136,1.136,0,0,0,1.275,1.881c.652-.441,1.291-.921,1.9-1.426a1.137,1.137,0,1,0-1.448-1.753Z" transform="translate(-312.253 -354.531)" fill="#fec052"/>
      <path id="Path_4783" data-name="Path 4783" d="M453.5,313.764a1.138,1.138,0,0,0-1.428.738c-.218.682-.472,1.363-.755,2.025a1.136,1.136,0,1,0,2.089.9c.313-.729.593-1.48.832-2.23a1.136,1.136,0,0,0-.737-1.428Z" transform="translate(-384.084 -261.226)" fill="#fec052"/>
      <path id="Path_4784" data-name="Path 4784" d="M316.315,451.41c-.655.281-1.337.534-2.026.754a1.136,1.136,0,0,0,.69,2.165c.757-.241,1.508-.521,2.23-.83a1.137,1.137,0,1,0-.9-2.09Z" transform="translate(-261.03 -384.171)" fill="#fec052"/>
      <path id="Path_4785" data-name="Path 4785" d="M93.9,201.249a3.856,3.856,0,0,0-3.12-3.8,4.732,4.732,0,0,0-5.333,2.507,1.137,1.137,0,1,0,2.033,1.017,2.441,2.441,0,0,1,2.777-1.312,1.649,1.649,0,0,1,1.37,1.59c0,1.185-1.369,2.1-2.819,3.068-1.632,1.089-3.481,2.324-3.481,4.369a1.137,1.137,0,0,0,1.137,1.137h6.3a1.137,1.137,0,1,0,0-2.273h-4.5a14.364,14.364,0,0,1,1.81-1.342C91.869,205.008,93.9,203.649,93.9,201.249Z" transform="translate(-57.174 -157.235)" fill="#fec052"/>
      <path id="Path_4786" data-name="Path 4786" d="M182.089,199.645a1.137,1.137,0,0,0-1.136-1.136h-.924V192.47a1.137,1.137,0,0,0-2.023-.711l-5.754,7.175a1.137,1.137,0,0,0,.887,1.847h4.617v3.2a1.137,1.137,0,1,0,2.273,0v-3.2h.923a1.137,1.137,0,0,0,1.137-1.137Zm-4.333-1.136h-2.248l2.248-2.8Z" transform="translate(-134.611 -151.888)" fill="#fec052"/>
      <path id="Path_4787" data-name="Path 4787" d="M288.415,185.354a1.134,1.134,0,0,0-1.337.892l-2.557,12.786a1.137,1.137,0,0,0,.891,1.337,1.151,1.151,0,0,0,.224.022,1.137,1.137,0,0,0,1.113-.913l2.557-12.786A1.136,1.136,0,0,0,288.415,185.354Z" transform="translate(-235.12 -146.526)" fill="#fec052"/>
      <path id="Path_4788" data-name="Path 4788" d="M353.961,209.836a1.138,1.138,0,0,0,1.049-.7l4.262-10.229a1.136,1.136,0,0,0-1.049-1.574H352.47a1.137,1.137,0,1,0,0,2.273h4.049l-3.606,8.656a1.138,1.138,0,0,0,1.048,1.574Z" transform="translate(-294.834 -157.249)" fill="#fec052"/>
    </g>
  </g>
</svg>
