<svg xmlns="http://www.w3.org/2000/svg" width="24" height="24" viewBox="0 0 24 24"><defs><style>.a,.b{fill:#fff;}.a{stroke:#707070;opacity:0;}.c{stroke:none;}.d{fill:none;}</style></defs><g transform="translate(10477 3271)"><g class="a" transform="translate(-10477 -3271)"><rect class="c" width="24" height="24"/><rect class="d" x="0.5" y="0.5" width="23" height="23"/></g><g transform="translate(-10547 -3268)"><g transform="translate(76)"><path class="b" d="M82.328,0a6.329,6.329,0,0,0-5.384,9.656l5.023,8.095a.527.527,0,0,0,.448.249h0a.527.527,0,0,0,.448-.256l4.9-8.173A6.329,6.329,0,0,0,82.328,0Zm4.53,9.029L82.408,16.46,77.841,9.1a5.277,5.277,0,1,1,9.018-.071Z" transform="translate(-76)"/></g><g transform="translate(79.164 3.164)"><path class="b" d="M169.164,90a3.164,3.164,0,1,0,3.164,3.164A3.168,3.168,0,0,0,169.164,90Zm0,5.28a2.116,2.116,0,1,1,2.113-2.116A2.118,2.118,0,0,1,169.164,95.28Z" transform="translate(-166 -90)"/></g></g></g></svg>