<svg xmlns="http://www.w3.org/2000/svg" width="18" height="18" viewBox="0 0 18 18"><defs><style>.a,.b{fill:#347af0;}.a{stroke:#707070;opacity:0;}.c{stroke:none;}.d{fill:none;}</style></defs><g class="a"><rect class="c" width="18" height="18"/><rect class="d" x="0.5" y="0.5" width="17" height="17"/></g><g transform="translate(2.25 2.25)"><g transform="translate(0.026)"><path class="b" d="M4.258,0h-.8L1.5,5.6H2.611l.295-.842H4.787l.29.842H6.19ZM3.273,3.708l.579-1.656.571,1.656Z" transform="translate(-1.496)"/></g><g transform="translate(6.936)"><path class="b" d="M269.348,9.487l-2,2V0H266.3V11.486l-2-2-.744.744,3.269,3.269,3.269-3.269Z" transform="translate(-263.555)"/></g><g transform="translate(0 7.89)"><path class="b" d="M5.286,299.247H.5V300.3H3.7L.5,304.023v.827H5.233V303.8H2.081l3.2-3.724Z" transform="translate(-0.499 -299.247)"/></g></g></svg>