<svg xmlns="http://www.w3.org/2000/svg" width="24" height="24" viewBox="0 0 24 24"><defs><style>.a{fill:#438afe;stroke:#707070;opacity:0;}.b{fill:#00bcd4;}.c{stroke:none;}.d{fill:none;}</style></defs><g transform="translate(-333 -306)"><g class="a" transform="translate(333 306)"><rect class="c" width="24" height="24"/><rect class="d" x="0.5" y="0.5" width="23" height="23"/></g><g transform="translate(336 309)"><path class="b" d="M212.02,186.563a1.582,1.582,0,1,0-1.584-1.582A1.585,1.585,0,0,0,212.02,186.563Zm0-2.109a.527.527,0,1,1-.53.527A.529.529,0,0,1,212.02,184.454Z" transform="translate(-203.038 -176.951)"/><path class="b" d="M.527,10.325h.547v7.147A.527.527,0,0,0,1.6,18H16.4a.527.527,0,0,0,.527-.527V10.325h.547A.527.527,0,0,0,18,9.8V8.04a.527.527,0,0,0-.342-.494L9.527,4.5V3.164h2.544a.527.527,0,0,0,.527-.527V.527A.527.527,0,0,0,12.072,0H9a.527.527,0,0,0-.527.527V4.5L.342,7.546A.527.527,0,0,0,0,8.04V9.8a.527.527,0,0,0,.527.527Zm4.757,6.62H4.225V12.962a.528.528,0,0,1,.527-.527h0a.528.528,0,0,1,.527.527Zm3.168,0v-4.7a.528.528,0,0,1,.527-.527h0a.528.528,0,0,1,.527.527v4.7Zm5.322,0H12.716V12.962a.528.528,0,0,1,.527-.527h0a.528.528,0,0,1,.527.527ZM9.527,1.055h2.017V2.109H9.527ZM1.055,8.406,9,5.429l7.945,2.977v.865H11.8a.527.527,0,1,0,0,1.055h4.074v6.62H14.829V12.962a1.584,1.584,0,0,0-1.582-1.582h0a1.584,1.584,0,0,0-1.582,1.582v3.983H10.567v-4.7a1.584,1.584,0,0,0-1.582-1.582h0A1.584,1.584,0,0,0,7.4,12.248v4.7H6.339V12.962A1.584,1.584,0,0,0,4.757,11.38h0a1.584,1.584,0,0,0-1.582,1.582v3.983H2.129v-6.62H6.168a.527.527,0,0,0,0-1.055H1.055Z"/></g></g></svg>