<svg xmlns="http://www.w3.org/2000/svg" width="24" height="24" viewBox="0 0 24 24"><defs><style>.a,.b{fill:#fff;}.a{stroke:#707070;opacity:0;}.c{stroke:none;}.d{fill:none;}</style></defs><g transform="translate(-333 -306)"><g class="a" transform="translate(333 306)"><rect class="c" width="24" height="24"/><rect class="d" x="0.5" y="0.5" width="23" height="23"/></g><g transform="translate(296 307)"><path class="b" d="M57.486,3.455,49.32.064a.833.833,0,0,0-.639,0L40.514,3.455a.833.833,0,0,0-.514.77V8.346a13.956,13.956,0,0,0,8.685,12.926.833.833,0,0,0,.63,0A13.956,13.956,0,0,0,58,8.346V4.224A.833.833,0,0,0,57.486,3.455ZM56.333,8.346A12.292,12.292,0,0,1,49,19.595,12.292,12.292,0,0,1,41.667,8.346V4.78L49,1.736,56.333,4.78Zm-8.254,2.809,3.582-3.582a.833.833,0,1,1,1.178,1.178l-4.171,4.171a.833.833,0,0,1-1.178,0l-2.329-2.329a.833.833,0,0,1,1.179-1.179Z" transform="translate(0 0)"/></g></g></svg>