<svg xmlns="http://www.w3.org/2000/svg" width="24" height="24" viewBox="0 0 24 24"><defs><style>.a,.b{fill:#00bcd4;}.a{opacity:0;}</style></defs><g transform="translate(-78 -228)"><rect class="a" width="24" height="24" transform="translate(78 228)"/><g transform="translate(81 231)"><path class="b" d="M111,355.71h0a.527.527,0,0,0-.526.527V361.2h1.057v-4.967A.527.527,0,0,0,111,355.71Z" transform="translate(-106.59 -343.205)"/><path class="b" d="M241,335.41h0a.527.527,0,0,0-.526.527v5.681h1.057v-5.681A.527.527,0,0,0,241,335.41Z" transform="translate(-232.016 -323.618)"/><path class="b" d="M371.995,355.71h0a.527.527,0,0,0-.526.527V361.2h1.057v-4.967A.527.527,0,0,0,371.995,355.71Z" transform="translate(-358.405 -343.205)"/><ellipse class="b" cx="0.528" cy="0.527" rx="0.528" ry="0.527" transform="translate(8.472 6.277)"/><path class="b" d="M12.022,9.288H18V8.028a.528.528,0,0,0-.342-.494L9.526,4.481V3.164h2.891a.527.527,0,0,0,.526-.527V.879a.527.527,0,0,0-.526-.527H9.5A.526.526,0,0,0,8.474.527V4.481L.353,7.53l-.012,0A.527.527,0,0,0,0,8.028v1.26H5.978a.588.588,0,0,1,0,1.176H.739v7.008A.527.527,0,0,0,1.265,18H2.831V13.033A1.582,1.582,0,0,1,4.41,11.451h0a1.582,1.582,0,0,1,1.579,1.582V18H7.4V12.319A1.582,1.582,0,0,1,8.98,10.737h0a1.582,1.582,0,0,1,1.579,1.582V18h1.443V13.033a1.582,1.582,0,0,1,1.579-1.582h0a1.582,1.582,0,0,1,1.579,1.582V18h1.566a.527.527,0,0,0,.526-.527V10.464H12.022a.588.588,0,0,1,0-1.176ZM9,8.386A1.582,1.582,0,1,1,10.581,6.8,1.583,1.583,0,0,1,9,8.386Z"/></g></g></svg>