<svg xmlns="http://www.w3.org/2000/svg" width="24" height="24" viewBox="0 0 24 24">
  <g id="Billing_Fill" data-name="Billing Fill" transform="translate(-79 -228)">
    <rect id="Base" width="24" height="24" transform="translate(79 228)" fill="#4b5c68" opacity="0"/>
    <g id="invoice_1_" data-name="invoice (1)" transform="translate(19.242 230)">
      <g id="Group_1089" data-name="Group 1089" transform="translate(64.268)">
        <path id="Path_3296" data-name="Path 3296" d="M78.661,0H64.854a.586.586,0,0,0-.586.586v17.1a.586.586,0,0,0,.172.414l1.726,1.726a.586.586,0,0,0,.829,0l1.312-1.312,1.312,1.312a.586.586,0,0,0,.829,0l1.312-1.312,1.312,1.312a.586.586,0,0,0,.829,0l1.312-1.312,1.312,1.312a.586.586,0,0,0,.829,0L79.075,18.1a.586.586,0,0,0,.172-.414V.586A.586.586,0,0,0,78.661,0Zm-7.49,4.4V3.724a.586.586,0,0,1,1.172,0v.669h.669a.586.586,0,1,1,0,1.172H71.339a.669.669,0,0,0,0,1.339h.837a1.841,1.841,0,0,1,.167,3.674v.677a.586.586,0,0,1-1.172,0v-.669H70.5a.586.586,0,1,1,0-1.172h1.674a.669.669,0,1,0,0-1.339h-.837A1.841,1.841,0,0,1,71.172,4.4ZM74.9,14.979H68.62a.586.586,0,1,1,0-1.172H74.9a.586.586,0,0,1,0,1.172Z" transform="translate(-64.268)" fill="#4b5c68"/>
      </g>
    </g>
  </g>
</svg>
