<svg xmlns="http://www.w3.org/2000/svg" width="24" height="24" viewBox="0 0 24 24"><defs><style>.a{fill:#fff;stroke:#707070;opacity:0;}.b{fill:#00c851;}.c{stroke:none;}.d{fill:none;}</style></defs><g transform="translate(-333 -306)"><g class="a" transform="translate(333 306)"><rect class="c" width="24" height="24"/><rect class="d" x="0.5" y="0.5" width="23" height="23"/></g><g transform="translate(321.355 308.451)"><path class="b" d="M32.156,17.979H30.68V.56a.56.56,0,0,0-.56-.56H17.311a.56.56,0,0,0-.56.56V17.979H15.276a.56.56,0,1,0,0,1.119H32.156a.56.56,0,1,0,0-1.119Zm-10.348,0V14.164h3.814v3.814Zm4.933,0V13.6a.56.56,0,0,0-.56-.56H21.249a.56.56,0,0,0-.56.56v4.374H17.871V1.119H29.561v16.86Z" transform="translate(0)"/><path class="b" d="M138.541,66.309H135.8a.56.56,0,0,0-.56.56V69.61a.56.56,0,0,0,.56.56h2.742a.56.56,0,0,0,.559-.56V66.869A.56.56,0,0,0,138.541,66.309Zm-.559,2.742h-1.623V67.428h1.623Z" transform="translate(-116.028 -63.836)"/><path class="b" d="M276.553,66.309h-2.742a.56.56,0,0,0-.56.56V69.61a.56.56,0,0,0,.56.56h2.742a.56.56,0,0,0,.56-.56V66.869A.56.56,0,0,0,276.553,66.309Zm-.559,2.742h-1.623V67.428h1.623Z" transform="translate(-248.893 -63.836)"/><path class="b" d="M138.541,205.954H135.8a.56.56,0,0,0-.56.559v2.742a.56.56,0,0,0,.56.559h2.742a.559.559,0,0,0,.559-.559v-2.742A.559.559,0,0,0,138.541,205.954Zm-.559,2.742h-1.623v-1.623h1.623Z" transform="translate(-116.028 -198.272)"/><path class="b" d="M276.553,205.954h-2.742a.56.56,0,0,0-.56.559v2.742a.56.56,0,0,0,.56.559h2.742a.56.56,0,0,0,.56-.559v-2.742A.56.56,0,0,0,276.553,205.954Zm-.559,2.742h-1.623v-1.623h1.623Z" transform="translate(-248.893 -198.272)"/></g></g></svg>