<svg xmlns="http://www.w3.org/2000/svg" width="24" height="24" viewBox="0 0 24 24"><defs><style>.a,.b{fill:rgba(255,255,255,0.5);}.a{opacity:0;}</style></defs><g transform="translate(-79 -228)"><rect class="a" width="24" height="24" transform="translate(79 228)"/><g transform="translate(68.284 231)"><path class="b" d="M204.869,379.739h3.6v4.65h-3.6Z" transform="translate(-183.468 -366.389)"/><path class="b" d="M165.24,96.309h1.53v1.53h-1.53Z" transform="translate(-145.232 -92.923)"/><path class="b" d="M303.252,96.309h1.53v1.53h-1.53Z" transform="translate(-278.392 -92.923)"/><path class="b" d="M165.24,235.954h1.53v1.53h-1.53Z" transform="translate(-145.232 -227.659)"/><path class="b" d="M303.252,235.954h1.53v1.53h-1.53Z" transform="translate(-278.392 -227.659)"/><path class="b" d="M31.154,16.945H29.763V.527A.527.527,0,0,0,29.235,0H17.162a.527.527,0,0,0-.527.527V16.945H15.243a.527.527,0,1,0,0,1.055h5.1V12.823a.527.527,0,0,1,.527-.527h4.65a.527.527,0,0,1,.527.527V18h5.1a.527.527,0,0,0,0-1.055ZM27.444,2.859V5.443a.527.527,0,0,1-.527.527H24.332a.527.527,0,0,1-.527-.527V2.859a.527.527,0,0,1,.527-.527h2.584a.527.527,0,0,1,.527.527Zm-4.852,7.494a.527.527,0,0,1-.527.527H19.481a.527.527,0,0,1-.527-.527V7.768a.527.527,0,0,1,.527-.527h2.584a.527.527,0,0,1,.527.527Zm0-4.909a.527.527,0,0,1-.527.527H19.481a.527.527,0,0,1-.527-.527V2.859a.527.527,0,0,1,.527-.527h2.584a.527.527,0,0,1,.527.527Zm1.74,5.437a.527.527,0,0,1-.527-.527V7.768a.527.527,0,0,1,.527-.527h2.584a.527.527,0,0,1,.527.527v2.584a.527.527,0,0,1-.527.527Z"/></g></g></svg>