<svg xmlns="http://www.w3.org/2000/svg" width="24" height="24" viewBox="0 0 24 24"><defs><style>.a{fill:rgba(255,255,255,0.5);opacity:0;}.b{fill:#fff;}</style></defs><g transform="translate(-78 -228)"><rect class="a" width="24" height="24" transform="translate(78 228)"/><g transform="translate(80 165.936)"><g transform="translate(0 67.064)"><g transform="translate(0 0)"><path class="b" d="M0,232.757a.361.361,0,0,0,.362.38H.94a2.559,2.559,0,0,1,2.3-1.5,2.56,2.56,0,0,1,2.3,1.5h7.511v-3.073H0Z" transform="translate(0 -221.852)"/><path class="b" d="M32.175,277.32a1.7,1.7,0,1,0,1.7,1.7A1.7,1.7,0,0,0,32.175,277.32Z" transform="translate(-28.937 -266.727)"/><path class="b" d="M281.681,191.777l-1.622-.713H275V196.1h.982a2.508,2.508,0,0,1,4.6,0h.961a.361.361,0,0,0,.362-.38v-3.579A.392.392,0,0,0,281.681,191.777Z" transform="translate(-261.145 -184.817)"/><path class="b" d="M278.391,121.683a1.157,1.157,0,0,0-1.044-.622H275v2.721h4.48Z" transform="translate(-261.145 -118.341)"/><path class="b" d="M11.892,67.064H1.151A1.161,1.161,0,0,0,0,68.245V74.47H13.049V68.245s0,0,0-.005A1.166,1.166,0,0,0,11.892,67.064Z" transform="translate(0 -67.064)"/><path class="b" d="M308.008,277.32a1.7,1.7,0,1,0,1.7,1.7h0A1.7,1.7,0,0,0,308.008,277.32Z" transform="translate(-290.873 -266.727)"/></g></g></g></g></svg>