<svg xmlns="http://www.w3.org/2000/svg" width="24" height="24" viewBox="0 0 24 24"><defs><style>.a{fill:#fff;stroke:#707070;opacity:0;}.b{fill:#51566d;}.c{stroke:none;}.d{fill:none;}</style></defs><g transform="translate(-333 -306)"><g class="a" transform="translate(333 306)"><rect class="c" width="24" height="24"/><rect class="d" x="0.5" y="0.5" width="23" height="23"/></g><g transform="translate(336 244.996)"><g transform="translate(0 67.004)"><path class="b" d="M17.389,72.626l-1.226-.53L15.123,70.07a1.639,1.639,0,0,0-1.475-.9H11.856v-.506A1.653,1.653,0,0,0,10.208,67H1.64A1.649,1.649,0,0,0,0,68.668v7.756a1.01,1.01,0,0,0,1,1.025h.229c0,.04,0,.056,0,.08a2.082,2.082,0,1,0,4.163.016v-.02a.625.625,0,0,0,0-.08h6.924v.08a2.082,2.082,0,1,0,4.163.016v-.1h.518A1.014,1.014,0,0,0,18,76.428V73.558A1.008,1.008,0,0,0,17.389,72.626ZM3.308,78.819a1.278,1.278,0,1,1,1.278-1.278A1.276,1.276,0,0,1,3.308,78.819Zm7.744-2.166H5.193a2.079,2.079,0,0,0-3.77,0h-.41A.208.208,0,0,1,.8,76.432v-2.07H11.052Zm0-7.981v4.887H.8V68.672a.846.846,0,0,1,.836-.86h8.568a.852.852,0,0,1,.844.856Zm.8,1.31h1.792a.848.848,0,0,1,.764.454l.8,1.555h-3.36Zm2.536,8.837a1.278,1.278,0,1,1,1.278-1.278A1.276,1.276,0,0,1,14.391,78.819ZM17.2,76.432a.208.208,0,0,1-.209.221h-.715a2.08,2.08,0,0,0-3.77,0h-.651V72.795h3.938l1.278.563a.236.236,0,0,1,.129.217Z" transform="translate(0 -67.004)"/></g></g></g></svg>