<svg xmlns="http://www.w3.org/2000/svg" width="24" height="24" viewBox="0 0 24 24"><defs><style>.a,.b{fill:#4b5c68;}.a{opacity:0;}</style></defs><g transform="translate(-79 -228)"><rect class="a" width="24" height="24" transform="translate(79 228)"/><g transform="translate(81 230)"><path class="b" d="M13.583,22.667a.833.833,0,0,1-.693-.371l-1.419-2.129H9.833a.833.833,0,1,1,0-1.667h2.083a.834.834,0,0,1,.693.371l.87,1.305,1.858-3.716a.834.834,0,0,1,.713-.46.822.822,0,0,1,.747.4l2.257,3.763h1.612a.833.833,0,1,1,0,1.667H18.583a.832.832,0,0,1-.714-.4L16.15,18.564l-1.821,3.642a.834.834,0,0,1-.694.459Z" transform="translate(-1.5 -2.667)"/><circle class="b" cx="4.167" cy="4.167" r="4.167" transform="translate(3.333)"/><path class="b" d="M5.833,18.667a2.5,2.5,0,0,1,2.5-2.5h2.083a2.5,2.5,0,0,1,1.215.314l.716-1.433a2.486,2.486,0,0,1,1.845-1.328A4.153,4.153,0,0,0,10.833,12H4.167A4.167,4.167,0,0,0,0,16.167v2.708a.625.625,0,0,0,.625.625H5.987A2.472,2.472,0,0,1,5.833,18.667Z" transform="translate(0 -2)"/></g></g></svg>