<svg xmlns="http://www.w3.org/2000/svg" width="24" height="24" viewBox="0 0 24 24"><defs><style>.a{fill:#ffc051;stroke:#707070;opacity:0;}.b{fill:#d263e4;stroke:#d263e4;stroke-width:0.5px;}.c{stroke:none;}.d{fill:none;}</style></defs><g transform="translate(-333 -306)"><g class="a" transform="translate(333 306)"><rect class="c" width="24" height="24"/><rect class="d" x="0.5" y="0.5" width="23" height="23"/></g><g transform="translate(335 308)"><g transform="translate(3.333)"><path class="b" d="M8.167,8.333a4.167,4.167,0,1,1,4.167-4.167A4.171,4.171,0,0,1,8.167,8.333Zm0-7.5A3.333,3.333,0,1,0,11.5,4.167,3.337,3.337,0,0,0,8.167.833Z" transform="translate(-4)"/></g><g transform="translate(0 10)"><path class="b" d="M5.417,19.5h-5A.417.417,0,0,1,0,19.083V15.75A3.755,3.755,0,0,1,3.75,12h7.5a3.734,3.734,0,0,1,2.7,1.155.417.417,0,1,1-.6.573,2.9,2.9,0,0,0-2.1-.9H3.75A2.92,2.92,0,0,0,.833,15.75v2.917H5.417a.417.417,0,0,1,0,.833Z" transform="translate(0 -12)"/></g><g transform="translate(7.5 13.333)"><path class="b" d="M13.583,22.667a.416.416,0,0,1-.372-.23l-1.552-3.1H9.417a.417.417,0,1,1,0-.833h2.5a.417.417,0,0,1,.373.23l1.265,2.53L15.7,16.252A.417.417,0,0,1,16.071,16a.438.438,0,0,1,.385.23L18.841,21h2.243a.417.417,0,0,1,0,.833h-2.5a.417.417,0,0,1-.373-.23l-2.1-4.2-2.146,5.007a.417.417,0,0,1-.371.253h-.013Z" transform="translate(-9 -16)"/></g></g></g></svg>