<svg xmlns="http://www.w3.org/2000/svg" width="24" height="24" viewBox="0 0 24 24"><defs><style>.a,.b{fill:#fff;}.a{stroke:#707070;opacity:0;}.c{stroke:none;}.d{fill:none;}</style></defs><g transform="translate(10327 4258)"><g class="a" transform="translate(-10327 -4258)"><rect class="c" width="24" height="24"/><rect class="d" x="0.5" y="0.5" width="23" height="23"/></g><path class="b" d="M28.339,13.82l-1.471-1.513a.316.316,0,0,0-.234-.1h0a.3.3,0,0,0-.234.1L16.2,22.58l-3.711-3.711a.323.323,0,0,0-.468,0l-1.488,1.488a.333.333,0,0,0,0,.476l4.681,4.681a1.48,1.48,0,0,0,.978.476,1.551,1.551,0,0,0,.97-.46h.008L28.348,14.3A.357.357,0,0,0,28.339,13.82Z" transform="translate(-10334.435 -4265.206)"/></g></svg>