<svg xmlns="http://www.w3.org/2000/svg" width="24" height="24" viewBox="0 0 24 24"><defs><style>.a{fill:#347af0;stroke:#707070;opacity:0;}.b{fill:#438afe;stroke:#438afe;stroke-width:0.3px;}.c{stroke:none;}.d{fill:none;}</style></defs><g class="a"><rect class="c" width="24" height="24"/><rect class="d" x="0.5" y="0.5" width="23" height="23"/></g><g transform="translate(3 3)"><path class="b" d="M16.7,48.715a.451.451,0,0,0-.451.451v4a1.353,1.353,0,0,1-1.352,1.352H2.253A1.353,1.353,0,0,1,.9,53.166V41.425a1.353,1.353,0,0,1,1.352-1.352h4a.451.451,0,0,0,0-.9h-4A2.255,2.255,0,0,0,0,41.425V53.166a2.255,2.255,0,0,0,2.253,2.253H14.895a2.255,2.255,0,0,0,2.253-2.253v-4a.451.451,0,0,0-.451-.451Zm0,0" transform="translate(0 -37.419)"/><path class="b" d="M120.285.855a2.028,2.028,0,0,0-2.867,0l-8.038,8.038a.45.45,0,0,0-.116.2l-1.057,3.816a.45.45,0,0,0,.554.555l3.816-1.057a.45.45,0,0,0,.2-.116l8.038-8.038a2.03,2.03,0,0,0,0-2.867Zm-9.924,8.331,6.579-6.579,2.122,2.122-6.579,6.579Zm-.424.85,1.7,1.7-2.345.65Zm10.239-6.423-.478.478L117.577,1.97l.478-.478a1.126,1.126,0,0,1,1.593,0l.529.529A1.128,1.128,0,0,1,120.176,3.614Zm0,0" transform="translate(-103.316 -0.261)"/></g></svg>