<svg id="Edit" xmlns="http://www.w3.org/2000/svg" width="18" height="18" viewBox="0 0 18 18">
  <rect id="Base" width="18" height="18" fill="rgba(52,122,240,0.1)" opacity="0"/>
  <g id="Edit-2" data-name="Edit" transform="translate(4.5 4.499)">
    <path id="Path_3114" data-name="Path 3114" d="M116.213.655a1.345,1.345,0,0,0-1.9,0l-5.332,5.332a.3.3,0,0,0-.077.132l-.7,2.531a.3.3,0,0,0,.368.368l2.531-.7a.3.3,0,0,0,.132-.077l5.332-5.332a1.346,1.346,0,0,0,0-1.9ZM109.63,6.181l4.364-4.364L115.4,3.224l-4.364,4.364Zm-.281.564,1.124,1.124-1.555.431Zm6.792-4.26-.317.317-1.407-1.407.317-.317a.747.747,0,0,1,1.057,0l.351.351A.748.748,0,0,1,116.141,2.485Zm0,0" transform="translate(-108.19 -0.261)" fill="#347af0" stroke="#347af0" stroke-width="0.3"/>
  </g>
</svg>
