<svg xmlns="http://www.w3.org/2000/svg" width="24" height="24" viewBox="0 0 24 24"><defs><style>.a,.b{fill:#fff;}.a{stroke:#fff;opacity:0;}.c{stroke:none;}.d{fill:none;}</style></defs><g transform="translate(10413 3263)"><g class="a" transform="translate(-10413 -3263)"><rect class="c" width="24" height="24"/><rect class="d" x="0.5" y="0.5" width="23" height="23"/></g><path class="b" d="M18.779,2.267H13.638V1.7a1.7,1.7,0,0,0-1.7-1.7H7.4A1.7,1.7,0,0,0,5.7,1.7v.567H.567A.568.568,0,0,0,0,2.833V15.3A1.7,1.7,0,0,0,1.7,17H17.642a1.7,1.7,0,0,0,1.7-1.7V2.843A.55.55,0,0,0,18.779,2.267ZM6.838,1.7A.567.567,0,0,1,7.4,1.133h4.533A.567.567,0,0,1,12.5,1.7v.567H6.838ZM17.989,3.4,16.23,8.679a.566.566,0,0,1-.537.388H12.5V8.5a.567.567,0,0,0-.567-.567H7.4a.567.567,0,0,0-.567.567v.567H3.65a.566.566,0,0,1-.537-.388L1.353,3.4ZM11.371,9.067V10.2h-3.4V9.067ZM18.209,15.3a.567.567,0,0,1-.567.567H1.7a.567.567,0,0,1-.567-.567V6.325l.9,2.712A1.7,1.7,0,0,0,3.65,10.2H6.838v.567a.567.567,0,0,0,.567.567h4.533a.567.567,0,0,0,.567-.567V10.2h3.188A1.7,1.7,0,0,0,17.3,9.038l.9-2.712Zm0,0" transform="translate(-10411 -3259)"/></g></svg>