<svg xmlns="http://www.w3.org/2000/svg" width="24" height="24" viewBox="0 0 24 24"><defs><style>.a,.b{fill:#d72525;}.a{stroke:#707070;opacity:0;}.c{stroke:none;}.d{fill:none;}</style></defs><g transform="translate(11429 -8546)"><g class="a" transform="translate(-11429 8546)"><rect class="c" width="24" height="24"/><rect class="d" x="0.5" y="0.5" width="23" height="23"/></g><g transform="translate(-11429 8474.6)"><g transform="translate(0 75.4)"><g transform="translate(0 0)"><path class="b" d="M24,84.71c-.029-.665-.679-1.2-1.937-1.578a13.8,13.8,0,0,0-3.553-.5v-5.1a.517.517,0,0,0-.072-.239c-.134-.579-.779-1.047-1.922-1.392a14.237,14.237,0,0,0-3.959-.5,13.879,13.879,0,0,0-3.921.5c-.866.268-1.9.765-1.9,1.621a.88.88,0,0,0,.014.158l.053,2.181A5.722,5.722,0,1,0,9.329,89.922a14.141,14.141,0,0,0,3.06.335c.244,1.325,3.113,1.932,5.786,1.932a13.685,13.685,0,0,0,3.921-.512c.866-.268,1.9-.77,1.9-1.626V84.8A.579.579,0,0,0,24,84.71Zm-6.489-4.533c0,.062-.23.392-1.267.708a13.535,13.535,0,0,1-3.682.464A13.681,13.681,0,0,1,9.3,80.99c-.014,0-.024,0-.038-.01a5.517,5.517,0,0,0-1.5-.846l-.033-1.348a5.3,5.3,0,0,0,1.033.4,14.134,14.134,0,0,0,3.792.464,14.261,14.261,0,0,0,3.959-.5,5.735,5.735,0,0,0,1.038-.416v1.253A.275.275,0,0,0,17.506,80.177ZM8.918,76.825a12.917,12.917,0,0,1,3.634-.464,13.351,13.351,0,0,1,3.682.464c1.038.316,1.267.641,1.267.7s-.234.4-1.272.708a13.512,13.512,0,0,1-3.677.459,13.129,13.129,0,0,1-3.524-.43c-1.028-.3-1.315-.622-1.339-.727,0-.01,0-.01,0-.01C7.689,77.437,7.909,77.131,8.918,76.825Zm.014,12.184a4.766,4.766,0,1,1-3.209-8.287,4.87,4.87,0,0,1,1.411.21A4.786,4.786,0,0,1,10.4,84.524a5,5,0,0,1,.1.961A4.738,4.738,0,0,1,8.932,89.009Zm1.215.105a5.774,5.774,0,0,0,.918-1.573c.406.033.827.057,1.267.062v.086l.029,1.621A14.938,14.938,0,0,1,10.147,89.114Zm1.277-4.2c.277.019.569.029.866.033l.029,1.693c-.335,0-.665-.019-.98-.043a5.878,5.878,0,0,0,.11-1.119C11.448,85.294,11.438,85.107,11.424,84.916ZM12.6,84h-.048c-.459,0-.9-.019-1.315-.048a5.669,5.669,0,0,0-.856-1.779,17.222,17.222,0,0,0,2.166.139,14.273,14.273,0,0,0,3.964-.5,6.039,6.039,0,0,0,1.033-.411v1.253C15.493,82.707,13.384,83.137,12.6,84Zm.631.76a.036.036,0,0,1,0-.019c.043-.129.383-.445,1.372-.722a13.014,13.014,0,0,1,3.409-.406H18.1a13.4,13.4,0,0,1,3.682.454c1.019.306,1.258.622,1.262.693v0c0,.072-.244.4-1.305.717a13.283,13.283,0,0,1-3.634.449A13.339,13.339,0,0,1,14.58,85.5c-1.028-.3-1.31-.626-1.339-.727Zm8.588,6.011a12.766,12.766,0,0,1-3.639.469,13.012,13.012,0,0,1-3.629-.454c-1.009-.311-1.219-.631-1.219-.7v-.01l-.024-1.387a6.23,6.23,0,0,0,1.191.435,14.716,14.716,0,0,0,3.591.411,14.141,14.141,0,0,0,3.95-.5,6.128,6.128,0,0,0,1-.406v1.435h0C23.048,90.123,22.828,90.453,21.819,90.769Zm1.234-3.519h0c0,.048-.029.105-.029.158s-.225.392-1.258.708a13.23,13.23,0,0,1-3.668.459c-2.649,0-4.433-.6-4.806-1.062l0-.4-.019-1.1a5.866,5.866,0,0,0,1.042.4,14.133,14.133,0,0,0,3.792.464,14.313,14.313,0,0,0,3.907-.488,5.475,5.475,0,0,0,1.047-.411Z" transform="translate(0 -75.4)"/></g></g><g transform="translate(3.921 81.564)"><g transform="translate(0 0)"><path class="b" d="M85.543,208.9A1.808,1.808,0,0,0,83.8,207.58a.849.849,0,1,1,.851-.846.478.478,0,1,0,.956,0,1.808,1.808,0,0,0-1.315-1.741v-.215a.478.478,0,0,0-.956,0v.206a1.8,1.8,0,0,0,.464,3.548.849.849,0,1,1-.846.851.478.478,0,0,0-.956,0,1.816,1.816,0,0,0,1.339,1.745v.416a.478.478,0,1,0,.956,0v-.421A1.8,1.8,0,0,0,85.543,208.9Z" transform="translate(-82 -204.3)"/></g></g></g></g></svg>