<svg xmlns="http://www.w3.org/2000/svg" width="24" height="24" viewBox="0 0 24 24"><defs><style>.a,.b{fill:#4b5c68;}.a{opacity:0;}</style></defs><g transform="translate(-79 -228)"><rect class="a" width="24" height="24" transform="translate(79 228)"/><g transform="translate(83 230)"><path class="b" d="M183.934,181.007a2.93,2.93,0,1,0,2.93,2.93A2.933,2.933,0,0,0,183.934,181.007Zm1.172,3.516h-.586v.586a.586.586,0,1,1-1.172,0v-.586h-.586a.586.586,0,0,1,0-1.172h.586v-.586a.586.586,0,1,1,1.172,0v.586h.586a.586.586,0,0,1,0,1.172Z" transform="translate(-176.317 -173.937)"/><path class="b" d="M75.652,2.383A11.029,11.029,0,0,1,69.537.493L68.946.1a.584.584,0,0,0-.65,0l-.59.394A11.029,11.029,0,0,1,61.59,2.383.586.586,0,0,0,61,2.969V9.62a10.9,10.9,0,0,0,7.432,10.35.582.582,0,0,0,.371,0A10.9,10.9,0,0,0,76.238,9.62V2.969a.586.586,0,0,0-.586-.586ZM68.621,14.1a4.1,4.1,0,1,1,4.1-4.1A4.106,4.106,0,0,1,68.621,14.1Z" transform="translate(-61.004 0)"/></g></g></svg>