<svg xmlns="http://www.w3.org/2000/svg" width="24" height="24" viewBox="0 0 24 24"><defs><style>.a,.b{fill:#fff;stroke:#fff;}.a{opacity:0;}.b{stroke-width:0.3px;}.c{stroke:none;}.d{fill:none;}</style></defs><g transform="translate(10413 3263)"><g class="a" transform="translate(-10413 -3263)"><rect class="c" width="24" height="24"/><rect class="d" x="0.5" y="0.5" width="23" height="23"/></g><g transform="translate(-10420.328 -3259)"><g transform="translate(11.328 8.522)"><g transform="translate(0)"><path class="b" d="M19.453,257.323a8.134,8.134,0,0,0-8.125,8.125.353.353,0,1,0,.707,0,7.418,7.418,0,1,1,14.837,0,.353.353,0,1,0,.707,0A8.134,8.134,0,0,0,19.453,257.323Z" transform="translate(-11.328 -257.323)"/></g></g><g transform="translate(15.567)"><path class="b" d="M143.214,0A3.886,3.886,0,1,0,147.1,3.886,3.89,3.89,0,0,0,143.214,0Zm0,7.065a3.179,3.179,0,1,1,3.179-3.179A3.183,3.183,0,0,1,143.214,7.065Z" transform="translate(-139.328)"/></g></g></g></svg>