<svg xmlns="http://www.w3.org/2000/svg" width="28" height="28" viewBox="0 0 28 28"><defs><style>.a{fill:#347af0;}</style></defs><path class="a" d="M14,0A14,14,0,1,0,28,14,14,14,0,0,0,14,0Zm2.914,21.7q-1.081.427-1.724.649a4.549,4.549,0,0,1-1.5.224,2.981,2.981,0,0,1-2.035-.639,2.061,2.061,0,0,1-.724-1.62,5.885,5.885,0,0,1,.053-.781c.037-.265.095-.564.174-.9l.9-3.186c.079-.306.148-.6.2-.866a3.842,3.842,0,0,0,.081-.75,1.155,1.155,0,0,0-.251-.85,1.427,1.427,0,0,0-.964-.238,2.529,2.529,0,0,0-.717.107c-.243.075-.454.142-.627.209l.238-.981q.885-.361,1.695-.617A5.007,5.007,0,0,1,13.25,11.2a2.925,2.925,0,0,1,2.005.628,2.087,2.087,0,0,1,.7,1.631q0,.208-.049.731a4.893,4.893,0,0,1-.18.961l-.9,3.176c-.073.255-.139.546-.2.872a4.612,4.612,0,0,0-.087.742,1.066,1.066,0,0,0,.283.863,1.586,1.586,0,0,0,.98.23,2.843,2.843,0,0,0,.742-.115,4.219,4.219,0,0,0,.6-.2ZM16.755,8.8a2.141,2.141,0,0,1-1.511.583A2.164,2.164,0,0,1,13.727,8.8,1.861,1.861,0,0,1,13.1,7.391a1.88,1.88,0,0,1,.632-1.417,2.148,2.148,0,0,1,1.517-.589,2.124,2.124,0,0,1,1.511.589,1.909,1.909,0,0,1,0,2.831Z"/></svg>