<svg xmlns="http://www.w3.org/2000/svg" width="42" height="42" viewBox="0 0 42 42">
  <g id="JPEG_File" data-name="JPEG File" transform="translate(10756 3822)">
    <rect id="Base" width="42" height="42" transform="translate(-10756 -3822)" fill="#fff" opacity="0"/>
    <g id="jpg" transform="translate(-10754.554 -3818)">
      <path id="Path_3223" data-name="Path 3223" d="M25.009,0H7.388C6.9,0,6.5.4,6.5,1.169V33.393A.914.914,0,0,0,7.388,34H31.719a.914.914,0,0,0,.888-.607V7.879c0-.423-.056-.559-.156-.659L25.386.156A.537.537,0,0,0,25.009,0Z" transform="translate(0 0)" fill="#e9e9e0"/>
      <path id="Path_3224" data-name="Path 3224" d="M37.5.151V7.345h7.194Z" transform="translate(-12.179 -0.059)" fill="#d9d7ca"/>
      <circle id="Ellipse_24" data-name="Ellipse 24" cx="2.774" cy="2.774" r="2.774" transform="translate(11.273 5.988)" fill="#f3d55b"/>
      <path id="Path_3225" data-name="Path 3225" d="M6.5,30.946H32.607V24.268L26.536,18.5l-6.375,6.982-3.329-3.329Z" transform="translate(0 -7.268)" fill="#26b99a"/>
      <path id="Path_3226" data-name="Path 3226" d="M31.719,49.321H7.388a.888.888,0,0,1-.888-.888V39H32.607v9.433A.888.888,0,0,1,31.719,49.321Z" transform="translate(0 -15.321)" fill="#14a085"/>
      <g id="Group_1006" data-name="Group 1006" transform="translate(11.819 25.895)">
        <path id="Path_3227" data-name="Path 3227" d="M19,42.65v4.765a1.523,1.523,0,0,1-.158.726,1.3,1.3,0,0,1-.423.473,1.686,1.686,0,0,1-.61.249,3.509,3.509,0,0,1-.71.071,2.879,2.879,0,0,1-.427-.038,3.632,3.632,0,0,1-.506-.116q-.261-.079-.5-.179a1.835,1.835,0,0,1-.407-.224l.423-.672a1.24,1.24,0,0,0,.237.12q.153.062.336.116c.121.036.249.067.382.1a1.819,1.819,0,0,0,.373.041,1.275,1.275,0,0,0,.7-.17.672.672,0,0,0,.278-.577V42.65Z" transform="translate(-15.26 -42.65)" fill="#fff"/>
        <path id="Path_3228" data-name="Path 3228" d="M24.869,48.973h-1V42.855h1.76a2.47,2.47,0,0,1,.772.124,2.1,2.1,0,0,1,.685.373,1.95,1.95,0,0,1,.49.6,1.667,1.667,0,0,1,.187.793,2.169,2.169,0,0,1-.158.843,1.761,1.761,0,0,1-.44.635,1.983,1.983,0,0,1-.681.4,2.619,2.619,0,0,1-.88.141h-.739v2.209Zm0-5.362v2.424h.913a1.085,1.085,0,0,0,.361-.063.91.91,0,0,0,.328-.2.994.994,0,0,0,.24-.394,1.866,1.866,0,0,0,.091-.627,1.7,1.7,0,0,0-.041-.344.994.994,0,0,0-.17-.373,1.006,1.006,0,0,0-.361-.3,1.335,1.335,0,0,0-.614-.121Z" transform="translate(-18.644 -42.731)" fill="#fff"/>
        <path id="Path_3229" data-name="Path 3229" d="M36.546,45.754V48.12a1.787,1.787,0,0,1-.427.394,2.613,2.613,0,0,1-.5.253,2.568,2.568,0,0,1-.54.141,3.548,3.548,0,0,1-.552.043,2.51,2.51,0,0,1-1.008-.2,2.258,2.258,0,0,1-.805-.59,2.781,2.781,0,0,1-.54-.979,4.836,4.836,0,0,1,0-2.718,2.767,2.767,0,0,1,.54-.975,2.3,2.3,0,0,1,.809-.594,2.47,2.47,0,0,1,1-.2,2.57,2.57,0,0,1,.93.166,2.268,2.268,0,0,1,.772.5l-.689.614a1.185,1.185,0,0,0-.457-.348,1.367,1.367,0,0,0-.531-.108,1.5,1.5,0,0,0-.585.116,1.254,1.254,0,0,0-.5.394,2.03,2.03,0,0,0-.344.718,4.236,4.236,0,0,0-.133,1.079,4.5,4.5,0,0,0,.129,1.079,2.215,2.215,0,0,0,.332.747,1.415,1.415,0,0,0,.481.432,1.209,1.209,0,0,0,.569.141c.061,0,.142,0,.245-.013a2.98,2.98,0,0,0,.307-.041,2,2,0,0,0,.294-.079.422.422,0,0,0,.208-.141V46.434H34.521v-.681h2.025Z" transform="translate(-21.829 -42.667)" fill="#fff"/>
      </g>
    </g>
  </g>
</svg>
