<svg xmlns="http://www.w3.org/2000/svg" width="24" height="24" viewBox="0 0 24 24"><defs><style>.a{fill:#347af0;stroke:#707070;opacity:0;}.b{fill:#438afb;}.c{stroke:none;}.d{fill:none;}</style></defs><g transform="translate(-859 -363)"><g class="a" transform="translate(859 363)"><rect class="c" width="24" height="24"/><rect class="d" x="0.5" y="0.5" width="23" height="23"/></g><g transform="translate(865 367)"><g transform="translate(0)"><path class="b" d="M76.368,0a5.8,5.8,0,0,0-5.795,5.795c0,3.965,5.186,9.786,5.406,10.032a.522.522,0,0,0,.776,0c.221-.246,5.406-6.067,5.406-10.032A5.8,5.8,0,0,0,76.368,0Zm0,8.71a2.915,2.915,0,1,1,2.915-2.915A2.919,2.919,0,0,1,76.368,8.71Z" transform="translate(-70.573)"/></g></g></g></svg>