<svg xmlns="http://www.w3.org/2000/svg" width="24" height="24" viewBox="0 0 24 24"><defs><style>.a,.b{fill:#fff;}.a{stroke:#707070;opacity:0;}.c{stroke:none;}.d{fill:none;}</style></defs><g transform="translate(10452 3268)"><g class="a" transform="translate(-10452 -3268)"><rect class="c" width="24" height="24"/><rect class="d" x="0.5" y="0.5" width="23" height="23"/></g><g transform="translate(-10455.2 -3264)"><path class="b" d="M20.034,0h-10A1.832,1.832,0,0,0,8.2,1.83V15.17A1.832,1.832,0,0,0,10.03,17h10a1.832,1.832,0,0,0,1.83-1.83V1.83A1.832,1.832,0,0,0,20.034,0Zm.61,15.17a.61.61,0,0,1-.61.61h-10a.61.61,0,0,1-.61-.61V1.83a.611.611,0,0,1,.61-.61h10a.61.61,0,0,1,.61.61V15.17Z" transform="translate(0)"/><rect class="b" width="7.93" height="1.22" transform="translate(11.067 4.338)"/><rect class="b" width="7.93" height="1.22" transform="translate(11.067 7.633)"/><rect class="b" width="7.93" height="1.22" transform="translate(11.067 10.927)"/></g></g></svg>