<svg xmlns="http://www.w3.org/2000/svg" width="24" height="24" viewBox="0 0 24 24"><defs><style>.a{fill:#347af0;stroke:#707070;opacity:0;}.b{fill:#438afb;}.c{stroke:none;}.d{fill:none;}</style></defs><g transform="translate(-888 -188)"><g class="a" transform="translate(888 188)"><rect class="c" width="24" height="24"/><rect class="d" x="0.5" y="0.5" width="23" height="23"/></g><g transform="translate(892 192)"><path class="b" d="M14.716,10.5a9.084,9.084,0,0,1-2.853-.454,1.3,1.3,0,0,0-1.268.267L8.8,11.673A9.942,9.942,0,0,1,4.326,7.2L5.644,5.452a1.293,1.293,0,0,0,.318-1.31,9.1,9.1,0,0,1-.456-2.858A1.285,1.285,0,0,0,4.222,0H1.284A1.285,1.285,0,0,0,0,1.284,14.733,14.733,0,0,0,14.716,16,1.285,1.285,0,0,0,16,14.716v-2.93A1.285,1.285,0,0,0,14.716,10.5Z"/></g></g></svg>