<svg xmlns="http://www.w3.org/2000/svg" width="24" height="24" viewBox="0 0 24 24"><defs><style>.a,.b{fill:#4b5c68;}.a{opacity:0;}</style></defs><g transform="translate(-79 -228)"><rect class="a" width="24" height="24" transform="translate(79 228)"/><g transform="translate(82 193.525)"><g transform="translate(14.01 47.083)"><path class="b" d="M399.886,273.32h-1.392a3.622,3.622,0,0,1,.219,1.245v5.261a1.551,1.551,0,0,1-.089.52h2.3a1.561,1.561,0,0,0,1.559-1.559v-2.868A2.6,2.6,0,0,0,399.886,273.32Z" transform="translate(-398.494 -273.32)"/></g><g transform="translate(0 47.083)"><path class="b" d="M3.771,274.566a3.621,3.621,0,0,1,.219-1.245H2.6a2.6,2.6,0,0,0-2.6,2.6v2.868a1.561,1.561,0,0,0,1.559,1.559h2.3a1.552,1.552,0,0,1-.089-.52Z" transform="translate(0 -273.321)"/></g><g transform="translate(4.81 45.73)"><path class="b" d="M142.61,234.815h-3.182a2.6,2.6,0,0,0-2.6,2.6v5.261a.52.52,0,0,0,.52.52h7.34a.52.52,0,0,0,.52-.52v-5.261A2.6,2.6,0,0,0,142.61,234.815Z" transform="translate(-136.829 -234.815)"/></g><g transform="translate(5.875 38.84)"><g transform="translate(0 0)"><path class="b" d="M170.239,38.84a3.124,3.124,0,1,0,3.125,3.125A3.128,3.128,0,0,0,170.239,38.84Z" transform="translate(-167.114 -38.84)"/></g></g><g transform="translate(1.176 41.753)"><g transform="translate(0 0)"><path class="b" d="M35.78,121.689a2.336,2.336,0,1,0,2.337,2.337A2.34,2.34,0,0,0,35.78,121.689Z" transform="translate(-33.443 -121.689)"/></g></g><g transform="translate(12.15 41.753)"><g transform="translate(0 0)"><path class="b" d="M347.944,121.689a2.337,2.337,0,1,0,2.337,2.337A2.34,2.34,0,0,0,347.944,121.689Z" transform="translate(-345.607 -121.689)"/></g></g></g></g></svg>