<svg xmlns="http://www.w3.org/2000/svg" width="32" height="32" viewBox="0 0 32 32"><defs><style>.a,.b{fill:#6fd231;}.a{opacity:0;}</style></defs><g transform="translate(-79 -228)"><rect class="a" width="32" height="32" transform="translate(79 228)"/><g transform="translate(81.667 230.667)"><g transform="translate(0 7.526)"><path class="b" d="M17.535,26.086a7.982,7.982,0,0,0-.051-1.93l1.461-.651a9.626,9.626,0,0,0-1.764-3.963l-1.462.651a8.008,8.008,0,0,0-1.4-1.328l.573-1.494a9.67,9.67,0,0,0-4.049-1.556l-.574,1.5a7.982,7.982,0,0,0-1.93.051l-.648-1.454a9.662,9.662,0,0,0-3.959,1.774l.643,1.445a8,8,0,0,0-1.329,1.4l-1.49-.571A9.5,9.5,0,0,0,.545,21.89,9.777,9.777,0,0,0,0,24l1.494.573a7.982,7.982,0,0,0,.051,1.93l-1.461.651a9.619,9.619,0,0,0,1.765,3.963l1.461-.651A7.979,7.979,0,0,0,4.71,31.8l-.573,1.495a9.669,9.669,0,0,0,4.049,1.556l.574-1.5a8.006,8.006,0,0,0,1.93-.051l.648,1.454A9.661,9.661,0,0,0,15.3,32.981l-.644-1.445a8,8,0,0,0,1.329-1.4l1.489.571a9.506,9.506,0,0,0,1.013-1.935,9.672,9.672,0,0,0,.546-2.113Zm-3.97.8a4.338,4.338,0,1,1-2.5-5.6A4.339,4.339,0,0,1,13.565,26.885Z" transform="translate(0 -15.816)"/></g><g transform="translate(15.292 0)"><path class="b" d="M42.238,6a4.665,4.665,0,0,0-.081-.848l1.12-.647a5.879,5.879,0,0,0-1.547-2.685l-1.123.649a4.615,4.615,0,0,0-1.468-.846V.327a5.732,5.732,0,0,0-3.1,0v1.3a4.63,4.63,0,0,0-1.468.846L33.45,1.821A5.892,5.892,0,0,0,31.9,4.506l1.121.647a4.478,4.478,0,0,0,0,1.7L31.9,7.5a5.89,5.89,0,0,0,1.547,2.685l1.123-.649a4.621,4.621,0,0,0,1.468.846v1.3a5.732,5.732,0,0,0,3.1,0v-1.3a4.624,4.624,0,0,0,1.468-.846l1.123.649A5.88,5.88,0,0,0,43.277,7.5l-1.12-.647A4.632,4.632,0,0,0,42.238,6ZM37.591,8.17A2.169,2.169,0,1,1,39.76,6,2.17,2.17,0,0,1,37.591,8.17Z" transform="translate(-31.903 -0.114)"/></g></g></g></svg>