<svg xmlns="http://www.w3.org/2000/svg" width="24" height="24" viewBox="0 0 24 24"><defs><style>.a,.b{fill:#347af0;}.a{opacity:0;}</style></defs><g transform="translate(-79 -228)"><rect class="a" width="24" height="24" transform="translate(79 228)"/><g transform="translate(81 229.886)"><g transform="translate(0 5.759)"><path class="b" d="M13.151,23.519a5.986,5.986,0,0,0-.038-1.447l1.1-.489a7.22,7.22,0,0,0-1.323-2.972l-1.1.488a6.006,6.006,0,0,0-1.05-1l.43-1.12a7.252,7.252,0,0,0-3.037-1.167L7.7,16.937a5.987,5.987,0,0,0-1.447.038l-.486-1.091A7.247,7.247,0,0,0,2.8,17.216L3.282,18.3a6,6,0,0,0-1,1.05l-1.117-.429a7.123,7.123,0,0,0-.76,1.451A7.332,7.332,0,0,0,0,21.956l1.12.43a5.986,5.986,0,0,0,.038,1.447l-1.1.488a7.214,7.214,0,0,0,1.324,2.972l1.1-.488a5.985,5.985,0,0,0,1.05,1L3.1,28.923A7.252,7.252,0,0,0,6.139,30.09l.43-1.121a6,6,0,0,0,1.447-.038L8.5,30.02a7.246,7.246,0,0,0,2.969-1.331l-.483-1.084a6,6,0,0,0,1-1.05l1.117.429a7.129,7.129,0,0,0,.76-1.451,7.254,7.254,0,0,0,.409-1.585Zm-2.978.6a3.254,3.254,0,1,1-1.873-4.2A3.254,3.254,0,0,1,10.174,24.118Z" transform="translate(0 -15.816)"/></g><g transform="translate(11.469 0.114)"><path class="b" d="M39.654,4.529a3.5,3.5,0,0,0-.06-.636l.84-.485a4.41,4.41,0,0,0-1.16-2.014l-.842.486a3.462,3.462,0,0,0-1.1-.635V.274a4.3,4.3,0,0,0-2.324,0v.972a3.472,3.472,0,0,0-1.1.635l-.843-.486A4.419,4.419,0,0,0,31.9,3.408l.84.485a3.359,3.359,0,0,0,0,1.272l-.84.485a4.417,4.417,0,0,0,1.16,2.014l.842-.486a3.465,3.465,0,0,0,1.1.635v.972a4.3,4.3,0,0,0,2.324,0V7.813a3.468,3.468,0,0,0,1.1-.635l.842.486a4.41,4.41,0,0,0,1.16-2.014l-.84-.485A3.474,3.474,0,0,0,39.654,4.529ZM36.169,6.156A1.627,1.627,0,1,1,37.8,4.529,1.627,1.627,0,0,1,36.169,6.156Z" transform="translate(-31.903 -0.114)"/></g></g></g></svg>