<svg xmlns="http://www.w3.org/2000/svg" width="40" height="40" viewBox="0 0 40 40"><defs><style>.a,.d{fill:none;}.a{stroke:rgba(67,138,254,0.3);stroke-width:4px;}.b{fill:#438afe;}.c{stroke:none;}</style></defs><g transform="translate(4 3.999)"><g class="a" transform="translate(-4 -3.999)"><circle class="c" cx="20" cy="20" r="20"/><circle class="d" cx="20" cy="20" r="18"/></g><path class="b" d="M16,0A16,16,0,1,0,32,16,16,16,0,0,0,16,0Zm0,4.784a5.292,5.292,0,1,1-5.292,5.292A5.293,5.293,0,0,1,16,4.785Zm0,23.033A11.743,11.743,0,0,1,8.35,25a2.255,2.255,0,0,1-.791-1.714,5.337,5.337,0,0,1,5.363-5.336h6.158a5.33,5.33,0,0,1,5.355,5.336A2.25,2.25,0,0,1,23.645,25,11.739,11.739,0,0,1,16,27.818Z"/></g></svg>