<svg xmlns="http://www.w3.org/2000/svg" width="24" height="24" viewBox="0 0 24 24"><defs><style>.a,.b{fill:#ffa330;}.a{stroke:#707070;opacity:0;}.c{stroke:none;}.d{fill:none;}</style></defs><g transform="translate(-333 -306)"><g class="a" transform="translate(333 306)"><rect class="c" width="24" height="24"/><rect class="d" x="0.5" y="0.5" width="23" height="23"/></g><g transform="translate(335.667 308.667)"><path class="b" d="M13.892,9.09l6.9,1.371a1.158,1.158,0,0,1,.933,1.144V19.6a1.174,1.174,0,0,1-1.176,1.176H13.5a.388.388,0,0,0,.392-.392v-.392h6.661a.393.393,0,0,0,.392-.392V11.606a.394.394,0,0,0-.306-.384L13.892,9.889Z" transform="translate(-2.92 -2.108)"/><path class="b" d="M18.959,14a.392.392,0,0,1,0,.784H17.392a.392.392,0,0,1,0-.784Z" transform="translate(-3.678 -3.17)"/><path class="b" d="M18.959,17a.392.392,0,0,1,0,.784H17.392a.392.392,0,0,1,0-.784Z" transform="translate(-3.678 -3.819)"/><path class="b" d="M18.959,20a.392.392,0,0,1,0,.784H17.392a.392.392,0,0,1,0-.784Z" transform="translate(-3.678 -4.468)"/><path class="b" d="M13.784,20.363a.392.392,0,1,1-.784,0V9.392a.417.417,0,0,1,.141-.306.412.412,0,0,1,.329-.078l.313.063V20.363Z" transform="translate(-2.812 -2.088)"/><path class="b" d="M12.243,23v.392a.388.388,0,0,0,.392.392H9.5a.388.388,0,0,0,.392-.392V23Z" transform="translate(-2.055 -5.117)"/><path class="b" d="M9.959,5a.392.392,0,1,1,0,.784H8.392a.392.392,0,0,1,0-.784Z" transform="translate(-1.731 -1.223)"/><path class="b" d="M10.351,8.392a.388.388,0,0,1-.392.392H8.392a.392.392,0,0,1,0-.784H9.959A.388.388,0,0,1,10.351,8.392Z" transform="translate(-1.731 -1.872)"/><path class="b" d="M9.959,11a.392.392,0,0,1,0,.784H8.392a.392.392,0,0,1,0-.784Z" transform="translate(-1.731 -2.521)"/><path class="b" d="M9.959,14a.392.392,0,1,1,0,.784H8.392a.392.392,0,0,1,0-.784Z" transform="translate(-1.731 -3.17)"/><path class="b" d="M5.351,14.392a.388.388,0,0,1-.392.392H3.392a.392.392,0,1,1,0-.784H4.959A.388.388,0,0,1,5.351,14.392Z" transform="translate(-0.649 -3.17)"/><path class="b" d="M4.959,5a.392.392,0,1,1,0,.784H3.392a.392.392,0,1,1,0-.784Z" transform="translate(-0.649 -1.223)"/><path class="b" d="M4.959,8a.392.392,0,1,1,0,.784H3.392a.392.392,0,1,1,0-.784Z" transform="translate(-0.649 -1.872)"/><path class="b" d="M4.959,11a.392.392,0,1,1,0,.784H3.392a.392.392,0,1,1,0-.784Z" transform="translate(-0.649 -2.521)"/><path class="b" d="M7.918,18.176a.393.393,0,0,0-.392-.392H5.176a.388.388,0,0,0-.392.392V21.7H4V18.176A1.174,1.174,0,0,1,5.176,17H7.527A1.174,1.174,0,0,1,8.7,18.176V21.7H7.918Z" transform="translate(-0.865 -3.819)"/><path class="b" d="M4.784,23H8.7v.392a.388.388,0,0,1-.392.392H4.392A.388.388,0,0,1,4,23.392V23Z" transform="translate(-0.865 -5.117)"/><path class="b" d="M1.371.2,9.984,1.5a1.171,1.171,0,0,1,.987,1.16v4.5L10.658,7.1a.412.412,0,0,0-.329.078.417.417,0,0,0-.141.306V2.664a.4.4,0,0,0-.329-.392L1.246.972A.217.217,0,0,0,1.176.964a.37.37,0,0,0-.251.094.375.375,0,0,0-.141.3V17.672a.393.393,0,0,0,.392.392H3.135v.392a.388.388,0,0,0,.392.392H1.176A1.174,1.174,0,0,1,0,17.672V1.356A1.154,1.154,0,0,1,.415.462,1.176,1.176,0,0,1,1.371.2Z" transform="translate(0 -0.181)"/></g></g></svg>