<svg xmlns="http://www.w3.org/2000/svg" width="18" height="18" viewBox="0 0 18 18"><defs><style>.a,.b{fill:#2a374e;}.a{stroke:#707070;opacity:0;}.c{stroke:none;}.d{fill:none;}</style></defs><g transform="translate(-406 -200)"><g transform="translate(2217 3798)"><g class="a" transform="translate(-1811 -3598)"><rect class="c" width="18" height="18"/><rect class="d" x="0.5" y="0.5" width="17" height="17"/></g><g transform="translate(-1808.75 -3595.75)"><g transform="translate(0.026 7.903)"><g transform="translate(0)"><path class="b" d="M4.255,0h-.8L1.5,5.6H2.61L2.9,4.756h1.88l.29.841H6.186ZM3.272,3.705l.579-1.654.571,1.654Z" transform="translate(-1.496)"/></g></g><g transform="translate(13.461 13.488) rotate(180)"><path class="b" d="M269.343,9.479l-2,2V0H266.3V11.476l-2-2-.743.743,3.266,3.266,3.266-3.266Z" transform="translate(-263.555)"/></g><g transform="translate(0 0)"><g transform="translate(0)"><path class="b" d="M5.281,299.247H.5V300.3H3.7l-3.2,3.72v.825h4.73v-1.051H2.08l3.2-3.72Z" transform="translate(-0.499 -299.247)"/></g></g></g></g></g></svg>