<svg xmlns="http://www.w3.org/2000/svg" xmlns:xlink="http://www.w3.org/1999/xlink" width="1440" height="574" viewBox="0 0 1440 574">
  <defs>
    <radialGradient id="radial-gradient" cx="0.463" cy="0.523" r="1.007" gradientUnits="objectBoundingBox">
      <stop offset="0" stop-color="#1a3855"/>
      <stop offset="0.086" stop-color="#17324c"/>
      <stop offset="1" stop-color="#0e1e2e"/>
      <stop offset="1" stop-color="#050b11"/>
    </radialGradient>
    <linearGradient id="linear-gradient" x1="0.596" y1="0.5" x2="0.412" y2="0.474" gradientUnits="objectBoundingBox">
      <stop offset="0" stop-color="#0090f0"/>
      <stop offset="0" stop-color="#006ab1"/>
      <stop offset="1" stop-color="#004878"/>
    </linearGradient>
  </defs>
  <g id="Cover" transform="translate(9175 191)">
    <rect id="Base" width="1440" height="574" transform="translate(-9175 -191)" fill="url(#radial-gradient)"/>
    <g id="Icons" transform="translate(-8209.135 -114)" opacity="0.169">
      <path id="Path_4890" data-name="Path 4890" d="M517.612,148.971l-.1-.1-.1-.1-.1-.1H517.1a.1.1,0,0,1-.1-.1c-.1,0-.1,0-.205-.1-.1,0-.1,0-.205-.1h-1.644c-.1,0-.1,0-.205.1-.1,0-.1,0-.205.1a.1.1,0,0,0-.1.1h-.205l-.1.1-.1.1-.1.1-.1.1h0l-40.983-22.513h0v-1.566c0-.1,0-.1-.1-.2,0-.1,0-.1-.1-.2a.1.1,0,0,0-.1-.1v-.2l-.1-.1-.1-.1-.1-.1-.1-.1-.1-.1-.1-.1-.1-.1H471.6a.1.1,0,0,1-.1-.1c-.1,0-.1,0-.205-.1-.1,0-.1,0-.205-.1h-.1V78.495h.1c.1,0,.1,0,.205-.1.1,0,.1,0,.205-.1a.1.1,0,0,0,.1-.1h.206l.1-.1.1-.1.1-.1.1-.1.1-.1.1-.1.1-.1v-.2a.1.1,0,0,1,.1-.1c0-.1,0-.1.1-.2,0-.1,0-.1.1-.2V75.265h0l40.983-22.513a2.759,2.759,0,0,0,3.081.489,2.248,2.248,0,0,0,.924-3.23,2.481,2.481,0,0,0-3.39-.881,2.374,2.374,0,0,0-1.13,2.741L472.315,74.384h0l-.1-.1-.1-.1-.1-.1-.1-.1H471.7a.1.1,0,0,1-.1-.1c-.1,0-.1,0-.205-.1-.1,0-.1,0-.205-.1h-1.644c-.1,0-.1,0-.205.1-.1,0-.1,0-.205.1a.1.1,0,0,0-.1.1h-.205l-.1.1-.1.1-.1.1-.1.1h0L427.428,51.87h0V50.3c0-.1,0-.1-.1-.2,0-.1,0-.1-.1-.2a.1.1,0,0,0-.1-.1v-.2l-.1-.1-.1-.1-.1-.1-.1-.1-.1-.1-.1-.1-.1-.1H426.2a.1.1,0,0,1-.1-.1c-.1,0-.1,0-.205-.1-.1,0-.1,0-.205-.1h-.1V3.907h.1c.1,0,.1,0,.205-.1.1,0,.1,0,.205-.1a.1.1,0,0,0,.1-.1h.205l.1-.1.1-.1.1-.1.1-.1.1-.1.1-.1.1-.1v-.2a.1.1,0,0,1,.1-.1c0-.1,0-.1.1-.2,0-.1,0-.1.1-.2V.677h0l40.983-22.513h0l.1.1.1.1.1.1.1.1h.205a.1.1,0,0,1,.1.1c.1,0,.1,0,.205.1.1,0,.1,0,.205.1h1.644c.1,0,.1,0,.205-.1.1,0,.1,0,.205-.1a.1.1,0,0,0,.1-.1h.205l.1-.1.1-.1.1-.1.1-.1h0L513.3.677a2.328,2.328,0,0,0,1.13,2.741,2.481,2.481,0,0,0,3.39-.881,2.248,2.248,0,0,0-.924-3.23,2.467,2.467,0,0,0-3.081.489L472.828-22.717h0v-1.566c0-.1,0-.1-.1-.2,0-.1,0-.1-.1-.2a.1.1,0,0,0-.1-.1v-.2l-.1-.1-.1-.1-.1-.1-.1-.1-.1-.1-.1-.1-.1-.1H471.6a.1.1,0,0,1-.1-.1.326.326,0,0,1-.205-.1c-.1,0-.1,0-.205-.1h-1.644c-.1,0-.1,0-.205.1-.1,0-.1,0-.205.1a.1.1,0,0,0-.1.1h-.205l-.1.1-.1.1-.1.1-.1.1-.1.1-.1.1-.1.1v.2a.1.1,0,0,1-.1.1c0,.1,0,.1-.1.2,0,.1,0,.1-.1.2v1.566h0L426.709-.2h0l-.1-.1-.1-.1-.1-.1-.1-.1h-.205a.1.1,0,0,1-.1-.1c-.1,0-.1,0-.205-.1-.1,0-.1,0-.205-.1h-1.644c-.1,0-.1,0-.205.1-.1,0-.1,0-.205.1a.1.1,0,0,0-.1.1h-.205l-.1.1-.1.1-.1.1-.1.1h0L381.823-22.717h0v-1.566c0-.1,0-.1-.1-.2,0-.1,0-.1-.1-.2a.1.1,0,0,0-.1-.1v-.2l-.1-.1-.1-.1-.1-.1-.1-.1-.1-.1-.1-.1-.1-.1h-.205a.1.1,0,0,1-.1-.1c-.1,0-.1,0-.205-.1-.1,0-.1,0-.205-.1h-.1V-42h-1.13v16.053h-.1c-.1,0-.1,0-.205.1-.1,0-.1,0-.205.1a.1.1,0,0,0-.1.1h-.205l-.1.1-.1.1-.1.1-.1.1-.1.1-.1.1-.1.1v.2a.1.1,0,0,1-.1.1c0,.1,0,.1-.1.2,0,.1,0,.1-.1.2v1.566h0L336.012-.2h0l-.1-.1-.1-.1-.1-.1-.1-.1H335.4a.1.1,0,0,1-.1-.1c-.1,0-.1,0-.205-.1-.1,0-.1,0-.205-.1h-1.643c-.1,0-.1,0-.205.1-.1,0-.1,0-.205.1a.1.1,0,0,0-.1.1h-.205l-.1.1-.1.1-.1.1-.1.1h0L291.126-22.717h0v-1.566c0-.1,0-.1-.1-.2,0-.1,0-.1-.1-.2a.1.1,0,0,0-.1-.1v-.2l-.1-.1-.1-.1-.1-.1-.1-.1-.1-.1-.1-.1-.1-.1h-.205a.1.1,0,0,1-.1-.1.326.326,0,0,1-.205-.1c-.1,0-.1,0-.205-.1h-.1V-42h-1.13v16.053h-.1c-.1,0-.1,0-.205.1-.1,0-.1,0-.205.1a.1.1,0,0,0-.1.1h-.205l-.1.1-.1.1-.1.1-.1.1-.1.1-.1.1-.1.1v.2a.1.1,0,0,1-.1.1c0,.1,0,.1-.1.2,0,.1,0,.1-.1.2v1.566h0L245.315-.2h0l-.1-.1-.1-.1-.1-.1-.1-.1H244.7a.1.1,0,0,1-.1-.1c-.1,0-.1,0-.205-.1-.1,0-.1,0-.205-.1h-1.643c-.1,0-.1,0-.205.1-.1,0-.1,0-.205.1a.1.1,0,0,0-.1.1h-.205l-.1.1-.1.1-.1.1-.1.1h0L200.429-22.717a2.328,2.328,0,0,0-1.13-2.741,2.481,2.481,0,0,0-3.39.881,2.248,2.248,0,0,0,.924,3.23,2.467,2.467,0,0,0,3.081-.489L240.9.677h0V2.243c0,.1,0,.1.1.2,0,.1,0,.1.1.2a.1.1,0,0,0,.1.1v.2l.1.1.1.1.1.1.1.1.1.1.1.1.1.1h.205a.1.1,0,0,1,.1.1.326.326,0,0,1,.205.1c.1,0,.1,0,.205.1h.1V49.032h0c-.1,0-.1,0-.205.1-.1,0-.1,0-.205.1-.1,0-.1.1-.205.1s-.1.1-.205.1-.1.1-.205.2l-.205.2c-.1.1-.1.1-.1.2l-.205.2v.1a.1.1,0,0,1-.1.1.337.337,0,0,1-.1.2c0,.1,0,.1-.1.2,0,.1,0,.2-.1.2v.979c0,.1,0,.1.1.2a.337.337,0,0,0,.1.2c0,.1.1.1.1.2s.1.1.1.2.1.1.205.2l.205.2c.1.1.1.1.205.1l.205.2h.1a.1.1,0,0,1,.1.1.364.364,0,0,1,.205.1c.1,0,.1,0,.205.1.1,0,.205,0,.205.1h1.027c.1,0,.1,0,.205-.1a.364.364,0,0,0,.205-.1c.1,0,.1-.1.205-.1s.1-.1.205-.1.1-.1.205-.1l.205-.2h0l40.983,22.513h0v1.566c0,.1,0,.1.1.2,0,.1,0,.1.1.2a.1.1,0,0,0,.1.1v.2l.1.1.1.1.1.1.1.1.1.1.1.1.1.1h.205a.1.1,0,0,1,.1.1c.1,0,.1,0,.205.1.1,0,.1,0,.205.1h.1v45.124h-.1c-.1,0-.1,0-.205.1-.1,0-.1,0-.205.1a.1.1,0,0,0-.1.1h-.205l-.1.1-.1.1-.1.1-.1.1-.1.1-.1.1-.1.1v.2a.1.1,0,0,1-.1.1c0,.1,0,.1-.1.2,0,.1,0,.1-.1.2v1.566h0L245.11,149.754h0l-.1-.1-.1-.1-.1-.1-.1-.1h-.205a.1.1,0,0,1-.1-.1c-.1,0-.1,0-.205-.1-.1,0-.1,0-.205-.1h-1.643c-.1,0-.1,0-.205.1-.1,0-.1,0-.205.1a.1.1,0,0,0-.1.1h-.205l-.1.1-.1.1-.1.1-.1.1h0l-40.983-22.513a2.328,2.328,0,0,0-1.13-2.741,2.481,2.481,0,0,0-3.39.881,2.248,2.248,0,0,0,.924,3.23,2.467,2.467,0,0,0,3.081-.489l40.983,22.513h0V152.2c0,.1,0,.1.1.2,0,.1,0,.1.1.2a.1.1,0,0,0,.1.1v.2l.1.1.1.1.1.1.1.1.1.1.1.1.1.1h.205a.1.1,0,0,1,.1.1c.1,0,.1,0,.205.1.1,0,.1,0,.205.1h.1V198.99h-.1c-.1,0-.1,0-.205.1-.1,0-.1,0-.205.1a.1.1,0,0,0-.1.1h-.205l-.1.1-.1.1-.1.1-.1.1-.1.1-.1.1-.1.1v.2a.1.1,0,0,1-.1.1c0,.1,0,.1-.1.2,0,.1,0,.1-.1.2v1.566h0L199.71,224.733h0l-.1-.1-.1-.1-.1-.1-.1-.1h-.205a.1.1,0,0,1-.1-.1c-.1,0-.1,0-.205-.1-.1,0-.1,0-.205-.1h-1.643c-.1,0-.1,0-.205.1-.1,0-.1,0-.205.1a.1.1,0,0,0-.1.1h-.205l-.1.1-.1.1-.1.1-.1.1h0L154.824,202.22a2.328,2.328,0,0,0-1.13-2.741,2.481,2.481,0,0,0-3.39.881,2.248,2.248,0,0,0,.924,3.23,2.467,2.467,0,0,0,3.081-.489l40.983,22.513h0v1.566c0,.1,0,.1.1.2,0,.1,0,.1.1.2a.1.1,0,0,0,.1.1v.2l.1.1.1.1.1.1.1.1.1.1.1.1.1.1h.205a.1.1,0,0,1,.1.1c.1,0,.1,0,.205.1.1,0,.1,0,.205.1h.1v45.124h-.1c-.1,0-.1,0-.205.1-.1,0-.1,0-.205.1a.1.1,0,0,0-.1.1h-.205l-.1.1-.1.1-.1.1-.1.1-.1.1-.1.1-.1.1v.2a.1.1,0,0,1-.1.1c0,.1,0,.1-.1.2,0,.1,0,.1-.1.2V277.2h0l-40.983,22.513h0l-.1-.1-.1-.1-.1-.1-.1-.1h-.205a.1.1,0,0,1-.1-.1c-.1,0-.1,0-.205-.1-.1,0-.1,0-.205-.1H151.64c-.1,0-.1,0-.205.1-.1,0-.1,0-.205.1a.1.1,0,0,0-.1.1h-.205l-.1.1-.1.1-.1.1-.1.1h0L109.527,277.2a2.328,2.328,0,0,0-1.13-2.741,2.481,2.481,0,0,0-3.39.881,2.248,2.248,0,0,0,.924,3.23,2.467,2.467,0,0,0,3.081-.489L150,300.593h0v1.468c0,.1,0,.1.1.2,0,.1,0,.1.1.2a.1.1,0,0,0,.1.1v.2l.1.1.1.1.1.1.1.1.1.1.1.1.1.1h.205a.1.1,0,0,1,.1.1c.1,0,.1,0,.205.1.1,0,.1,0,.205.1h.1V328h1.13V302.159h.1c.1,0,.1,0,.205-.1.1,0,.1,0,.205-.1a.1.1,0,0,0,.1-.1h.205l.1-.1.1-.1.1-.1.1-.1.1-.1.1-.1.1-.1v-.2a.1.1,0,0,1,.1-.1c0-.1,0-.1.1-.2,0-.1,0-.1.1-.2v-1.566h0l40.983-22.513h0l.1.1.1.1.1.1.1.1h.205a.1.1,0,0,1,.1.1c.1,0,.1,0,.205.1.1,0,.1,0,.205.1h1.643c.1,0,.1,0,.205-.1.1,0,.1,0,.205-.1a.1.1,0,0,0,.1-.1h.205l.1-.1.1-.1.1-.1.1-.1h0l40.983,22.513h0v1.566c0,.1,0,.1.1.2,0,.1,0,.1.1.2a.1.1,0,0,0,.1.1v.2l.1.1.1.1.1.1.1.1.1.1.1.1.1.1h.205a.1.1,0,0,1,.1.1c.1,0,.1,0,.205.1.1,0,.1,0,.205.1h.1V328h1.13V302.159h.1c.1,0,.1,0,.205-.1.1,0,.1,0,.205-.1a.1.1,0,0,0,.1-.1h.205l.1-.1.1-.1.1-.1.1-.1.1-.1.1-.1.1-.1v-.2a.1.1,0,0,1,.1-.1c0-.1,0-.1.1-.2,0-.1,0-.1.1-.2v-1.566h0L286.5,276.415h0l.1.1.1.1.1.1.1.1h.205a.1.1,0,0,1,.1.1c.1,0,.1,0,.205.1.1,0,.1,0,.205.1h1.644c.1,0,.1,0,.205-.1.1,0,.1,0,.205-.1a.1.1,0,0,0,.1-.1H290l.1-.1.1-.1.1-.1.1-.1h0l40.983,22.513h0v1.566c0,.1,0,.1.1.2,0,.1,0,.1.1.2a.1.1,0,0,0,.1.1v.2l.1.1.1.1.1.1.1.1.1.1.1.1.1.1h.205a.1.1,0,0,1,.1.1c.1,0,.1,0,.205.1.1,0,.1,0,.205.1h.1V328h1.13V302.159h.1c.1,0,.1,0,.205-.1.1,0,.1,0,.205-.1a.1.1,0,0,0,.1-.1h.205l.1-.1.1-.1.1-.1.1-.1.1-.1.1-.1.1-.1v-.2a.1.1,0,0,1,.1-.1c0-.1,0-.1.1-.2,0-.1,0-.1.1-.2v-1.566h0L377.2,276.415h0l.1.1.1.1.1.1.1.1h.205a.1.1,0,0,1,.1.1c.1,0,.1,0,.205.1.1,0,.1,0,.205.1h1.644c.1,0,.1,0,.205-.1.1,0,.1,0,.205-.1a.1.1,0,0,0,.1-.1h.205l.1-.1.1-.1.1-.1.1-.1h0l40.983,22.513h0v1.566c0,.1,0,.1.1.2,0,.1,0,.1.1.2a.1.1,0,0,0,.1.1v.2l.1.1.1.1.1.1.1.1.1.1.1.1.1.1h.205a.1.1,0,0,1,.1.1c.1,0,.1,0,.205.1.1,0,.1,0,.206.1h.1V328h1.13V302.159h.1c.1,0,.1,0,.205-.1.1,0,.1,0,.205-.1a.1.1,0,0,0,.1-.1h.205l.1-.1.1-.1.1-.1.1-.1.1-.1.1-.1.1-.1v-.2a.1.1,0,0,1,.1-.1c0-.1,0-.1.1-.2,0-.1,0-.1.1-.2v-1.566h0L467.9,276.415h0l.1.1.1.1.1.1.1.1h.206a.1.1,0,0,1,.1.1c.1,0,.1,0,.205.1.1,0,.1,0,.205.1h1.644c.1,0,.1,0,.205-.1.1,0,.1,0,.206-.1a.1.1,0,0,0,.1-.1h.205l.1-.1.1-.1.1-.1.1-.1h0l40.983,22.513a2.328,2.328,0,0,0,1.13,2.741,2.481,2.481,0,0,0,3.39-.881,2.248,2.248,0,0,0-.924-3.23,2.467,2.467,0,0,0-3.081.489l-40.983-22.513h0v-1.566c0-.1,0-.1-.1-.2,0-.1,0-.1-.1-.2a.1.1,0,0,0-.1-.1v-.2l-.1-.1-.1-.1-.1-.1-.1-.1-.1-.1-.1-.1-.1-.1h-.205a.1.1,0,0,1-.1-.1c-.1,0-.1,0-.205-.1-.1,0-.1,0-.205-.1h-.1V227.18h.1c.1,0,.1,0,.205-.1.1,0,.1,0,.205-.1a.1.1,0,0,0,.1-.1h.205l.1-.1.1-.1.1-.1.1-.1.1-.1.1-.1.1-.1V226a.1.1,0,0,1,.1-.1c0-.1,0-.1.1-.2,0-.1,0-.1.1-.2v-1.566h0L513.3,201.436h0l.205.2c.1.1.1.1.205.1s.1.1.206.1.1.1.205.1.1.1.206.1.1.1.205.1h1.027c.1,0,.205,0,.205-.1.1,0,.1,0,.205-.1a.364.364,0,0,0,.205-.1.1.1,0,0,0,.1-.1h.1c.1,0,.1-.1.205-.2.1,0,.1-.1.205-.1l.206-.2c.1-.1.1-.1.1-.2s.1-.1.1-.2.1-.1.1-.2.1-.1.1-.2.1-.1.1-.2v-.979c0-.1,0-.2-.1-.2,0-.1,0-.1-.1-.2a.337.337,0,0,0-.1-.2.1.1,0,0,0-.1-.1v-.1c0-.1-.1-.1-.206-.2,0-.1-.1-.1-.1-.2l-.205-.2-.205-.2c-.1,0-.1-.1-.205-.1s-.1-.1-.205-.1-.1-.1-.205-.1-.1-.1-.205-.1h0V152.2h.1c.1,0,.1,0,.205-.1.1,0,.1,0,.205-.1a.1.1,0,0,0,.1-.1h.205l.1-.1.1-.1.1-.1.1-.1.1-.1.1-.1.1-.1v-.2a.1.1,0,0,1,.1-.1c0-.1,0-.1.1-.2,0-.1,0-.1.1-.2V148.97h0l-3.287,1.273c.822.783-.1-.294.924-.783h1.233Zm-92.34-95.339h1.13c.1,0,.1,0,.205-.1.1,0,.1,0,.205-.1a.1.1,0,0,0,.1-.1h.205l.1-.1.1-.1.1-.1.1-.1h0L468.515,75.46h0v1.566c0,.1,0,.1.1.2,0,.1,0,.1.1.2a.1.1,0,0,0,.1.1v.2l.1.1.1.1.1.1.1.1.1.1.1.1.1.1h.205a.1.1,0,0,1,.1.1c.1,0,.1,0,.205.1.1,0,.1,0,.205.1h.1v45.124h-.1c-.1,0-.1,0-.205.1-.1,0-.1,0-.205.1a.1.1,0,0,0-.1.1h-.205l-.1.1-.1.1-.1.1-.1.1-.1.1-.1.1-.1.1v.2a.1.1,0,0,1-.1.1c0,.1,0,.1-.1.2,0,.1,0,.1-.1.2v1.566h0l-40.983,22.513h0l-.1-.1-.1-.1-.1-.1-.1-.1h-.205a.1.1,0,0,1-.1-.1c-.1,0-.1,0-.205-.1-.1,0-.1,0-.205-.1h-1.643c-.1,0-.1,0-.205.1-.1,0-.1,0-.205.1a.1.1,0,0,0-.1.1h-.205l-.1.1-.1.1-.1.1-.1.1h0l-40.983-22.513h0v-1.566c0-.1,0-.1-.1-.2,0-.1,0-.1-.1-.2a.1.1,0,0,0-.1-.1v-.2l-.1-.1-.1-.1-.1-.1-.1-.1-.1-.1-.1-.1-.1-.1h-.205a.1.1,0,0,1-.1-.1c-.1,0-.1,0-.205-.1-.1,0-.1,0-.205-.1h-.1V78.495h.1c.1,0,.1,0,.205-.1.1,0,.1,0,.205-.1a.1.1,0,0,0,.1-.1h.205l.1-.1.1-.1.1-.1.1-.1.1-.1.1-.1.1-.1v-.2a.1.1,0,0,1,.1-.1c0-.1,0-.1.1-.2,0-.1,0-.1.1-.2V75.265h0l40.983-22.513h0l.1.1.1.1.1.1.1.1h.205a.1.1,0,0,1,.1.1c.1,0,.1,0,.205.1.1,0,.1,0,.205.1h.308C425.169,53.632,425.272,53.632,425.272,53.632ZM335.705,3.907h.205c.1,0,.1,0,.205-.1.1,0,.1,0,.205-.1a.1.1,0,0,0,.1-.1h.205l.1-.1.1-.1.1-.1.1-.1.1-.1.1-.1.1-.1v-.2a.1.1,0,0,1,.1-.1c0-.1,0-.1.1-.2,0-.1,0-.1.1-.2V.677h0L378.64-21.836h0l.1.1.1.1.1.1.1.1h.205a.1.1,0,0,1,.1.1c.1,0,.1,0,.205.1.1,0,.1,0,.205.1h1.644c.1,0,.1,0,.205-.1.1,0,.1,0,.205-.1a.1.1,0,0,0,.1-.1h.205l.1-.1.1-.1.1-.1.1-.1h0L423.526.677h0V2.243c0,.1,0,.1.1.2,0,.1,0,.1.1.2a.1.1,0,0,0,.1.1v.2l.1.1.1.1.1.1.1.1.1.1.1.1.1.1h.205a.1.1,0,0,1,.1.1.326.326,0,0,1,.205.1c.1,0,.1,0,.205.1h.1V49.032h-.1c-.1,0-.1,0-.205.1-.1,0-.1,0-.205.1a.1.1,0,0,0-.1.1h-.205l-.1.1-.1.1-.1.1-.1.1-.1.1-.1.1-.1.1v.2a.1.1,0,0,1-.1.1c0,.1,0,.1-.1.2,0,.1,0,.1-.1.2v1.566h0L382.543,74.775h0l-.1-.1-.1-.1-.1-.1-.1-.1h-.205a.1.1,0,0,1-.1-.1c-.1,0-.1,0-.205-.1-.1,0-.1,0-.205-.1H379.77c-.1,0-.1,0-.205.1-.1,0-.1,0-.205.1a.1.1,0,0,0-.1.1h-.205l-.1.1-.1.1-.1.1-.1.1h0L337.657,52.262h0V50.7c0-.1,0-.1-.1-.2,0-.1,0-.1-.1-.2a.1.1,0,0,0-.1-.1v-.2l-.1-.1-.1-.1-.1-.1-.1-.1-.1-.1-.1-.1-.1-.1h-.205a.1.1,0,0,1-.1-.1c-.1,0-.1,0-.205-.1-.1,0-.1,0-.205-.1h-.1V3.907Zm-.719,49.725h1.13c.1,0,.1,0,.205-.1.1,0,.1,0,.205-.1a.1.1,0,0,0,.1-.1h.205l.1-.1.1-.1.1-.1.1-.1h0L378.229,75.46h0v1.566c0,.1,0,.1.1.2,0,.1,0,.1.1.2a.1.1,0,0,0,.1.1v.2l.1.1.1.1.1.1.1.1.1.1.1.1.1.1h.205a.1.1,0,0,1,.1.1c.1,0,.1,0,.205.1.1,0,.1,0,.205.1h.1v45.124h-.1c-.1,0-.1,0-.205.1-.1,0-.1,0-.205.1a.1.1,0,0,0-.1.1h-.205l-.1.1-.1.1-.1.1-.1.1-.1.1-.1.1-.1.1v.2a.1.1,0,0,1-.1.1c0,.1,0,.1-.1.2,0,.1,0,.1-.1.2v1.566h0l-40.983,22.513h0l-.1-.1-.1-.1-.1-.1-.1-.1h-.205a.1.1,0,0,1-.1-.1c-.1,0-.1,0-.205-.1-.1,0-.1,0-.205-.1h-1.644c-.1,0-.1,0-.205.1-.1,0-.1,0-.205.1a.1.1,0,0,0-.1.1h-.205l-.1.1-.1.1-.1.1-.1.1h0L292.36,127.045h0v-1.566c0-.1,0-.1-.1-.2,0-.1,0-.1-.1-.2a.1.1,0,0,0-.1-.1v-.2l-.1-.1-.1-.1-.1-.1-.1-.1-.1-.1-.1-.1-.1-.1h-.205a.1.1,0,0,1-.1-.1c-.1,0-.1,0-.205-.1-.1,0-.1,0-.205-.1h-.1V78.495h.1c.1,0,.1,0,.205-.1.1,0,.1,0,.205-.1a.1.1,0,0,0,.1-.1h.205l.1-.1.1-.1.1-.1.1-.1.1-.1.1-.1.1-.1v-.2a.1.1,0,0,1,.1-.1c0-.1,0-.1.1-.2,0-.1,0-.1.1-.2V75.265h0l40.983-22.513h0l.1.1.1.1.1.1.1.1h.205a.1.1,0,0,1,.1.1c.1,0,.1,0,.205.1.1,0,.1,0,.205.1h.308C334.884,53.632,334.884,53.632,334.986,53.632Zm-45.5,20.262h-.1c-.1,0-.1,0-.205.1-.1,0-.1,0-.205.1a.1.1,0,0,0-.1.1h-.205l-.1.1-.1.1-.1.1-.1.1h0L247.268,52.066v-.1c0-.1,0-.2.1-.2v-.979c0-.1,0-.1-.1-.2a.337.337,0,0,0-.1-.2c0-.1-.1-.1-.1-.2s-.1-.1-.1-.2-.1-.1-.1-.2l-.205-.2c-.1-.1-.1-.1-.205-.1l-.205-.2h-.1a.1.1,0,0,1-.1-.1.364.364,0,0,1-.205-.1c-.1,0-.1,0-.205-.1h-.1V3.907h.1c.1,0,.1,0,.205-.1.1,0,.1,0,.205-.1a.1.1,0,0,0,.1-.1h.205l.1-.1.1-.1.1-.1.1-.1.1-.1.1-.1.1-.1v-.2a.1.1,0,0,1,.1-.1c0-.1,0-.1.1-.2,0-.1,0-.1.1-.2V.677h0l40.983-22.513h0l.1.1.1.1.1.1.1.1h.205a.1.1,0,0,1,.1.1c.1,0,.1,0,.205.1.1,0,.1,0,.205.1h1.644c.1,0,.1,0,.205-.1.1,0,.1,0,.205-.1a.1.1,0,0,0,.1-.1h.205l.1-.1.1-.1.1-.1.1-.1h0L333.24.677h0V2.243c0,.1,0,.1.1.2,0,.1,0,.1.1.2a.1.1,0,0,0,.1.1v.2l.1.1.1.1.1.1.1.1.1.1.1.1.1.1h.205a.1.1,0,0,1,.1.1.326.326,0,0,1,.205.1c.1,0,.1,0,.205.1h.1V49.032h-.1c-.1,0-.1,0-.205.1-.1,0-.1,0-.205.1a.1.1,0,0,0-.1.1h-.205l-.1.1-.1.1-.1.1-.1.1-.1.1-.1.1-.1.1v.2a.1.1,0,0,1-.1.1c0,.1,0,.1-.1.2,0,.1,0,.1-.1.2v1.566h0L292.257,74.775h0l-.1-.1-.1-.1-.1-.1-.1-.1h-.205a.1.1,0,0,1-.1-.1c-.1,0-.1,0-.205-.1-.1,0-.1,0-.205-.1h-1.335C289.587,73.894,289.484,73.894,289.484,73.894Zm0,198.8h-.205c-.1,0-.1,0-.205.1-.1,0-.1,0-.205.1a.1.1,0,0,0-.1.1h-.205l-.1.1-.1.1-.1.1-.1.1-.1.1-.1.1-.1.1v.2a.1.1,0,0,1-.1.1c0,.1,0,.1-.1.2,0,.1,0,.1-.1.2v1.566h0l-40.983,22.513h0l-.1-.1-.1-.1-.1-.1-.1-.1h-.205a.1.1,0,0,1-.1-.1c-.1,0-.1,0-.205-.1-.1,0-.1,0-.205-.1h-1.541c-.1,0-.1,0-.205.1-.1,0-.1,0-.205.1a.1.1,0,0,0-.1.1h-.205l-.1.1-.1.1-.1.1-.1.1h0l-40.983-22.513h0V274.36c0-.1,0-.1-.1-.2,0-.1,0-.1-.1-.2a.1.1,0,0,0-.1-.1v-.2l-.1-.1-.1-.1-.1-.1-.1-.1-.1-.1-.1-.1-.1-.1h-.205a.1.1,0,0,1-.1-.1c-.1,0-.1,0-.205-.1-.1,0-.1,0-.205-.1h-.1V227.571h.1c.1,0,.1,0,.205-.1.1,0,.1,0,.205-.1a.1.1,0,0,0,.1-.1h.205l.1-.1.1-.1.1-.1.1-.1.1-.1.1-.1.1-.1v-.2a.1.1,0,0,1,.1-.1c0-.1,0-.1.1-.2,0-.1,0-.1.1-.2v-1.566h0l40.983-22.513h0l.1.1.1.1.1.1.1.1h.205a.1.1,0,0,1,.1.1c.1,0,.1,0,.205.1.1,0,.1,0,.205.1h1.643c.1,0,.1,0,.205-.1.1,0,.1,0,.205-.1a.1.1,0,0,0,.1-.1h.205l.1-.1.1-.1.1-.1.1-.1h0l40.983,22.513h0v1.566c0,.1,0,.1.1.2,0,.1,0,.1.1.2a.1.1,0,0,0,.1.1v.2l.1.1.1.1.1.1.1.1.1.1.1.1.1.1h.205a.1.1,0,0,1,.1.1c.1,0,.1,0,.205.1.1,0,.1,0,.205.1h.1V272.7Zm.924-49.725h-1.335c-.1,0-.1,0-.205.1-.1,0-.1,0-.205.1a.1.1,0,0,0-.1.1h-.205l-.1.1-.1.1-.1.1-.1.1h0L246.96,201.143h0v-1.566c0-.1,0-.1-.1-.2,0-.1,0-.1-.1-.2a.1.1,0,0,0-.1-.1v-.2l-.1-.1-.1-.1-.1-.1-.1-.1-.1-.1-.1-.1-.1-.1h-.205a.1.1,0,0,1-.1-.1c-.1,0-.1,0-.205-.1-.1,0-.1,0-.205-.1h-.1V152.788h.1c.1,0,.1,0,.205-.1.1,0,.1,0,.205-.1a.1.1,0,0,0,.1-.1h.205l.1-.1.1-.1.1-.1.1-.1.1-.1.1-.1.1-.1v-.2a.1.1,0,0,1,.1-.1c0-.1,0-.1.1-.2,0-.1,0-.1.1-.2v-1.566h0l40.983-22.513h0l.1.1.1.1.1.1.1.1h.205a.1.1,0,0,1,.1.1c.1,0,.1,0,.205.1.1,0,.1,0,.205.1h1.644c.1,0,.1,0,.205-.1.1,0,.1,0,.205-.1a.1.1,0,0,0,.1-.1h.205l.1-.1.1-.1.1-.1.1-.1h0l40.983,22.513h0v1.566c0,.1,0,.1.1.2,0,.1,0,.1.1.2a.1.1,0,0,0,.1.1v.2l.1.1.1.1.1.1.1.1.1.1.1.1.1.1h.205a.1.1,0,0,1,.1.1c.1,0,.1,0,.205.1.1,0,.1,0,.205.1h.1v45.124h-.1c-.1,0-.1,0-.205.1-.1,0-.1,0-.205.1a.1.1,0,0,0-.1.1h-.205l-.1.1-.1.1-.1.1-.1.1-.1.1-.1.1-.1.1v.2a.1.1,0,0,1-.1.1c0,.1,0,.1-.1.2,0,.1,0,.1-.1.2v1.566h0l-40.983,22.513h0l-.1-.1-.1-.1-.1-.1-.1-.1h-.205a.1.1,0,0,1-.1-.1c-.1,0-.1,0-.205-.1-.1,0-.1,0-.205-.1h-.308ZM379.77,272.7h-.205c-.1,0-.1,0-.205.1-.1,0-.1,0-.205.1a.1.1,0,0,0-.1.1h-.205l-.1.1-.1.1-.1.1-.1.1-.1.1-.1.1-.1.1v.2a.1.1,0,0,1-.1.1c0,.1,0,.1-.1.2,0,.1,0,.1-.1.2v1.566h0l-40.983,22.513h0l-.1-.1-.1-.1-.1-.1-.1-.1h-.205a.1.1,0,0,1-.1-.1c-.1,0-.1,0-.205-.1-.1,0-.1,0-.205-.1h-1.541c-.1,0-.1,0-.205.1-.1,0-.1,0-.205.1a.1.1,0,0,0-.1.1h-.205l-.1.1-.1.1-.1.1-.1.1h0l-40.983-22.513h0V274.36c0-.1,0-.1-.1-.2,0-.1,0-.1-.1-.2a.1.1,0,0,0-.1-.1v-.2l-.1-.1-.1-.1-.1-.1-.1-.1-.1-.1-.1-.1-.1-.1h-.205a.1.1,0,0,1-.1-.1c-.1,0-.1,0-.205-.1-.1,0-.1,0-.205-.1h-.1V227.571h.1c.1,0,.1,0,.205-.1.1,0,.1,0,.205-.1a.1.1,0,0,0,.1-.1h.205l.1-.1.1-.1.1-.1.1-.1.1-.1.1-.1.1-.1v-.2a.1.1,0,0,1,.1-.1c0-.1,0-.1.1-.2,0-.1,0-.1.1-.2v-1.566h0l40.983-22.513h0l.1.1.1.1.1.1.1.1h.205a.1.1,0,0,1,.1.1c.1,0,.1,0,.205.1.1,0,.1,0,.205.1h1.643c.1,0,.1,0,.205-.1.1,0,.1,0,.205-.1a.1.1,0,0,0,.1-.1h.205l.1-.1.1-.1.1-.1.1-.1h0l40.983,22.513h0v1.566c0,.1,0,.1.1.2,0,.1,0,.1.1.2a.1.1,0,0,0,.1.1v.2l.1.1.1.1.1.1.1.1.1.1.1.1.1.1h.205a.1.1,0,0,1,.1.1c.1,0,.1,0,.205.1.1,0,.1,0,.205.1h.1Zm1.027-49.725h-1.335c-.1,0-.1,0-.205.1-.1,0-.1,0-.205.1a.1.1,0,0,0-.1.1h-.205l-.1.1-.1.1-.1.1-.1.1h0l-40.983-22.513h0v-1.566c0-.1,0-.1-.1-.2,0-.1,0-.1-.1-.2a.1.1,0,0,0-.1-.1v-.2l-.1-.1-.1-.1-.1-.1-.1-.1-.1-.1-.1-.1-.1-.1h-.205a.1.1,0,0,1-.1-.1c-.1,0-.1,0-.205-.1-.1,0-.1,0-.205-.1h-.1V152.788h.1c.1,0,.1,0,.205-.1.1,0,.1,0,.205-.1a.1.1,0,0,0,.1-.1h.205l.1-.1.1-.1.1-.1.1-.1.1-.1.1-.1.1-.1v-.2a.1.1,0,0,1,.1-.1c0-.1,0-.1.1-.2,0-.1,0-.1.1-.2v-1.566h0l40.983-22.513h0l.1.1.1.1.1.1.1.1h.205a.1.1,0,0,1,.1.1c.1,0,.1,0,.205.1.1,0,.1,0,.205.1H381.1c.1,0,.1,0,.205-.1.1,0,.1,0,.205-.1a.1.1,0,0,0,.1-.1h.205l.1-.1.1-.1.1-.1.1-.1h0l40.983,22.513h0v1.566c0,.1,0,.1.1.2,0,.1,0,.1.1.2a.1.1,0,0,0,.1.1v.2l.1.1.1.1.1.1.1.1.1.1.1.1.1.1h.205a.1.1,0,0,1,.1.1c.1,0,.1,0,.205.1.1,0,.1,0,.205.1h.1v45.124h-.1c-.1,0-.1,0-.205.1-.1,0-.1,0-.205.1a.1.1,0,0,0-.1.1h-.205l-.1.1-.1.1-.1.1-.1.1-.1.1-.1.1-.1.1v.2a.1.1,0,0,1-.1.1c0,.1,0,.1-.1.2,0,.1,0,.1-.1.2v1.566h0l-40.983,22.513h0l-.1-.1-.1-.1-.1-.1-.1-.1h-.205a.1.1,0,0,1-.1-.1c-.1,0-.1,0-.205-.1-.1,0-.1,0-.205-.1H380.8ZM470.158,272.7h-.205c-.1,0-.1,0-.205.1-.1,0-.1,0-.205.1a.1.1,0,0,0-.1.1h-.205l-.1.1-.1.1-.1.1-.1.1-.1.1-.1.1-.1.1v.2a.1.1,0,0,1-.1.1c0,.1,0,.1-.1.2,0,.1,0,.1-.1.2v1.566h0l-40.983,22.513h0l-.1-.1-.1-.1-.1-.1-.1-.1h-.205a.1.1,0,0,1-.1-.1c-.1,0-.1,0-.206-.1-.1,0-.1,0-.205-.1h-1.438c-.1,0-.1,0-.205.1-.1,0-.1,0-.205.1a.1.1,0,0,0-.1.1h-.205l-.1.1-.1.1-.1.1-.1.1h0l-40.983-22.513h0V274.36c0-.1,0-.1-.1-.2,0-.1,0-.1-.1-.2a.1.1,0,0,0-.1-.1v-.2l-.1-.1-.1-.1-.1-.1-.1-.1-.1-.1-.1-.1-.1-.1h-.205a.1.1,0,0,1-.1-.1c-.1,0-.1,0-.205-.1-.1,0-.1,0-.205-.1h-.1V227.571h.1c.1,0,.1,0,.205-.1.1,0,.1,0,.205-.1a.1.1,0,0,0,.1-.1h.205l.1-.1.1-.1.1-.1.1-.1.1-.1.1-.1.1-.1v-.2a.1.1,0,0,1,.1-.1c0-.1,0-.1.1-.2,0-.1,0-.1.1-.2v-1.566h0l40.983-22.513h0l.1.1.1.1.1.1.1.1h.205a.1.1,0,0,1,.1.1c.1,0,.1,0,.205.1.1,0,.1,0,.205.1H426.3c.1,0,.1,0,.206-.1.1,0,.1,0,.205-.1a.1.1,0,0,0,.1-.1h.205l.1-.1.1-.1.1-.1.1-.1h0l40.983,22.513h0v1.566c0,.1,0,.1.1.2,0,.1,0,.1.1.2a.1.1,0,0,0,.1.1v.2l.1.1.1.1.1.1.1.1.1.1.1.1.1.1h.206a.1.1,0,0,1,.1.1c.1,0,.1,0,.205.1.1,0,.1,0,.205.1h.1V272.7Zm45.194-74.587h0c-.206,0-.206.1-.308.1a.364.364,0,0,0-.205.1.1.1,0,0,0-.1.1h-.1c-.1,0-.1.1-.206.2-.1,0-.1.1-.205.1l-.205.2-.205.2c0,.1-.1.1-.1.2s-.1.1-.1.2-.1.1-.1.2-.1.1-.1.2v.979c0,.1,0,.2.1.2v.1L472.52,223.656h0l-.1-.1-.1-.1-.1-.1-.1-.1H471.9a.1.1,0,0,1-.1-.1c-.1,0-.1,0-.205-.1-.1,0-.1,0-.205-.1h-1.644c-.1,0-.1,0-.205.1-.1,0-.1,0-.205.1a.1.1,0,0,0-.1.1h-.205l-.1.1-.1.1-.1.1-.1.1h0l-40.983-22.513h0v-1.566c0-.1,0-.1-.1-.2,0-.1,0-.1-.1-.2a.1.1,0,0,0-.1-.1v-.2l-.1-.1-.1-.1-.1-.1-.1-.1-.1-.1-.1-.1-.1-.1H426.4a.1.1,0,0,1-.1-.1c-.1,0-.1,0-.205-.1-.1,0-.1,0-.205-.1h-.1V152.788h.1c.1,0,.1,0,.205-.1.1,0,.1,0,.205-.1a.1.1,0,0,0,.1-.1h.205l.1-.1.1-.1.1-.1.1-.1.1-.1.1-.1.1-.1v-.2a.1.1,0,0,1,.1-.1c0-.1,0-.1.1-.2,0-.1,0-.1.1-.2v-1.566h0l40.983-22.513h0l.1.1.1.1.1.1.1.1h.205a.1.1,0,0,1,.1.1c.1,0,.1,0,.205.1.1,0,.1,0,.205.1h1.644c.1,0,.1,0,.205-.1.1,0,.1,0,.205-.1a.1.1,0,0,0,.1-.1h.206l.1-.1.1-.1.1-.1.1-.1h0L513.5,149.558h0v1.566c0,.1,0,.1.1.2,0,.1,0,.1.1.2a.1.1,0,0,0,.1.1v.2l.1.1.1.1.1.1.1.1.1.1.1.1.1.1h.205a.1.1,0,0,1,.1.1c.1,0,.1,0,.205.1.1,0,.1,0,.205.1h.1Z" transform="translate(-44.036 75)" fill="url(#linear-gradient)"/>
    </g>
  </g>
</svg>
