<svg xmlns="http://www.w3.org/2000/svg" width="55" height="55" viewBox="0 0 55 55">
  <g id="Icon" transform="translate(-204 -599)">
    <rect id="Base" width="55" height="55" transform="translate(204 599)" fill="#0090f0" opacity="0"/>
    <g id="puzzle-pieces" transform="translate(207 602)">
      <path id="Path_4881" data-name="Path 4881" d="M47.439,22.4a6.871,6.871,0,0,0-1.417-1.09L50,17.329l-3.978-3.978a6.859,6.859,0,1,0-9.373-9.373L32.671,0,28.693,3.978a6.859,6.859,0,1,0-9.373,9.373l-5.968,5.968a6.859,6.859,0,1,0-9.373,9.373L0,32.671l3.978,3.978a6.859,6.859,0,1,0,9.373,9.373L17.329,50l3.978-3.978a6.859,6.859,0,1,0,9.373-9.373l5.968-5.968A6.86,6.86,0,1,0,47.439,22.4Zm-4.85,8.78a3.931,3.931,0,0,1-3.867-3.226L38.64,27.5l-1.477-1.477-4.493,4.493L30.784,28.63a6.859,6.859,0,1,0-9.414-9.415l-1.886-1.886,4.493-4.493L22.5,11.36l-.451-.082A3.93,3.93,0,1,1,26.62,6.707l.082.451,1.477,1.477,4.493-4.493,4.493,4.493L38.64,7.158l.082-.451a3.93,3.93,0,1,1,4.571,4.571l-.451.082-1.476,1.477,4.493,4.493-4.493,4.493L42.842,23.3l.451.082a3.93,3.93,0,0,1-.7,7.8ZM26.024,37.163,27.5,38.64l.451.082a3.93,3.93,0,1,1-4.571,4.571l-.082-.451-1.477-1.476-4.493,4.493-4.493-4.493L11.36,42.842l-.082.451a3.93,3.93,0,1,1-4.571-4.571l.451-.082,1.477-1.477L4.142,32.67l4.493-4.493L7.158,26.7l-.451-.082a3.93,3.93,0,1,1,4.571-4.571l.082.451,1.477,1.477,4.493-4.493,4.493,4.493L23.3,22.5l.082-.451a3.93,3.93,0,1,1,4.571,4.571L27.5,26.7l-1.477,1.477,4.493,4.493Z" fill="#0090f0"/>
    </g>
  </g>
</svg>
