<svg xmlns="http://www.w3.org/2000/svg" width="55" height="55" viewBox="0 0 55 55">
  <g id="Icon" transform="translate(9.501 -2)">
    <rect id="Base" width="55" height="55" transform="translate(-9.5 2)" fill="#0090f0" opacity="0"/>
    <g id="Icon-2" data-name="Icon" transform="translate(-1 3)">
      <path id="Path_4869" data-name="Path 4869" d="M23.783,5.612a.989.989,0,0,0-1.207.745,1.04,1.04,0,0,0,.713,1.26A17.263,17.263,0,0,1,35.783,24.462,17.774,17.774,0,0,1,30.261,37.4a15.983,15.983,0,0,0-4.285,6.941H24.484V29.861l2.327-2.43a3.62,3.62,0,0,0,1.848.508A3.937,3.937,0,1,0,24.893,24a4.044,4.044,0,0,0,.508,1.97L22.792,28.7a1.059,1.059,0,0,0-.29.732V44.338H20.123V19.475A3.916,3.916,0,0,0,22.9,15.681a3.77,3.77,0,1,0-7.533,0,3.916,3.916,0,0,0,2.775,3.794V44.338H15.762v-10.6a1.06,1.06,0,0,0-.29-.732l-2.609-2.725a4.044,4.044,0,0,0,.508-1.97,3.857,3.857,0,0,0-3.766-3.934,3.938,3.938,0,0,0,0,7.868,3.622,3.622,0,0,0,1.848-.508l2.327,2.43V44.338H12.288a16.556,16.556,0,0,0-4.381-7.032A17.8,17.8,0,0,1,2.483,24.671,17.544,17.544,0,0,1,14.948,7.64a1.041,1.041,0,0,0,.7-1.266.988.988,0,0,0-1.212-.736A18.886,18.886,0,0,0,4.419,12.607,20.052,20.052,0,0,0,2.18,32.549a19.385,19.385,0,0,0,4.391,6.286A14.482,14.482,0,0,1,10.3,44.664a2.609,2.609,0,0,0-1.276,2.262v3.52A2.542,2.542,0,0,0,11.4,53.031v.416A4.466,4.466,0,0,0,15.762,58H22.5a4.466,4.466,0,0,0,4.361-4.555v-.416a2.542,2.542,0,0,0,2.379-2.585v-3.52a2.609,2.609,0,0,0-1.278-2.263,13.86,13.86,0,0,1,3.622-5.726,19.89,19.89,0,0,0,6.179-14.474A19.319,19.319,0,0,0,23.783,5.612Zm4.876,16.529A1.865,1.865,0,1,1,26.875,24,1.827,1.827,0,0,1,28.659,22.141ZM17.348,15.681a1.786,1.786,0,1,1,1.784,1.863A1.827,1.827,0,0,1,17.348,15.681ZM7.821,28.307a1.786,1.786,0,1,1,1.784,1.863A1.827,1.827,0,0,1,7.821,28.307ZM24.88,53.448A2.436,2.436,0,0,1,22.5,55.932h-6.74a2.436,2.436,0,0,1-2.379-2.484v-.414h11.5Zm2.379-3a.508.508,0,0,1-.5.518H11.5a.508.508,0,0,1-.5-.518v-3.52a.507.507,0,0,1,.5-.518H26.764a.507.507,0,0,1,.5.518Zm0,0" transform="translate(-9 -5.002)" fill="#ffc051"/>
      <path id="Path_4870" data-name="Path 4870" d="M179.147,2.072a1.014,1.014,0,0,0,.991-1.035v0a.992.992,0,1,0-1.982,0A1.014,1.014,0,0,0,179.147,2.072Zm0,0" transform="translate(-169.05)" fill="#ffc051"/>
    </g>
  </g>
</svg>
