<svg xmlns="http://www.w3.org/2000/svg" width="55" height="55" viewBox="0 0 55 55">
  <g id="Icon" transform="translate(-204 -599)">
    <rect id="Base" width="55" height="55" transform="translate(204 599)" fill="#fe7070" opacity="0"/>
    <g id="finance" transform="translate(207 601.159)">
      <path id="Path_4885" data-name="Path 4885" d="M26.988,26.456a10.26,10.26,0,0,0-5.128,1.371.782.782,0,1,0,.782,1.354,8.709,8.709,0,1,1-1.787,1.37.781.781,0,1,0-1.1-1.107,10.257,10.257,0,1,0,7.235-2.986Z" transform="translate(0.697 1.026)" fill="#fe7070"/>
      <path id="Path_4886" data-name="Path 4886" d="M27.58,39.669H25.619a1.154,1.154,0,0,1-1.156-1.153.781.781,0,0,0-1.562,0,2.719,2.719,0,0,0,2.716,2.716h.2v1.5a.781.781,0,0,0,1.563,0v-1.5h.2a2.716,2.716,0,1,0,0-5.431H25.619a1.154,1.154,0,0,1,0-2.307H27.58a1.154,1.154,0,0,1,1.153,1.153.781.781,0,1,0,1.562,0A2.719,2.719,0,0,0,27.58,31.93h-.2v-1.5a.781.781,0,1,0-1.562,0v1.5h-.2a2.716,2.716,0,1,0,0,5.433H27.58a1.153,1.153,0,0,1,0,2.306Z" transform="translate(0.954 1.159)" fill="#fe7070"/>
      <path id="Path_4887" data-name="Path 4887" d="M45.111,15.669a.781.781,0,0,0-.417,1.505c2.114.587,2.59,1.25,2.59,1.429,0,.652-3.057,2.181-8.984,2.181s-8.985-1.529-8.985-2.181,3.056-2.181,8.985-2.181a28.471,28.471,0,0,1,4.191.295.782.782,0,0,0,.23-1.547,30.318,30.318,0,0,0-4.421-.313c-5.08,0-10.548,1.172-10.548,3.744V24.68c0,2.572,5.468,3.744,10.548,3.744,3.415,0,7-.532,8.984-1.661v.956c0,.652-3.057,2.181-8.984,2.181-.68,0-1.343-.021-1.979-.062a.79.79,0,0,0-.833.729.78.78,0,0,0,.729.833c.672.044,1.369.067,2.083.067,3.415,0,7-.532,8.984-1.667v.956c0,.652-3.057,2.187-8.984,2.187,0,0-.326.006-.471,0a.811.811,0,0,0-.8.757.783.783,0,0,0,.758.805H38.3c3.415,0,7-.533,8.984-1.667V33.8c0,.652-3.057,2.181-8.984,2.181a.781.781,0,0,0,0,1.563c3.415,0,7-.533,8.984-1.661V36.91c0,.652-3.057,2.181-8.984,2.181h-.28a.827.827,0,0,0-.79.773.782.782,0,0,0,.773.79h.3c5.072,0,10.54-1.169,10.54-3.741V18.6c0-.865-.648-2.075-3.732-2.934ZM38.3,22.348c3.415,0,7-.532,8.984-1.661v.956c0,.652-3.057,2.188-8.984,2.188s-8.985-1.53-8.985-2.188v-.956C31.3,21.815,34.885,22.348,38.3,22.348Zm0,4.516c-5.929,0-8.985-1.529-8.985-2.181v-.956c1.986,1.129,5.569,1.667,8.985,1.667s7-.532,8.984-1.667v.956C47.281,25.334,44.224,26.863,38.3,26.863Z" transform="translate(1.156 0.542)" fill="#fe7070"/>
      <path id="Path_4888" data-name="Path 4888" d="M16.458,41.882c-.275.01-.552.017-.833.017-8.281,0-14.062-4.751-14.062-11.553,0-5.547,3.75-13.75,9.343-17.12.076-.047.14-.1.208-.156H17.5a.781.781,0,0,0,0-1.562H12.1a2.344,2.344,0,0,0-.34-1.694C9.119,5.722,8.605,3.882,8.7,3.4a.055.055,0,0,0,.033.007,12.187,12.187,0,0,1,3.461.527,12.077,12.077,0,0,0,3.348.521,15.748,15.748,0,0,0,3.795-.56,14.142,14.142,0,0,1,3-.488c-.028.589-.611,2.327-2.629,5.771H13.75a.781.781,0,0,0,0,1.562h5.273a2.327,2.327,0,0,0,.05.872,2.509,2.509,0,0,0,1.18,1.548,19.119,19.119,0,0,1,6.612,7.364.781.781,0,1,0,1.372-.747A20.68,20.68,0,0,0,21.05,11.82a.966.966,0,0,1-.461-.586.792.792,0,0,1,.095-.616C24.6,4.1,23.971,2.975,23.7,2.493a1.305,1.305,0,0,0-1.179-.651,14.906,14.906,0,0,0-3.542.532,14.315,14.315,0,0,1-3.438.521A10.625,10.625,0,0,1,12.6,2.423a13.861,13.861,0,0,0-3.861-.579A1.484,1.484,0,0,0,7.346,2.6c-.262.482-.96,1.764,3.1,8.057a.791.791,0,0,1,.114.625.971.971,0,0,1-.462.605C4.062,15.53,0,24.372,0,30.345c0,7.6,6.573,13.12,15.625,13.12q.45,0,.894-.019a.782.782,0,1,0-.061-1.562Z" transform="translate(0 0)" fill="#fe7070"/>
    </g>
  </g>
</svg>
